<svg width="16" height="16" viewBox="0 0 16 16" fill="none" xmlns="http://www.w3.org/2000/svg">
<path d="M4.00033 7.99968C4.73671 7.99968 5.33366 7.40272 5.33366 6.66634C5.33366 5.92996 4.73671 5.33301 4.00033 5.33301C3.26395 5.33301 2.66699 5.92996 2.66699 6.66634C2.66699 7.40272 3.26395 7.99968 4.00033 7.99968Z" stroke="#222222" stroke-width="1.5" stroke-linecap="round" stroke-linejoin="round"/>
<path d="M4 2.66699V5.33366" stroke="#222222" stroke-width="1.5" stroke-linecap="round" stroke-linejoin="round"/>
<path d="M4 8V13.3333" stroke="#222222" stroke-width="1.5" stroke-linecap="round" stroke-linejoin="round"/>
<path d="M8.00033 11.9997C8.73671 11.9997 9.33366 11.4027 9.33366 10.6663C9.33366 9.92996 8.73671 9.33301 8.00033 9.33301C7.26395 9.33301 6.66699 9.92996 6.66699 10.6663C6.66699 11.4027 7.26395 11.9997 8.00033 11.9997Z" stroke="#222222" stroke-width="1.5" stroke-linecap="round" stroke-linejoin="round"/>
<path d="M8 2.66699V9.33366" stroke="#222222" stroke-width="1.5" stroke-linecap="round" stroke-linejoin="round"/>
<path d="M8 12V13.3333" stroke="#222222" stroke-width="1.5" stroke-linecap="round" stroke-linejoin="round"/>
<path d="M12.0003 5.99968C12.7367 5.99968 13.3337 5.40272 13.3337 4.66634C13.3337 3.92996 12.7367 3.33301 12.0003 3.33301C11.2639 3.33301 10.667 3.92996 10.667 4.66634C10.667 5.40272 11.2639 5.99968 12.0003 5.99968Z" stroke="#222222" stroke-width="1.5" stroke-linecap="round" stroke-linejoin="round"/>
<path d="M12 2.66699V3.33366" stroke="#222222" stroke-width="1.5" stroke-linecap="round" stroke-linejoin="round"/>
<path d="M12 6V13.3333" stroke="#222222" stroke-width="1.5" stroke-linecap="round" stroke-linejoin="round"/>
</svg>
