<svg width="20" height="20" viewBox="0 0 20 20" fill="none" xmlns="http://www.w3.org/2000/svg">
<rect width="20" height="20" rx="10" fill="white"/>
<circle cx="10" cy="10" r="10" fill="white"/>
<g clip-path="url(#clip0)">
<path d="M15.48 13.3242L14.1532 12.4491L13.0464 14.2979L11.7591 13.9215L10.6257 15.6515L10.6838 16.196L16.8464 15.0605L16.4885 11.2101L15.48 13.3242ZM9.73286 11.6641L10.7216 11.5282C10.8816 11.6 10.9929 11.6274 11.1848 11.6762C11.4835 11.7541 11.8293 11.8287 12.3415 11.5706C12.4607 11.5116 12.7089 11.2846 12.8093 11.1551L16.8604 10.4202L17.2736 15.4218L10.3335 16.6726L9.73286 11.6641ZM17.258 9.86188L16.8581 9.93805L16.0899 2.00098L3 3.51881L4.61263 16.6054L6.14481 16.383C6.02245 16.2083 5.83193 15.9969 5.50657 15.7263C5.05532 15.3514 5.21492 14.7147 5.48106 14.3126C5.83323 13.6332 7.64775 12.7698 7.54494 11.6838C7.50807 11.289 7.44531 10.775 7.07879 10.4228C7.06501 10.569 7.08978 10.7098 7.08978 10.7098C7.08978 10.7098 6.9393 10.5178 6.86425 10.256C6.78975 10.1556 6.73127 10.1235 6.65212 9.98946C6.59569 10.1446 6.60314 10.3245 6.60314 10.3245C6.60314 10.3245 6.48004 10.0336 6.46011 9.78813C6.3871 9.89801 6.36867 10.1068 6.36867 10.1068C6.36867 10.1068 6.20869 9.64827 6.24519 9.40132C6.17219 9.1864 5.95578 8.75991 6.01705 7.79055C6.41653 8.07046 7.29594 8.00398 7.63862 7.4989C7.75241 7.33166 7.83026 6.875 7.58182 5.97529C7.42221 5.39832 7.02702 4.53921 6.873 4.21329L6.85456 4.22652C6.93576 4.48911 7.10319 5.03963 7.16744 5.30651C7.36187 6.11608 7.41402 6.39786 7.32276 6.77108C7.2451 7.09551 7.05886 7.30782 6.58675 7.54509C6.11464 7.7831 5.48814 7.2039 5.44847 7.17187C4.98976 6.80647 4.63498 6.21032 4.59531 5.92072C4.55415 5.60374 4.77801 5.41341 4.89087 5.15417C4.7294 5.20035 4.54931 5.2823 4.54931 5.2823C4.54931 5.2823 4.76423 5.05993 5.02925 4.86755C5.13894 4.79491 5.20338 4.74873 5.31903 4.65263C5.1516 4.64983 5.01565 4.65468 5.01565 4.65468C5.01565 4.65468 5.29482 4.50382 5.58423 4.39394C5.37248 4.38463 5.16986 4.39245 5.16986 4.39245C5.16986 4.39245 5.79282 4.11384 6.28486 3.90935C6.62325 3.77061 6.95383 3.81158 7.1395 4.08013C7.38329 4.43194 7.63937 4.62302 8.18206 4.74146C8.51524 4.59378 8.61656 4.51779 9.03522 4.40381C9.40378 3.99856 9.6932 3.94604 9.6932 3.94604C9.6932 3.94604 9.54961 4.07771 9.51124 4.28462C9.7202 4.11999 9.94927 3.98255 9.94927 3.98255C9.94927 3.98255 9.86062 4.09205 9.77793 4.266L9.79712 4.29449C10.0409 4.1483 10.3275 4.03302 10.3275 4.03302C10.3275 4.03302 10.2456 4.13656 10.1495 4.27066C10.3333 4.26917 10.7061 4.27848 10.8508 4.29487C11.7051 4.31368 11.8824 3.38249 12.2102 3.26572C12.6207 3.11915 12.8041 3.0305 13.5036 3.71753C14.1039 4.30734 14.5728 5.36313 14.34 5.59965C14.1448 5.79594 13.7597 5.5231 13.3328 4.99102C13.1073 4.70924 12.9367 4.37625 12.8568 3.95293C12.7894 3.59573 12.527 3.38845 12.527 3.38845C12.527 3.38845 12.6793 3.72703 12.6793 4.02613C12.6793 4.18946 12.6998 4.80013 12.9617 5.14281C12.9358 5.1929 12.9237 5.39069 12.895 5.42849C12.5903 5.0603 11.9361 4.79678 11.8293 4.71912C12.1905 5.01505 13.0205 5.69481 13.3394 6.34627C13.6409 6.96235 13.4632 7.52702 13.6157 7.67322C13.6591 7.71512 14.2642 8.46901 14.3806 8.84782C14.5836 9.50803 14.3927 10.2018 14.127 10.6322L13.3848 10.7478C13.2762 10.7176 13.203 10.7026 13.1056 10.6461C13.1593 10.5511 13.266 10.3143 13.2671 10.2655L13.2252 10.1919C12.9943 10.5191 12.6073 10.8368 12.2858 11.0194C11.8651 11.2577 11.3801 11.221 11.0645 11.1233C10.1685 10.8469 9.32128 10.2414 9.11698 10.0824C9.11698 10.0824 9.11064 10.2094 9.1492 10.2379C9.3751 10.4927 9.89266 10.9536 10.3929 11.2749L9.32649 11.3922L9.83064 15.3177C9.60715 15.3497 9.57233 15.3654 9.32761 15.4002C9.11195 14.6383 8.69943 14.1409 8.24855 13.8511C7.85093 13.5956 7.30246 13.538 6.77746 13.6419L6.74375 13.6811C7.10878 13.6431 7.53973 13.696 7.98242 13.9762C8.41691 14.2509 8.76704 14.9605 8.89591 15.3877C9.06092 15.9338 9.17508 16.5178 8.73091 17.1369C8.41486 17.577 7.49224 17.8202 6.74692 17.2941C6.946 17.6142 7.21512 17.8761 7.57735 17.9254C8.1152 17.9984 8.62568 17.9051 8.97711 17.5444C9.27714 17.236 9.43619 16.591 9.39428 15.9118L9.869 15.8429L10.0403 17.062L17.8992 16.1157L17.258 9.86188ZM12.4767 6.55114C12.4547 6.60123 12.4203 6.63401 12.472 6.79697L12.4752 6.80628L12.4834 6.82733L12.505 6.87612C12.5983 7.06683 12.7007 7.24673 12.8719 7.33855C12.9162 7.3311 12.962 7.32607 13.0095 7.32365C13.1703 7.31657 13.2718 7.34209 13.3362 7.37673C13.342 7.34469 13.3433 7.29776 13.3397 7.22867C13.3273 6.98712 13.3876 6.57628 12.9233 6.36006C12.7481 6.27867 12.5022 6.30381 12.4203 6.40531C12.4352 6.40717 12.4486 6.41034 12.459 6.41388C12.5829 6.45727 12.4989 6.49992 12.4767 6.55114ZM13.7779 8.80498C13.717 8.77146 13.4325 8.78468 13.2325 8.80852C12.8514 8.85341 12.44 8.98563 12.3499 9.05603C12.186 9.18267 12.2605 9.40355 12.3815 9.49425C12.721 9.74791 13.0187 9.91794 13.3328 9.8766C13.5258 9.85127 13.6958 9.54584 13.8163 9.26872C13.8988 9.07782 13.8988 8.87184 13.7779 8.80498ZM10.4044 6.85023C10.5119 6.74818 9.86919 6.61408 9.37045 6.95415C9.00263 7.20502 8.99089 7.74287 9.34307 8.04774C9.37827 8.07791 9.40732 8.09933 9.43451 8.11684C9.53731 8.06841 9.65446 8.01943 9.78929 7.97567C10.0171 7.90173 10.2065 7.86355 10.3622 7.84325C10.4367 7.76 10.5233 7.61344 10.5017 7.34805C10.4722 6.98805 10.1994 7.04522 10.4044 6.85023Z" fill="#632CA6"/>
</g>
<defs>
<clipPath id="clip0">
<rect width="14.8992" height="16" fill="white" transform="translate(3 2)"/>
</clipPath>
</defs>
</svg>
