<svg width="20" height="20" viewBox="0 0 20 20" fill="none" xmlns="http://www.w3.org/2000/svg">
<g clip-path="url(#clip0)">
<path d="M16.6 14.156L14.9415 13.0621L13.558 15.3731L11.9489 14.9026L10.5321 17.065L10.6047 17.7457L18.308 16.3264L17.8606 11.5133L16.6 14.156ZM9.41608 12.0809L10.652 11.9109C10.852 12.0008 10.9912 12.035 11.231 12.096C11.6044 12.1933 12.0367 12.2867 12.6769 11.964C12.8259 11.8902 13.1362 11.6064 13.2617 11.4446L18.3255 10.526L18.842 16.778L10.1669 18.3415L9.41608 12.0809ZM18.8225 9.82808L18.3227 9.9233L17.3624 0.00195312L1 1.89925L3.01579 18.2574L4.93101 17.9795C4.77806 17.7611 4.53991 17.4969 4.13322 17.1586C3.56915 16.69 3.76866 15.8941 4.10132 15.3915C4.54154 14.5422 6.80968 13.463 6.68118 12.1055C6.63509 11.612 6.55663 10.9695 6.09849 10.5293C6.08126 10.712 6.11222 10.888 6.11222 10.888C6.11222 10.888 5.92412 10.648 5.83031 10.3207C5.73719 10.1952 5.66409 10.1552 5.56515 9.98755C5.49461 10.1815 5.50393 10.4064 5.50393 10.4064C5.50393 10.4064 5.35005 10.0427 5.32514 9.7359C5.23388 9.87325 5.21083 10.1342 5.21083 10.1342C5.21083 10.1342 5.01086 9.56107 5.05649 9.25238C4.96523 8.98373 4.69472 8.45063 4.77131 7.23892C5.27066 7.58881 6.36993 7.5057 6.79828 6.87436C6.94052 6.6653 7.03783 6.09449 6.72727 4.96984C6.52777 4.24864 6.03377 3.17474 5.84125 2.76735L5.8182 2.78388C5.9197 3.11212 6.12899 3.80027 6.2093 4.13387C6.45234 5.14584 6.51752 5.49806 6.40345 5.96458C6.30638 6.37012 6.07358 6.63551 5.48344 6.93209C4.8933 7.2296 4.11017 6.50561 4.06058 6.46556C3.4872 6.00882 3.04373 5.26363 2.99414 4.90163C2.94269 4.50541 3.22251 4.26749 3.36359 3.94344C3.16175 4.00117 2.93664 4.1036 2.93664 4.1036C2.93664 4.1036 3.20529 3.82565 3.53656 3.58517C3.67367 3.49437 3.75422 3.43664 3.89879 3.31652C3.6895 3.31303 3.51956 3.31908 3.51956 3.31908C3.51956 3.31908 3.86853 3.13051 4.23029 2.99316C3.9656 2.98152 3.71232 2.9913 3.71232 2.9913C3.71232 2.9913 4.49103 2.64304 5.10607 2.38742C5.52907 2.21399 5.94228 2.26521 6.17438 2.6009C6.47911 3.04065 6.79921 3.2795 7.47758 3.42756C7.89405 3.24295 8.02069 3.14797 8.54402 3.0055C9.00473 2.49893 9.3665 2.43329 9.3665 2.43329C9.3665 2.43329 9.18701 2.59787 9.13905 2.85651C9.40025 2.65072 9.68659 2.47891 9.68659 2.47891C9.68659 2.47891 9.57578 2.6158 9.47242 2.83323L9.4964 2.86885C9.80113 2.6861 10.1594 2.542 10.1594 2.542C10.1594 2.542 10.057 2.67144 9.93685 2.83905C10.1666 2.83719 10.6327 2.84883 10.8136 2.86931C11.8814 2.89283 12.103 1.72884 12.5127 1.58288C13.0258 1.39967 13.2551 1.28886 14.1295 2.14764C14.8798 2.88491 15.466 4.20464 15.175 4.50029C14.931 4.74566 14.4496 4.40461 13.916 3.73951C13.6341 3.38729 13.4209 2.97105 13.321 2.4419C13.2367 1.99539 12.9087 1.73629 12.9087 1.73629C12.9087 1.73629 13.0992 2.15952 13.0992 2.53339C13.0992 2.73755 13.1248 3.50089 13.4521 3.92924C13.4197 3.99186 13.4046 4.23909 13.3687 4.28635C12.9879 3.82611 12.1701 3.4967 12.0367 3.39963C12.4881 3.76954 13.5256 4.61925 13.9242 5.43357C14.3011 6.20367 14.079 6.90951 14.2697 7.09225C14.3239 7.14463 15.0803 8.087 15.2258 8.56051C15.4795 9.38577 15.2409 10.2529 14.9087 10.7909L13.981 10.9355C13.8453 10.8978 13.7538 10.8789 13.632 10.8084C13.6991 10.6897 13.8325 10.3935 13.8339 10.3326L13.7815 10.2406C13.4928 10.6496 13.0091 11.0468 12.6073 11.2749C12.0814 11.5729 11.4752 11.527 11.0806 11.4048C9.96059 11.0593 8.9016 10.3025 8.64622 10.1037C8.64622 10.1037 8.63831 10.2625 8.6865 10.2981C8.96888 10.6166 9.61582 11.1927 10.2411 11.5943L8.90812 11.741L9.5383 16.6479C9.25894 16.6879 9.21541 16.7075 8.90951 16.751C8.63994 15.7986 8.12429 15.1768 7.56069 14.8146C7.06367 14.4952 6.37808 14.4233 5.72182 14.5532L5.67969 14.6021C6.13597 14.5546 6.67466 14.6207 7.22802 14.971C7.77114 15.3144 8.2088 16.2014 8.36989 16.7354C8.57615 17.418 8.71885 18.148 8.16363 18.9218C7.76858 19.4719 6.6153 19.776 5.68364 19.1183C5.9325 19.5185 6.2689 19.8458 6.72169 19.9075C7.39401 19.9988 8.0321 19.8821 8.47139 19.4312C8.84643 19.0457 9.04523 18.2395 8.99286 17.3905L9.58626 17.3044L9.80043 18.8283L19.624 17.6454L18.8225 9.82808ZM12.8459 5.68965C12.8184 5.75227 12.7753 5.79325 12.8401 5.99694L12.844 6.00858L12.8543 6.03489L12.8813 6.09588C12.9979 6.33427 13.1259 6.55915 13.3399 6.67392C13.3953 6.66461 13.4525 6.65832 13.5119 6.65529C13.7128 6.64645 13.8397 6.67834 13.9202 6.72164C13.9275 6.6816 13.9291 6.62294 13.9247 6.53657C13.9091 6.23463 13.9845 5.72108 13.4041 5.4508C13.1851 5.34907 12.8778 5.3805 12.7753 5.50737C12.794 5.5097 12.8107 5.51366 12.8238 5.51808C12.9786 5.57232 12.8736 5.62563 12.8459 5.68965V5.68965ZM14.4724 8.50696C14.3963 8.46506 14.0406 8.48159 13.7906 8.51138C13.3143 8.56749 12.8 8.73277 12.6873 8.82077C12.4825 8.97907 12.5756 9.25517 12.7269 9.36854C13.1513 9.68561 13.5233 9.89816 13.916 9.84648C14.1572 9.81482 14.3698 9.43303 14.5204 9.08663C14.6235 8.84801 14.6235 8.59054 14.4724 8.50696V8.50696ZM10.2555 6.06352C10.3899 5.93595 9.58649 5.76834 8.96306 6.19342C8.50328 6.507 8.48862 7.17932 8.92884 7.56041C8.97283 7.59812 9.00915 7.62489 9.04314 7.64678C9.17164 7.58625 9.31807 7.52502 9.48662 7.47032C9.77133 7.3779 10.0081 7.33017 10.2027 7.3048C10.2958 7.20074 10.4041 7.01753 10.3771 6.68579C10.3403 6.23579 9.99924 6.30726 10.2555 6.06352Z" fill="#632CA6"/>
</g>
<defs>
<clipPath id="clip0">
<rect width="18.624" height="20" fill="white" transform="translate(1)"/>
</clipPath>
</defs>
</svg>
