<svg width="20" height="20" viewBox="0 0 20 20" fill="none" xmlns="http://www.w3.org/2000/svg">
<path d="M18.75 8.74975C18.655 8.6949 18.5472 8.66602 18.4375 8.66602C18.3278 8.66602 18.22 8.6949 18.125 8.74975L10 13.3435L1.875 8.74975C1.77981 8.69479 1.6718 8.66591 1.56188 8.66602C1.45196 8.66612 1.34401 8.69522 1.24893 8.75037C1.15384 8.80552 1.07498 8.88477 1.0203 8.98013C0.965628 9.07549 0.937068 9.18358 0.937505 9.2935V14.6873C0.937505 15.1845 1.13505 15.6614 1.48668 16.0131C1.83831 16.3647 2.31522 16.5623 2.8125 16.5623H17.1875C17.6848 16.5623 18.1617 16.3647 18.5133 16.0131C18.865 15.6614 19.0625 15.1845 19.0625 14.6873V9.29663C19.0635 9.18597 19.0351 9.07703 18.9802 8.98095C18.9253 8.88486 18.8458 8.80508 18.75 8.74975Z" fill="#0597F2"/>
<path d="M17.1875 3.4375H2.8125C2.31522 3.4375 1.83831 3.63504 1.48668 3.98667C1.13505 4.33831 0.937505 4.81522 0.937505 5.3125V6.48438C0.937068 6.59451 0.965739 6.7028 1.02062 6.79828C1.07549 6.89377 1.15463 6.97306 1.25 7.02812L9.6875 11.7938C9.78252 11.8486 9.89029 11.8775 10 11.8775C10.1097 11.8775 10.2175 11.8486 10.3125 11.7938L18.75 7.02812C18.8454 6.97306 18.9245 6.89377 18.9794 6.79828C19.0343 6.7028 19.0629 6.59451 19.0625 6.48438V5.3125C19.0625 4.81522 18.865 4.33831 18.5133 3.98667C18.1617 3.63504 17.6848 3.4375 17.1875 3.4375Z" fill="#0597F2"/>
</svg>
