<svg width="20" height="20" viewBox="0 0 20 20" fill="none" xmlns="http://www.w3.org/2000/svg">
<g clip-path="url(#clip0)">
<path d="M10.5641 6.55508C12.148 6.55508 13.432 5.27109 13.432 3.68721C13.432 2.10333 12.148 0.819336 10.5641 0.819336C8.98027 0.819336 7.69629 2.10333 7.69629 3.68721C7.69629 5.27109 8.98027 6.55508 10.5641 6.55508Z" fill="#7B83EB"/>
<path opacity="0.1" d="M10.3592 4.30176H7.76172L7.77462 4.35891L7.77585 4.36382L7.78937 4.41667C7.97811 5.13239 8.43602 5.74753 9.06751 6.13364C9.69899 6.51976 10.4552 6.64699 11.1783 6.48878V5.12089C11.1776 4.90384 11.0911 4.69587 10.9377 4.54239C10.7842 4.38892 10.5762 4.30241 10.3592 4.30176V4.30176Z" fill="black"/>
<path opacity="0.2" d="M9.74483 4.91602H7.97266C8.20524 5.4064 8.5722 5.82071 9.0309 6.11081C9.4896 6.40091 10.0212 6.5549 10.5639 6.55487V5.73513C10.5633 5.51809 10.4768 5.31012 10.3233 5.15665C10.1698 5.00317 9.96188 4.91666 9.74483 4.91602V4.91602Z" fill="black"/>
<path d="M17.017 6.75951C18.2048 6.75951 19.1677 5.79658 19.1677 4.60876C19.1677 3.42093 18.2048 2.45801 17.017 2.45801C15.8291 2.45801 14.8662 3.42093 14.8662 4.60876C14.8662 5.79658 15.8291 6.75951 17.017 6.75951Z" fill="#5059C9"/>
<path d="M18.8601 7.37402H14.0296C13.9253 7.37402 13.8252 7.41546 13.7515 7.48921C13.6777 7.56297 13.6363 7.663 13.6363 7.7673V12.7509C13.623 13.4722 13.8579 14.1761 14.3016 14.7448C14.7454 15.3136 15.3711 15.7126 16.074 15.875C16.5217 15.9689 16.9846 15.9619 17.4292 15.8543C17.8738 15.7467 18.2888 15.5413 18.6439 15.2531C18.9991 14.9649 19.2856 14.6012 19.4824 14.1883C19.6793 13.7754 19.7816 13.3238 19.7819 12.8664V8.29577C19.7819 8.05131 19.6848 7.81686 19.5119 7.644C19.3391 7.47114 19.1046 7.37402 18.8601 7.37402Z" fill="#5059C9"/>
<path d="M15.4804 8.29577V14.1335C15.481 15.2153 15.1245 16.2671 14.4662 17.1256C13.8079 17.9842 12.8847 18.6014 11.8397 18.8815C10.7948 19.1617 9.68656 19.0891 8.68709 18.675C7.68761 18.2609 6.85276 17.5285 6.3121 16.5915C6.19385 16.3949 6.09112 16.1895 6.00485 15.977C5.92442 15.7766 5.85669 15.5714 5.80206 15.3625C5.70076 14.9606 5.64916 14.5479 5.64844 14.1335V8.29577C5.64828 8.17468 5.67201 8.05475 5.71827 7.94284C5.76454 7.83094 5.83243 7.72926 5.91805 7.64364C6.00368 7.55801 6.10535 7.49012 6.21726 7.44386C6.32916 7.39759 6.4491 7.37386 6.57019 7.37402H14.5587C14.6798 7.37386 14.7997 7.39759 14.9116 7.44386C15.0235 7.49012 15.1252 7.55801 15.2108 7.64364C15.2964 7.72926 15.3643 7.83094 15.4106 7.94284C15.4569 8.05475 15.4806 8.17468 15.4804 8.29577V8.29577Z" fill="#7B83EB"/>
<path opacity="0.2" d="M9.74483 4.91602H7.97266C8.20524 5.4064 8.5722 5.82071 9.0309 6.11081C9.4896 6.40091 10.0212 6.5549 10.5639 6.55487V5.73513C10.5633 5.51809 10.4768 5.31012 10.3233 5.15665C10.1698 5.00317 9.96188 4.91666 9.74483 4.91602V4.91602Z" fill="black"/>
<path opacity="0.1" d="M11.1789 7.37402V15.1597C11.1789 15.345 11.1155 15.5246 10.9992 15.6689C10.883 15.8131 10.7209 15.9131 10.5398 15.9524C10.482 15.9696 10.4219 15.9779 10.3616 15.977H6.00485C5.92442 15.7767 5.85669 15.5714 5.80206 15.3625C5.70076 14.9607 5.64916 14.5479 5.64844 14.1335V8.29577C5.64828 8.17468 5.67201 8.05475 5.71827 7.94284C5.76454 7.83094 5.83243 7.72926 5.91805 7.64364C6.00367 7.55801 6.10535 7.49012 6.21725 7.44386C6.32916 7.39759 6.44909 7.37386 6.57018 7.37402H11.1789Z" fill="black"/>
<path opacity="0.2" d="M10.5644 7.37402V15.7742C10.5653 15.8345 10.557 15.8946 10.5398 15.9524C10.5005 16.1334 10.4005 16.2955 10.2562 16.4118C10.112 16.5281 9.93236 16.5915 9.74712 16.5914H6.31209C6.19385 16.3949 6.09112 16.1895 6.00485 15.977C5.92442 15.7766 5.85669 15.5713 5.80206 15.3625C5.70076 14.9606 5.64916 14.5479 5.64844 14.1335V8.29577C5.64828 8.17468 5.67201 8.05474 5.71827 7.94284C5.76454 7.83094 5.83243 7.72926 5.91805 7.64364C6.00367 7.55801 6.10535 7.49012 6.21725 7.44386C6.32916 7.39759 6.44909 7.37386 6.57018 7.37402H10.5644Z" fill="black"/>
<path opacity="0.2" d="M10.5644 7.37402V14.5453C10.5634 14.7617 10.477 14.969 10.324 15.1221C10.1709 15.2752 9.96358 15.3616 9.74712 15.3626H5.80206C5.70076 14.9607 5.64916 14.548 5.64844 14.1336V8.29578C5.64828 8.17469 5.67201 8.05475 5.71827 7.94285C5.76454 7.83094 5.83243 7.72926 5.91805 7.64364C6.00367 7.55801 6.10535 7.49012 6.21725 7.44386C6.32916 7.39759 6.44909 7.37386 6.57018 7.37402H10.5644Z" fill="black"/>
<path opacity="0.2" d="M6.57019 7.37402C6.4491 7.37386 6.32916 7.39759 6.21726 7.44386C6.10535 7.49012 6.00368 7.55801 5.91805 7.64364C5.83243 7.72926 5.76454 7.83094 5.71827 7.94285C5.67201 8.05475 5.64828 8.17469 5.64844 8.29578V14.1336C5.64916 14.548 5.70076 14.9607 5.80206 15.3626H9.13265C9.34911 15.3616 9.55643 15.2752 9.70949 15.1221C9.86255 14.969 9.94897 14.7617 9.94994 14.5453V7.37402H6.57019Z" fill="black"/>
<path d="M0.937293 4.91602H9.13104C9.34828 4.91602 9.55663 5.00232 9.71025 5.15593C9.86386 5.30955 9.95016 5.5179 9.95016 5.73514V13.9289C9.95016 14.1461 9.86386 14.3545 9.71025 14.5081C9.55663 14.6617 9.34828 14.748 9.13104 14.748H0.937293C0.720046 14.748 0.511698 14.6617 0.358081 14.5081C0.204465 14.3545 0.118164 14.1461 0.118164 13.9289L0.118164 5.73514C0.118164 5.5179 0.204465 5.30955 0.358081 5.15593C0.511698 5.00232 0.720046 4.91602 0.937293 4.91602V4.91602Z" fill="#4B53BC"/>
<path d="M7.47931 7.97326H5.64196V12.9015H4.43631V7.97326H2.58789V6.7627H7.47931V7.97326Z" fill="white"/>
</g>
<defs>
<clipPath id="clip0">
<rect width="20" height="19.664" fill="white"/>
</clipPath>
</defs>
</svg>
