<svg width="20" height="20" viewBox="0 0 20 20" fill="none" xmlns="http://www.w3.org/2000/svg">
<rect width="20" height="20" rx="10" fill="white"/>
<circle cx="10" cy="10" r="10" fill="white"/>
<g clip-path="url(#clip0)">
<path fill-rule="evenodd" clip-rule="evenodd" d="M7.86632 2C6.98186 2.00065 6.26606 2.71698 6.26671 3.59967C6.26606 4.48237 6.98252 5.1987 7.86697 5.19935H9.46724V3.60033C9.46789 2.71764 8.75143 2.0013 7.86632 2C7.86697 2 7.86697 2 7.86632 2V2ZM7.86632 6.26667H3.60026C2.71581 6.26732 1.99935 6.98365 2 7.86634C1.99869 8.74903 2.71515 9.46536 3.59961 9.46667H7.86632C8.75078 9.46601 9.46724 8.74968 9.46658 7.86699C9.46724 6.98365 8.75078 6.26732 7.86632 6.26667Z" fill="#36C5F0"/>
<path fill-rule="evenodd" clip-rule="evenodd" d="M17.9999 7.86634C18.0005 6.98365 17.2841 6.26732 16.3996 6.26667C15.5151 6.26732 14.7987 6.98365 14.7993 7.86634V9.46667H16.3996C17.2841 9.46601 18.0005 8.74968 17.9999 7.86634ZM13.7331 7.86634V3.59967C13.7338 2.71764 13.018 2.0013 12.1335 2C11.249 2.00065 10.5326 2.71698 10.5332 3.59967V7.86634C10.5319 8.74903 11.2484 9.46536 12.1328 9.46667C13.0173 9.46601 13.7338 8.74968 13.7331 7.86634Z" fill="#2EB67D"/>
<path fill-rule="evenodd" clip-rule="evenodd" d="M12.1335 17.9996C13.0179 17.999 13.7344 17.2826 13.7337 16.3999C13.7344 15.5172 13.0179 14.8009 12.1335 14.8002H10.5332V16.3999C10.5325 17.282 11.249 17.9983 12.1335 17.9996ZM12.1335 13.7323H16.4002C17.2846 13.7316 18.0011 13.0153 18.0004 12.1326C18.0017 11.2499 17.2853 10.5335 16.4008 10.5322H12.1341C11.2497 10.5329 10.5332 11.2492 10.5339 12.1319C10.5332 13.0153 11.249 13.7316 12.1335 13.7323Z" fill="#ECB22E"/>
<path fill-rule="evenodd" clip-rule="evenodd" d="M2 12.1329C1.99935 13.0156 2.7158 13.7319 3.60026 13.7326C4.48472 13.7319 5.20118 13.0156 5.20052 12.1329V10.5332H3.60026C2.7158 10.5339 1.99935 11.2502 2 12.1329ZM6.26671 12.1329V16.3996C6.2654 17.2823 6.98186 17.9986 7.86632 18C8.75078 17.9993 9.46723 17.283 9.46658 16.4003V12.1342C9.46789 11.2515 8.75143 10.5352 7.86697 10.5339C6.98186 10.5339 6.26606 11.2502 6.26671 12.1329C6.26671 12.1329 6.26671 12.1335 6.26671 12.1329Z" fill="#E01E5A"/>
</g>
<defs>
<clipPath id="clip0">
<rect width="16" height="16" fill="white" transform="translate(2 2)"/>
</clipPath>
</defs>
</svg>
