<svg width="104" height="104" viewBox="0 0 104 104" fill="none" xmlns="http://www.w3.org/2000/svg">
<g clip-path="url(#clip0)">
<path d="M104 0H0V104H104V0Z" fill="white"/>
<path d="M88.9191 19.1631C92.3049 28.7588 82.3695 35.6552 86.6635 50.5434C91.0084 65.6095 104.154 68.8404 102.555 77.8006C101.126 85.8155 89.104 91.6973 79.7186 92.6611C68.3087 93.8305 64.6571 87.3455 55.0568 89.8877C45.4102 92.4577 45.3709 100.008 37.6148 101.889C23.8683 105.233 1.80184 86.8971 2.8557 71.3434C3.69233 58.9951 18.5019 57.0145 19.7938 44.0723C21.4532 27.4646 -1.73416 19.0337 0.842727 10.2561C5.27081 -4.79388 80.5691 -4.50036 88.9191 19.1631Z" fill="#F5F5F5"/>
<g clip-path="url(#clip1)">
<rect x="15.7008" y="30.8135" width="46.98" height="53.8" rx="1.7" transform="rotate(-17.58 15.7008 30.8135)" fill="white" stroke="#222222" stroke-width="0.6"/>
<path d="M61.708 32.7635H42.3071C41.865 32.764 41.4412 32.9394 41.1286 33.2512C40.8159 33.563 40.6401 33.9857 40.6395 34.4266V77.4286L40.4172 77.4963L35.6578 78.9498C35.4323 79.0184 35.1887 78.9949 34.9804 78.8846C34.7722 78.7742 34.6164 78.5859 34.5472 78.3611L20.3904 32.2435C20.3215 32.0186 20.345 31.7755 20.4557 31.5678C20.5664 31.3602 20.7552 31.2048 20.9807 31.1359L28.3149 28.8963L49.5768 22.4058L56.9109 20.1661C57.0225 20.1319 57.1398 20.1199 57.256 20.1309C57.3723 20.1419 57.4852 20.1757 57.5884 20.2303C57.6916 20.2848 57.7829 20.3592 57.8572 20.449C57.9316 20.5388 57.9874 20.6424 58.0215 20.7538L61.6402 32.5418L61.708 32.7635Z" fill="white"/>
<path d="M29.6382 31.1713C29.424 31.1712 29.2154 31.1025 29.0431 30.9755C28.8708 30.8485 28.7439 30.6697 28.6809 30.4654L27.2489 25.8008C27.2105 25.6755 27.1971 25.5439 27.2096 25.4134C27.2222 25.283 27.2604 25.1563 27.322 25.0406C27.3837 24.9248 27.4676 24.8223 27.5689 24.739C27.6703 24.6556 27.7871 24.5929 27.9128 24.5546L47.4725 18.5826C47.7263 18.5053 48.0004 18.5317 48.2347 18.6558C48.469 18.7799 48.6443 18.9916 48.7222 19.2445L50.1542 23.9092C50.2315 24.1623 50.2051 24.4356 50.0807 24.6692C49.9562 24.9029 49.7439 25.0778 49.4904 25.1555L29.9306 31.1275C29.8358 31.1565 29.7373 31.1713 29.6382 31.1713Z" fill="#60CA9A"/>
<path d="M37.1395 21.9837C38.3675 21.9837 39.3629 20.991 39.3629 19.7663C39.3629 18.5416 38.3675 17.5488 37.1395 17.5488C35.9115 17.5488 34.916 18.5416 34.916 19.7663C34.916 20.991 35.9115 21.9837 37.1395 21.9837Z" fill="#60CA9A"/>
<path d="M37.1404 21.1706C37.918 21.1706 38.5484 20.542 38.5484 19.7665C38.5484 18.991 37.918 18.3623 37.1404 18.3623C36.3628 18.3623 35.7324 18.991 35.7324 19.7665C35.7324 20.542 36.3628 21.1706 37.1404 21.1706Z" fill="white"/>
<rect x="40.7199" y="32.84" width="46.98" height="53.94" rx="1.7" fill="white" stroke="#222222" stroke-width="0.6"/>
<path d="M82.9982 81.5471H45.4215C45.171 81.5468 44.9308 81.4475 44.7537 81.2708C44.5765 81.0941 44.4769 80.8546 44.4766 80.6047V35.7012C44.4768 35.4513 44.5765 35.2118 44.7536 35.0351C44.9308 34.8584 45.171 34.7591 45.4215 34.7588H82.9982C83.2487 34.7591 83.4889 34.8585 83.6661 35.0351C83.8432 35.2118 83.9429 35.4514 83.9432 35.7012V80.6047C83.9429 80.8546 83.8432 81.0941 83.6661 81.2708C83.4889 81.4475 83.2487 81.5468 82.9982 81.5471Z" fill="white"/>
<rect x="46.4199" y="40.54" width="35.58" height="1" rx="0.5" fill="#BDBDBD"/>
<rect x="46.4199" y="45.54" width="32" height="1" rx="0.5" fill="#BDBDBD"/>
<rect x="46.4199" y="50.54" width="24" height="1" rx="0.5" fill="#BDBDBD"/>
<rect x="46" y="55.54" width="35.58" height="1" rx="0.5" fill="#BDBDBD"/>
<rect x="56" y="60.54" width="26" height="1" rx="0.5" fill="#BDBDBD"/>
<rect x="46.4199" y="65.54" width="35.58" height="1" rx="0.5" fill="#BDBDBD"/>
<rect x="46.4199" y="70.54" width="18.58" height="1" rx="0.5" fill="#BDBDBD"/>
<path d="M74.437 37.42H53.981C53.7158 37.4197 53.4614 37.3145 53.2739 37.1274C53.0863 36.9403 52.9808 36.6867 52.9805 36.4222V31.5438C52.9808 31.2792 53.0863 31.0256 53.2739 30.8385C53.4614 30.6514 53.7158 30.5462 53.981 30.5459H74.437C74.7022 30.5462 74.9565 30.6514 75.1441 30.8385C75.3317 31.0256 75.4372 31.2792 75.4375 31.5438V36.4222C75.4372 36.6867 75.3317 36.9403 75.1441 37.1274C74.9566 37.3145 74.7022 37.4197 74.437 37.42Z" fill="#60CA9A"/>
<path d="M64.2098 30.8783C65.4378 30.8783 66.4333 29.8855 66.4333 28.6608C66.4333 27.4361 65.4378 26.4434 64.2098 26.4434C62.9818 26.4434 61.9863 27.4361 61.9863 28.6608C61.9863 29.8855 62.9818 30.8783 64.2098 30.8783Z" fill="#60CA9A"/>
<path d="M64.2098 30.0118C64.9577 30.0118 65.5641 29.4071 65.5641 28.6612C65.5641 27.9152 64.9577 27.3105 64.2098 27.3105C63.4618 27.3105 62.8555 27.9152 62.8555 28.6612C62.8555 29.4071 63.4618 30.0118 64.2098 30.0118Z" fill="white"/>
</g>
<path d="M55.3334 1.31333L54.2125 2.43422L55.3334 3.55511C55.4063 3.65031 55.4421 3.76873 55.4341 3.88834C55.4262 4.00796 55.3751 4.12063 55.2904 4.20539C55.2056 4.29016 55.0929 4.34125 54.9733 4.34917C54.8537 4.35709 54.7353 4.32129 54.6401 4.24844L53.5192 3.12756L52.5393 4.10978C52.4973 4.16838 52.443 4.21713 52.3803 4.25266C52.3176 4.2882 52.2478 4.30965 52.176 4.31554C52.1041 4.32142 52.0319 4.3116 51.9642 4.28676C51.8965 4.26192 51.835 4.22264 51.7841 4.17166C51.7331 4.12068 51.6938 4.05922 51.669 3.99154C51.6441 3.92386 51.6343 3.85158 51.6402 3.77973C51.6461 3.70787 51.6675 3.63816 51.703 3.57543C51.7386 3.51269 51.7873 3.45844 51.8459 3.41644L52.8259 2.43653L51.7073 1.31565C51.6344 1.22045 51.5986 1.10203 51.6065 0.982413C51.6145 0.862799 51.6656 0.750132 51.7503 0.665367C51.8351 0.580602 51.9478 0.529508 52.0674 0.521589C52.187 0.513669 52.3054 0.549464 52.4006 0.622314L53.5192 1.7432L54.6401 0.622314C54.7353 0.549464 54.8537 0.513669 54.9733 0.521589C55.0929 0.529508 55.2056 0.580602 55.2904 0.665367C55.3751 0.750132 55.4262 0.862799 55.4341 0.982413C55.4421 1.10203 55.4063 1.22045 55.3334 1.31565V1.31333Z" fill="#C1C1C1"/>
<path opacity="0.79" d="M94.4854 81.7159L93.3691 82.8368L94.349 83.8167C94.405 83.8596 94.4512 83.9138 94.4844 83.9759C94.5177 84.038 94.5373 84.1065 94.542 84.1768C94.5466 84.2471 94.5362 84.3176 94.5114 84.3836C94.4866 84.4495 94.448 84.5094 94.3982 84.5592C94.3484 84.609 94.2885 84.6476 94.2225 84.6724C94.1566 84.6972 94.0861 84.7077 94.0158 84.703C93.9455 84.6983 93.877 84.6787 93.8149 84.6454C93.7528 84.6122 93.6985 84.566 93.6557 84.5101L92.6758 83.5371L91.6936 84.517C91.5984 84.5898 91.48 84.6256 91.3603 84.6177C91.2407 84.6098 91.1281 84.5587 91.0433 84.4739C90.9585 84.3892 90.9074 84.2765 90.8995 84.1569C90.8916 84.0373 90.9274 83.9189 91.0002 83.8237L91.9825 82.8438L90.8616 81.7229C90.7887 81.6277 90.7529 81.5093 90.7608 81.3896C90.7688 81.27 90.8199 81.1574 90.9046 81.0726C90.9894 80.9878 91.1021 80.9367 91.2217 80.9288C91.3413 80.9209 91.4597 80.9567 91.5549 81.0295L92.6758 82.1481L93.7944 81.0295C93.8901 80.9609 94.0071 80.9286 94.1244 80.9382C94.2418 80.9478 94.3519 80.9988 94.4352 81.0821C94.5185 81.1653 94.5695 81.2755 94.5791 81.3928C94.5887 81.5102 94.5563 81.6272 94.4877 81.7229L94.4854 81.7159Z" fill="#BDBDBD"/>
<path d="M5.15809 31.8314L12.0614 34.4037C12.2584 34.477 12.4327 34.6009 12.5666 34.763C12.7005 34.9251 12.7894 35.1195 12.8243 35.3269C12.8592 35.5342 12.8389 35.7471 12.7654 35.944C12.692 36.141 12.5679 36.3152 12.4057 36.449L6.72502 41.1382C6.56305 41.2717 6.36886 41.3602 6.16191 41.3949C5.95496 41.4296 5.74253 41.4093 5.54589 41.336C5.34926 41.2627 5.17534 41.1391 5.04157 40.9774C4.90779 40.8157 4.81886 40.6217 4.78369 40.4149L3.5588 33.151C3.52245 32.9435 3.54204 32.7301 3.61557 32.5327C3.68909 32.3353 3.81388 32.161 3.97711 32.0278C4.13895 31.8935 4.33343 31.8044 4.54084 31.7695C4.74824 31.7346 4.96119 31.7551 5.15809 31.8291V31.8314ZM6.21889 40.5258L11.8973 35.8342C11.9541 35.79 11.9978 35.7312 12.024 35.6641C12.0501 35.5971 12.0577 35.5242 12.0458 35.4532C12.034 35.3822 12.0032 35.3157 11.9567 35.2607C11.9103 35.2058 11.8498 35.1644 11.7817 35.1409L4.87844 32.5871C4.81266 32.5633 4.74181 32.5571 4.67289 32.5691C4.60397 32.5811 4.53936 32.6108 4.48545 32.6554C4.43154 32.7 4.39019 32.7578 4.36549 32.8233C4.34078 32.8887 4.33357 32.9595 4.34458 33.0286L5.56946 40.2924C5.581 40.3615 5.61059 40.4263 5.65523 40.4803C5.69987 40.5342 5.75799 40.5755 5.82368 40.5998C5.88938 40.6258 5.96098 40.6334 6.03067 40.6216C6.10036 40.6098 6.16547 40.579 6.21889 40.5327V40.5258Z" fill="#7A7A7A"/>
</g>
<defs>
<clipPath id="clip0">
<rect width="104" height="104" fill="white"/>
</clipPath>
<clipPath id="clip1">
<rect width="72" height="70.0909" fill="white" transform="translate(16 17)"/>
</clipPath>
</defs>
</svg>
