<svg width="16" height="16" viewBox="0 0 16 16" fill="none" xmlns="http://www.w3.org/2000/svg">
<path d="M8 0C3.61538 0 0 3.53846 0 8C0 12.4615 3.61538 16 8 16C12.3846 16 16 12.4615 16 8C16 3.53846 12.4615 0 8 0ZM13.7692 8.15385C13.6154 8.23077 13.5385 8.23077 13.4615 8.23077H9.69231C9.69231 8.38461 9.76923 8.46154 9.76923 8.69231C10 9.61538 10.5385 12 11.1538 12C11.6154 12 11.8462 11.3077 12.3846 9.84615C12.4615 9.61539 12.5385 9.38461 12.6923 9.07692V9C12.6923 8.92308 12.8462 8.84615 12.9231 8.92308C13 8.92308 13.0769 9.07692 13 9.15385V9.23077C12.9231 9.38461 12.9231 9.61538 12.8462 9.92308C12.5385 11.1538 12.0769 13.0769 10.9231 13.0769C10.1538 13.0769 9.69231 11.8462 9.53846 11.3077C9.15385 10.3077 8.92308 9.30769 8.61539 8.30769H5.15385L4.46154 10.6154C4.38462 10.7692 4.15385 10.8462 3.92308 10.6923C3.84615 10.6154 3.76923 10.5385 3.76923 10.3846L3.84615 10.1538C3.92308 9.53846 4.07692 8.92308 4.23077 8.30769H2.76923C2.46154 8.23077 2.30769 8 2.30769 7.76923C2.30769 7.53846 2.46154 7.30769 2.76923 7.23077H2.92308H3H4.53846C5.30769 4.07692 6.23077 2.53846 7.15385 2.53846C8.23077 2.53846 9 4.92308 9.61538 7.30769C10.9231 7.30769 12.3077 7.38461 13.6154 7.46154H13.6923H13.7692C14 7.53846 14.1538 7.76923 14.0769 8C13.9231 8 13.8462 8.07692 13.7692 8.15385Z" fill="#00A7CF"/>
</svg>
