<svg width="502" height="241" viewBox="0 0 502 241" fill="none" xmlns="http://www.w3.org/2000/svg">
<path d="M294.563 220.561C275.116 221.025 251.965 220.561 235.528 220.328C219.091 220.793 195.94 221.025 176.495 220.561C195.709 209.66 202.191 189.483 203.349 176.031H267.476C268.865 189.483 275.348 209.66 294.563 220.561Z" fill="#F5F5F5"/>
<path d="M354.261 7.15787V173.19C354.261 176.928 351.376 179.617 347.847 179.617H121.929C118.416 179.617 115.515 176.712 115.515 173.19V7.15787C115.515 3.63607 118.416 0.733129 121.929 0.733129H347.847C351.376 0.733129 354.261 3.42085 354.261 7.15787Z" fill="white" stroke="#BDBDBD" stroke-width="1.46626"/>
<path d="M353.529 7.54129V148.092H116.247V7.33134C116.247 3.50241 118.231 1.46631 122.106 1.46631H347.671C351.318 1.46631 353.529 3.48737 353.529 7.54129Z" fill="#F5F5F5"/>
<rect x="123.699" y="8.79736" width="224.337" height="133.429" fill="white"/>
<path d="M139.157 49.909C137.96 46.3018 135.454 38.8451 135 37.8765L135.189 57.401C136.071 60.8064 138.099 67.9199 139.157 69.1307C140.215 70.3416 140.858 69.6352 141.047 69.1307C142.999 65.5235 147.131 57.9156 148.038 56.3415C148.945 54.7674 150.558 55.282 151.251 55.7361C151.566 55.8874 152.347 56.281 152.951 56.6442C153.707 57.0983 154.841 57.401 155.408 57.401C155.975 57.401 156.92 57.0226 158.809 56.3415C160.321 55.7966 161.077 56.5685 161.266 57.0226C162.336 60.2766 164.705 67.1026 165.612 68.374C166.519 69.6453 167.249 68.7524 167.501 68.1469C169.454 64.4641 173.586 56.8258 174.493 55.7361C175.4 54.6464 176.761 54.9289 177.327 55.2064C177.453 55.282 178.121 55.615 179.784 56.3415C181.862 57.2496 182.429 56.4928 184.319 55.9631C185.831 55.5393 186.838 56.0388 187.153 56.3415L187.531 56.6442C188.665 59.7217 191.046 66.2399 191.5 67.6929C191.953 69.1459 193.2 68.2983 193.767 67.6929C195.657 63.9595 199.7 56.1599 200.759 54.828C201.817 53.4961 203.719 54.273 204.538 54.828C204.79 55.0298 205.483 55.5393 206.239 55.9631C207.183 56.4928 209.64 56.3415 210.963 55.9631C212.021 55.6604 213.167 56.291 213.608 56.6442C214.616 59.873 216.858 66.6334 217.765 67.8442C218.672 69.0551 219.277 68.3488 219.466 67.8442C221.355 63.9343 225.475 55.7664 226.835 54.3739C228.536 52.6334 230.048 54.828 231.748 55.4334C233.449 56.0388 235.528 55.1307 236.661 54.828C237.568 54.5858 238.677 55.1307 239.118 55.4334C240.378 58.5613 243.048 65.1502 243.653 66.4821C244.258 67.814 245.417 66.9361 245.92 66.3307C248.062 62.4965 252.572 54.6615 253.479 53.9955C254.386 53.3296 255.369 53.819 255.747 54.1469C256.376 54.4748 257.787 55.1912 258.392 55.4334C259.148 55.7361 260.471 55.5847 262.36 54.828C263.872 54.2226 264.88 54.7775 265.195 55.1307C266.517 58.637 269.276 65.9826 269.73 67.3145C270.183 68.6464 271.178 67.8695 271.619 67.3145C271.997 67.0875 272.942 65.9372 273.698 63.1523C274.643 59.6712 278.044 54.828 279.745 53.6928C281.105 52.7847 281.949 53.3145 282.201 53.6928L284.091 54.828C284.847 55.282 288.437 54.5253 289.949 54.1469C291.158 53.8442 291.838 53.7181 292.027 53.6928L292.594 54.3739C293.476 58.0568 295.353 65.7404 295.806 67.0118C296.26 68.2832 297.129 67.5415 297.507 67.0118C299.523 63.1776 303.818 55.2064 304.877 53.9955C306.199 52.482 308.278 53.5415 309.601 54.3739C310.923 55.2064 313.569 54.4496 314.892 53.9955C315.95 53.6323 317.348 54.3991 317.915 54.828C318.734 57.5271 320.636 63.5004 321.694 65.801C322.752 68.1015 323.773 66.4064 324.151 65.2713C326.04 61.7145 330.16 54.268 331.52 52.9361C332.881 51.6042 334.229 52.6334 334.732 53.3145L337 54.828V36.4387C336.685 36.0855 335.715 35.1522 334.355 34.2441C332.994 33.336 331.898 33.8657 331.52 34.2441L330.197 35.3792C328.182 39.0369 323.999 46.5793 323.395 47.4874C322.79 48.3955 322.009 47.8658 321.694 47.4874C320.497 44.309 317.99 37.6798 317.537 36.59C316.97 35.2279 315.08 35.5306 314.325 35.6063C313.72 35.6668 312.435 36.1864 311.868 36.4387C311.679 36.4891 310.697 36.3479 308.278 35.3792C305.859 34.4106 305.003 34.9756 304.877 35.3792L303.932 36.2874C301.853 39.8189 297.62 47.0485 297.318 47.7144C297.016 48.3804 296.184 47.8406 295.806 47.4874C294.736 43.4766 292.481 35.3036 292.027 34.6981C291.46 33.9414 289.193 35.1522 287.492 35.9846C286.132 36.6506 284.658 36.2621 284.091 35.9846C283.209 35.4045 281.332 34.1987 280.878 34.0171C280.312 33.79 279.745 34.6225 279.178 35.1522C278.611 35.6819 272.375 46.2766 271.619 47.7144C271.015 48.8647 270.108 48.1937 269.73 47.7144C268.218 43.9558 265.006 36.3025 264.25 35.7576C263.305 35.0766 262.171 35.7576 260.848 36.2874C259.79 36.7111 258.77 36.4639 258.392 36.2874C258.203 36.1108 257.372 35.6365 255.558 35.1522C253.744 34.6679 252.534 35.354 252.156 35.7576C250.33 39.4657 246.412 47.1847 245.354 48.3955C244.295 49.6063 243.779 48.7991 243.653 48.2442C242.456 45.1414 239.987 38.6787 239.685 37.6495C239.307 36.363 237.984 35.9846 237.228 36.4387C236.624 36.8019 234.457 36.8423 233.449 36.8171C233.071 36.7919 231.862 36.469 230.048 35.3792C228.234 34.2895 227.402 34.9252 227.213 35.3792L226.457 35.9846L224.379 38.4819C223.056 41.5847 220.222 48.0474 219.466 49.0766C218.71 50.1058 218.017 49.3541 217.765 48.8495L217.198 48.0928C216.191 44.8892 213.91 38.1792 212.852 36.9684C211.529 35.4549 210.018 36.9684 209.64 37.2711C209.338 37.5132 207.372 37.372 206.428 37.2711C206.113 37.1702 205.18 36.8171 203.971 36.2116C202.762 35.6062 201.452 36.1107 200.948 36.4387L199.436 38.0279C197.483 41.3072 193.465 48.1533 193.011 49.3036C192.558 50.4538 191.814 49.4802 191.5 48.8495C190.24 45.6207 187.607 38.936 187.153 38.0279C186.587 36.8927 184.508 37.2711 184.13 37.4224C183.752 37.5738 182.996 37.7251 181.296 37.7251C179.595 37.7251 179.028 36.8927 177.327 36.2116C175.967 35.6668 174.493 36.2873 173.926 36.6657C171.973 40.6008 167.917 48.6679 167.312 49.4549C166.708 50.242 165.927 49.682 165.612 49.3036C164.163 45.9486 161.152 38.936 160.699 37.7251C160.245 36.5143 158.62 36.9179 157.864 37.2711L155.975 38.0279C155.534 38.2297 154.123 38.2851 152.007 36.8927C149.89 35.5003 148.857 36.3125 148.605 36.8927L147.849 37.4224L146.338 40.1468C144.826 42.8459 141.651 48.6376 141.047 50.2117C140.442 51.7857 139.535 50.6657 139.157 49.909Z" fill="#F7F7F7"/>
<path d="M336.622 49.9373L333.221 41.2985L329.063 53.7168H325.662L322.072 63.7953L318.671 45.9779H314.513L310.923 52.6969L307.333 52.037L303.743 47.2377L295.617 63.7953L293.595 38.3203M136.647 38.7183L139.346 63.7953L142.936 49.0374L147.094 49.8773L150.873 54.4367L155.03 54.7966L158.242 52.6969L161.833 51.4371L165.423 63.7953L169.391 53.7168L173.359 54.4367L177.138 49.5174L180.918 49.0374L184.13 54.4367L188.287 55.4565L192.066 63.7953L195.279 61.7556L199.436 53.7168L200.872 55.2616M204.632 55.0366L206.427 52.6969L210.585 38.8989L217.765 63.7953L221.544 60.8557L225.324 56.5964L229.103 49.0374L232.693 52.6969L236.283 45.138L240.441 50.8972L243.842 63.7953L247.432 60.4358L251.211 50.8972L254.991 48.0176L258.581 44.2981L262.36 53.1169L266.328 53.7168L270.296 63.7953L273.509 58.5761L274.986 60.4307M282.698 34.5389L285.035 50.8972L288.248 52.6969L291.203 34.3398" stroke="#7A7A7A" stroke-width="0.8" stroke-linecap="round" stroke-linejoin="round"/>
<path d="M291.46 33.7432L292.594 26.6963L293.414 37.0271" stroke="#E96560" stroke-width="0.8" stroke-linecap="round" stroke-linejoin="round"/>
<path d="M275.526 61.3067L277.666 63.9935L280.878 21.9995L282.549 33.6907" stroke="#E96560" stroke-width="0.8" stroke-linecap="round" stroke-linejoin="round"/>
<path d="M201.25 55.6346L202.868 57.3755L204.306 55.4355" stroke="#E96560" stroke-width="0.8" stroke-linecap="round" stroke-linejoin="round"/>
<path d="M135.788 37.5233L136.323 35.7002L136.583 38.1203" stroke="#E96560" stroke-width="0.8" stroke-linecap="round" stroke-linejoin="round"/>
<path d="M333.37 116.867L337 115.123V130.82C336.395 131.305 334.822 132.448 333.37 133.146C331.918 133.844 330.863 133.695 330.517 133.534C329.912 133.243 328.443 132.526 327.406 131.983C326.109 131.305 325.59 131.983 324.553 131.983C323.516 131.983 321.182 131.789 319.367 130.82C317.915 130.045 316.169 130.304 315.478 130.53C314.44 131.111 312.158 132.351 311.329 132.662C310.291 133.049 307.18 133.727 306.661 133.146C306.246 132.681 303.549 132.177 302.253 131.983L299.401 132.274C298.536 132.08 296.652 131.576 296.03 131.111C295.407 130.646 293.35 130.917 292.399 131.111C291.448 131.531 289.288 132.526 288.25 133.146C286.954 133.921 284.101 133.727 284.101 133.534C284.101 133.34 280.471 131.983 278.915 131.983H275.804C275.371 131.693 274.092 130.956 272.433 130.336C270.773 129.716 269.667 130.207 269.321 130.53C268.457 131.143 266.157 132.603 263.875 133.534C261.594 134.464 260.85 133.792 260.764 133.34C260.159 133.017 258.793 132.293 258.171 131.983C257.393 131.596 256.874 131.983 255.059 132.371C253.244 132.758 251.688 131.983 249.614 130.724C247.954 129.716 246.675 130.368 246.243 130.82C245.983 131.014 244.791 131.673 242.094 132.758C238.723 134.115 238.204 133.437 236.13 132.371C234.055 131.305 232.759 131.886 231.981 131.983C231.203 132.08 229.647 132.08 227.313 130.82C225.446 129.813 224.461 130.271 224.202 130.627C223.337 131.014 221.142 131.983 219.275 132.758C216.941 133.727 214.348 132.952 213.57 132.371C212.792 131.789 210.977 131.208 209.94 131.402C208.902 131.596 205.531 131.402 204.235 130.82C203.198 130.355 202.074 130.627 201.642 130.82C200.691 131.273 198.271 132.39 196.196 133.243C193.603 134.309 192.307 133.727 191.529 132.952C190.751 132.177 187.639 131.111 186.602 131.402C185.565 131.693 183.231 131.499 180.638 130.82C178.564 130.278 177.526 130.594 177.267 130.82C175.884 131.531 172.911 133.01 172.081 133.243C171.044 133.534 169.488 134.018 168.71 132.952C167.932 131.886 164.042 131.789 163.005 131.983C161.968 132.177 159.893 131.693 158.078 130.724C156.626 129.948 154.88 130.401 154.189 130.724C153.497 131.273 151.544 132.545 149.262 133.243C146.98 133.941 144.335 133.534 143.298 133.243C141.223 132.694 136.66 131.421 135 130.724L135.11 114.274C137.53 114.92 143.246 116.325 145.113 116.867C146.98 117.41 148.657 117.029 149.262 116.77C150.299 116.415 152.737 115.53 154.189 114.833C155.641 114.135 157.041 114.283 157.56 114.445C158.078 114.574 159.271 114.91 159.893 115.22C160.516 115.53 161.881 115.543 162.487 115.511H164.82C166.272 115.511 166.635 115.64 166.635 115.705C167.154 115.963 168.451 116.596 169.488 117.061C170.525 117.526 171.994 117.19 172.599 116.964C173.982 116.189 177.06 114.426 178.304 113.573C179.549 112.72 180.552 113.218 180.897 113.573C181.416 113.864 182.609 114.542 183.231 114.929C184.009 115.414 184.787 115.317 187.121 115.22C188.988 115.143 189.627 115.382 189.714 115.511L192.307 116.964C193.137 117.429 194.554 117.158 195.159 116.964C196.629 116.286 199.827 114.833 200.864 114.445C202.16 113.96 203.716 114.251 205.013 114.929C206.309 115.608 207.865 115.123 209.162 114.929C210.199 114.774 211.668 115.123 212.273 115.317C212.878 115.672 214.4 116.499 215.644 116.964C216.889 117.429 218.065 117.029 218.497 116.77C219.62 116.221 222.231 114.949 223.683 114.251C225.498 113.379 227.832 114.445 228.091 114.736C228.35 115.026 230.425 115.511 231.203 115.511C231.825 115.511 234.055 115.769 235.092 115.898C235.611 116.189 236.856 116.848 237.685 117.158C238.515 117.468 239.933 117.287 240.538 117.158C242.353 116.415 246.191 114.794 247.021 114.251C247.85 113.709 249.268 113.896 249.873 114.057C250.392 114.283 251.636 114.813 252.466 115.123C253.503 115.511 254.8 115.414 256.874 115.317C258.534 115.239 258.949 115.414 258.949 115.511C259.467 115.834 260.712 116.577 261.542 116.964C262.371 117.352 263.962 116.997 264.653 116.77C266.036 116.028 269.165 114.426 270.617 113.96C272.433 113.379 272.951 113.96 274.507 114.736C276.063 115.511 277.1 115.414 278.915 115.123C280.367 114.891 281.595 115.22 282.027 115.414C282.2 115.672 282.857 116.305 284.101 116.77C285.346 117.236 286.349 116.964 286.694 116.77C287.991 116.286 290.947 115.201 292.399 114.736C293.851 114.271 294.733 114.542 294.992 114.736L297.845 115.801C298.674 116.112 299.746 115.931 300.178 115.801C300.265 115.737 300.801 115.55 302.253 115.317C303.705 115.084 304.587 115.414 304.846 115.608C305.278 115.898 306.35 116.577 307.18 116.964C308.009 117.352 309.427 116.997 310.032 116.77C311.329 116.157 314.233 114.736 315.478 113.96C316.722 113.185 318.589 113.767 319.367 114.154L320.404 114.736C320.923 115.026 322.738 115.414 324.553 115.317C326.005 115.239 327.06 115.478 327.406 115.608C328.011 115.963 329.48 116.77 330.517 117.158C331.555 117.546 332.851 117.126 333.37 116.867Z" fill="#F7F7F7"/>
<path d="M337 125.996L331.036 127.458L327.665 117.811L324.553 124.827L320.923 125.996L317.552 125.119L314.44 125.996L308.217 127.945L304.587 126.386L301.475 123.073L298.363 126.776L294.733 123.463L291.881 125.996L284.879 127.263L282.707 115.836M137.852 124.925L140.964 126.289L147.447 127.458L154.189 124.437L157.56 126.581L160.412 123.073L163.783 126.873L167.154 122.976L170.525 126.971L176.489 126.386L179.601 123.463L183.49 121.124L185.824 127.556L189.973 127.263L193.603 127.945L195.048 116.617M280.747 115.055L278.397 124.632L272.173 124.242L268.543 125.314L262.32 125.996L258.949 127.263L255.318 126.776L252.207 119.37L249.095 115.667L245.983 126.776L239.241 118.786L235.87 126.386L232.499 123.463L229.388 126.776L226.625 114.078M225.349 114.273L222.646 126.386L215.904 127.556L213.051 125.704L209.68 124.925L206.569 126.386L203.883 114.273" stroke="#7A7A7A" stroke-width="0.8" stroke-linecap="round" stroke-linejoin="round"/>
<path d="M203.515 113.395L203 110.5L199.308 84L195.285 115.543" stroke="#E96560" stroke-width="0.8" stroke-linecap="round" stroke-linejoin="round"/>
<path d="M226.4 113.002L226.03 111.301L225.58 113.315" stroke="#E96560" stroke-width="0.8" stroke-linecap="round" stroke-linejoin="round"/>
<path d="M282.595 114.92L281.841 110.953L281.107 113.943" stroke="#E96560" stroke-width="0.8" stroke-linecap="round" stroke-linejoin="round"/>
<path d="M235.528 171.856C238.853 171.856 241.548 169.157 241.548 165.827C241.548 162.496 238.853 159.796 235.528 159.796C232.205 159.796 229.51 162.496 229.51 165.827C229.51 169.157 232.205 171.856 235.528 171.856Z" fill="#7A7A7A"/>
<path d="M2 221.405H500" stroke="#BDBDBD" stroke-width="2.93252" stroke-miterlimit="10" stroke-linecap="round" stroke-linejoin="round"/>
<path d="M357.32 115.196L329.741 108.429L332.205 100.011L359.782 106.779L357.32 115.196Z" fill="#222222"/>
<path d="M346.279 119.249L337.086 116.994L340.166 106.472L349.359 108.728L346.279 119.249Z" fill="#222222"/>
<path d="M368.153 137.616L363.402 130.072L370.249 126.455L375 133.999L368.153 137.616Z" fill="#222222"/>
<path d="M299.657 143.899C294.903 160.146 305.471 176.902 323.21 181.254C340.949 185.607 359.25 175.934 364.004 159.687C368.758 143.441 358.189 126.685 340.452 122.333C322.713 117.981 304.41 127.653 299.657 143.899Z" fill="white"/>
<path d="M320.746 189.659C297.938 184.063 284.353 162.517 290.464 141.632C296.576 120.746 320.105 108.306 342.915 113.903C365.724 119.499 379.308 141.045 373.197 161.931C367.086 182.816 343.555 195.256 320.746 189.659ZM340.452 122.321C322.713 117.969 304.41 127.641 299.658 143.887C294.903 160.133 305.471 176.89 323.21 181.242C340.949 185.594 359.25 175.921 364.004 159.675C368.759 143.429 358.189 126.673 340.452 122.321Z" fill="#BDBDBD"/>
<path d="M324.441 177.041C309.239 173.31 300.178 158.947 304.253 145.022C308.328 131.097 324.017 122.806 339.22 126.536C341.756 127.158 343.264 129.548 342.585 131.873C341.904 134.197 339.291 135.576 336.757 134.954C326.616 132.466 316.162 137.996 313.446 147.278C310.729 156.56 316.765 166.135 326.904 168.623C329.44 169.245 330.949 171.635 330.27 173.96C329.589 176.284 326.976 177.663 324.441 177.041Z" fill="#F5F5F5"/>
<path d="M330.599 155.998C328.064 155.376 326.555 152.983 327.235 150.662C327.914 148.341 330.527 146.959 333.061 147.581C335.597 148.203 337.106 150.596 336.427 152.917C335.748 155.239 333.133 156.62 330.599 155.998Z" fill="#222222"/>
<path d="M331.83 151.796C330.559 151.484 329.808 150.289 330.149 149.128L336.305 128.085C336.647 126.924 337.948 126.232 339.219 126.544C340.491 126.856 341.242 128.052 340.902 129.212L334.745 150.256C334.405 151.416 333.102 152.108 331.83 151.796Z" fill="#222222"/>
<path d="M151.4 239H456.059" stroke="#BDBDBD" stroke-width="2.93252" stroke-miterlimit="10" stroke-linecap="round" stroke-linejoin="round"/>
<path d="M51.7998 239H89.8822" stroke="#BDBDBD" stroke-width="2.93252" stroke-miterlimit="10" stroke-linecap="round" stroke-linejoin="round"/>
</svg>
