<svg width="16" height="16" viewBox="0 0 16 16" fill="none" xmlns="http://www.w3.org/2000/svg">
<path d="M0.299776 14.2529L6.5526 8.00002L0.299776 1.74718C-0.0998573 1.34748 -0.0998573 0.699479 0.299845 0.299844C0.699478 -0.0998579 1.34754 -0.0998579 1.74724 0.299844L8 6.55261L14.2528 0.299777C14.6525 -0.0999256 15.3005 -0.0999256 15.7002 0.299777C16.0999 0.699479 16.0999 1.34748 15.7002 1.74718L9.4474 8.00002L15.7002 14.2529C16.0999 14.6526 16.0999 15.3006 15.7002 15.7003C15.5004 15.9001 15.2384 16 14.9766 16C14.7146 16 14.4527 15.9001 14.2528 15.7003L8 9.44742L1.74718 15.7003C1.54733 15.9001 1.28539 16 1.02344 16C0.761501 16 0.499558 15.9001 0.299776 15.7003C-0.099926 15.3006 -0.099926 14.6526 0.299776 14.2529Z" fill="#7A7A7A"/>
</svg>
