<svg width="24" height="24" viewBox="0 0 24 24" fill="none" xmlns="http://www.w3.org/2000/svg">
<path d="M9.49967 7.83398H6.99967C6.55765 7.83398 6.13372 8.00958 5.82116 8.32214C5.5086 8.6347 5.33301 9.05862 5.33301 9.50065V17.0006C5.33301 17.4427 5.5086 17.8666 5.82116 18.1792C6.13372 18.4917 6.55765 18.6673 6.99967 18.6673H14.4997C14.9417 18.6673 15.3656 18.4917 15.6782 18.1792C15.9907 17.8666 16.1663 17.4427 16.1663 17.0006V14.5006" stroke="#222222" stroke-width="1.3" stroke-linecap="round" stroke-linejoin="round"/>
<path d="M9.5 14.5005H12L19.0833 7.41718C19.4149 7.08566 19.6011 6.63602 19.6011 6.16718C19.6011 5.69834 19.4149 5.2487 19.0833 4.91718C18.7518 4.58566 18.3022 4.39941 17.8333 4.39941C17.3645 4.39941 16.9149 4.58566 16.5833 4.91718L9.5 12.0005V14.5005Z" stroke="#222222" stroke-width="1.3" stroke-linecap="round" stroke-linejoin="round"/>
<path d="M15.333 6.16602L17.833 8.66602" stroke="#222222" stroke-width="1.3" stroke-linecap="round" stroke-linejoin="round"/>
</svg>
