<svg width="140" height="128" viewBox="0 0 140 128" fill="none" xmlns="http://www.w3.org/2000/svg">
<path d="M104.891 127.746C93.594 128.015 80.1452 127.746 70.5968 127.611C61.0484 127.881 47.5996 128.015 36.3035 127.746C47.4651 121.432 51.2311 109.746 51.9032 101.955H89.1559C89.9625 109.746 93.7285 121.432 104.891 127.746Z" fill="#F5F5F5"/>
<path d="M139.571 4.14573V100.309C139.571 102.472 137.896 104.03 135.845 104.03H4.60611C2.56423 104.03 0.880352 102.347 0.880352 100.309V4.14573C0.880352 2.10785 2.56411 0.425884 4.60611 0.425884H135.845C137.896 0.425884 139.571 1.98321 139.571 4.14573Z" fill="white" stroke="#BDBDBD" stroke-width="0.851768"/>
<path d="M139.146 4.36815V85.7731H1.3053V4.24655C1.3053 2.02889 2.45775 0.849609 4.70876 0.849609H135.742C137.861 0.849609 139.146 2.02018 139.146 4.36815Z" fill="#F5F5F5"/>
<rect x="5.22858" y="4.64648" width="130.124" height="77.2614" rx="1.16183" fill="white"/>
<path d="M25.833 40.2734H19.3825C18.9217 40.2734 18 39.7309 18 39.4597V25.0871C18 24.5448 18.461 24.2734 19.3825 24.2734H25.833C26.2937 24.2734 27.2152 24.8159 27.2152 25.0871V39.4597C27.2152 39.7309 26.2937 40.2734 25.833 40.2734Z" fill="#60CA9A"/>
<path d="M44.2632 23.5453H37.8127C37.352 23.5453 36.4302 23.3973 36.4302 23.3234V19.4036C36.4302 19.2556 36.8912 19.1816 37.8127 19.1816H44.2632C44.724 19.1816 45.6454 19.3296 45.6454 19.4036V23.3234C45.6454 23.3973 44.724 23.5453 44.2632 23.5453Z" fill="#BDBDBD"/>
<path d="M62.6939 30.0914H56.2434C55.7826 30.0914 54.8609 29.9681 54.8609 29.9065V26.64C54.8609 26.5167 55.3219 26.4551 56.2434 26.4551H62.6939C63.1546 26.4551 64.0761 26.5784 64.0761 26.64V29.9065C64.0761 29.9681 63.1546 30.0914 62.6939 30.0914Z" fill="#BDBDBD"/>
<path d="M99.1769 30.0914H93.0373C92.5988 30.0914 91.7214 29.9681 91.7214 29.9065V26.64C91.7214 26.5167 92.1602 26.4551 93.0373 26.4551H99.1769C99.6155 26.4551 100.493 26.5784 100.493 26.64V29.9065C100.493 29.9681 99.6155 30.0914 99.1769 30.0914Z" fill="#BDBDBD"/>
<path d="M81.1241 35.1827H74.6736C74.2129 35.1827 73.2911 35.0101 73.2911 34.9238V30.3507C73.2911 30.1781 73.7521 30.0918 74.6736 30.0918H81.1241C81.5849 30.0918 82.5063 30.2644 82.5063 30.3507V34.9238C82.5063 35.0101 81.5849 35.1827 81.1241 35.1827Z" fill="#BDBDBD"/>
<path d="M117.985 41.0009H111.534C111.074 41.0009 110.152 40.631 110.152 40.4461V30.6466C110.152 30.2768 110.613 30.0918 111.534 30.0918H117.985C118.446 30.0918 119.367 30.4617 119.367 30.6466V40.4461C119.367 40.631 118.446 41.0009 117.985 41.0009Z" fill="#60CA9A"/>
<path d="M24.8566 64.5H17.1434C17.0717 64.5 17 64.2273 17 63.75C17 63.3799 17.0538 63 17.1434 63H24.8566C24.9283 63 25 63.2825 25 63.75C25 64.1299 24.9283 64.5 24.8566 64.5Z" fill="#D6DCE8"/>
<path d="M121.892 64.5H116.108C116.054 64.5 116 64.2273 116 63.75C116 63.3799 116.04 63 116.108 63H121.892C121.946 63 122 63.2825 122 63.75C122 64.1299 121.946 64.5 121.892 64.5Z" fill="#D6DCE8"/>
<path d="M24.8566 73.5H17.1434C17.0717 73.5 17 73.2273 17 72.75C17 72.3799 17.0538 72 17.1434 72H24.8566C24.9283 72 25 72.2825 25 72.75C25 73.1299 24.9283 73.5 24.8566 73.5Z" fill="#D6DCE8"/>
<path d="M121.892 73.5H116.108C116.054 73.5 116 73.2273 116 72.75C116 72.3799 116.04 72 116.108 72H121.892C121.946 72 122 72.2825 122 72.75C122 73.1299 121.946 73.5 121.892 73.5Z" fill="#D6DCE8"/>
<path d="M44.6677 55.5H33.0979C32.9904 55.5 32.8828 55.2273 32.8828 54.75C32.8828 54.3799 32.9636 54 33.0979 54H44.6677C44.7752 54 44.8828 54.2825 44.8828 54.75C44.8828 55.1299 44.7752 55.5 44.6677 55.5Z" fill="#D6DCE8"/>
<path d="M76.0405 55.5H52.901C52.6858 55.5 52.4707 55.2273 52.4707 54.75C52.4707 54.3799 52.6322 54 52.901 54H76.0405C76.2556 54 76.4707 54.2825 76.4707 54.75C76.4707 55.1299 76.2556 55.5 76.0405 55.5Z" fill="#D6DCE8"/>
<path d="M108.04 55.5H84.901C84.6858 55.5 84.4707 55.2273 84.4707 54.75C84.4707 54.3799 84.6322 54 84.901 54H108.04C108.256 54 108.471 54.2825 108.471 54.75C108.471 55.1299 108.256 55.5 108.04 55.5Z" fill="#D6DCE8"/>
<path d="M44.6677 64.5H33.0979C32.9904 64.5 32.8828 64.2273 32.8828 63.75C32.8828 63.3799 32.9636 63 33.0979 63H44.6677C44.7752 63 44.8828 63.2825 44.8828 63.75C44.8828 64.1299 44.7752 64.5 44.6677 64.5Z" fill="#D6DCE8"/>
<path d="M76.0405 64.5H52.901C52.6858 64.5 52.4707 64.2273 52.4707 63.75C52.4707 63.3799 52.6322 63 52.901 63H76.0405C76.2556 63 76.4707 63.2825 76.4707 63.75C76.4707 64.1299 76.2556 64.5 76.0405 64.5Z" fill="#D6DCE8"/>
<path d="M108.04 64.5H84.901C84.6858 64.5 84.4707 64.2273 84.4707 63.75C84.4707 63.3799 84.6322 63 84.901 63H108.04C108.256 63 108.471 63.2825 108.471 63.75C108.471 64.1299 108.256 64.5 108.04 64.5Z" fill="#D6DCE8"/>
<path d="M44.6677 73.5H33.0979C32.9904 73.5 32.8828 73.2273 32.8828 72.75C32.8828 72.3799 32.9636 72 33.0979 72H44.6677C44.7752 72 44.8828 72.2825 44.8828 72.75C44.8828 73.1299 44.7752 73.5 44.6677 73.5Z" fill="#D6DCE8"/>
<path d="M76.0405 73.5H52.901C52.6858 73.5 52.4707 73.2273 52.4707 72.75C52.4707 72.3799 52.6322 72 52.901 72H76.0405C76.2556 72 76.4707 72.2825 76.4707 72.75C76.4707 73.1299 76.2556 73.5 76.0405 73.5Z" fill="#D6DCE8"/>
<path d="M108.04 73.5H84.901C84.6858 73.5 84.4707 73.2273 84.4707 72.75C84.4707 72.3799 84.6322 72 84.901 72H108.04C108.256 72 108.471 72.2825 108.471 72.75C108.471 73.1299 108.256 73.5 108.04 73.5Z" fill="#D6DCE8"/>
<path d="M24.8566 60H17.1434C17.0717 60 17 59.7193 17 59.2548C17 58.8774 17.0538 58.5 17.1434 58.5H24.8566C24.9283 58.5 25 58.7807 25 59.2548C25 59.7193 24.9283 60 24.8566 60Z" fill="#D6DCE8"/>
<path d="M121.892 60H116.108C116.054 60 116 59.7193 116 59.2548C116 58.8774 116.04 58.5 116.108 58.5H121.892C121.946 58.5 122 58.7807 122 59.2548C122 59.7193 121.946 60 121.892 60Z" fill="#D6DCE8"/>
<path d="M24.8566 55.5H17.1434C17.0717 55.5 17 55.2193 17 54.7548C17 54.3774 17.0538 54 17.1434 54H24.8566C24.9283 54 25 54.2807 25 54.7548C25 55.2193 24.9283 55.5 24.8566 55.5Z" fill="#D6DCE8"/>
<path d="M121.892 55.5H116.108C116.054 55.5 116 55.2193 116 54.7548C116 54.3774 116.04 54 116.108 54H121.892C121.946 54 122 54.2807 122 54.7548C122 55.2193 121.946 55.5 121.892 55.5Z" fill="#D6DCE8"/>
<path d="M24.8566 69H17.1434C17.0717 69 17 68.7193 17 68.2548C17 67.8774 17.0538 67.5 17.1434 67.5H24.8566C24.9283 67.5 25 67.7807 25 68.2548C25 68.7193 24.9283 69 24.8566 69Z" fill="#D6DCE8"/>
<path d="M121.892 69H116.108C116.054 69 116 68.7193 116 68.2548C116 67.8774 116.04 67.5 116.108 67.5H121.892C121.946 67.5 122 67.7807 122 68.2548C122 68.7193 121.946 69 121.892 69Z" fill="#D6DCE8"/>
<path d="M44.6677 60H33.0979C32.9904 60 32.8828 59.7193 32.8828 59.2548C32.8828 58.8774 32.9636 58.5 33.0979 58.5H44.6677C44.7752 58.5 44.8828 58.7807 44.8828 59.2548C44.8828 59.7193 44.7752 60 44.6677 60Z" fill="#D6DCE8"/>
<path d="M76.0405 60H52.901C52.6858 60 52.4707 59.7193 52.4707 59.2548C52.4707 58.8774 52.6322 58.5 52.901 58.5H76.0405C76.2556 58.5 76.4707 58.7807 76.4707 59.2548C76.4707 59.7193 76.2556 60 76.0405 60Z" fill="#D6DCE8"/>
<path d="M108.04 60H84.901C84.6858 60 84.4707 59.7193 84.4707 59.2548C84.4707 58.8774 84.6322 58.5 84.901 58.5H108.04C108.256 58.5 108.471 58.7807 108.471 59.2548C108.471 59.7193 108.256 60 108.04 60Z" fill="#D6DCE8"/>
<path d="M44.6677 69H33.0979C32.9904 69 32.8828 68.7193 32.8828 68.2548C32.8828 67.8774 32.9636 67.5 33.0979 67.5H44.6677C44.7752 67.5 44.8828 67.7807 44.8828 68.2548C44.8828 68.7193 44.7752 69 44.6677 69Z" fill="#D6DCE8"/>
<path d="M76.0405 69H52.901C52.6858 69 52.4707 68.7193 52.4707 68.2548C52.4707 67.8774 52.6322 67.5 52.901 67.5H76.0405C76.2556 67.5 76.4707 67.7807 76.4707 68.2548C76.4707 68.7193 76.2556 69 76.0405 69Z" fill="#D6DCE8"/>
<path d="M108.04 69H84.901C84.6858 69 84.4707 68.7193 84.4707 68.2548C84.4707 67.8774 84.6322 67.5 84.901 67.5H108.04C108.256 67.5 108.471 67.7807 108.471 68.2548C108.471 68.7193 108.256 69 108.04 69Z" fill="#D6DCE8"/>
<path d="M40.5698 49H17.4302C17.2151 49 17 48.6258 17 48.0065C17 47.5032 17.1615 47 17.4302 47H40.5698C40.7849 47 41 47.3742 41 48.0065C41 48.6258 40.7849 49 40.5698 49Z" fill="#7A7A7A"/>
<path d="M11.3572 11.7285C12.1113 11.7285 12.7144 11.1185 12.7144 10.3643C12.7144 9.59893 12.1113 9 11.3572 9C10.6031 9 10 9.59893 10 10.3643C10 11.1185 10.6031 11.7285 11.3572 11.7285Z" fill="#BDBDBD"/>
<path d="M15.7293 11.7285C16.4834 11.7285 17.0865 11.1185 17.0865 10.3643C17.0865 9.59893 16.4834 9 15.7293 9C14.9762 9 14.3721 9.59893 14.3721 10.3643C14.3721 11.1185 14.9762 11.7285 15.7293 11.7285Z" fill="#BDBDBD"/>
<path d="M20.1033 11.7285C20.8574 11.7285 21.4605 11.1185 21.4605 10.3643C21.4605 9.59893 20.8574 9 20.1033 9C19.3492 9 18.7461 9.59893 18.7461 10.3643C18.7461 11.1185 19.3492 11.7285 20.1033 11.7285Z" fill="#BDBDBD"/>
<path d="M70.5974 99.5377C72.5289 99.5377 74.0945 97.9743 74.0945 96.0456C74.0945 94.1162 72.5289 92.5527 70.5974 92.5527C68.6668 92.5527 67.1012 94.1162 67.1012 96.0456C67.1012 97.9743 68.6668 99.5377 70.5974 99.5377Z" fill="#7A7A7A"/>
</svg>
