<svg width="204" height="105" viewBox="0 0 204 105" fill="none" xmlns="http://www.w3.org/2000/svg">
<path d="M119.67 95.9748C111.782 96.1765 102.391 95.9748 95.7237 95.8734C89.0565 96.0756 79.6659 96.1765 71.7784 95.9748C79.572 91.231 82.2016 82.451 82.6709 76.5977H108.683C109.246 82.451 111.875 91.231 119.67 95.9748Z" fill="#F5F5F5"/>
<path d="M143.882 3.11472V75.3632C143.882 77.0202 142.693 78.1784 141.283 78.1784H49.6458C48.2419 78.1784 47.0471 76.9264 47.0471 75.3632V3.11472C47.0471 1.5516 48.2419 0.300134 49.6458 0.300134H141.283C142.693 0.300134 143.882 1.45775 143.882 3.11472Z" fill="white" stroke="#BDBDBD" stroke-width="0.600268"/>
<path d="M143.588 3.28022V64.4404H47.3412V3.18887C47.3412 1.52272 48.1459 0.636719 49.7177 0.636719H141.212C142.691 0.636719 143.588 1.51618 143.588 3.28022Z" fill="#F5F5F5"/>
<rect x="50.0809" y="3.49219" width="90.8594" height="58.0618" rx="0.818775" fill="white"/>
<path d="M54 8C54.5557 8 55 7.55285 55 7C55 6.43902 54.5557 6 54 6C53.4444 6 53 6.43902 53 7C53 7.55285 53.4444 8 54 8Z" fill="#BDBDBD"/>
<path d="M57.5 8C58.0556 8 58.5 7.55285 58.5 7C58.5 6.43902 58.0556 6 57.5 6C56.9452 6 56.5 6.43902 56.5 7C56.5 7.55285 56.9452 8 57.5 8Z" fill="#BDBDBD"/>
<path d="M61 8C61.5556 8 62 7.55285 62 7C62 6.43902 61.5556 6 61 6C60.4443 6 60 6.43902 60 7C60 7.55285 60.4443 8 61 8Z" fill="#BDBDBD"/>
<g clip-path="url(#clip0_6840_5126)">
<mask id="mask0_6840_5126" style="mask-type:alpha" maskUnits="userSpaceOnUse" x="50" y="1" width="93" height="55">
<rect x="50.4003" y="1.27734" width="91.7028" height="54.4485" rx="0.818775" fill="white"/>
</mask>
<g mask="url(#mask0_6840_5126)">
<path d="M63.6269 48.9974H58.665C58.3106 48.9974 57.6016 48.2741 57.6016 47.9125V28.749C57.6016 28.0258 57.9562 27.6641 58.665 27.6641H63.6269C63.9814 27.6641 64.6902 28.3874 64.6902 28.749V47.9125C64.6902 48.2741 63.9814 48.9974 63.6269 48.9974Z" fill="#7A7A7A"/>
<path d="M77.8042 26.6971H72.8423C72.4878 26.6971 71.7788 26.4998 71.7788 26.4012V21.1748C71.7788 20.9776 72.1334 20.8789 72.8423 20.8789H77.8042C78.1586 20.8789 78.8674 21.0762 78.8674 21.1748V26.4012C78.8674 26.4998 78.1586 26.6971 77.8042 26.6971Z" fill="#BDBDBD"/>
<path d="M91.9814 35.4227H87.0195C86.6651 35.4227 85.9561 35.2583 85.9561 35.1761V30.8208C85.9561 30.6564 86.3107 30.5742 87.0195 30.5742H91.9814C92.3359 30.5742 93.0447 30.7386 93.0447 30.8208V35.1761C93.0447 35.2583 92.3359 35.4227 91.9814 35.4227Z" fill="#BDBDBD"/>
<path d="M120.046 35.4227H115.323C114.985 35.4227 114.311 35.2583 114.311 35.1761V30.8208C114.311 30.6564 114.648 30.5742 115.323 30.5742H120.046C120.383 30.5742 121.058 30.7386 121.058 30.8208V35.1761C121.058 35.2583 120.383 35.4227 120.046 35.4227Z" fill="#BDBDBD"/>
<path d="M106.159 42.2098H101.197C100.842 42.2098 100.133 41.9796 100.133 41.8646V35.7671C100.133 35.537 100.488 35.4219 101.197 35.4219H106.159C106.513 35.4219 107.222 35.652 107.222 35.7671V41.8646C107.222 41.9796 106.513 42.2098 106.159 42.2098Z" fill="#BDBDBD"/>
<path d="M134.513 49.9673H129.551C129.197 49.9673 128.488 49.4742 128.488 49.2276V36.1616C128.488 35.6685 128.842 35.4219 129.551 35.4219H134.513C134.868 35.4219 135.576 35.9151 135.576 36.1616V49.2276C135.576 49.4742 134.868 49.9673 134.513 49.9673Z" fill="#7A7A7A"/>
</g>
</g>
<path d="M95.7241 74.783C97.0728 74.783 98.1659 73.6084 98.1659 72.1594C98.1659 70.7098 97.0728 69.5352 95.7241 69.5352C94.3761 69.5352 93.2829 70.7098 93.2829 72.1594C93.2829 73.6084 94.3761 74.783 95.7241 74.783Z" fill="#7A7A7A"/>
<path d="M1 96.3438H203" stroke="#BDBDBD" stroke-width="1.20054" stroke-miterlimit="10" stroke-linecap="round" stroke-linejoin="round"/>
<path d="M134.839 89.3542L134.839 89.3541L134.834 89.3533C126.325 87.5937 120.866 79.2816 122.632 70.807C124.399 62.329 132.668 56.8142 141.174 58.6546L141.176 58.6551C144.221 59.291 146.871 60.8081 149.128 62.8956C152.898 66.7299 154.422 72.0863 153.38 77.1981C153.057 78.5601 152.574 80.0075 152.013 81.2047C150.489 84.1571 148.083 86.4761 145.111 87.9912C142.056 89.5131 138.444 90.1534 134.839 89.3542Z" fill="#F5F5F5" stroke="#BDBDBD" stroke-width="0.6"/>
<path d="M143.017 72.6244H139.374V68.9816C139.374 68.2531 138.806 67.6016 137.997 67.6016C137.268 67.6016 136.62 68.1702 136.62 68.9816V72.6244H132.977C132.248 72.6244 131.6 73.193 131.6 74.0045C131.6 74.816 132.167 75.3787 132.977 75.3787H136.62V79.0273C136.62 79.7559 137.187 80.4016 137.997 80.4016C138.725 80.4016 139.374 79.8388 139.374 79.0273V75.3787H143.017C143.745 75.3787 144.393 74.816 144.393 74.0045C144.474 73.193 143.827 72.6244 143.017 72.6244Z" fill="#E96560"/>
<path d="M61.6005 104H185.177" stroke="#BDBDBD" stroke-width="1.20054" stroke-miterlimit="10" stroke-linecap="round" stroke-linejoin="round"/>
<path d="M21.2002 104H36.6473" stroke="#BDBDBD" stroke-width="1.20054" stroke-miterlimit="10" stroke-linecap="round" stroke-linejoin="round"/>
<defs>
<clipPath id="clip0_6840_5126">
<rect width="145.846" height="38.728" fill="white" transform="translate(15.6016 13.9688)"/>
</clipPath>
</defs>
</svg>
