<svg width="16" height="16" viewBox="0 0 16 16" fill="none" xmlns="http://www.w3.org/2000/svg">
<path d="M6.00032 4.66687H4.00033C3.6467 4.66687 3.30756 4.80735 3.05752 5.05739C2.80747 5.30744 2.66699 5.64658 2.66699 6.0002V12.0002C2.66699 12.3538 2.80747 12.693 3.05752 12.943C3.30756 13.1931 3.6467 13.3335 4.00033 13.3335H10.0003C10.3539 13.3335 10.6931 13.1931 10.9431 12.943C11.1932 12.693 11.3337 12.3538 11.3337 12.0002V10.0002" stroke="white" stroke-width="1.2" stroke-linecap="round" stroke-linejoin="round"/>
<path d="M6 10.0001H8L13.6667 4.3334C13.9319 4.06819 14.0809 3.70848 14.0809 3.3334C14.0809 2.95833 13.9319 2.59862 13.6667 2.3334C13.4015 2.06819 13.0417 1.91919 12.6667 1.91919C12.2916 1.91919 11.9319 2.06819 11.6667 2.3334L6 8.00007V10.0001Z" stroke="white" stroke-width="1.2" stroke-linecap="round" stroke-linejoin="round"/>
<path d="M10.667 3.33313L12.667 5.33313" stroke="white" stroke-width="1.2" stroke-linecap="round" stroke-linejoin="round"/>
</svg>
