<svg width="17" height="18" viewBox="0 0 16 16" fill="none" xmlns="http://www.w3.org/2000/svg">
<path fill-rule="evenodd" clip-rule="evenodd" d="M4.7338 2.04408C4.54796 2.10441 4.42145 2.18565 4.28491 2.3323C4.15339 2.47357 4.0924 2.58149 4.03715 2.77075C4.00348 2.88608 4 3.3779 4 7.99954C4 12.6212 4.00348 13.113 4.03715 13.2283C4.0924 13.4176 4.15339 13.5255 4.28491 13.6668C4.42385 13.816 4.54893 13.8953 4.74135 13.9561C4.87568 13.9986 5.01963 14.0003 8.49628 14C12.3656 13.9997 12.2131 14.0041 12.4445 13.884C12.5754 13.816 12.7802 13.6194 12.8549 13.4899C12.8869 13.4345 12.9326 13.3253 12.9565 13.2472C12.9984 13.1106 13 12.957 13 9.08625C13 5.63914 12.9953 5.05815 12.9669 5.00386C12.9268 4.92735 10.102 2.06147 10.0304 2.02469C9.99446 2.00624 9.2446 1.99916 7.42268 2.00008C5.01349 2.00125 4.85777 2.0038 4.7338 2.04408ZM9.53846 3.65881C9.53846 4.6786 9.54338 4.73186 9.65895 4.9623C9.72038 5.08482 9.91771 5.29415 10.0409 5.36747C10.2786 5.50895 10.3316 5.51486 11.3639 5.51486H12.3082L12.3022 9.28704C12.2962 13.0556 12.2961 13.0593 12.2486 13.1239C12.2224 13.1595 12.1723 13.2104 12.1373 13.237C12.0736 13.2853 12.0733 13.2853 8.5 13.2853C4.92675 13.2853 4.92645 13.2853 4.86273 13.237C4.82768 13.2104 4.7776 13.1595 4.75143 13.1239L4.70385 13.0592L4.69711 8.08573C4.69339 5.35031 4.69669 3.06696 4.70442 3.01162C4.72141 2.89022 4.82668 2.75837 4.9312 2.72762C4.97253 2.71545 5.98083 2.70535 7.27115 2.70413L9.53846 2.70202V3.65881ZM11.2174 4.80689C10.8969 4.81071 10.5901 4.80736 10.5356 4.79944C10.4107 4.7813 10.2864 4.67436 10.2545 4.55775C10.2413 4.5092 10.231 4.19625 10.2309 3.83902L10.2308 3.20625L11.0155 4.0031L11.8003 4.79993L11.2174 4.80689ZM6.24402 7.01492C6.13884 7.08004 6.07708 7.19281 6.07708 7.31977C6.07708 7.44672 6.13884 7.55949 6.24402 7.62461C6.31766 7.67022 6.36455 7.67121 8.5 7.67121C10.6354 7.67121 10.6823 7.67022 10.756 7.62461C10.9789 7.48657 10.9789 7.15296 10.756 7.01492C10.6823 6.96931 10.6354 6.96833 8.5 6.96833C6.36455 6.96833 6.31766 6.96931 6.24402 7.01492ZM6.24402 8.42134C6.13884 8.48646 6.07708 8.59923 6.07708 8.72619C6.07708 8.85314 6.13884 8.96591 6.24402 9.03103C6.31766 9.07664 6.36455 9.07763 8.5 9.07763C10.6354 9.07763 10.6823 9.07664 10.756 9.03103C10.9789 8.89299 10.9789 8.55938 10.756 8.42134C10.6823 8.37573 10.6354 8.37474 8.5 8.37474C6.36455 8.37474 6.31766 8.37573 6.24402 8.42134ZM6.24402 9.82776C6.13884 9.89288 6.07708 10.0057 6.07708 10.1326C6.07708 10.2596 6.13884 10.3723 6.24402 10.4374C6.31766 10.4831 6.36455 10.484 8.5 10.484C10.6354 10.484 10.6823 10.4831 10.756 10.4374C10.9789 10.2994 10.9789 9.9658 10.756 9.82776C10.6823 9.78215 10.6354 9.78116 8.5 9.78116C6.36455 9.78116 6.31766 9.78215 6.24402 9.82776ZM6.24402 11.2342C6.13884 11.2993 6.07708 11.4121 6.07708 11.539C6.07708 11.666 6.13884 11.7787 6.24402 11.8439C6.31702 11.8891 6.36305 11.8905 7.80769 11.8905C9.25233 11.8905 9.29837 11.8891 9.37136 11.8439C9.59426 11.7058 9.59426 11.3722 9.37136 11.2342C9.29837 11.189 9.25233 11.1876 7.80769 11.1876C6.36305 11.1876 6.31702 11.189 6.24402 11.2342Z" fill="#222222"/>
</svg>
