<svg width="16" height="16" viewBox="0 0 16 16" fill="none" xmlns="http://www.w3.org/2000/svg">
<path d="M9.3338 2V4.66667C9.3338 4.84348 9.40404 5.01305 9.52906 5.13807C9.65409 5.2631 9.82366 5.33333 10.0005 5.33333H12.6671" stroke="#60CA9A" stroke-linecap="round" stroke-linejoin="round"/>
<path d="M11.3338 14H4.66713C4.31351 14 3.97437 13.8595 3.72433 13.6095C3.47428 13.3594 3.3338 13.0203 3.3338 12.6667V3.33333C3.3338 2.97971 3.47428 2.64057 3.72433 2.39052C3.97437 2.14048 4.31351 2 4.66713 2H9.3338L12.6671 5.33333V12.6667C12.6671 13.0203 12.5267 13.3594 12.2766 13.6095C12.0266 13.8595 11.6874 14 11.3338 14Z" stroke="#60CA9A" stroke-linecap="round" stroke-linejoin="round"/>
</svg>
