<svg width="16" height="16" viewBox="0 0 16 16" fill="none" xmlns="http://www.w3.org/2000/svg">
<path d="M9.33301 2V4.66667C9.33301 4.84348 9.40325 5.01305 9.52827 5.13807C9.65329 5.26309 9.82286 5.33333 9.99967 5.33333H12.6663" stroke="#7A7A7A" stroke-width="1.1" stroke-linecap="round" stroke-linejoin="round"/>
<path d="M11.333 14H4.66634C4.31272 14 3.97358 13.8595 3.72353 13.6095C3.47348 13.3594 3.33301 13.0203 3.33301 12.6667V3.33333C3.33301 2.97971 3.47348 2.64057 3.72353 2.39052C3.97358 2.14048 4.31272 2 4.66634 2H9.33301L12.6663 5.33333V12.6667C12.6663 13.0203 12.5259 13.3594 12.2758 13.6095C12.0258 13.8595 11.6866 14 11.333 14Z" stroke="#7A7A7A" stroke-width="1.1" stroke-linecap="round" stroke-linejoin="round"/>
<path d="M6.34831 7.6665L9.68164 7.6665" stroke="#7A7A7A" stroke-width="1.1" stroke-linecap="round" stroke-linejoin="round"/>
<path d="M6.33333 9.65674H7" stroke="#7A7A7A" stroke-width="1.1" stroke-linecap="round" stroke-linejoin="round"/>
<path d="M6.31836 11.6616H8.31836" stroke="#7A7A7A" stroke-width="1.1" stroke-linecap="round" stroke-linejoin="round"/>
</svg>
