<svg width="30" height="30" viewBox="0 0 30 30" fill="none" xmlns="http://www.w3.org/2000/svg">
<path d="M29.1062 10.4373L25.625 8.01855V14.6092L29.375 12.4998V10.9498C29.3743 10.8491 29.3496 10.7501 29.3028 10.6609C29.2561 10.5718 29.1887 10.4951 29.1062 10.4373Z" fill="#FFE477"/>
<path d="M25.625 14.6125V14.6094L19.375 18.125L29.375 26.875V12.5L25.625 14.6094V14.6125Z" fill="#FFD422"/>
<path d="M4.375 8.01855L0.89375 10.4373C0.811334 10.4951 0.743939 10.5718 0.697188 10.6609C0.650437 10.7501 0.625686 10.8491 0.625 10.9498V12.4998L4.375 14.6092V8.01855Z" fill="#FFE477"/>
<path d="M15 0.625L11.4062 3.125H18.5938L15 0.625Z" fill="#FFE477"/>
<path d="M10.625 18.125H19.375L25.625 14.6094V3.75C25.625 3.58424 25.5592 3.42527 25.4419 3.30806C25.3247 3.19085 25.1658 3.125 25 3.125H5C4.83424 3.125 4.67527 3.19085 4.55806 3.30806C4.44085 3.42527 4.375 3.58424 4.375 3.75V14.6094L10.625 18.125Z" fill="white"/>
<path d="M15.4738 11.9309C15.3001 12.1816 15.1047 12.3667 14.8863 12.4861C14.6679 12.6051 14.4068 12.6648 14.1037 12.6648C13.6052 12.6648 13.2241 12.5301 12.9611 12.2607C12.698 11.9913 12.5663 11.5921 12.5663 11.0627C12.5663 10.3228 12.7853 9.69893 13.2235 9.19146C13.6613 8.68364 14.2027 8.42991 14.8463 8.42991C15.0813 8.42991 15.2871 8.47725 15.4638 8.57161C15.6405 8.66597 15.7895 8.80901 15.9099 9.00107L16.1516 8.57395H17.1082L16.3977 11.4064L16.3924 11.4338L16.3787 11.5565C16.3787 11.6472 16.4034 11.7148 16.4531 11.7585C16.5027 11.8022 16.5754 11.8242 16.6711 11.8242C17.0956 11.8242 17.4677 11.6018 17.7881 11.157C18.1085 10.7122 18.2686 10.1947 18.2686 9.60457C18.2686 8.86936 17.9898 8.26686 17.433 7.79739C17.1543 7.56566 16.8352 7.39094 16.4764 7.27358C16.117 7.15621 15.7132 7.09753 15.2644 7.09753C14.8059 7.09753 14.3821 7.15387 13.992 7.26691C13.6019 7.37994 13.2461 7.54965 12.924 7.77538C12.4472 8.11281 12.0781 8.53694 11.8167 9.04775C11.5553 9.55856 11.4243 10.1111 11.4243 10.7056C11.4243 11.6372 11.7384 12.3817 12.3669 12.9392C12.9954 13.4964 13.8373 13.7748 14.8926 13.7748C15.3974 13.7748 15.8852 13.7021 16.3554 13.5567C16.8262 13.411 17.2613 13.1959 17.6604 12.9112L18.1112 13.538C17.6281 13.9001 17.1169 14.1709 16.5761 14.3506C16.0363 14.5303 15.4748 14.62 14.8926 14.62C14.2954 14.62 13.7453 14.545 13.2421 14.3949C12.739 14.2449 12.2942 14.0195 11.9071 13.7194C11.4213 13.3416 11.0588 12.9062 10.8204 12.4124C10.582 11.9189 10.463 11.3591 10.463 10.7339C10.463 10.2074 10.5444 9.71227 10.7067 9.2478C10.8691 8.78334 11.1115 8.35322 11.4336 7.95677C11.8854 7.39328 12.4409 6.96382 13.1004 6.66807C13.76 6.37232 14.4842 6.22461 15.2737 6.22461C15.7999 6.22461 16.2937 6.29496 16.7551 6.43567C17.2163 6.57638 17.6201 6.7811 17.9672 7.05018C18.3786 7.37494 18.6907 7.74971 18.9024 8.17483C19.1148 8.59962 19.2208 9.07342 19.2208 9.5959C19.2208 10.1091 19.1192 10.5825 18.9168 11.017C18.7137 11.4514 18.4193 11.8229 18.0325 12.1323C17.8248 12.299 17.5877 12.4297 17.322 12.5241C17.0556 12.6184 16.7815 12.6654 16.4994 12.6654C16.1743 12.6654 15.9256 12.6044 15.7519 12.4821C15.6652 12.421 15.5975 12.3437 15.5481 12.2507C15.4988 12.1576 15.4738 12.0503 15.4738 11.9309ZM15.6465 9.916C15.6185 9.6836 15.5405 9.50488 15.4121 9.37951C15.2831 9.25414 15.1137 9.19146 14.9036 9.19146C14.5875 9.19146 14.3071 9.37884 14.0627 9.75328C13.818 10.1281 13.6956 10.5722 13.6956 11.086C13.6956 11.3461 13.7496 11.5458 13.8583 11.6852C13.9667 11.8242 14.1187 11.8939 14.3144 11.8939C14.5782 11.8939 14.8076 11.8035 15.003 11.6225C15.1984 11.4418 15.3351 11.1967 15.4128 10.8873L15.6465 9.916Z" fill="#0597F2"/>
<path d="M4.375 14.6094V14.6125V14.6094L0.625 12.5V26.875L10.625 18.125L4.375 14.6094Z" fill="#FFD422"/>
<path d="M4.375 13.9844V14.6094L10.625 18.125V17.5L4.375 13.9844Z" fill="#F7F7F7"/>
<path d="M0.625 11.875V12.5L4.375 14.6094V13.9844L0.625 11.875Z" fill="#FFDE55"/>
<path d="M25.625 13.9844V14.6094L19.375 18.125V17.5L25.625 13.9844Z" fill="#F7F7F7"/>
<path d="M29.375 11.875V12.5L25.625 14.6094V13.9844L29.375 11.875Z" fill="#FFDE55"/>
<path d="M10.625 18.125L0.625 26.875C0.625 27.538 0.888392 28.1739 1.35723 28.6428C1.82607 29.1116 2.46196 29.375 3.125 29.375H26.875C27.538 29.375 28.1739 29.1116 28.6428 28.6428C29.1116 28.1739 29.375 27.538 29.375 26.875L19.375 18.125H10.625Z" fill="#FFDE55"/>
<path d="M3.75 14.2579L4.375 14.6092V8.01855L3.75 8.45293V14.2579Z" fill="#FFDE55"/>
<path d="M26.25 14.2579L25.625 14.6092V8.01855L26.25 8.45293V14.2579Z" fill="#FFDE55"/>
<path d="M19.375 17.5H10.625V18.125H19.375V17.5Z" fill="#F7F7F7"/>
</svg>
