<svg width="204" height="105" viewBox="0 0 204 105" fill="none" xmlns="http://www.w3.org/2000/svg">
<path d="M119.67 95.9768C111.782 96.1784 102.391 95.9768 95.7237 95.8753C89.0565 96.0776 79.6659 96.1784 71.7784 95.9768C79.572 91.233 82.2016 82.453 82.6709 76.5996H108.683C109.246 82.453 111.875 91.233 119.67 95.9768Z" fill="#F5F5F5"/>
<path d="M143.882 3.11472V75.3632C143.882 77.0202 142.693 78.1784 141.283 78.1784H49.6458C48.2419 78.1784 47.0471 76.9264 47.0471 75.3632V3.11472C47.0471 1.5516 48.2419 0.300134 49.6458 0.300134H141.283C142.693 0.300134 143.882 1.45775 143.882 3.11472Z" fill="white" stroke="#BDBDBD" stroke-width="0.600268"/>
<path d="M143.588 3.28218V64.4424H47.3412V3.19082C47.3412 1.52467 48.1459 0.638672 49.7177 0.638672H141.212C142.691 0.638672 143.588 1.51813 143.588 3.28218Z" fill="#F5F5F5"/>
<rect x="50.0809" y="3.49219" width="90.8594" height="58.0618" rx="0.818775" fill="white"/>
<mask id="mask0_6366_4485" style="mask-type:alpha" maskUnits="userSpaceOnUse" x="50" y="4" width="93" height="55">
<rect x="50.4006" y="4.2793" width="91.7028" height="54.4485" rx="0.818775" fill="white"/>
</mask>
<g mask="url(#mask0_6366_4485)">
<path d="M7.14816 37.0518C6.16417 34.086 4.10298 27.9551 3.7301 27.1586L3.88547 43.2118C4.61051 46.0118 6.27811 51.8606 7.14816 52.8562C8.01821 53.8517 8.54645 53.271 8.70182 52.8562C10.3073 49.8903 13.7046 43.6349 14.4504 42.3407C15.1961 41.0465 16.5219 41.4696 17.0916 41.843C17.3505 41.9674 17.9927 42.2909 18.4899 42.5896C19.1113 42.9629 20.0435 43.2118 20.5096 43.2118C20.9757 43.2118 21.7526 42.9007 23.3062 42.3407C24.5492 41.8927 25.1706 42.5274 25.326 42.9007C26.2064 45.5762 28.1536 51.1886 28.8994 52.2339C29.6452 53.2793 30.2459 52.5451 30.4531 52.0473C32.0585 49.0192 35.4559 42.7389 36.2016 41.843C36.9474 40.947 38.066 41.1793 38.5321 41.4074C38.6357 41.4696 39.1846 41.7434 40.5519 42.3407C42.2609 43.0874 42.727 42.4652 44.2806 42.0296C45.5236 41.6812 46.3522 42.0918 46.6111 42.3407L46.9219 42.5896C47.8541 45.12 49.8117 50.4793 50.1846 51.674C50.5574 52.8686 51.5829 52.1717 52.049 51.674C53.6026 48.6044 56.9274 42.1914 57.7975 41.0963C58.6675 40.0012 60.2316 40.64 60.9048 41.0963C61.112 41.2622 61.6817 41.6812 62.3031 42.0296C63.0799 42.4652 65.0997 42.3407 66.1873 42.0296C67.0573 41.7807 67.9999 42.2992 68.3624 42.5896C69.191 45.2444 71.0347 50.8029 71.7804 51.7984C72.5262 52.7939 73.0234 52.2132 73.1787 51.7984C74.7324 48.5836 78.1194 41.8678 79.238 40.723C80.6363 39.2919 81.8792 41.0963 83.2775 41.5941C84.6758 42.0918 86.3848 41.3452 87.317 41.0963C88.0628 40.8972 88.9743 41.3452 89.3368 41.5941C90.3726 44.1659 92.5684 49.5833 93.0656 50.6784C93.5628 51.7735 94.5157 51.0517 94.93 50.554C96.6908 47.4014 100.399 40.9594 101.145 40.4119C101.89 39.8643 102.698 40.2667 103.009 40.5363C103.527 40.8059 104.687 41.395 105.184 41.5941C105.806 41.843 106.893 41.7185 108.447 41.0963C109.69 40.5985 110.518 41.0548 110.777 41.3452C111.865 44.2281 114.133 50.2677 114.506 51.3628C114.879 52.4579 115.697 51.8191 116.06 51.3628C116.37 51.1762 117.147 50.2304 117.769 47.9407C118.546 45.0785 121.342 41.0963 122.74 40.163C123.859 39.4163 124.553 39.8519 124.76 40.163L126.314 41.0963C126.935 41.4696 129.887 40.8474 131.13 40.5363C132.125 40.2874 132.684 40.1837 132.839 40.163L133.305 40.723C134.03 43.7511 135.574 50.0686 135.947 51.114C136.319 52.1593 137.034 51.5495 137.345 51.114C139.002 47.9614 142.534 41.4074 143.404 40.4119C144.492 39.1674 146.201 40.0385 147.288 40.723C148.376 41.4074 150.551 40.7852 151.639 40.4119C152.509 40.1132 153.658 40.7437 154.124 41.0963C154.798 43.3155 156.362 48.2269 157.232 50.1184C158.102 52.01 158.941 50.6162 159.252 49.6829C160.805 46.7585 164.192 40.6359 165.311 39.5408C166.429 38.4457 167.538 39.2919 167.952 39.8519L169.816 41.0963V25.9765C169.557 25.6861 168.76 24.9187 167.641 24.172C166.523 23.4254 165.622 23.8609 165.311 24.172L164.223 25.1054C162.566 28.1127 159.127 34.3141 158.63 35.0608C158.133 35.8075 157.491 35.3719 157.232 35.0608C156.248 32.4475 154.187 26.9969 153.814 26.1009C153.348 24.9809 151.794 25.2298 151.172 25.292C150.675 25.3418 149.619 25.7691 149.153 25.9765C148.997 26.0179 148.189 25.9018 146.201 25.1054C144.212 24.3089 143.508 24.7735 143.404 25.1054L142.627 25.852C140.918 28.7557 137.438 34.6999 137.19 35.2475C136.941 35.795 136.257 35.3512 135.947 35.0608C135.066 31.7631 133.212 25.0431 132.839 24.5454C132.373 23.9231 130.509 24.9187 129.111 25.6031C127.992 26.1507 126.78 25.8313 126.314 25.6031C125.589 25.1261 124.046 24.1347 123.673 23.9854C123.207 23.7987 122.741 24.4831 122.274 24.9187C121.808 25.3542 116.681 34.0653 116.06 35.2475C115.563 36.1932 114.817 35.6415 114.506 35.2475C113.263 32.1571 110.622 25.8644 110 25.4165C109.224 24.8565 108.291 25.4165 107.204 25.852C106.334 26.2005 105.495 25.9972 105.184 25.852C105.029 25.7068 104.345 25.3169 102.854 24.9187C101.362 24.5205 100.368 25.0846 100.057 25.4165C98.5552 28.4653 95.3339 34.8119 94.4639 35.8075C93.5938 36.803 93.1692 36.1393 93.0656 35.683C92.0816 33.1319 90.0515 27.8182 89.8029 26.972C89.4922 25.9142 88.4046 25.6031 87.7831 25.9764C87.286 26.2751 85.5044 26.3083 84.6758 26.2876C84.3651 26.2668 83.3708 26.0013 81.8792 25.1054C80.3877 24.2094 79.7041 24.732 79.5488 25.1054L78.9273 25.6031L77.2183 27.6564C76.1307 30.2075 73.8002 35.5212 73.1787 36.3674C72.5573 37.2137 71.9876 36.5956 71.7804 36.1808L71.3143 35.5586C70.4857 32.9245 68.611 27.4075 67.7409 26.412C66.6534 25.1676 65.4104 26.412 65.0997 26.6609C64.8511 26.86 63.2353 26.7438 62.4585 26.6609C62.1995 26.5779 61.4331 26.2875 60.4387 25.7898C59.4444 25.292 58.3672 25.7068 57.9529 25.9764L56.7099 27.2831C55.1045 29.9794 51.8004 35.6083 51.4275 36.5541C51.0546 37.4998 50.4435 36.6993 50.1846 36.1808C49.1488 33.526 46.984 28.0298 46.6111 27.2831C46.145 26.3497 44.436 26.6609 44.1253 26.7853C43.8145 26.9097 43.1931 27.0342 41.7948 27.0342C40.3965 27.0342 39.9304 26.3498 38.5321 25.7898C37.4135 25.3418 36.2016 25.852 35.7355 26.1631C34.1301 29.3986 30.7949 36.0314 30.2977 36.6785C29.8005 37.3256 29.1583 36.8652 28.8994 36.5541C27.7083 33.7956 25.2328 28.0297 24.8599 27.0342C24.487 26.0386 23.1509 26.3705 22.5294 26.6609L20.9757 27.2831C20.6132 27.449 19.4531 27.4946 17.713 26.3498C15.973 25.2049 15.1236 25.8727 14.9165 26.3498L14.295 26.7853L13.0521 29.0253C11.8091 31.2445 9.19899 36.0065 8.70182 37.3007C8.20465 38.5949 7.45889 37.6741 7.14816 37.0518Z" fill="#F7F7F7"/>
<path d="M169.506 37.0763L166.71 29.9735L163.292 40.1838H160.495L157.543 48.4705L154.746 33.8209H151.328L148.376 39.3453L145.424 38.8027L142.473 34.8567L135.792 48.4705L134.129 27.5247M5.08533 27.852L7.30421 48.4705L10.2562 36.3365L13.6742 37.027L16.7815 40.7758L20.1996 41.0717L22.8408 39.3453L25.7927 38.3095L28.7447 48.4705L32.0074 40.1838L35.2701 40.7758L38.3774 36.7311L41.4847 36.3365L44.1259 40.7758L47.544 41.6143L50.6513 48.4705L53.2925 46.7935L56.7105 40.1838L57.8911 41.454M60.9831 41.269L62.4591 39.3453L65.8771 28.0004L71.781 48.4705L74.8884 46.0536L77.9957 42.5515L81.103 36.3365L84.0549 39.3453L87.0069 33.1303L90.4249 37.8655L93.2215 48.4705L96.1735 45.7083L99.2808 37.8655L102.388 35.4979L105.34 32.4397L108.447 39.6906L111.71 40.1838L114.973 48.4705L117.614 44.1792L118.829 45.7041M125.17 24.4156L127.091 37.8655L129.732 39.3453L132.162 24.252" stroke="#BDBDBD" stroke-width="0.532204" stroke-linecap="round" stroke-linejoin="round"/>
<path d="M132.373 23.2979L133.306 17.5039L133.98 25.998" stroke="#BDBDBD" stroke-width="0.532204" stroke-linecap="round" stroke-linejoin="round"/>
<path d="M119.272 46.4242L121.032 48.6333L123.673 14.1055L125.046 23.7181" stroke="#BDBDBD" stroke-width="0.532204" stroke-linecap="round" stroke-linejoin="round"/>
<path d="M58.2014 41.7613L59.5318 43.1927L60.7139 41.5977" stroke="#BDBDBD" stroke-width="0.532204" stroke-linecap="round" stroke-linejoin="round"/>
</g>
<path d="M95.7241 74.783C97.0728 74.783 98.1659 73.6084 98.1659 72.1594C98.1659 70.7098 97.0728 69.5352 95.7241 69.5352C94.3761 69.5352 93.2829 70.7098 93.2829 72.1594C93.2829 73.6084 94.3761 74.783 95.7241 74.783Z" fill="#7A7A7A"/>
<path d="M1 96.3438H203" stroke="#BDBDBD" stroke-width="1.20054" stroke-miterlimit="10" stroke-linecap="round" stroke-linejoin="round"/>
<path d="M61.6005 104H185.177" stroke="#BDBDBD" stroke-width="1.20054" stroke-miterlimit="10" stroke-linecap="round" stroke-linejoin="round"/>
<path d="M21.2002 104H36.6473" stroke="#BDBDBD" stroke-width="1.20054" stroke-miterlimit="10" stroke-linecap="round" stroke-linejoin="round"/>
<g clip-path="url(#clip0_6366_4485)">
<path d="M123.332 25.1326C128.862 25.1326 133.345 20.6703 133.345 15.1659C133.345 9.66145 128.862 5.19922 123.332 5.19922C117.802 5.19922 113.319 9.66145 113.319 15.1659C113.319 20.6703 117.802 25.1326 123.332 25.1326Z" stroke="#7A7A7A" stroke-width="1.84224" stroke-linecap="round" stroke-linejoin="round"/>
<path d="M123.403 19.6797C125.819 19.6797 127.778 17.7209 127.778 15.3047C127.778 12.8884 125.819 10.9297 123.403 10.9297C120.987 10.9297 119.028 12.8884 119.028 15.3047C119.028 17.7209 120.987 19.6797 123.403 19.6797Z" fill="#E96560"/>
<g clip-path="url(#clip1_6366_4485)">
<path d="M123.403 16.8359V13.7734" stroke="white" stroke-width="0.614081" stroke-linecap="round" stroke-linejoin="round"/>
<path d="M123.403 16.8359L124.716 15.5234" stroke="white" stroke-width="0.614081" stroke-linecap="round" stroke-linejoin="round"/>
<path d="M123.403 16.8359L122.091 15.5234" stroke="white" stroke-width="0.614081" stroke-linecap="round" stroke-linejoin="round"/>
</g>
<path d="M139.44 31.1999L130.733 22.5332" stroke="#7A7A7A" stroke-width="1.84224" stroke-linecap="round" stroke-linejoin="round"/>
</g>
<defs>
<clipPath id="clip0_6366_4485">
<rect width="34.8276" height="34.6667" fill="white" transform="translate(108.966 0.867188)"/>
</clipPath>
<clipPath id="clip1_6366_4485">
<rect width="5.25" height="5.25" fill="white" transform="translate(120.778 17.9297) rotate(-90)"/>
</clipPath>
</defs>
</svg>
