<svg width="204" height="105" viewBox="0 0 204 105" fill="none" xmlns="http://www.w3.org/2000/svg">
<path d="M119.671 95.9748C111.782 96.1765 102.392 95.9748 95.7246 95.8734C89.0574 96.0756 79.6668 96.1765 71.7793 95.9748C79.5729 91.231 82.2025 82.451 82.6718 76.5977H108.684C109.247 82.451 111.876 91.231 119.671 95.9748Z" fill="#F5F5F5"/>
<path d="M143.881 3.11472V75.3632C143.881 77.0202 142.693 78.1784 141.282 78.1784H49.645C48.2411 78.1784 47.0462 76.9264 47.0462 75.3632V3.11472C47.0462 1.5516 48.241 0.300134 49.645 0.300134H141.282C142.693 0.300134 143.881 1.45775 143.881 3.11472Z" fill="white" stroke="#BDBDBD" stroke-width="0.600268"/>
<path d="M143.589 3.28022V64.4404H47.3418V3.18887C47.3418 1.52272 48.1465 0.636719 49.7183 0.636719H141.212C142.692 0.636719 143.589 1.51618 143.589 3.28022Z" fill="#F5F5F5"/>
<rect x="50.0801" y="3.49219" width="90.8594" height="58.0618" rx="0.818775" fill="white"/>
<path d="M134.544 21.1817L136 20.4823V26.7768C135.757 26.9711 135.127 27.4296 134.544 27.7093C133.962 27.9891 133.539 27.9295 133.401 27.8647C133.158 27.7482 132.569 27.4606 132.153 27.2431C131.633 26.9711 131.425 27.2431 131.009 27.2431C130.593 27.2431 129.657 27.1653 128.929 26.7768C128.347 26.466 127.647 26.5696 127.37 26.6602C126.954 26.8934 126.039 27.3907 125.706 27.515C125.29 27.6705 124.042 27.9424 123.834 27.7093C123.668 27.5228 122.587 27.3208 122.067 27.2431L120.923 27.3596C120.576 27.2819 119.821 27.0799 119.571 26.8934C119.322 26.7069 118.497 26.8157 118.116 26.8934C117.734 27.0617 116.868 27.4606 116.452 27.7093C115.932 28.0201 114.788 27.9424 114.788 27.8647C114.788 27.787 113.332 27.2431 112.709 27.2431H111.461C111.288 27.1265 110.775 26.8312 110.109 26.5825C109.444 26.3339 109 26.5307 108.861 26.6602C108.515 26.9063 107.593 27.4917 106.678 27.8647C105.763 28.2377 105.465 27.9683 105.43 27.787C105.187 27.6575 104.64 27.3674 104.39 27.2431C104.078 27.0876 103.87 27.2431 103.142 27.3985C102.415 27.5539 101.791 27.2431 100.959 26.7379C100.293 26.3339 99.7805 26.5955 99.6072 26.7768C99.5032 26.8545 99.0249 27.1187 97.9435 27.5539C96.5918 28.0979 96.3838 27.8259 95.552 27.3985C94.7202 26.9711 94.2003 27.2042 93.8883 27.2431C93.5764 27.2819 92.9525 27.2819 92.0167 26.7768C91.268 26.3727 90.8729 26.5566 90.7689 26.6991C90.4223 26.8545 89.542 27.2431 88.7933 27.5539C87.8575 27.9424 86.8177 27.6316 86.5058 27.3985C86.1938 27.1653 85.466 26.9322 85.0501 27.0099C84.6341 27.0876 83.2824 27.0099 82.7625 26.7768C82.3466 26.5903 81.896 26.6991 81.7227 26.7768C81.3415 26.9581 80.371 27.4062 79.5392 27.7482C78.4994 28.1756 77.9795 27.9424 77.6675 27.6316C77.3556 27.3208 76.1078 26.8934 75.6919 27.0099C75.276 27.1265 74.3402 27.0488 73.3004 26.7768C72.4686 26.5592 72.0526 26.6861 71.9487 26.7768C71.3941 27.0617 70.2018 27.6549 69.8691 27.7482C69.4531 27.8647 68.8293 28.059 68.5173 27.6316C68.2054 27.2042 66.6457 27.1653 66.2298 27.2431C65.8139 27.3208 64.982 27.1265 64.2542 26.7379C63.6719 26.4271 62.9718 26.6084 62.6945 26.7379C62.4172 26.9581 61.6339 27.4684 60.7189 27.7482C59.8038 28.0279 58.7433 27.8647 58.3273 27.7482C57.4955 27.528 55.6655 27.0177 55 26.7379L55.0442 20.1418C56.0147 20.4008 58.3065 20.9641 59.0552 21.1817C59.8039 21.3993 60.4762 21.2465 60.7189 21.1429C61.1348 21.0004 62.1122 20.6455 62.6945 20.3658C63.2768 20.086 63.8382 20.1456 64.0462 20.2104C64.2542 20.2622 64.7325 20.3969 64.982 20.5212C65.2316 20.6455 65.7792 20.6507 66.0218 20.6378H66.9576C67.5399 20.6378 67.6855 20.6896 67.6855 20.7155C67.8935 20.8191 68.4134 21.0729 68.8293 21.2594C69.2452 21.4459 69.8344 21.3112 70.077 21.2206C70.6316 20.9097 71.8655 20.2026 72.3646 19.8607C72.8637 19.5187 73.2657 19.7182 73.4044 19.8607C73.6123 19.9772 74.0906 20.2492 74.3402 20.4046C74.6521 20.5989 74.9641 20.5601 75.8999 20.5212C76.6485 20.4901 76.905 20.586 76.9397 20.6378L77.9795 21.2206C78.3122 21.4071 78.8806 21.2983 79.1232 21.2206C79.7125 20.9486 80.9949 20.3658 81.4108 20.2104C81.9307 20.0161 82.5546 20.1326 83.0745 20.4046C83.5944 20.6766 84.2182 20.4823 84.7381 20.4046C85.154 20.3425 85.7433 20.4823 85.9859 20.5601C86.2285 20.7025 86.8385 21.0341 87.3376 21.2206C87.8367 21.4071 88.3081 21.2465 88.4814 21.1429C88.932 20.9227 89.9787 20.4124 90.561 20.1327C91.2888 19.783 92.2246 20.2104 92.3286 20.3269C92.4326 20.4435 93.2644 20.6378 93.5764 20.6378C93.8259 20.6378 94.7202 20.7414 95.1361 20.7932C95.344 20.9097 95.8431 21.174 96.1759 21.2983C96.5086 21.4226 97.077 21.3501 97.3196 21.2983C98.0475 21.0004 99.5864 20.3502 99.9191 20.1327C100.252 19.9151 100.82 19.9902 101.063 20.0549C101.271 20.1456 101.77 20.358 102.103 20.4823C102.519 20.6378 103.039 20.5989 103.87 20.5601C104.536 20.529 104.702 20.5989 104.702 20.6378C104.91 20.7673 105.409 21.0652 105.742 21.2206C106.075 21.376 106.712 21.2335 106.99 21.1429C107.544 20.845 108.799 20.2026 109.381 20.0161C110.109 19.783 110.317 20.0161 110.941 20.3269C111.565 20.6378 111.981 20.5989 112.709 20.4823C113.291 20.3891 113.783 20.5212 113.956 20.5989C114.026 20.7025 114.289 20.9564 114.788 21.1429C115.287 21.3294 115.689 21.2206 115.828 21.1429C116.348 20.9486 117.533 20.5134 118.116 20.3269C118.698 20.1404 119.051 20.2492 119.155 20.3269L120.299 20.7543C120.632 20.8787 121.062 20.8061 121.235 20.7543C121.27 20.7284 121.484 20.6533 122.067 20.56C122.649 20.4668 123.003 20.5989 123.107 20.6766C123.28 20.7932 123.71 21.0652 124.042 21.2206C124.375 21.376 124.944 21.2335 125.186 21.1429C125.706 20.8968 126.871 20.3269 127.37 20.0161C127.869 19.7052 128.617 19.9384 128.929 20.0938L129.345 20.3269C129.553 20.4435 130.281 20.5989 131.009 20.56C131.591 20.529 132.014 20.6248 132.153 20.6766C132.395 20.8191 132.985 21.1429 133.401 21.2983C133.816 21.4537 134.336 21.2853 134.544 21.1817Z" fill="#F7F7F7"/>
<path d="M136 24.8377L133.608 25.4238L132.257 21.5555L131.009 24.3688L129.553 24.8377L128.202 24.4861L126.954 24.8377L124.458 25.6192L123.003 24.994L121.755 23.6655L120.507 25.1503L119.051 23.8218L117.908 24.8377L115.1 25.3457L114.229 20.7635M56.1438 24.4079L57.3915 24.9549L59.991 25.4238L62.6945 24.2125L64.0462 25.0722L65.19 23.6655L66.5417 25.1894L67.8935 23.6264L69.2452 25.2285L71.6367 24.994L72.8845 23.8218L74.4442 22.884L75.38 25.4629L77.0436 25.3457L78.4994 25.6192L79.0787 21.0767M113.443 20.4502L112.501 24.2907L110.005 24.1344L108.549 24.5642L106.054 24.8377L104.702 25.3457L103.246 25.1503L101.999 22.1807L100.751 20.6959L99.5032 25.1503L96.7997 21.9463L95.448 24.994L94.0963 23.8218L92.8485 25.1503L91.7407 20.0586M91.2291 20.1369L90.1451 24.994L87.4416 25.4629L86.2978 24.7205L84.9461 24.4079L83.6983 24.994L82.6212 20.1369" stroke="#7A7A7A" stroke-width="0.320792" stroke-linecap="round" stroke-linejoin="round"/>
<path d="M82.4746 19.7869L82.2682 18.6262L80.7879 8L79.1746 20.6484" stroke="#E96560" stroke-width="0.320792" stroke-linecap="round" stroke-linejoin="round"/>
<path d="M91.6504 19.6312L91.502 18.9492L91.3217 19.757" stroke="#E96560" stroke-width="0.320792" stroke-linecap="round" stroke-linejoin="round"/>
<path d="M114.185 20.4031L113.882 18.8125L113.588 20.0115" stroke="#E96560" stroke-width="0.320792" stroke-linecap="round" stroke-linejoin="round"/>
<path d="M56.4557 43.8691L55 44.5684V38.274C55.2426 38.0797 55.8734 37.6212 56.4557 37.3415C57.038 37.0617 57.4608 37.1213 57.5995 37.1861C57.8421 37.3026 58.4313 37.5901 58.8472 37.8077C59.3671 38.0797 59.5751 37.8077 59.991 37.8077C60.4069 37.8077 61.3427 37.8854 62.0706 38.274C62.6529 38.5848 63.353 38.4812 63.6303 38.3905C64.0462 38.1574 64.9612 37.6601 65.294 37.5357C65.7099 37.3803 66.9576 37.1083 67.1656 37.3415C67.332 37.528 68.4134 37.73 68.9332 37.8077L70.077 37.6912C70.4236 37.7689 71.1792 37.9709 71.4288 38.1574C71.6783 38.3439 72.5032 38.2351 72.8845 38.1574C73.2657 37.9891 74.1322 37.5901 74.5481 37.3415C75.068 37.0306 76.2118 37.1083 76.2118 37.1861C76.2118 37.2638 77.6675 37.8077 78.2914 37.8077H79.5392C79.7125 37.9243 80.2254 38.2196 80.8909 38.4683C81.5564 38.7169 82 38.5201 82.1386 38.3905C82.4852 38.1445 83.4072 37.5591 84.3222 37.1861C85.2372 36.813 85.5353 37.0824 85.57 37.2638C85.8126 37.3933 86.3602 37.6834 86.6098 37.8077C86.9217 37.9631 87.1297 37.8077 87.8575 37.6523C88.5854 37.4969 89.2092 37.8077 90.0411 38.3128C90.7065 38.7169 91.2195 38.4553 91.3928 38.274C91.4968 38.1963 91.9751 37.9321 93.0565 37.4969C94.4082 36.9529 94.6162 37.2249 95.448 37.6523C96.2798 38.0797 96.7997 37.8466 97.1117 37.8077C97.4236 37.7689 98.0475 37.7689 98.9833 38.274C99.732 38.6781 100.127 38.4942 100.231 38.3517C100.578 38.1963 101.458 37.8077 102.207 37.4969C103.142 37.1083 104.182 37.4192 104.494 37.6523C104.806 37.8854 105.534 38.1186 105.95 38.0409C106.366 37.9631 107.718 38.0409 108.237 38.274C108.653 38.4605 109.104 38.3517 109.277 38.274C109.659 38.0927 110.629 37.6445 111.461 37.3026C112.501 36.8752 113.021 37.1083 113.332 37.4192C113.644 37.73 114.892 38.1574 115.308 38.0409C115.724 37.9243 116.66 38.002 117.7 38.274C118.531 38.4916 118.947 38.3646 119.051 38.274C119.606 37.9891 120.798 37.3959 121.131 37.3026C121.547 37.1861 122.171 36.9918 122.483 37.4192C122.795 37.8466 124.354 37.8854 124.77 37.8077C125.186 37.73 126.018 37.9243 126.746 38.3128C127.328 38.6237 128.028 38.4424 128.306 38.3128C128.583 38.0927 129.366 37.5824 130.281 37.3026C131.196 37.0229 132.257 37.1861 132.673 37.3026C133.504 37.5228 135.335 38.0331 136 38.3128L135.956 44.909C134.985 44.65 132.693 44.0866 131.945 43.8691C131.196 43.6515 130.524 43.8043 130.281 43.9079C129.865 44.0504 128.888 44.4053 128.306 44.685C127.723 44.9648 127.162 44.9052 126.954 44.8404C126.746 44.7886 126.268 44.6539 126.018 44.5296C125.768 44.4053 125.221 44.4001 124.978 44.413H124.042C123.46 44.413 123.315 44.3612 123.315 44.3353C123.107 44.2317 122.587 43.9779 122.171 43.7913C121.755 43.6048 121.166 43.7395 120.923 43.8302C120.368 44.141 119.135 44.8482 118.635 45.1901C118.136 45.532 117.734 45.3326 117.596 45.1901C117.388 45.0735 116.909 44.8016 116.66 44.6461C116.348 44.4519 116.036 44.4907 115.1 44.5296C114.351 44.5607 114.095 44.4648 114.06 44.413L113.021 43.8302C112.688 43.6437 112.119 43.7525 111.877 43.8302C111.288 44.1022 110.005 44.685 109.589 44.8404C109.069 45.0347 108.445 44.9181 107.926 44.6461C107.406 44.3742 106.782 44.5684 106.262 44.6461C105.846 44.7083 105.257 44.5684 105.014 44.4907C104.771 44.3483 104.161 44.0167 103.662 43.8302C103.163 43.6437 102.692 43.8043 102.519 43.9079C102.068 44.1281 101.021 44.6384 100.439 44.9181C99.7112 45.2678 98.7754 44.8404 98.6714 44.7239C98.5674 44.6073 97.7356 44.413 97.4236 44.413C97.1741 44.413 96.2798 44.3094 95.8639 44.2576C95.656 44.141 95.1569 43.8768 94.8241 43.7525C94.4914 43.6282 93.923 43.7007 93.6804 43.7525C92.9525 44.0504 91.4136 44.7005 91.0809 44.9181C90.7481 45.1357 90.1797 45.0606 89.9371 44.9958C89.7291 44.9052 89.23 44.6928 88.8973 44.5684C88.4814 44.413 87.9615 44.4519 87.1297 44.4907C86.4642 44.5218 86.2978 44.4519 86.2978 44.413C86.0899 44.2835 85.5908 43.9856 85.258 43.8302C84.9253 43.6748 84.2875 43.8172 84.0103 43.9079C83.4557 44.2058 82.201 44.8482 81.6187 45.0347C80.8909 45.2678 80.6829 45.0347 80.059 44.7239C79.4352 44.413 79.0193 44.4519 78.2914 44.5684C77.7091 44.6617 77.2169 44.5296 77.0436 44.4519C76.9743 44.3483 76.7109 44.0944 76.2118 43.9079C75.7127 43.7214 75.3107 43.8302 75.172 43.9079C74.6521 44.1022 73.4668 44.5374 72.8845 44.7239C72.3022 44.9104 71.9487 44.8016 71.8447 44.7239L70.7009 44.2965C70.3682 44.1721 69.9384 44.2447 69.7651 44.2965C69.7304 44.3224 69.5155 44.3975 68.9332 44.4907C68.351 44.584 67.9974 44.4519 67.8935 44.3742C67.7202 44.2576 67.2904 43.9856 66.9576 43.8302C66.6249 43.6748 66.0565 43.8172 65.8139 43.9079C65.294 44.154 64.1294 44.7239 63.6303 45.0347C63.1312 45.3455 62.3825 45.1124 62.0706 44.957L61.6547 44.7239C61.4467 44.6073 60.7189 44.4519 59.991 44.4907C59.4087 44.5218 58.9859 44.426 58.8472 44.3742C58.6046 44.2317 58.0154 43.9079 57.5995 43.7525C57.1836 43.5971 56.6637 43.7654 56.4557 43.8691Z" fill="#F7F7F7"/>
<path d="M55 40.2131L57.3915 39.627L58.7433 43.4953L59.991 40.6819L61.4467 40.2131L62.7985 40.5647L64.0462 40.2131L66.5417 39.4316L67.9974 40.0568L69.2452 41.3853L70.4929 39.9005L71.9487 41.229L73.0924 40.2131L75.8999 39.7051L76.7709 44.2873M134.856 40.6429L133.608 40.0958L131.009 39.627L128.306 40.8382L126.954 39.9786L125.81 41.3853L124.458 39.8614L123.107 41.4244L121.755 39.8223L119.363 40.0568L118.116 41.229L116.556 42.1668L115.62 39.5879L113.956 39.7051L112.501 39.4316L111.921 43.974M77.5571 44.6006L78.4994 40.7601L80.9949 40.9164L82.4506 40.4866L84.9461 40.2131L86.2978 39.7051L87.7535 39.9005L89.0013 42.8701L90.249 44.3549L91.4968 39.9005L94.2003 43.1045L95.552 40.0568L96.9037 41.229L98.1515 39.9005L99.2593 44.9922M99.7709 44.9139L100.855 40.0568L103.558 39.5879L104.702 40.3303L106.054 40.6429L107.302 40.0568L108.379 44.9139" stroke="#7A7A7A" stroke-width="0.320792" stroke-linecap="round" stroke-linejoin="round"/>
<path d="M108.525 45.2639L108.732 46.4245L110.212 57.0508L111.825 44.4024" stroke="#E96560" stroke-width="0.320792" stroke-linecap="round" stroke-linejoin="round"/>
<path d="M99.3496 45.4195L99.498 46.1016L99.6783 45.2938" stroke="#E96560" stroke-width="0.320792" stroke-linecap="round" stroke-linejoin="round"/>
<path d="M76.8154 44.6477L77.1178 46.2383L77.4119 45.0393" stroke="#E96560" stroke-width="0.320792" stroke-linecap="round" stroke-linejoin="round"/>
<path d="M95.7244 74.783C97.0731 74.783 98.1663 73.6084 98.1663 72.1594C98.1663 70.7098 97.0731 69.5352 95.7244 69.5352C94.3764 69.5352 93.2832 70.7098 93.2832 72.1594C93.2832 73.6084 94.3764 74.783 95.7244 74.783Z" fill="#7A7A7A"/>
<path d="M1 96.3438H203" stroke="#BDBDBD" stroke-width="1.20054" stroke-miterlimit="10" stroke-linecap="round" stroke-linejoin="round"/>
<path d="M61.5996 104H185.176" stroke="#BDBDBD" stroke-width="1.20054" stroke-miterlimit="10" stroke-linecap="round" stroke-linejoin="round"/>
<path d="M21.1992 104H36.6463" stroke="#BDBDBD" stroke-width="1.20054" stroke-miterlimit="10" stroke-linecap="round" stroke-linejoin="round"/>
<path d="M134.839 89.3542L134.839 89.3541L134.834 89.3533C126.325 87.5937 120.866 79.2816 122.632 70.807C124.399 62.329 132.668 56.8142 141.174 58.6546L141.176 58.6551C144.221 59.291 146.871 60.8081 149.128 62.8956C152.898 66.7299 154.422 72.0863 153.38 77.1981C153.057 78.5601 152.574 80.0075 152.013 81.2047C150.489 84.1572 148.083 86.4761 145.111 87.9912C142.056 89.5131 138.444 90.1534 134.839 89.3542Z" fill="#F5F5F5" stroke="#BDBDBD" stroke-width="0.6"/>
<path d="M140.573 69.4789L137.997 72.055L135.421 69.4791C134.906 68.964 134.044 68.9043 133.471 69.477C132.956 69.9923 132.9 70.8523 133.474 71.4261L136.05 74.0019L133.474 76.578C132.958 77.0933 132.902 77.9538 133.476 78.5276C134.05 79.1014 134.849 79.0983 135.421 78.5256L137.997 75.9495L140.577 78.5295C141.092 79.0446 141.95 79.1002 142.522 78.5279C143.038 78.0126 143.098 77.1563 142.524 76.5825L139.944 74.0025L142.52 71.4264C143.036 70.9111 143.096 70.0552 142.522 69.4814C142.005 68.8503 141.145 68.9062 140.573 69.4789Z" fill="#E96560"/>
</svg>
