<svg width="204" height="105" viewBox="0 0 204 105" fill="none" xmlns="http://www.w3.org/2000/svg">
<path d="M119.67 95.9748C111.782 96.1765 102.391 95.9748 95.7237 95.8734C89.0565 96.0756 79.6659 96.1765 71.7784 95.9748C79.572 91.231 82.2016 82.451 82.6709 76.5977H108.683C109.246 82.451 111.875 91.231 119.67 95.9748Z" fill="#F5F5F5"/>
<path d="M143.882 3.11472V75.3632C143.882 77.0202 142.693 78.1784 141.283 78.1784H49.6458C48.2419 78.1784 47.0471 76.9264 47.0471 75.3632V3.11472C47.0471 1.5516 48.2419 0.300134 49.6458 0.300134H141.283C142.693 0.300134 143.882 1.45775 143.882 3.11472Z" fill="white" stroke="#BDBDBD" stroke-width="0.600268"/>
<path d="M143.588 3.28022V64.4404H47.3412V3.18887C47.3412 1.52272 48.1459 0.636719 49.7177 0.636719H141.212C142.691 0.636719 143.588 1.51618 143.588 3.28022Z" fill="#F5F5F5"/>
<rect x="50.0809" y="3.49219" width="90.8594" height="58.0618" rx="0.818775" fill="white"/>
<path d="M54 8C54.5557 8 55 7.55285 55 7C55 6.43902 54.5557 6 54 6C53.4444 6 53 6.43902 53 7C53 7.55285 53.4444 8 54 8Z" fill="#BDBDBD"/>
<path d="M57.5 8C58.0556 8 58.5 7.55285 58.5 7C58.5 6.43902 58.0556 6 57.5 6C56.9452 6 56.5 6.43902 56.5 7C56.5 7.55285 56.9452 8 57.5 8Z" fill="#BDBDBD"/>
<path d="M61 8C61.5556 8 62 7.55285 62 7C62 6.43902 61.5556 6 61 6C60.4443 6 60 6.43902 60 7C60 7.55285 60.4443 8 61 8Z" fill="#BDBDBD"/>
<mask id="mask0_6840_5015" style="mask-type:alpha" maskUnits="userSpaceOnUse" x="50" y="4" width="93" height="55">
<rect x="50.4006" y="4.27734" width="91.7028" height="54.4485" rx="0.818775" fill="white"/>
</mask>
<g mask="url(#mask0_6840_5015)">
<path d="M7.14816 37.0499C6.16417 34.084 4.10298 27.9531 3.7301 27.1567L3.88547 43.2099C4.61051 46.0098 6.27811 51.8587 7.14816 52.8542C8.01821 53.8498 8.54645 53.269 8.70182 52.8542C10.3073 49.8883 13.7046 43.633 14.4504 42.3388C15.1961 41.0446 16.5219 41.4677 17.0916 41.841C17.3505 41.9654 17.9927 42.289 18.4899 42.5877C19.1113 42.961 20.0435 43.2099 20.5096 43.2099C20.9757 43.2099 21.7526 42.8988 23.3062 42.3388C24.5492 41.8908 25.1706 42.5254 25.326 42.8988C26.2064 45.5743 28.1536 51.1867 28.8994 52.232C29.6452 53.2773 30.2459 52.5431 30.4531 52.0453C32.0585 49.0172 35.4559 42.737 36.2016 41.841C36.9474 40.945 38.066 41.1773 38.5321 41.4055C38.6357 41.4677 39.1846 41.7414 40.5519 42.3388C42.2609 43.0854 42.727 42.4632 44.2806 42.0277C45.5236 41.6792 46.3522 42.0899 46.6111 42.3388L46.9219 42.5877C47.8541 45.118 49.8117 50.4773 50.1846 51.672C50.5574 52.8667 51.5829 52.1698 52.049 51.672C53.6026 48.6024 56.9274 42.1894 57.7975 41.0943C58.6675 39.9992 60.2316 40.6381 60.9048 41.0943C61.112 41.2603 61.6817 41.6792 62.3031 42.0277C63.0799 42.4632 65.0997 42.3388 66.1873 42.0277C67.0573 41.7788 67.9999 42.2973 68.3624 42.5877C69.191 45.2424 71.0347 50.8009 71.7804 51.7964C72.5262 52.792 73.0234 52.2113 73.1787 51.7964C74.7324 48.5817 78.1194 41.8659 79.238 40.721C80.6363 39.2899 81.8792 41.0943 83.2775 41.5921C84.6758 42.0899 86.3848 41.3432 87.317 41.0943C88.0628 40.8952 88.9743 41.3432 89.3368 41.5921C90.3726 44.1639 92.5684 49.5814 93.0656 50.6765C93.5628 51.7716 94.5157 51.0498 94.93 50.552C96.6908 47.3995 100.399 40.9575 101.145 40.4099C101.89 39.8624 102.698 40.2647 103.009 40.5343C103.527 40.804 104.687 41.393 105.184 41.5921C105.806 41.841 106.893 41.7166 108.447 41.0943C109.69 40.5966 110.518 41.0529 110.777 41.3432C111.865 44.2262 114.133 50.2658 114.506 51.3609C114.879 52.456 115.697 51.8172 116.06 51.3609C116.37 51.1742 117.147 50.2285 117.769 47.9387C118.546 45.0765 121.342 41.0943 122.74 40.161C123.859 39.4144 124.553 39.8499 124.76 40.161L126.314 41.0943C126.935 41.4677 129.887 40.8455 131.13 40.5343C132.125 40.2855 132.684 40.1818 132.839 40.161L133.305 40.721C134.03 43.7491 135.574 50.0667 135.947 51.112C136.319 52.1573 137.034 51.5476 137.345 51.112C139.002 47.9594 142.534 41.4055 143.404 40.4099C144.492 39.1655 146.201 40.0366 147.288 40.721C148.376 41.4055 150.551 40.7832 151.639 40.4099C152.509 40.1112 153.658 40.7418 154.124 41.0943C154.798 43.3136 156.362 48.2249 157.232 50.1165C158.102 52.008 158.941 50.6142 159.252 49.6809C160.805 46.7565 164.192 40.6339 165.311 39.5388C166.429 38.4437 167.538 39.2899 167.952 39.8499L169.816 41.0943V25.9745C169.557 25.6841 168.76 24.9167 167.641 24.1701C166.523 23.4234 165.622 23.859 165.311 24.1701L164.223 25.1034C162.566 28.1108 159.127 34.3122 158.63 35.0588C158.133 35.8055 157.491 35.37 157.232 35.0588C156.248 32.4455 154.187 26.9949 153.814 26.0989C153.348 24.979 151.794 25.2278 151.172 25.2901C150.675 25.3398 149.619 25.7671 149.153 25.9745C148.997 26.016 148.189 25.8998 146.201 25.1034C144.212 24.307 143.508 24.7716 143.404 25.1034L142.627 25.8501C140.918 28.7537 137.438 34.698 137.19 35.2455C136.941 35.7931 136.257 35.3492 135.947 35.0588C135.066 31.7611 133.212 25.0412 132.839 24.5434C132.373 23.9212 130.509 24.9167 129.111 25.6012C127.992 26.1487 126.78 25.8293 126.314 25.6012C125.589 25.1241 124.046 24.1328 123.673 23.9834C123.207 23.7968 122.741 24.4812 122.274 24.9167C121.808 25.3523 116.681 34.0633 116.06 35.2455C115.563 36.1913 114.817 35.6396 114.506 35.2455C113.263 32.1552 110.622 25.8625 110 25.4145C109.224 24.8545 108.291 25.4145 107.204 25.8501C106.334 26.1985 105.495 25.9953 105.184 25.8501C105.029 25.7049 104.345 25.315 102.854 24.9167C101.362 24.5185 100.368 25.0827 100.057 25.4145C98.5552 28.4634 95.3339 34.81 94.4639 35.8055C93.5938 36.8011 93.1692 36.1374 93.0656 35.6811C92.0816 33.13 90.0515 27.8163 89.8029 26.9701C89.4922 25.9123 88.4046 25.6012 87.7831 25.9745C87.286 26.2731 85.5044 26.3063 84.6758 26.2856C84.3651 26.2649 83.3708 25.9994 81.8792 25.1034C80.3877 24.2074 79.7041 24.7301 79.5488 25.1034L78.9273 25.6012L77.2183 27.6545C76.1307 30.2056 73.8002 35.5193 73.1787 36.3655C72.5573 37.2117 71.9876 36.5936 71.7804 36.1788L71.3143 35.5566C70.4857 32.9226 68.611 27.4056 67.7409 26.4101C66.6534 25.1656 65.4104 26.4101 65.0997 26.6589C64.8511 26.858 63.2353 26.7419 62.4585 26.6589C62.1995 26.576 61.4331 26.2856 60.4387 25.7878C59.4444 25.29 58.3672 25.7049 57.9529 25.9745L56.7099 27.2811C55.1045 29.9774 51.8004 35.6064 51.4275 36.5521C51.0546 37.4979 50.4435 36.6973 50.1846 36.1788C49.1488 33.524 46.984 28.0278 46.6111 27.2811C46.145 26.3478 44.436 26.6589 44.1253 26.7833C43.8145 26.9078 43.1931 27.0322 41.7948 27.0322C40.3965 27.0322 39.9304 26.3478 38.5321 25.7878C37.4135 25.3398 36.2016 25.85 35.7355 26.1611C34.1301 29.3967 30.7949 36.0295 30.2977 36.6766C29.8005 37.3237 29.1583 36.8632 28.8994 36.5521C27.7083 33.7936 25.2328 28.0278 24.8599 27.0322C24.487 26.0367 23.1509 26.3685 22.5294 26.6589L20.9757 27.2811C20.6132 27.447 19.4531 27.4927 17.713 26.3478C15.973 25.2029 15.1236 25.8708 14.9165 26.3478L14.295 26.7833L13.0521 29.0233C11.8091 31.2426 9.19899 36.0046 8.70182 37.2988C8.20465 38.593 7.45889 37.6721 7.14816 37.0499Z" fill="#F7F7F7"/>
<path d="M169.506 37.0705L166.71 29.9676L163.292 40.178H160.495L157.543 48.4647L154.746 33.815H151.328L148.376 39.3394L145.424 38.7969L142.473 34.8508L135.792 48.4647L134.129 27.5189M5.08533 27.8461L7.30421 48.4647L10.2562 36.3306L13.6742 37.0211L16.7815 40.7699L20.1996 41.0658L22.8408 39.3394L25.7927 38.3036L28.7447 48.4647L32.0074 40.178L35.2701 40.7699L38.3774 36.7252L41.4847 36.3306L44.1259 40.7699L47.544 41.6084L50.6513 48.4647L53.2925 46.7876L56.7105 40.178L57.8911 41.4481M60.9831 41.2631L62.4591 39.3394L65.8771 27.9946L71.781 48.4647L74.8884 46.0477L77.9957 42.5456L81.103 36.3306L84.0549 39.3394L87.0069 33.1244L90.4249 37.8597L93.2215 48.4647L96.1735 45.7024L99.2808 37.8597L102.388 35.4921L105.34 32.4339L108.447 39.6847L111.71 40.178L114.973 48.4647L117.614 44.1733L118.829 45.6983M125.17 24.4097L127.091 37.8597L129.732 39.3394L132.162 24.2461" stroke="#BDBDBD" stroke-width="0.532204" stroke-linecap="round" stroke-linejoin="round"/>
<path d="M132.373 23.294L133.306 17.5L133.98 25.9941" stroke="#BDBDBD" stroke-width="0.532204" stroke-linecap="round" stroke-linejoin="round"/>
<path d="M119.272 46.4203L121.032 48.6294L123.673 14.1016L125.046 23.7142" stroke="#BDBDBD" stroke-width="0.532204" stroke-linecap="round" stroke-linejoin="round"/>
<path d="M58.2014 41.7574L59.5318 43.1888L60.7139 41.5938" stroke="#BDBDBD" stroke-width="0.532204" stroke-linecap="round" stroke-linejoin="round"/>
</g>
<path d="M95.7241 74.783C97.0728 74.783 98.1659 73.6084 98.1659 72.1594C98.1659 70.7098 97.0728 69.5352 95.7241 69.5352C94.3761 69.5352 93.2829 70.7098 93.2829 72.1594C93.2829 73.6084 94.3761 74.783 95.7241 74.783Z" fill="#7A7A7A"/>
<path d="M1 96.3438H203" stroke="#BDBDBD" stroke-width="1.20054" stroke-miterlimit="10" stroke-linecap="round" stroke-linejoin="round"/>
<path d="M61.6005 104H185.177" stroke="#BDBDBD" stroke-width="1.20054" stroke-miterlimit="10" stroke-linecap="round" stroke-linejoin="round"/>
<path d="M21.2002 104H36.6473" stroke="#BDBDBD" stroke-width="1.20054" stroke-miterlimit="10" stroke-linecap="round" stroke-linejoin="round"/>
<g clip-path="url(#clip0_6840_5015)">
<path d="M123.332 25.1326C128.862 25.1326 133.345 20.6703 133.345 15.1659C133.345 9.66145 128.862 5.19922 123.332 5.19922C117.802 5.19922 113.319 9.66145 113.319 15.1659C113.319 20.6703 117.802 25.1326 123.332 25.1326Z" stroke="#7A7A7A" stroke-width="1.84224" stroke-linecap="round" stroke-linejoin="round"/>
<path d="M123.403 19.6797C125.819 19.6797 127.778 17.7209 127.778 15.3047C127.778 12.8884 125.819 10.9297 123.403 10.9297C120.987 10.9297 119.028 12.8884 119.028 15.3047C119.028 17.7209 120.987 19.6797 123.403 19.6797Z" fill="#E96560"/>
<g clip-path="url(#clip1_6840_5015)">
<path d="M123.403 16.8359V13.7734" stroke="white" stroke-width="0.614081" stroke-linecap="round" stroke-linejoin="round"/>
<path d="M123.403 16.8359L124.716 15.5234" stroke="white" stroke-width="0.614081" stroke-linecap="round" stroke-linejoin="round"/>
<path d="M123.403 16.8359L122.091 15.5234" stroke="white" stroke-width="0.614081" stroke-linecap="round" stroke-linejoin="round"/>
</g>
<path d="M139.44 31.2018L130.733 22.5352" stroke="#7A7A7A" stroke-width="1.84224" stroke-linecap="round" stroke-linejoin="round"/>
</g>
<defs>
<clipPath id="clip0_6840_5015">
<rect width="34.8276" height="34.6667" fill="white" transform="translate(108.966 0.867188)"/>
</clipPath>
<clipPath id="clip1_6840_5015">
<rect width="5.25" height="5.25" fill="white" transform="translate(120.778 17.9297) rotate(-90)"/>
</clipPath>
</defs>
</svg>
