<svg width="12" height="16" viewBox="0 0 12 16" fill="none" xmlns="http://www.w3.org/2000/svg">
<g clip-path="url(#clip0)">
<path d="M11.4783 15.0723C11.4781 15.3122 11.3827 15.5423 11.213 15.7119C11.0434 15.8816 10.8134 15.9769 10.5735 15.9771H0.919189C0.679281 15.9771 0.449177 15.8819 0.279401 15.7124C0.109625 15.5429 0.0140542 15.313 0.0136722 15.0731V0.942383C0.0135774 0.823442 0.0369344 0.705649 0.0824073 0.595744C0.12788 0.485839 0.194576 0.385978 0.27868 0.301874C0.362784 0.21777 0.462645 0.151073 0.572551 0.1056C0.682456 0.0601274 0.800248 0.0367707 0.919189 0.0368655H7.11506L11.4783 4.48659V15.0723Z" fill="#23A566"/>
<path d="M7.59521 4.37044L11.4783 8.08191V4.46056H8.0386C7.88843 4.46226 7.74039 4.425 7.60891 4.35242L7.59521 4.37044Z" fill="#1C8F5A"/>
<path d="M11.4782 4.47887H8.02919C7.78928 4.47868 7.55925 4.38329 7.38961 4.21365C7.21997 4.04401 7.12458 3.81398 7.12439 3.57407V0.0118408L11.4782 4.47887Z" fill="#8ED1B1"/>
<path fill-rule="evenodd" clip-rule="evenodd" d="M8.71784 13.0381H2.75195V7.86523H8.71784V13.0381ZM6.10583 8.61142V9.51694H7.98463V8.61286L6.10583 8.61142ZM6.10583 10.0872V10.9524H7.98463V10.0829L6.10583 10.0872ZM6.10583 11.5039V12.3049H7.98463V11.4996L6.10583 11.5039ZM5.36829 12.3005V11.4996H3.49021V12.3005H5.36829ZM5.36829 10.943V10.0829H3.49021V10.9473L5.36829 10.943ZM5.36829 9.52631V8.61142H3.49021V9.51694L5.36829 9.52631Z" fill="white"/>
</g>
<defs>
<clipPath id="clip0">
<rect width="11.4977" height="16" fill="white"/>
</clipPath>
</defs>
</svg>
