<svg width="26" height="26" viewBox="0 0 26 26" fill="none" xmlns="http://www.w3.org/2000/svg">
<g clip-path="url(#clip0)">
<path d="M21.9999 20.497C22.0072 21.8702 20.9039 22.9883 19.5367 22.9957C19.4351 22.9965 19.3326 22.9908 19.2318 22.9784C17.9629 22.79 17.0334 21.6818 17.0645 20.395V5.6005C17.0342 4.31209 17.9662 3.20386 19.2359 3.0171C20.5941 2.85749 21.8245 3.83326 21.9835 5.19654C21.9949 5.29691 22.0007 5.39729 21.9999 5.49848V20.497Z" fill="#F9AB00"/>
<path d="M6.46815 18.046C7.83132 18.046 8.93629 19.155 8.93629 20.5232C8.93629 21.8915 7.83132 23.0005 6.46815 23.0005C5.10497 23.0005 4 21.8915 4 20.5232C4 19.155 5.10497 18.046 6.46815 18.046ZM12.9619 10.5384C11.5921 10.6141 10.5298 11.7668 10.5618 13.1432V19.7968C10.5618 21.6027 11.3536 22.6986 12.5135 22.9322C13.8521 23.2046 15.1562 22.3366 15.4276 20.993C15.4612 20.8285 15.4776 20.6615 15.4768 20.4936V13.028C15.4792 11.6549 14.3726 10.5401 13.0045 10.5376C12.9906 10.5376 12.9758 10.5376 12.9619 10.5384Z" fill="#E37400"/>
</g>
<defs>
<clipPath id="clip0">
<rect width="18" height="20" fill="white" transform="translate(4 3)"/>
</clipPath>
</defs>
</svg>
