<svg width="17" height="18" viewBox="0 0 16 16" fill="none" xmlns="http://www.w3.org/2000/svg">
<path fill-rule="evenodd" clip-rule="evenodd" d="M7.54321 2.01537C6.50199 2.17824 5.60588 2.82792 5.13653 3.7602C4.58726 4.85132 4.70239 6.14037 5.43693 7.12355C5.59318 7.3327 5.88907 7.63057 6.0761 7.76698C6.15452 7.82418 6.21833 7.87649 6.21789 7.88327C6.21744 7.89003 6.06185 7.94638 5.8721 8.00851C4.52256 8.45028 3.33798 9.37404 2.58272 10.5737C2.36528 10.9191 2.10352 11.4747 2.04702 11.7108C1.98867 11.9547 1.98422 12.28 2.03596 12.5162C2.08645 12.7467 2.27212 13.1211 2.43092 13.3128C2.66453 13.5947 3.04311 13.837 3.42214 13.947L3.60479 14H8.00035H12.3959L12.5819 13.9461C12.8202 13.877 13.1295 13.7165 13.3155 13.5656C13.9308 13.066 14.1641 12.2028 13.8802 11.4761C13.7945 11.2568 13.5582 10.7969 13.4112 10.5631C12.6559 9.36247 11.4325 8.41912 10.0696 7.98653C9.91201 7.9365 9.78284 7.89003 9.78254 7.88327C9.78226 7.87649 9.84644 7.82397 9.92519 7.76654C10.0985 7.64013 10.4242 7.31272 10.5651 7.12311C11.5422 5.80883 11.39 4.00534 10.2067 2.8776C9.76962 2.46099 9.24762 2.18395 8.64504 2.04873C8.44828 2.0046 7.74778 1.98339 7.54321 2.01537ZM8.49535 2.80129C8.98815 2.90512 9.40314 3.13711 9.75769 3.50699C10.0633 3.82576 10.2536 4.16138 10.369 4.5851C10.441 4.84951 10.4581 5.35348 10.4048 5.63755C10.2244 6.59864 9.52082 7.34477 8.56941 7.58399C8.2774 7.65741 7.72586 7.65814 7.43772 7.58545C6.48321 7.3447 5.77863 6.60261 5.59772 5.6475C5.57822 5.54457 5.56242 5.33738 5.56258 5.18709C5.56331 4.54047 5.78543 3.98912 6.23645 3.51448C6.65123 3.07796 7.16154 2.82874 7.78937 2.7561C7.92526 2.74039 8.32881 2.76622 8.49535 2.80129ZM8.62159 8.44767C10.4186 8.64734 11.952 9.60876 12.8385 11.0915C13.1674 11.6416 13.277 11.9798 13.2273 12.2913C13.1616 12.7033 12.877 13.0295 12.4452 13.1877L12.2787 13.2487H8.00035H3.722L3.56962 13.1941C3.35111 13.1158 3.22468 13.0363 3.07324 12.8819C2.83178 12.6358 2.71803 12.2929 2.77186 11.9733C2.82226 11.674 3.13269 11.0795 3.48511 10.6073C3.6881 10.3354 4.10136 9.9036 4.35496 9.69847C5.20046 9.01461 6.25378 8.57465 7.34395 8.45002C7.59437 8.4214 8.3723 8.41997 8.62159 8.44767Z" fill="#222222"/>
<path d="M8.4 9C8.4 8.77909 8.22091 8.6 8 8.6C7.77909 8.6 7.6 8.77909 7.6 9H8.4ZM7.6 10.5C7.6 10.7209 7.77909 10.9 8 10.9C8.22091 10.9 8.4 10.7209 8.4 10.5H7.6ZM7.6 9V10.5H8.4V9H7.6Z" fill="#222222"/>
</svg>
