<svg width="16" height="16" viewBox="0 0 16 16" fill="none" xmlns="http://www.w3.org/2000/svg">
<g clip-path="url(#clip0)">
<path d="M14.7285 12.138C13.8586 12.1163 13.1844 12.2033 12.619 12.4425C12.4559 12.5077 12.1949 12.5077 12.1731 12.7144C12.2601 12.8014 12.271 12.9427 12.3471 13.0623C12.4778 13.2797 12.7059 13.5734 12.9126 13.7257C13.1409 13.8996 13.3693 14.0736 13.6084 14.2258C14.0326 14.4868 14.5111 14.639 14.9243 14.9C15.1636 15.0521 15.4026 15.248 15.6419 15.4111C15.7615 15.4979 15.8376 15.6394 15.9899 15.6937V15.6612C15.9137 15.5632 15.892 15.4219 15.8159 15.3132C15.7073 15.2044 15.5984 15.1066 15.4896 14.9978C15.1743 14.5738 14.7829 14.2041 14.3588 13.8996C14.0109 13.6604 13.2496 13.3342 13.1083 12.9318C13.1083 12.9318 13.0974 12.921 13.0866 12.9101C13.3258 12.8884 13.6084 12.8014 13.8369 12.7361C14.2066 12.6382 14.5436 12.66 14.9243 12.5621C15.0982 12.5186 15.2722 12.4642 15.4461 12.4099V12.3121C15.2505 12.1163 15.1091 11.8554 14.9025 11.6705C14.348 11.1919 13.7389 10.7244 13.1083 10.333C12.7712 10.1155 12.3362 9.97412 11.9774 9.78931C11.847 9.724 11.6294 9.69144 11.5534 9.58269C11.3576 9.3435 11.2488 9.02819 11.1075 8.74544C10.7922 8.14731 10.4877 7.48406 10.2158 6.85344C10.0202 6.42931 9.90055 6.00519 9.6613 5.61381C8.54129 3.76525 7.32341 2.64525 5.45315 1.54694C5.05077 1.31863 4.57233 1.22075 4.06127 1.10119C3.78952 1.09025 3.51758 1.06856 3.24576 1.05763C3.07176 0.981501 2.89776 0.774938 2.74551 0.677063C2.12582 0.285563 0.527246 -0.562499 0.0705556 0.557501C-0.223071 1.26425 0.505558 1.96013 0.75556 2.31906C0.940561 2.56913 1.17969 2.85181 1.31019 3.13456C1.38631 3.31931 1.408 3.51519 1.48413 3.71088C1.65819 4.18919 1.82119 4.72213 2.04963 5.168C2.16926 5.39631 2.29969 5.6355 2.45194 5.84213C2.53895 5.96169 2.69113 6.01613 2.72382 6.21181C2.57163 6.42931 2.5607 6.75556 2.47363 7.02738C2.08219 8.25613 2.23451 9.77844 2.78901 10.6809C2.96295 10.9527 3.3762 11.5509 3.93077 11.3225C4.42014 11.1268 4.31139 10.507 4.45264 9.96331C4.48539 9.83269 4.46364 9.74581 4.52883 9.65881V9.68062C4.68108 9.985 4.83327 10.2787 4.97465 10.5831C5.31177 11.1159 5.8989 11.6705 6.38822 12.0402C6.64928 12.2359 6.85585 12.573 7.1821 12.6926V12.6599H7.16028C7.09503 12.5621 6.99716 12.5186 6.91022 12.4424C6.71453 12.2468 6.49697 12.0076 6.34478 11.7901C5.88815 11.1811 5.48571 10.5069 5.1269 9.811C4.95296 9.474 4.80065 9.10425 4.65933 8.76719C4.59402 8.63656 4.59402 8.44094 4.48533 8.37575C4.32221 8.61494 4.08302 8.82156 3.96339 9.11512C3.75689 9.58269 3.73508 10.159 3.65895 10.757C3.61545 10.768 3.63714 10.757 3.61539 10.7789C3.26751 10.6917 3.14789 10.333 3.01732 10.0285C2.69107 9.2565 2.6367 8.01688 2.91951 7.12525C2.99564 6.89688 3.32189 6.17925 3.19139 5.96175C3.12614 5.75513 2.90857 5.6355 2.78901 5.47244C2.6477 5.26581 2.49538 5.00494 2.39757 4.7765C2.13657 4.16756 2.00607 3.49338 1.72338 2.88444C1.59288 2.60169 1.36463 2.30819 1.17969 2.04719C0.973123 1.75363 0.744747 1.54694 0.581621 1.199C0.527308 1.07944 0.45112 0.883688 0.538121 0.753188C0.559871 0.666188 0.603309 0.633626 0.690372 0.611876C0.831748 0.492188 1.23413 0.644438 1.37538 0.709688C1.77775 0.872688 2.11482 1.02506 2.45194 1.25338C2.60413 1.36213 2.76726 1.56875 2.96295 1.62313H3.19132C3.53933 1.69919 3.9307 1.64488 4.25696 1.74269C4.83333 1.9275 5.35521 2.19938 5.82284 2.493C7.24735 3.3955 8.42161 4.67863 9.21549 6.21181C9.34599 6.46181 9.4003 6.69031 9.51992 6.95119C9.74836 7.48406 10.0311 8.02775 10.2593 8.54969C10.4877 9.06069 10.7051 9.58269 11.0314 10.0068C11.1945 10.2351 11.8469 10.3547 12.1405 10.4744C12.358 10.5722 12.6951 10.6592 12.8908 10.7788C13.2605 11.0071 13.6302 11.2682 13.9782 11.5182C14.1522 11.6487 14.6958 11.9206 14.7285 12.138Z" fill="#00546B"/>
<path d="M3.63655 2.68896C3.45173 2.68896 3.3213 2.71084 3.1908 2.7434V2.76515H3.21255C3.29961 2.93915 3.45173 3.05878 3.56042 3.21096C3.64748 3.3849 3.72355 3.55896 3.81061 3.73296C3.82142 3.72203 3.8323 3.71121 3.8323 3.71121C3.98461 3.6024 4.06067 3.42846 4.06067 3.16746C3.99542 3.0914 3.98455 3.01528 3.93017 2.93915C3.86498 2.83034 3.72355 2.77603 3.63655 2.68896Z" fill="#00546B"/>
</g>
<defs>
<clipPath id="clip0">
<rect width="16" height="15.7504" fill="white"/>
</clipPath>
</defs>
</svg>
