<svg width="155" height="128" viewBox="0 0 155 128" fill="none" xmlns="http://www.w3.org/2000/svg">
<path d="M104.891 127.746C93.594 128.015 80.1452 127.746 70.5968 127.611C61.0484 127.881 47.5996 128.015 36.3035 127.746C47.4651 121.432 51.2311 109.746 51.9032 101.955H89.1559C89.9625 109.746 93.7285 121.432 104.891 127.746Z" fill="#F5F5F5"/>
<path d="M139.571 4.14573V100.309C139.571 102.472 137.896 104.03 135.845 104.03H4.60624C2.56435 104.03 0.880474 102.347 0.880474 100.309V4.14573C0.880474 2.10785 2.56424 0.425884 4.60624 0.425884H135.845C137.896 0.425884 139.571 1.98321 139.571 4.14573Z" fill="white" stroke="#BDBDBD" stroke-width="0.851768"/>
<path d="M135.839 119.354L135.839 119.354L135.834 119.353C127.325 117.594 121.866 109.282 123.632 100.807C125.399 92.329 133.668 86.8142 142.174 88.6546L142.176 88.6551C145.221 89.291 147.871 90.8081 150.128 92.8956C153.898 96.7299 155.422 102.086 154.38 107.198C154.057 108.56 153.574 110.007 153.013 111.205C151.489 114.157 149.083 116.476 146.111 117.991C143.056 119.513 139.444 120.153 135.839 119.354Z" fill="#F5F5F5" stroke="#BDBDBD" stroke-width="0.6"/>
<path d="M144.017 102.622H140.374V98.9797C140.374 98.2511 139.807 97.5996 138.997 97.5996C138.268 97.5996 137.62 98.1682 137.62 98.9797V102.622H133.977C133.248 102.622 132.6 103.191 132.6 104.003C132.6 104.814 133.167 105.377 133.977 105.377H137.62V109.025C137.62 109.754 138.187 110.4 138.997 110.4C139.725 110.4 140.374 109.837 140.374 109.025V105.377H144.017C144.746 105.377 145.393 104.814 145.393 104.003C145.474 103.191 144.827 102.622 144.017 102.622Z" fill="#E96560"/>
<path d="M139.146 4.36815V85.7731H1.30518V4.24655C1.30518 2.02889 2.45763 0.849609 4.70864 0.849609H135.742C137.861 0.849609 139.146 2.02018 139.146 4.36815Z" fill="#F5F5F5"/>
<rect x="5.22852" y="4.64648" width="130.124" height="77.2614" rx="1.16183" fill="white"/>
<path d="M105.857 55.5H98.1434C98.0717 55.5 98 55.2273 98 54.75C98 54.3799 98.0538 54 98.1434 54H105.857C105.928 54 106 54.2825 106 54.75C106 55.1299 105.928 55.5 105.857 55.5Z" fill="#D6DCE8"/>
<path d="M105.857 64.5H98.1434C98.0717 64.5 98 64.2273 98 63.75C98 63.3799 98.0538 63 98.1434 63H105.857C105.928 63 106 63.2825 106 63.75C106 64.1299 105.928 64.5 105.857 64.5Z" fill="#D6DCE8"/>
<path d="M125.677 46.5H108.323C108.161 46.5 108 46.2273 108 45.75C108 45.3799 108.121 45 108.323 45H125.677C125.839 45 126 45.2825 126 45.75C126 46.1299 125.839 46.5 125.677 46.5Z" fill="#D6DCE8"/>
<path d="M125.677 55.5H108.323C108.161 55.5 108 55.2273 108 54.75C108 54.3799 108.121 54 108.323 54H125.677C125.839 54 126 54.2825 126 54.75C126 55.1299 125.839 55.5 125.677 55.5Z" fill="#D6DCE8"/>
<path d="M125.677 64.5H108.323C108.161 64.5 108 64.2273 108 63.75C108 63.3799 108.121 63 108.323 63H125.677C125.839 63 126 63.2825 126 63.75C126 64.1299 125.839 64.5 125.677 64.5Z" fill="#D6DCE8"/>
<path d="M105.857 51H98.1434C98.0717 51 98 50.7193 98 50.2548C98 49.8774 98.0538 49.5 98.1434 49.5H105.857C105.928 49.5 106 49.7807 106 50.2548C106 50.7193 105.928 51 105.857 51Z" fill="#D6DCE8"/>
<path d="M105.857 46.5H98.1434C98.0717 46.5 98 46.2193 98 45.7548C98 45.3774 98.0538 45 98.1434 45H105.857C105.928 45 106 45.2807 106 45.7548C106 46.2193 105.928 46.5 105.857 46.5Z" fill="#D6DCE8"/>
<path d="M105.857 60H98.1434C98.0717 60 98 59.7193 98 59.2548C98 58.8774 98.0538 58.5 98.1434 58.5H105.857C105.928 58.5 106 58.7807 106 59.2548C106 59.7193 105.928 60 105.857 60Z" fill="#D6DCE8"/>
<path d="M125.677 51H108.323C108.161 51 108 50.7193 108 50.2548C108 49.8774 108.121 49.5 108.323 49.5H125.677C125.839 49.5 126 49.7807 126 50.2548C126 50.7193 125.839 51 125.677 51Z" fill="#D6DCE8"/>
<path d="M125.677 60H108.323C108.161 60 108 59.7193 108 59.2548C108 58.8774 108.121 58.5 108.323 58.5H125.677C125.839 58.5 126 58.7807 126 59.2548C126 59.7193 125.839 60 125.677 60Z" fill="#D6DCE8"/>
<path d="M113.713 40H98.2868C98.1434 40 98 39.6258 98 39.0065C98 38.5032 98.1077 38 98.2868 38H113.713C113.857 38 114 38.3742 114 39.0065C114 39.6258 113.857 40 113.713 40Z" fill="#7A7A7A"/>
<path d="M78.5772 71.7878H83.0429C83.3619 71.7878 84 70.8836 84 70.4316V46.4772C84 45.5733 83.6809 45.1211 83.0429 45.1211H78.5772C78.2582 45.1211 77.6203 46.0253 77.6203 46.4772V70.4316C77.6203 70.8836 78.2582 71.7878 78.5772 71.7878Z" fill="#60CA9A"/>
<path d="M65.8177 43.9094H70.2834C70.6023 43.9094 71.2405 43.6629 71.2405 43.5396V37.0066C71.2405 36.76 70.9213 36.6367 70.2834 36.6367H65.8177C65.4987 36.6367 64.8607 36.8833 64.8607 37.0066V43.5396C64.8607 43.6629 65.4987 43.9094 65.8177 43.9094Z" fill="#BDBDBD"/>
<path d="M53.0581 54.8184H57.5238C57.8428 54.8184 58.481 54.6129 58.481 54.5102V49.066C58.481 48.8606 58.1618 48.7578 57.5238 48.7578H53.0581C52.7391 48.7578 52.1012 48.9633 52.1012 49.066V54.5102C52.1012 54.6129 52.7391 54.8184 53.0581 54.8184Z" fill="#BDBDBD"/>
<path d="M27.8007 54.8184H32.0512C32.3548 54.8184 32.9622 54.6129 32.9622 54.5102V49.066C32.9622 48.8606 32.6584 48.7578 32.0512 48.7578H27.8007C27.4971 48.7578 26.8899 48.9633 26.8899 49.066V54.5102C26.8899 54.6129 27.4971 54.8184 27.8007 54.8184Z" fill="#BDBDBD"/>
<path d="M40.2986 63.3032H44.7643C45.0833 63.3032 45.7214 63.0155 45.7214 62.8717V55.2499C45.7214 54.9622 45.4023 54.8184 44.7643 54.8184H40.2986C39.9796 54.8184 39.3417 55.1061 39.3417 55.2499V62.8717C39.3417 63.0155 39.9796 63.3032 40.2986 63.3032Z" fill="#BDBDBD"/>
<path d="M14.7796 73.0002H19.2453C19.5643 73.0002 20.2024 72.3837 20.2024 72.0755V55.743C20.2024 55.1267 19.8832 54.8184 19.2453 54.8184H14.7796C14.4606 54.8184 13.8226 55.4348 13.8226 55.743V72.0755C13.8226 72.3837 14.4606 73.0002 14.7796 73.0002Z" fill="#60CA9A"/>
<path d="M17.5 38L29 30L42.5 38L67 20.5L81 30" stroke="#BDBDBD" stroke-linecap="round"/>
<path d="M16.5 40C17.3334 40 18 39.3293 18 38.5C18 37.6585 17.3334 37 16.5 37C15.6665 37 15 37.6585 15 38.5C15 39.3293 15.6665 40 16.5 40Z" fill="#BDBDBD"/>
<path d="M28.8 32C29.6335 32 30.3 31.3293 30.3 30.5C30.3 29.6585 29.6335 29 28.8 29C27.9666 29 27.3 29.6585 27.3 30.5C27.3 31.3293 27.9666 32 28.8 32Z" fill="#BDBDBD"/>
<path d="M42.5 39C43.3334 39 44 38.3293 44 37.5C44 36.6585 43.3334 36 42.5 36C41.6665 36 41 36.6585 41 37.5C41 38.3293 41.6665 39 42.5 39Z" fill="#BDBDBD"/>
<path d="M81.5 32C82.3334 32 83 31.3293 83 30.5C83 29.6585 82.3334 29 81.5 29C80.6665 29 80 29.6585 80 30.5C80 31.3293 80.6665 32 81.5 32Z" fill="#BDBDBD"/>
<path d="M66.8 22C67.6335 22 68.3 21.3293 68.3 20.5C68.3 19.6585 67.6335 19 66.8 19C65.9666 19 65.3 19.6585 65.3 20.5C65.3 21.3293 65.9666 22 66.8 22Z" fill="#BDBDBD"/>
<path d="M11.3572 11.7285C12.1113 11.7285 12.7144 11.1185 12.7144 10.3643C12.7144 9.59893 12.1113 9 11.3572 9C10.6031 9 10 9.59893 10 10.3643C10 11.1185 10.6031 11.7285 11.3572 11.7285Z" fill="#BDBDBD"/>
<path d="M15.7293 11.7285C16.4834 11.7285 17.0865 11.1185 17.0865 10.3643C17.0865 9.59893 16.4834 9 15.7293 9C14.9762 9 14.3721 9.59893 14.3721 10.3643C14.3721 11.1185 14.9762 11.7285 15.7293 11.7285Z" fill="#BDBDBD"/>
<path d="M20.1033 11.7285C20.8574 11.7285 21.4605 11.1185 21.4605 10.3643C21.4605 9.59893 20.8574 9 20.1033 9C19.3492 9 18.7461 9.59893 18.7461 10.3643C18.7461 11.1185 19.3492 11.7285 20.1033 11.7285Z" fill="#BDBDBD"/>
<path d="M70.5973 99.5377C72.5288 99.5377 74.0943 97.9743 74.0943 96.0456C74.0943 94.1162 72.5288 92.5527 70.5973 92.5527C68.6667 92.5527 67.1011 94.1162 67.1011 96.0456C67.1011 97.9743 68.6667 99.5377 70.5973 99.5377Z" fill="#7A7A7A"/>
</svg>
