<svg width="18" height="18" viewBox="0 0 18 18" fill="none" xmlns="http://www.w3.org/2000/svg">
<path d="M13.2375 4.76079C12.015 3.53829 10.2825 2.83329 8.37745 3.02829C5.62495 3.30579 3.35995 5.54079 3.05245 8.29329C2.63995 11.9308 5.45245 14.9983 8.99995 14.9983C11.3925 14.9983 13.4475 13.5958 14.4075 11.5783C14.6475 11.0758 14.2875 10.4983 13.7325 10.4983C13.455 10.4983 13.1925 10.6483 13.0725 10.8958C12.225 12.7183 10.1925 13.8733 7.97245 13.3783C6.30745 13.0108 4.96495 11.6533 4.61245 9.98829C3.98245 7.07829 6.19495 4.49829 8.99995 4.49829C10.245 4.49829 11.355 5.01579 12.165 5.83329L11.0325 6.96579C10.56 7.43829 10.89 8.24829 11.5575 8.24829H14.25C14.6625 8.24829 15 7.91079 15 7.49829V4.80579C15 4.13829 14.19 3.80079 13.7175 4.27329L13.2375 4.76079V4.76079Z" fill="#0597F2"/>
</svg>
