<svg width="64" height="64" viewBox="0 0 64 64" fill="none" xmlns="http://www.w3.org/2000/svg">
<path d="M54.6274 9.37263C48.5834 3.32863 40.5475 0 32 0C23.4524 0 15.4165 3.32863 9.3725 9.37263C3.32863 15.4166 0 23.4525 0 32C0 40.5476 3.32863 48.5835 9.3725 54.6276C15.4165 60.6715 23.4524 64 32 64C40.5475 64 48.5834 60.6715 54.6274 54.6276C60.6714 48.5835 64 40.5476 64 32C64 23.4525 60.6714 15.4166 54.6274 9.37263Z" fill="#EFFAF5"/>
<path fill-rule="evenodd" clip-rule="evenodd" d="M21.9839 18.3864C21.9839 19.2305 21.9888 19.3108 22.0476 19.4399C22.1202 19.5995 22.4028 19.9047 22.4778 19.9047C22.5053 19.9047 22.5279 19.9191 22.5279 19.9367C22.5279 19.9543 22.5567 19.9687 22.5919 19.9687C22.6271 19.9687 22.6559 19.9831 22.6559 20.0007C22.6559 20.0183 22.7279 20.0327 22.8159 20.0327H22.9759V20.5927C22.9759 20.9447 22.9878 21.1527 23.0079 21.1527C23.0264 21.1527 23.0399 21.2534 23.0399 21.3907C23.0399 21.5217 23.0543 21.6378 23.0719 21.6487C23.0895 21.6595 23.1039 21.7387 23.1039 21.8247C23.1039 21.9106 23.1183 21.9898 23.1359 22.0007C23.1535 22.0115 23.1679 22.0763 23.1679 22.1447C23.1679 22.213 23.1823 22.2778 23.1999 22.2887C23.2175 22.2995 23.2319 22.3724 23.2319 22.4506C23.2319 22.5287 23.2447 22.5927 23.2604 22.5927C23.276 22.5927 23.2963 22.6395 23.3053 22.6967C23.3144 22.7539 23.3454 22.8943 23.3744 23.0087C23.4032 23.1231 23.4351 23.2563 23.445 23.3047C23.455 23.3531 23.4759 23.3927 23.4915 23.3927C23.5071 23.3927 23.5199 23.4359 23.5199 23.4887C23.5199 23.5415 23.5316 23.5847 23.5461 23.5847C23.5605 23.5847 23.5919 23.6567 23.6159 23.7447C23.6399 23.8327 23.6712 23.9047 23.6856 23.9047C23.7001 23.9047 23.7119 23.9398 23.7119 23.9827C23.7119 24.0257 23.7263 24.0698 23.7439 24.0807C23.7615 24.0915 23.7759 24.1284 23.7759 24.1626C23.7759 24.1967 23.7903 24.2247 23.8079 24.2247C23.8255 24.2247 23.8399 24.2534 23.8399 24.2887C23.8399 24.3239 23.8543 24.3527 23.8719 24.3527C23.8895 24.3527 23.9039 24.3814 23.9039 24.4166C23.9039 24.4518 23.9183 24.4806 23.9359 24.4806C23.9535 24.4806 23.9679 24.5166 23.9679 24.5606C23.9679 24.6047 23.9823 24.6406 23.9999 24.6406C24.0175 24.6406 24.0319 24.6694 24.0319 24.7046C24.0319 24.7399 24.0463 24.7686 24.0639 24.7686C24.0815 24.7686 24.0959 24.7974 24.0959 24.8326C24.0959 24.8678 24.1103 24.8966 24.1279 24.8966C24.1455 24.8966 24.1599 24.9155 24.1599 24.9386C24.1599 24.9617 24.1887 25.0115 24.2239 25.0493C24.2591 25.087 24.2879 25.1402 24.2879 25.1673C24.2879 25.1944 24.3023 25.2166 24.3199 25.2166C24.3375 25.2166 24.3519 25.2454 24.3519 25.2806C24.3519 25.3158 24.3663 25.3446 24.3839 25.3446C24.4015 25.3446 24.4159 25.3702 24.4159 25.4016C24.4159 25.4329 24.4447 25.4793 24.4799 25.5046C24.5151 25.53 24.5439 25.5764 24.5439 25.6077C24.5439 25.639 24.5583 25.6646 24.5759 25.6646C24.5935 25.6646 24.6079 25.6794 24.6079 25.6974C24.6079 25.7362 24.7734 25.996 24.8079 26.0113C24.8211 26.0172 24.8319 26.0388 24.8319 26.0593C24.832 26.0798 24.868 26.1385 24.9119 26.1896C24.9559 26.2407 24.9919 26.2941 24.9919 26.3082C24.9919 26.3222 25.0279 26.3698 25.0719 26.4138C25.1159 26.4578 25.1519 26.5102 25.1519 26.5303C25.1519 26.5505 25.1951 26.6073 25.2479 26.6566C25.3007 26.706 25.3439 26.7604 25.3439 26.7776C25.3439 26.7948 25.4015 26.8682 25.4719 26.9408C25.5423 27.0134 25.5999 27.081 25.5999 27.091C25.5999 27.101 25.6899 27.2003 25.7999 27.3116C25.9099 27.4229 26.0359 27.5617 26.0799 27.6199C26.2371 27.8282 27.0965 28.6447 27.2337 28.7162C27.2767 28.7386 27.3708 28.8171 27.4429 28.8907C27.5149 28.9644 27.5848 29.0246 27.598 29.0246C27.6113 29.0246 27.6625 29.0678 27.7119 29.1206C27.7612 29.1734 27.8188 29.2166 27.8399 29.2166C27.8609 29.2166 27.9185 29.2598 27.9679 29.3126C28.0172 29.3654 28.0774 29.4086 28.1016 29.4086C28.1259 29.4086 28.1665 29.4374 28.1919 29.4726C28.2172 29.5078 28.2528 29.5366 28.2709 29.5366C28.2891 29.5367 28.3457 29.5727 28.3968 29.6166C28.448 29.6606 28.501 29.6966 28.5146 29.6966C28.5282 29.6966 28.5584 29.715 28.5816 29.7374C28.6048 29.7598 28.71 29.8347 28.8152 29.9039C29.1562 30.1282 29.5999 30.5672 29.5999 30.6803C29.5999 30.7025 29.6143 30.7206 29.6319 30.7206C29.6495 30.7206 29.6639 30.7494 29.6639 30.7846C29.6639 30.8198 29.6783 30.8486 29.6959 30.8486C29.7135 30.8486 29.7279 30.8774 29.7279 30.9126C29.7279 30.9478 29.7423 30.9766 29.7599 30.9766C29.7775 30.9766 29.7919 31.0054 29.7919 31.0406C29.7919 31.0758 29.8063 31.1046 29.8239 31.1046C29.8415 31.1046 29.8559 31.1406 29.8559 31.1846C29.8559 31.2286 29.8703 31.2646 29.8879 31.2646C29.9055 31.2646 29.9199 31.3222 29.9199 31.3926C29.9199 31.463 29.9343 31.5206 29.9519 31.5206C29.9718 31.5206 29.9839 31.702 29.9839 32.0006C29.9839 32.2993 29.9718 32.4806 29.9519 32.4806C29.9343 32.4806 29.9199 32.5382 29.9199 32.6086C29.9199 32.679 29.9055 32.7366 29.8879 32.7366C29.8703 32.7366 29.8559 32.7726 29.8559 32.8166C29.8559 32.8606 29.8415 32.8966 29.8239 32.8966C29.8063 32.8966 29.7919 32.9254 29.7919 32.9606C29.7919 32.9958 29.7775 33.0246 29.7599 33.0246C29.7423 33.0246 29.7279 33.0534 29.7279 33.0886C29.7279 33.1238 29.7135 33.1526 29.6959 33.1526C29.6783 33.1526 29.6639 33.1814 29.6639 33.2166C29.6639 33.2518 29.6495 33.2806 29.6319 33.2806C29.6143 33.2806 29.5999 33.2999 29.5999 33.3235C29.5999 33.3471 29.5387 33.4342 29.4639 33.5169C29.3891 33.5995 29.2919 33.7096 29.2479 33.7614C29.2039 33.8131 29.1552 33.8558 29.1396 33.8561C29.1241 33.8564 29.0881 33.8827 29.0596 33.9146C29.0312 33.9466 28.9215 34.029 28.8159 34.0979C28.7103 34.1669 28.6048 34.2415 28.5816 34.2639C28.5584 34.2863 28.5282 34.3046 28.5146 34.3046C28.501 34.3046 28.448 34.3406 28.3968 34.3846C28.3457 34.4286 28.2891 34.4646 28.2709 34.4646C28.2528 34.4646 28.2172 34.4934 28.1919 34.5286C28.1665 34.5638 28.1272 34.5926 28.1045 34.5926C28.0819 34.5926 28.0181 34.6358 27.9628 34.6886C27.9076 34.7414 27.8487 34.7846 27.832 34.7846C27.8152 34.7846 27.7612 34.8278 27.7119 34.8806C27.6625 34.9334 27.6064 34.9766 27.5871 34.9766C27.5677 34.9766 27.5519 34.9886 27.5519 35.0032C27.5519 35.0178 27.5161 35.049 27.4724 35.0723C27.4287 35.0958 27.3852 35.139 27.3759 35.1686C27.3665 35.1982 27.3195 35.2427 27.2713 35.2675C27.1688 35.3204 27.187 35.3054 26.8272 35.6326C26.4652 35.9618 26.181 36.2466 26.0799 36.3814C26.0359 36.4401 25.9099 36.5798 25.7999 36.6918C25.6899 36.8038 25.5999 36.9029 25.5999 36.912C25.5999 36.9211 25.5423 36.9879 25.4719 37.0605C25.4015 37.133 25.3439 37.2065 25.3439 37.2237C25.3439 37.2409 25.3007 37.2953 25.2479 37.3446C25.1951 37.394 25.1519 37.4502 25.1519 37.4698C25.1519 37.4893 25.1087 37.5504 25.0559 37.6057C25.0031 37.661 24.9599 37.7256 24.9599 37.7494C24.9599 37.7732 24.9479 37.7926 24.9333 37.7926C24.9187 37.7926 24.8863 37.8322 24.8613 37.8806C24.8364 37.929 24.8086 37.9758 24.7996 37.9846C24.7574 38.0259 24.6079 38.275 24.6079 38.3039C24.6079 38.3219 24.5935 38.3366 24.5759 38.3366C24.5583 38.3366 24.5439 38.3622 24.5439 38.3936C24.5439 38.4249 24.5151 38.4713 24.4799 38.4966C24.4447 38.522 24.4159 38.5684 24.4159 38.5997C24.4159 38.631 24.4015 38.6566 24.3839 38.6566C24.3663 38.6566 24.3519 38.6854 24.3519 38.7206C24.3519 38.7558 24.3375 38.7846 24.3199 38.7846C24.3023 38.7846 24.2879 38.8102 24.2879 38.8416C24.2879 38.8729 24.2591 38.9193 24.2239 38.9446C24.1887 38.97 24.1599 39.0164 24.1599 39.0477C24.1599 39.079 24.1455 39.1046 24.1279 39.1046C24.1103 39.1046 24.0959 39.1334 24.0959 39.1686C24.0959 39.2038 24.0815 39.2326 24.0639 39.2326C24.0463 39.2326 24.0319 39.2614 24.0319 39.2966C24.0319 39.3318 24.0175 39.3606 23.9999 39.3606C23.9823 39.3606 23.9679 39.3886 23.9679 39.4227C23.9679 39.4569 23.9535 39.4938 23.9359 39.5046C23.9183 39.5155 23.9039 39.5524 23.9039 39.5866C23.9039 39.6207 23.8895 39.6486 23.8719 39.6486C23.8543 39.6486 23.8399 39.6774 23.8399 39.7126C23.8399 39.7478 23.8255 39.7766 23.8079 39.7766C23.7903 39.7766 23.7759 39.8046 23.7759 39.8387C23.7759 39.8729 23.7615 39.9098 23.7439 39.9206C23.7263 39.9315 23.7119 39.9756 23.7119 40.0186C23.7119 40.0615 23.7001 40.0966 23.6856 40.0966C23.6712 40.0966 23.6399 40.1686 23.6159 40.2566C23.5919 40.3446 23.5605 40.4166 23.5461 40.4166C23.5316 40.4166 23.5199 40.4598 23.5199 40.5126C23.5199 40.5654 23.5071 40.6086 23.4915 40.6086C23.4759 40.6086 23.455 40.6482 23.445 40.6966C23.4351 40.745 23.4032 40.8782 23.3744 40.9926C23.3454 41.107 23.3144 41.2474 23.3053 41.3046C23.2963 41.3618 23.276 41.4086 23.2604 41.4086C23.2447 41.4086 23.2319 41.4726 23.2319 41.5507C23.2319 41.6289 23.2175 41.7018 23.1999 41.7126C23.1823 41.7235 23.1679 41.7883 23.1679 41.8566C23.1679 41.925 23.1535 41.9898 23.1359 42.0006C23.1183 42.0115 23.1039 42.0907 23.1039 42.1766C23.1039 42.2626 23.0895 42.3418 23.0719 42.3526C23.0543 42.3635 23.0399 42.4796 23.0399 42.6106C23.0399 42.7479 23.0264 42.8486 23.0079 42.8486C22.9878 42.8486 22.9759 43.0566 22.9759 43.4086V43.9686H22.8159C22.7279 43.9686 22.6559 43.983 22.6559 44.0006C22.6559 44.0182 22.6271 44.0326 22.5919 44.0326C22.5567 44.0326 22.5279 44.047 22.5279 44.0646C22.5279 44.0822 22.5053 44.0966 22.4778 44.0966C22.4028 44.0966 22.1202 44.4018 22.0476 44.5614C21.9888 44.6905 21.9839 44.7708 21.9839 45.6149V46.5286H31.9999H42.0159V45.5802C42.0159 44.667 42.0132 44.6264 41.9455 44.4907C41.8654 44.3303 41.6495 44.0966 41.5814 44.0966C41.5564 44.0966 41.5359 44.0822 41.5359 44.0646C41.5359 44.047 41.5071 44.0326 41.4719 44.0326C41.4367 44.0326 41.4079 44.0182 41.4079 44.0006C41.4079 43.9829 41.3225 43.9686 41.2159 43.9686H41.0239V43.4086C41.0239 43.0566 41.012 42.8486 40.9919 42.8486C40.9734 42.8486 40.9599 42.7479 40.9599 42.6106C40.9599 42.4796 40.9455 42.3635 40.9279 42.3526C40.9103 42.3418 40.8959 42.2617 40.8959 42.1747C40.8959 42.0878 40.8815 42.0166 40.8639 42.0166C40.8463 42.0166 40.8319 41.9518 40.8319 41.8726C40.8319 41.7934 40.8175 41.7286 40.7999 41.7286C40.7823 41.7286 40.7679 41.6647 40.7679 41.5866C40.7679 41.5084 40.7552 41.4366 40.7396 41.427C40.724 41.4174 40.7016 41.331 40.6896 41.235C40.6776 41.139 40.6399 40.9842 40.6058 40.891C40.5717 40.7978 40.5439 40.6962 40.5439 40.6651C40.5439 40.6341 40.5295 40.6086 40.5119 40.6086C40.4943 40.6086 40.4799 40.5654 40.4799 40.5126C40.4799 40.4598 40.4655 40.4166 40.4479 40.4166C40.4303 40.4166 40.4159 40.3815 40.4159 40.3386C40.4159 40.2956 40.4015 40.2515 40.3839 40.2406C40.3663 40.2298 40.3519 40.1929 40.3519 40.1587C40.3519 40.1246 40.3375 40.0966 40.3199 40.0966C40.3023 40.0966 40.2879 40.0615 40.2879 40.0186C40.2879 39.9756 40.2735 39.9315 40.2559 39.9206C40.2383 39.9098 40.2239 39.8729 40.2239 39.8387C40.2239 39.8046 40.2095 39.7766 40.1919 39.7766C40.1743 39.7766 40.1599 39.7478 40.1599 39.7126C40.1599 39.6774 40.1455 39.6486 40.1279 39.6486C40.1103 39.6486 40.0959 39.6207 40.0959 39.5866C40.0959 39.5524 40.0815 39.5155 40.0639 39.5046C40.0463 39.4938 40.0319 39.4569 40.0319 39.4227C40.0319 39.3886 40.0175 39.3606 39.9999 39.3606C39.9823 39.3606 39.9679 39.3318 39.9679 39.2966C39.9679 39.2614 39.9535 39.2326 39.9359 39.2326C39.9183 39.2326 39.9039 39.205 39.9039 39.1713C39.9039 39.1376 39.8931 39.1052 39.8799 39.0993C39.8498 39.0859 39.7459 38.9155 39.7222 38.8406C39.7124 38.8098 39.6917 38.7846 39.6761 38.7846C39.6606 38.7846 39.6479 38.7558 39.6479 38.7206C39.6479 38.6854 39.6335 38.6566 39.6159 38.6566C39.5983 38.6566 39.5839 38.6344 39.5839 38.6073C39.5839 38.5802 39.5551 38.527 39.5199 38.4893C39.4847 38.4515 39.4559 38.4017 39.4559 38.3786C39.4559 38.3555 39.4451 38.3365 39.4319 38.3362C39.4187 38.3361 39.3806 38.279 39.3472 38.2094C39.3139 38.1398 39.2635 38.0571 39.2352 38.0257C39.207 37.9943 39.1635 37.929 39.1384 37.8806C39.1135 37.8322 39.0811 37.7926 39.0664 37.7926C39.0519 37.7926 39.0399 37.7732 39.0399 37.7494C39.0399 37.7256 38.9967 37.661 38.9439 37.6057C38.8911 37.5504 38.8479 37.4893 38.8479 37.4698C38.8479 37.4502 38.8047 37.394 38.7519 37.3446C38.6991 37.2953 38.6559 37.2409 38.6559 37.2237C38.6559 37.2065 38.5983 37.133 38.5279 37.0605C38.4575 36.9879 38.3999 36.9211 38.3999 36.912C38.3999 36.9029 38.3099 36.8038 38.1999 36.6918C38.0899 36.5798 37.964 36.4396 37.92 36.3803C37.7975 36.2149 37.1469 35.585 36.8424 35.3372C36.7008 35.2218 36.5036 35.0554 36.4627 35.0166C36.4395 34.9946 36.4108 34.9766 36.399 34.9766C36.3872 34.9766 36.3372 34.9334 36.2879 34.8806C36.2385 34.8278 36.1845 34.7846 36.1678 34.7846C36.1511 34.7846 36.0922 34.7414 36.0369 34.6886C35.9816 34.6358 35.9212 34.5926 35.9027 34.5926C35.8841 34.5926 35.833 34.5566 35.789 34.5126C35.745 34.4686 35.6975 34.4326 35.6834 34.4326C35.6693 34.4326 35.616 34.3966 35.5648 34.3526C35.5137 34.3087 35.4551 34.2727 35.4345 34.2726C35.414 34.2726 35.3924 34.2615 35.3865 34.248C35.3807 34.2345 35.2898 34.1667 35.1846 34.0974C34.9569 33.9476 34.9024 33.9046 34.7713 33.7721C34.5634 33.5617 34.3999 33.3641 34.3999 33.3231C34.3999 33.2998 34.3855 33.2806 34.3679 33.2806C34.3503 33.2806 34.3359 33.2518 34.3359 33.2166C34.3359 33.1814 34.3215 33.1526 34.3039 33.1526C34.2863 33.1526 34.2719 33.1238 34.2719 33.0886C34.2719 33.0534 34.2575 33.0246 34.2399 33.0246C34.2223 33.0246 34.2079 32.9958 34.2079 32.9606C34.2079 32.9254 34.1935 32.8966 34.1759 32.8966C34.1583 32.8966 34.1439 32.8606 34.1439 32.8166C34.1439 32.7726 34.1295 32.7366 34.1119 32.7366C34.0943 32.7366 34.0799 32.679 34.0799 32.6086C34.0799 32.5382 34.0655 32.4806 34.0479 32.4806C34.028 32.4806 34.0159 32.2993 34.0159 32.0006C34.0159 31.702 34.028 31.5206 34.0479 31.5206C34.0655 31.5206 34.0799 31.463 34.0799 31.3926C34.0799 31.3222 34.0943 31.2646 34.1119 31.2646C34.1295 31.2646 34.1439 31.2286 34.1439 31.1846C34.1439 31.1406 34.1583 31.1046 34.1759 31.1046C34.1935 31.1046 34.2079 31.0758 34.2079 31.0406C34.2079 31.0054 34.2223 30.9766 34.2399 30.9766C34.2575 30.9766 34.2719 30.9478 34.2719 30.9126C34.2719 30.8774 34.2863 30.8486 34.3039 30.8486C34.3215 30.8486 34.3359 30.8198 34.3359 30.7846C34.3359 30.7494 34.3503 30.7206 34.3679 30.7206C34.3855 30.7206 34.3999 30.7008 34.3999 30.6765C34.3999 30.6522 34.4575 30.573 34.5279 30.5005C34.5983 30.4279 34.6559 30.3555 34.6559 30.3396C34.6559 30.3237 34.7152 30.2625 34.7876 30.2036C34.8601 30.1448 34.9358 30.0822 34.9559 30.0646C34.9759 30.047 35.0786 29.975 35.1841 29.9046C35.2896 29.8342 35.3807 29.7658 35.3865 29.7526C35.3924 29.7394 35.414 29.7286 35.4345 29.7286C35.4551 29.7286 35.5223 29.6854 35.5839 29.6326C35.6455 29.5799 35.7107 29.5367 35.7288 29.5367C35.7469 29.5366 35.7825 29.5078 35.8079 29.4726C35.8332 29.4374 35.8739 29.4086 35.8981 29.4086C35.9224 29.4086 35.9825 29.3654 36.0319 29.3126C36.0812 29.2598 36.1388 29.2166 36.1599 29.2166C36.1809 29.2166 36.2385 29.1734 36.2879 29.1206C36.3372 29.0678 36.386 29.0246 36.3964 29.0246C36.4175 29.0246 36.5179 28.9452 36.6199 28.8477C36.6573 28.812 36.7239 28.7583 36.7679 28.7284C36.952 28.6034 37.7848 27.8031 37.92 27.6213C37.964 27.5623 38.0899 27.4229 38.1999 27.3116C38.3099 27.2003 38.3999 27.101 38.3999 27.091C38.3999 27.081 38.4575 27.0134 38.5279 26.9408C38.5983 26.8682 38.6559 26.7948 38.6559 26.7776C38.6559 26.7604 38.6991 26.706 38.7519 26.6566C38.8047 26.6073 38.8479 26.551 38.8479 26.5315C38.8479 26.512 38.8911 26.4509 38.9439 26.3956C38.9967 26.3403 39.0399 26.2757 39.0399 26.2519C39.0399 26.2281 39.0519 26.2086 39.0664 26.2086C39.0811 26.2086 39.1135 26.169 39.1384 26.1206C39.1635 26.0722 39.207 26.007 39.2352 25.9756C39.2635 25.9442 39.3139 25.8615 39.3472 25.7919C39.3806 25.7223 39.4187 25.6652 39.4319 25.665C39.4451 25.6648 39.4559 25.639 39.4559 25.6077C39.4559 25.5764 39.4847 25.53 39.5199 25.5046C39.5551 25.4793 39.5839 25.4329 39.5839 25.4016C39.5839 25.3702 39.5983 25.3446 39.6159 25.3446C39.6335 25.3446 39.6479 25.3158 39.6479 25.2806C39.6479 25.2454 39.6623 25.2166 39.6799 25.2166C39.6975 25.2166 39.7119 25.1944 39.7119 25.1673C39.7119 25.1402 39.7407 25.087 39.7759 25.0493C39.8111 25.0115 39.8399 24.9617 39.8399 24.9386C39.8399 24.9155 39.8543 24.8966 39.8719 24.8966C39.8895 24.8966 39.9039 24.8678 39.9039 24.8326C39.9039 24.7974 39.9183 24.7686 39.9359 24.7686C39.9535 24.7686 39.9679 24.7399 39.9679 24.7046C39.9679 24.6694 39.9823 24.6406 39.9999 24.6406C40.0175 24.6406 40.0319 24.6127 40.0319 24.5786C40.0319 24.5444 40.0463 24.5075 40.0639 24.4966C40.0815 24.4858 40.0959 24.4489 40.0959 24.4147C40.0959 24.3806 40.1103 24.3527 40.1279 24.3527C40.1455 24.3527 40.1599 24.3239 40.1599 24.2887C40.1599 24.2534 40.1743 24.2247 40.1919 24.2247C40.2095 24.2247 40.2239 24.1967 40.2239 24.1626C40.2239 24.1284 40.2383 24.0915 40.2559 24.0807C40.2735 24.0698 40.2879 24.0257 40.2879 23.9827C40.2879 23.9398 40.2996 23.9047 40.3141 23.9047C40.3285 23.9047 40.3599 23.8327 40.3839 23.7447C40.4079 23.6567 40.4392 23.5847 40.4536 23.5847C40.4681 23.5847 40.4799 23.5415 40.4799 23.4887C40.4799 23.4359 40.4943 23.3927 40.5119 23.3927C40.5295 23.3927 40.5439 23.3672 40.5439 23.3362C40.5439 23.3051 40.5717 23.2035 40.6058 23.1103C40.6399 23.0171 40.6776 22.8623 40.6896 22.7663C40.7016 22.6703 40.724 22.5839 40.7396 22.5743C40.7552 22.5647 40.7679 22.4929 40.7679 22.4147C40.7679 22.3366 40.7823 22.2727 40.7999 22.2727C40.8175 22.2727 40.8319 22.2079 40.8319 22.1287C40.8319 22.0495 40.8463 21.9847 40.8639 21.9847C40.8815 21.9847 40.8959 21.9135 40.8959 21.8266C40.8959 21.7396 40.9103 21.6595 40.9279 21.6487C40.9455 21.6378 40.9599 21.5217 40.9599 21.3907C40.9599 21.2534 40.9734 21.1527 40.9919 21.1527C41.012 21.1527 41.0239 20.9447 41.0239 20.5927V20.0327H41.2159C41.3225 20.0327 41.4079 20.0184 41.4079 20.0007C41.4079 19.9831 41.4367 19.9687 41.4719 19.9687C41.5071 19.9687 41.5359 19.9543 41.5359 19.9367C41.5359 19.9191 41.5564 19.9047 41.5814 19.9047C41.6495 19.9047 41.8654 19.671 41.9455 19.5106C42.0132 19.3749 42.0159 19.3343 42.0159 18.4211V17.4727H31.9999H21.9839V18.3864ZM39.9039 20.5267C39.9039 20.8217 39.891 21.0288 39.8719 21.0407C39.8543 21.0515 39.8399 21.1532 39.8399 21.2666C39.8399 21.3799 39.8268 21.4727 39.8108 21.4727C39.7948 21.4727 39.7737 21.5483 39.7639 21.6407C39.726 21.9956 39.7044 22.1127 39.6767 22.1127C39.6608 22.1127 39.6479 22.1622 39.6479 22.2227C39.6479 22.2833 39.6335 22.3418 39.6159 22.3527C39.5983 22.3635 39.5839 22.422 39.5839 22.4826C39.5839 22.5431 39.5695 22.5927 39.5519 22.5927C39.5343 22.5927 39.5199 22.6288 39.5199 22.6731C39.5199 22.7173 39.5067 22.7785 39.4905 22.8091C39.4744 22.8396 39.4373 22.9511 39.4081 23.0567C39.3789 23.1623 39.3417 23.2811 39.3254 23.3207C39.3092 23.3603 39.2798 23.4323 39.2601 23.4807C39.2405 23.5291 39.2117 23.5937 39.1961 23.6243C39.1806 23.6548 39.1679 23.7016 39.1679 23.7283C39.1679 23.7549 39.1535 23.7767 39.1359 23.7767C39.1183 23.7767 39.1039 23.8055 39.1039 23.8407C39.1039 23.8759 39.0895 23.9047 39.0719 23.9047C39.0543 23.9047 39.0399 23.9335 39.0399 23.9687C39.0399 24.0039 39.0255 24.0327 39.0079 24.0327C38.9903 24.0327 38.9759 24.0615 38.9759 24.0967C38.9759 24.1319 38.9615 24.1607 38.9439 24.1607C38.9263 24.1607 38.9119 24.1895 38.9119 24.2247C38.9119 24.2599 38.8975 24.2887 38.8799 24.2887C38.8623 24.2887 38.8479 24.3175 38.8479 24.3527C38.8479 24.3879 38.8335 24.4166 38.8159 24.4166C38.7983 24.4166 38.7839 24.4454 38.7839 24.4806C38.7839 24.5159 38.7695 24.5447 38.7519 24.5447C38.7343 24.5447 38.7199 24.5734 38.7199 24.6086C38.7199 24.6438 38.7055 24.6726 38.6879 24.6726C38.6703 24.6726 38.6559 24.6942 38.6559 24.7206C38.6559 24.747 38.6415 24.7686 38.6239 24.7686C38.6063 24.7686 38.5919 24.7902 38.5919 24.8166C38.5919 24.843 38.581 24.8646 38.5677 24.8646C38.5544 24.8646 38.5228 24.9114 38.4975 24.9686C38.4721 25.0258 38.4255 25.1006 38.3936 25.1346C38.3619 25.1688 38.3359 25.2156 38.3359 25.2386C38.3359 25.2618 38.3232 25.2806 38.3078 25.2806C38.2923 25.2806 38.2617 25.3238 38.2399 25.3766C38.218 25.4294 38.1892 25.4726 38.1759 25.4726C38.1625 25.4726 38.1349 25.513 38.1145 25.5623C38.094 25.6117 38.0419 25.6902 37.9986 25.737C37.9553 25.7836 37.9199 25.8383 37.9199 25.8584C37.9199 25.8785 37.8767 25.9353 37.8239 25.9846C37.7711 26.034 37.7279 26.0834 37.7279 26.0946C37.7279 26.1057 37.6811 26.1628 37.6239 26.2214C37.4994 26.3492 37.4079 26.4594 37.4079 26.4814C37.4079 26.4903 37.2891 26.6186 37.1439 26.7664C36.9987 26.9142 36.8056 27.1121 36.7149 27.2059C36.4583 27.4716 36.1285 27.7766 36.098 27.7766C36.0828 27.7766 35.9968 27.8486 35.907 27.9366C35.8171 28.0246 35.7278 28.0966 35.7085 28.0966C35.6893 28.0966 35.6332 28.1398 35.5839 28.1926C35.5345 28.2454 35.4841 28.2886 35.4719 28.2886C35.4596 28.2886 35.4092 28.3318 35.3599 28.3846C35.3105 28.4374 35.2504 28.4806 35.2261 28.4806C35.2019 28.4806 35.1612 28.5094 35.1359 28.5446C35.1105 28.5798 35.0708 28.6086 35.0475 28.6086C35.0242 28.6086 34.9837 28.6266 34.9574 28.6486C34.9312 28.6706 34.8921 28.703 34.8708 28.7206C34.8494 28.7382 34.7923 28.773 34.7439 28.7981C34.6955 28.823 34.6559 28.8554 34.6559 28.8701C34.6559 28.8846 34.6303 28.8966 34.5989 28.8966C34.5676 28.8966 34.5212 28.9254 34.4959 28.9606C34.4705 28.9958 34.4335 29.0246 34.4136 29.0246C34.3936 29.0246 34.3322 29.0678 34.2769 29.1206C34.2216 29.1734 34.1689 29.2166 34.1596 29.2166C34.1279 29.2166 33.6639 29.6956 33.6639 29.7284C33.6639 29.7465 33.6207 29.8064 33.5679 29.8617C33.5151 29.917 33.4719 29.9816 33.4719 30.0054C33.4719 30.0292 33.4575 30.0486 33.4399 30.0486C33.4223 30.0486 33.4079 30.0702 33.4079 30.0966C33.4079 30.123 33.3935 30.1446 33.3759 30.1446C33.3583 30.1446 33.3439 30.1662 33.3439 30.1926C33.3439 30.219 33.333 30.2406 33.3197 30.2406C33.3064 30.2406 33.2767 30.2874 33.2536 30.3446C33.2305 30.4018 33.1982 30.4737 33.1818 30.5042C33.1653 30.5348 33.1519 30.5816 33.1519 30.6082C33.1519 30.6349 33.1375 30.6566 33.1199 30.6566C33.1023 30.6566 33.0879 30.6998 33.0879 30.7526C33.0879 30.8054 33.0735 30.8486 33.0559 30.8486C33.0383 30.8486 33.0239 30.8918 33.0239 30.9446C33.0239 30.9974 33.0109 31.0406 32.9951 31.0406C32.9432 31.0406 32.9204 31.3342 32.9204 32.0006C32.9204 32.6671 32.9432 32.9606 32.9951 32.9606C33.0109 32.9606 33.0239 33.0038 33.0239 33.0566C33.0239 33.1094 33.0383 33.1526 33.0559 33.1526C33.0735 33.1526 33.0879 33.1958 33.0879 33.2486C33.0879 33.3014 33.1023 33.3446 33.1199 33.3446C33.1375 33.3446 33.1519 33.3664 33.1519 33.393C33.1519 33.4197 33.1653 33.4665 33.1818 33.497C33.1982 33.5276 33.2305 33.5994 33.2536 33.6566C33.2767 33.7138 33.3064 33.7606 33.3197 33.7606C33.333 33.7606 33.3439 33.7822 33.3439 33.8086C33.3439 33.835 33.3548 33.8566 33.368 33.8566C33.3814 33.8566 33.4107 33.8982 33.4332 33.949C33.4556 33.9998 33.5168 34.0861 33.569 34.1407C33.6212 34.1954 33.6639 34.2531 33.6639 34.269C33.6639 34.3006 34.1277 34.7846 34.158 34.7846C34.1681 34.7846 34.2216 34.8278 34.2769 34.8806C34.3322 34.9334 34.3936 34.9766 34.4136 34.9766C34.4335 34.9766 34.4705 35.0054 34.4959 35.0406C34.5212 35.0758 34.5676 35.1046 34.5989 35.1046C34.6303 35.1046 34.6559 35.1166 34.6559 35.1312C34.6559 35.1458 34.6955 35.1782 34.7439 35.2032C34.8334 35.2494 34.8789 35.2811 34.9587 35.3526C34.9832 35.3746 35.0228 35.3926 35.0465 35.3926C35.0703 35.3926 35.1105 35.4214 35.1359 35.4566C35.1612 35.4918 35.2019 35.5206 35.2261 35.5206C35.2504 35.5206 35.3105 35.5638 35.3599 35.6166C35.4092 35.6694 35.4583 35.7126 35.469 35.7126C35.4797 35.7126 35.5336 35.7558 35.5889 35.8086C35.6442 35.8614 35.7016 35.9046 35.7164 35.9046C35.7314 35.9046 35.8171 35.9766 35.907 36.0646C35.9968 36.1526 36.0825 36.2246 36.0973 36.2246C36.1285 36.2246 36.5401 36.6082 36.7802 36.861C36.8702 36.9558 37.0483 37.1391 37.1759 37.2685C37.3035 37.3978 37.4079 37.5109 37.4079 37.5198C37.4079 37.5419 37.4993 37.652 37.6239 37.7798C37.6811 37.8385 37.7279 37.8956 37.7279 37.9067C37.7279 37.9178 37.7711 37.9673 37.8239 38.0166C37.8767 38.066 37.9199 38.1228 37.9199 38.1429C37.9199 38.163 37.9553 38.2177 37.9986 38.2643C38.0419 38.311 38.094 38.3896 38.1145 38.439C38.1349 38.4882 38.1625 38.5286 38.1759 38.5286C38.1892 38.5286 38.218 38.5718 38.2399 38.6246C38.2617 38.6774 38.2923 38.7206 38.3078 38.7206C38.3232 38.7206 38.3359 38.7395 38.3359 38.7626C38.3359 38.7857 38.3619 38.8325 38.3936 38.8666C38.4255 38.9007 38.4721 38.9754 38.4975 39.0326C38.5228 39.0898 38.5544 39.1366 38.5677 39.1366C38.581 39.1366 38.5919 39.1582 38.5919 39.1846C38.5919 39.211 38.6063 39.2326 38.6239 39.2326C38.6415 39.2326 38.6559 39.2542 38.6559 39.2806C38.6559 39.307 38.6703 39.3286 38.6879 39.3286C38.7055 39.3286 38.7199 39.3574 38.7199 39.3926C38.7199 39.4278 38.7343 39.4566 38.7519 39.4566C38.7695 39.4566 38.7839 39.4854 38.7839 39.5206C38.7839 39.5558 38.7983 39.5846 38.8159 39.5846C38.8335 39.5846 38.8479 39.6134 38.8479 39.6486C38.8479 39.6838 38.8623 39.7126 38.8799 39.7126C38.8975 39.7126 38.9119 39.7414 38.9119 39.7766C38.9119 39.8118 38.9263 39.8406 38.9439 39.8406C38.9615 39.8406 38.9759 39.8694 38.9759 39.9046C38.9759 39.9398 38.9903 39.9686 39.0079 39.9686C39.0255 39.9686 39.0399 39.9974 39.0399 40.0326C39.0399 40.0678 39.0543 40.0966 39.0719 40.0966C39.0895 40.0966 39.1039 40.1254 39.1039 40.1606C39.1039 40.1958 39.1183 40.2246 39.1359 40.2246C39.1535 40.2246 39.1679 40.2534 39.1679 40.2886C39.1679 40.3238 39.1823 40.3526 39.1999 40.3526C39.2175 40.3526 39.2319 40.3816 39.2319 40.417C39.2319 40.4525 39.2446 40.5065 39.2601 40.537C39.3168 40.6486 39.3561 40.7566 39.4081 40.9446C39.4373 41.0502 39.4744 41.1617 39.4905 41.1922C39.5067 41.2228 39.5199 41.284 39.5199 41.3282C39.5199 41.3725 39.5343 41.4086 39.5519 41.4086C39.5695 41.4086 39.5839 41.4582 39.5839 41.5187C39.5839 41.5793 39.5983 41.6378 39.6159 41.6486C39.6335 41.6595 39.6479 41.718 39.6479 41.7786C39.6479 41.8391 39.6608 41.8886 39.6767 41.8886C39.7044 41.8886 39.726 42.0057 39.7639 42.3606C39.7737 42.453 39.7948 42.5286 39.8108 42.5286C39.8268 42.5286 39.8399 42.6214 39.8399 42.7347C39.8399 42.8481 39.8543 42.9498 39.8719 42.9606C39.891 42.9725 39.9039 43.1796 39.9039 43.4746V43.9686H31.9999H24.0959V43.4746C24.0959 43.1796 24.1088 42.9725 24.1279 42.9606C24.1455 42.9498 24.1599 42.849 24.1599 42.7366C24.1599 42.6243 24.1743 42.5235 24.1919 42.5126C24.2095 42.5018 24.2239 42.4226 24.2239 42.3366C24.2239 42.2507 24.2383 42.1715 24.2559 42.1606C24.2735 42.1498 24.2879 42.0841 24.2879 42.0147C24.2879 41.9454 24.3023 41.8886 24.3199 41.8886C24.3375 41.8886 24.3519 41.8391 24.3519 41.7786C24.3519 41.718 24.3663 41.6595 24.3839 41.6486C24.4015 41.6378 24.4159 41.5793 24.4159 41.5187C24.4159 41.4582 24.4303 41.4086 24.4479 41.4086C24.4655 41.4086 24.4799 41.3663 24.4799 41.3146C24.4799 41.2628 24.4943 41.2115 24.5119 41.2006C24.5295 41.1898 24.5439 41.1466 24.5439 41.1046C24.5439 41.0627 24.5583 41.0195 24.5759 41.0086C24.5935 40.9978 24.6079 40.9546 24.6079 40.9126C24.6079 40.8707 24.6207 40.8286 24.6363 40.8189C24.6519 40.8092 24.6744 40.749 24.6864 40.685C24.6984 40.6211 24.7216 40.5418 24.738 40.5087C24.7544 40.4757 24.7823 40.42 24.7999 40.385C24.8175 40.3501 24.8319 40.2997 24.8319 40.273C24.8319 40.2464 24.8463 40.2246 24.8639 40.2246C24.8815 40.2246 24.8959 40.1958 24.8959 40.1606C24.8959 40.1254 24.9103 40.0966 24.9279 40.0966C24.9455 40.0966 24.9599 40.0678 24.9599 40.0326C24.9599 39.9974 24.9743 39.9686 24.9919 39.9686C25.0095 39.9686 25.0239 39.9398 25.0239 39.9046C25.0239 39.8694 25.0383 39.8406 25.0559 39.8406C25.0735 39.8406 25.0879 39.8118 25.0879 39.7766C25.0879 39.7414 25.1023 39.7126 25.1199 39.7126C25.1375 39.7126 25.1519 39.6838 25.1519 39.6486C25.1519 39.6134 25.1663 39.5846 25.1839 39.5846C25.2015 39.5846 25.2159 39.5558 25.2159 39.5206C25.2159 39.4854 25.2303 39.4566 25.2479 39.4566C25.2655 39.4566 25.2799 39.4278 25.2799 39.3926C25.2799 39.3574 25.2943 39.3286 25.3119 39.3286C25.3295 39.3286 25.3439 39.307 25.3439 39.2806C25.3439 39.2542 25.3583 39.2326 25.3759 39.2326C25.3935 39.2326 25.4079 39.2138 25.4079 39.1906C25.4079 39.1676 25.4367 39.1178 25.4719 39.08C25.5071 39.0422 25.5359 38.9891 25.5359 38.962C25.5359 38.9349 25.5479 38.9126 25.5624 38.9126C25.5771 38.9126 25.6095 38.873 25.6344 38.8246C25.6595 38.7762 25.7051 38.7087 25.7359 38.6746C25.7667 38.6405 25.7919 38.5937 25.7919 38.5706C25.7919 38.5475 25.8045 38.5286 25.82 38.5286C25.8355 38.5286 25.866 38.4854 25.8879 38.4326C25.9097 38.3798 25.937 38.3366 25.9485 38.3366C25.96 38.3366 25.9977 38.2826 26.0324 38.2166C26.0671 38.1506 26.1352 38.0585 26.1836 38.0118C26.2322 37.9651 26.2719 37.9169 26.2719 37.9046C26.2719 37.8924 26.312 37.8442 26.3611 37.7974C26.4102 37.7508 26.4856 37.6622 26.5288 37.6006C26.572 37.539 26.7227 37.3713 26.8636 37.2279C27.0045 37.0845 27.1792 36.9045 27.2517 36.8279C27.4625 36.6051 27.873 36.2246 27.9024 36.2246C27.9172 36.2246 28.0029 36.1526 28.0928 36.0646C28.1827 35.9766 28.2684 35.9046 28.2833 35.9046C28.2982 35.9046 28.3556 35.8614 28.4108 35.8086C28.4661 35.7558 28.5207 35.7126 28.5321 35.7126C28.5436 35.7126 28.5942 35.6694 28.6447 35.6166C28.6952 35.5638 28.7526 35.5206 28.7724 35.5206C28.7922 35.5206 28.8316 35.4953 28.8601 35.4642C28.8886 35.4331 28.9659 35.3795 29.0319 35.345C29.0979 35.3104 29.1519 35.271 29.1519 35.2574C29.1519 35.2438 29.1708 35.2326 29.1939 35.2326C29.2169 35.2326 29.2668 35.2038 29.3045 35.1686C29.3423 35.1334 29.3922 35.1046 29.4155 35.1046C29.4388 35.1046 29.4785 35.0758 29.5039 35.0406C29.5292 35.0054 29.5648 34.9764 29.5829 34.9761C29.6516 34.9749 30.2719 34.4049 30.2719 34.343C30.2719 34.3271 30.3151 34.269 30.3679 34.2137C30.4207 34.1584 30.4639 34.095 30.4639 34.0726C30.4639 34.0503 30.4927 34.0141 30.5279 33.9921C30.5631 33.9701 30.5919 33.9318 30.5919 33.907C30.5919 33.8822 30.6027 33.8572 30.6159 33.8513C30.6504 33.8359 30.7839 33.5709 30.7839 33.5176C30.7839 33.4929 30.7983 33.4726 30.8159 33.4726C30.8335 33.4726 30.8479 33.4438 30.8479 33.4086C30.8479 33.3734 30.8623 33.3446 30.8799 33.3446C30.8975 33.3446 30.9119 33.3014 30.9119 33.2486C30.9119 33.1958 30.9263 33.1526 30.9439 33.1526C30.9615 33.1526 30.9759 33.1094 30.9759 33.0566C30.9759 33.0038 30.9903 32.9606 31.0079 32.9606C31.0255 32.9606 31.0399 32.8886 31.0399 32.8006C31.0399 32.7126 31.0543 32.6406 31.0719 32.6406C31.0921 32.6406 31.1039 32.406 31.1039 32.0006C31.1039 31.5953 31.0921 31.3606 31.0719 31.3606C31.0543 31.3606 31.0399 31.2886 31.0399 31.2006C31.0399 31.1126 31.0255 31.0406 31.0079 31.0406C30.9903 31.0406 30.9759 30.9974 30.9759 30.9446C30.9759 30.8918 30.9615 30.8486 30.9439 30.8486C30.9263 30.8486 30.9119 30.8054 30.9119 30.7526C30.9119 30.6998 30.8975 30.6566 30.8799 30.6566C30.8623 30.6566 30.8479 30.6278 30.8479 30.5926C30.8479 30.5574 30.8335 30.5286 30.8159 30.5286C30.7983 30.5286 30.7839 30.5084 30.7839 30.4837C30.7839 30.4304 30.6504 30.1654 30.6159 30.15C30.6027 30.1441 30.5919 30.1189 30.5919 30.094C30.5919 30.069 30.5799 30.0486 30.5653 30.0486C30.5507 30.0486 30.5184 30.009 30.4935 29.9606C30.4687 29.9122 30.423 29.8494 30.3921 29.8209C30.3612 29.7924 30.3359 29.7538 30.3359 29.735C30.3359 29.6646 29.6592 29.0266 29.5829 29.0252C29.5648 29.0249 29.5292 28.9958 29.5039 28.9606C29.4785 28.9254 29.4321 28.8966 29.4008 28.8966C29.3695 28.8966 29.3439 28.8846 29.3439 28.8701C29.3439 28.8554 29.3043 28.823 29.2559 28.7981C29.1664 28.7518 29.1208 28.7202 29.0411 28.6486C29.0165 28.6266 28.977 28.6086 28.9532 28.6086C28.9295 28.6086 28.8892 28.5798 28.8639 28.5446C28.8385 28.5094 28.7995 28.4806 28.7771 28.4806C28.7548 28.4806 28.6952 28.4374 28.6447 28.3846C28.5942 28.3318 28.5418 28.2886 28.5282 28.2886C28.5145 28.2886 28.4801 28.2627 28.4516 28.2311C28.4232 28.1995 28.3495 28.1389 28.2879 28.0963C28.2263 28.0538 28.1399 27.982 28.0959 27.9366C28.0519 27.8913 27.9672 27.82 27.9077 27.7783C27.7804 27.689 27.5152 27.4454 27.2844 27.2059C27.1939 27.1121 27.0045 26.9177 26.8636 26.7739C26.7227 26.6302 26.572 26.4622 26.5288 26.4006C26.4856 26.339 26.4102 26.2505 26.3611 26.2038C26.312 26.1571 26.2719 26.1089 26.2719 26.0966C26.2719 26.0844 26.2287 26.034 26.1759 25.9846C26.1231 25.9353 26.0799 25.8786 26.0799 25.8585C26.0799 25.8384 26.0652 25.8046 26.0473 25.7833C25.9216 25.6342 25.8876 25.5859 25.8707 25.5328C25.8602 25.4998 25.8381 25.4726 25.8217 25.4726C25.8053 25.4726 25.7919 25.4538 25.7919 25.4306C25.7919 25.4076 25.7667 25.3608 25.7359 25.3266C25.7051 25.2926 25.6595 25.225 25.6344 25.1766C25.6095 25.1282 25.5771 25.0886 25.5624 25.0886C25.5479 25.0886 25.5359 25.0664 25.5359 25.0393C25.5359 25.0122 25.5071 24.959 25.4719 24.9213C25.4367 24.8835 25.4079 24.8337 25.4079 24.8106C25.4079 24.7875 25.3935 24.7686 25.3759 24.7686C25.3583 24.7686 25.3439 24.747 25.3439 24.7206C25.3439 24.6942 25.3295 24.6726 25.3119 24.6726C25.2943 24.6726 25.2799 24.6438 25.2799 24.6086C25.2799 24.5734 25.2655 24.5447 25.2479 24.5447C25.2303 24.5447 25.2159 24.5159 25.2159 24.4806C25.2159 24.4454 25.2015 24.4166 25.1839 24.4166C25.1663 24.4166 25.1519 24.3879 25.1519 24.3527C25.1519 24.3175 25.1375 24.2887 25.1199 24.2887C25.1023 24.2887 25.0879 24.2599 25.0879 24.2247C25.0879 24.1895 25.0735 24.1607 25.0559 24.1607C25.0383 24.1607 25.0239 24.1319 25.0239 24.0967C25.0239 24.0615 25.0095 24.0327 24.9919 24.0327C24.9743 24.0327 24.9599 24.0039 24.9599 23.9687C24.9599 23.9335 24.9455 23.9047 24.9279 23.9047C24.9103 23.9047 24.8959 23.8759 24.8959 23.8407C24.8959 23.8055 24.8815 23.7767 24.8639 23.7767C24.8463 23.7767 24.8319 23.7549 24.8319 23.7283C24.8319 23.7016 24.8175 23.6512 24.7999 23.6163C24.7823 23.5813 24.7544 23.5256 24.738 23.4926C24.7216 23.4595 24.6984 23.3802 24.6864 23.3163C24.6744 23.2523 24.6519 23.1921 24.6363 23.1824C24.6207 23.1727 24.6079 23.1306 24.6079 23.0887C24.6079 23.0467 24.5935 23.0035 24.5759 22.9927C24.5583 22.9818 24.5439 22.9386 24.5439 22.8967C24.5439 22.8547 24.5295 22.8115 24.5119 22.8007C24.4943 22.7898 24.4799 22.7385 24.4799 22.6867C24.4799 22.635 24.4655 22.5927 24.4479 22.5927C24.4303 22.5927 24.4159 22.5431 24.4159 22.4826C24.4159 22.422 24.4015 22.3635 24.3839 22.3527C24.3663 22.3418 24.3519 22.2833 24.3519 22.2227C24.3519 22.1622 24.3375 22.1127 24.3199 22.1127C24.3023 22.1127 24.2879 22.0559 24.2879 21.9866C24.2879 21.9172 24.2735 21.8515 24.2559 21.8407C24.2383 21.8298 24.2239 21.7506 24.2239 21.6647C24.2239 21.5787 24.2095 21.4995 24.1919 21.4887C24.1743 21.4778 24.1599 21.377 24.1599 21.2647C24.1599 21.1523 24.1455 21.0515 24.1279 21.0407C24.1088 21.0288 24.0959 20.8217 24.0959 20.5267V20.0327H31.9999H39.9039V20.5267ZM25.9839 24.047C25.9839 24.1363 26.162 24.4906 26.2618 24.5996C26.2826 24.6224 26.3088 24.6698 26.32 24.7048C26.3311 24.7399 26.3536 24.7686 26.37 24.7686C26.3864 24.7686 26.3999 24.7875 26.3999 24.8106C26.3999 24.8337 26.4287 24.8835 26.4639 24.9213C26.4991 24.959 26.5279 25.0014 26.528 25.0153C26.528 25.0292 26.5712 25.0911 26.6239 25.1526C26.6766 25.2142 26.7198 25.2756 26.7198 25.289C26.7199 25.3023 26.7631 25.3584 26.8159 25.4137C26.8687 25.469 26.9119 25.5275 26.9119 25.5439C26.9119 25.5602 26.9695 25.629 27.0399 25.6966C27.1103 25.7643 27.1679 25.8284 27.1679 25.839C27.1679 25.8821 28.4024 27.1366 28.4448 27.1366C28.4704 27.1366 28.55 27.2014 28.7588 27.3919C28.7977 27.4275 28.8388 27.4566 28.8499 27.4566C28.8611 27.4566 28.9105 27.4998 28.9599 27.5526C29.0092 27.6054 29.0668 27.6486 29.0879 27.6486C29.1089 27.6486 29.1665 27.6918 29.2159 27.7446C29.2652 27.7974 29.3233 27.8406 29.345 27.8406C29.3666 27.8406 29.4076 27.8659 29.4361 27.8969C29.4646 27.9278 29.5275 27.9734 29.5759 27.9982C29.6243 28.0231 29.6639 28.0554 29.6639 28.0701C29.6639 28.0846 29.6895 28.0966 29.7208 28.0966C29.7521 28.0966 29.7985 28.1254 29.8239 28.1606C29.8492 28.1958 29.8924 28.2246 29.9199 28.2246C29.9473 28.2246 29.9905 28.2534 30.0159 28.2886C30.0412 28.3238 30.0792 28.3526 30.1003 28.3526C30.1213 28.3526 30.1433 28.3634 30.1492 28.3766C30.1614 28.4041 30.313 28.5303 30.4469 28.6246C30.5732 28.7136 30.9119 29.0554 30.9119 29.0939C30.9119 29.1114 30.9695 29.181 31.0399 29.2486C31.1103 29.3163 31.1679 29.3912 31.1679 29.415C31.1679 29.439 31.1967 29.4793 31.2319 29.5046C31.2671 29.53 31.2959 29.5764 31.2959 29.6077C31.2959 29.639 31.3067 29.665 31.3199 29.6654C31.3331 29.6659 31.3871 29.7594 31.4399 29.873C31.4927 29.9868 31.5467 30.08 31.5599 30.0802C31.5731 30.0805 31.5839 30.1086 31.5839 30.1427C31.5839 30.1769 31.5983 30.2138 31.6159 30.2246C31.6335 30.2355 31.6479 30.2796 31.6479 30.3226C31.6479 30.3655 31.6623 30.4006 31.6799 30.4006C31.6975 30.4006 31.7119 30.4358 31.7119 30.4787C31.7119 30.5217 31.7263 30.5658 31.7439 30.5766C31.7615 30.5875 31.7759 30.6307 31.7759 30.6726C31.7759 30.7146 31.7903 30.7578 31.8079 30.7686C31.8255 30.7795 31.8399 30.8279 31.8399 30.8762C31.8399 30.9244 31.8534 30.9775 31.8699 30.9942C31.8864 31.011 31.9044 31.0894 31.9099 31.1686C31.9188 31.2982 31.9279 31.3126 31.9999 31.3126C32.0719 31.3126 32.0809 31.2982 32.0899 31.1686C32.0954 31.0894 32.1134 31.011 32.1299 30.9942C32.1464 30.9775 32.1599 30.9244 32.1599 30.8762C32.1599 30.8279 32.1743 30.7795 32.1919 30.7686C32.2095 30.7578 32.2239 30.7146 32.2239 30.6726C32.2239 30.6307 32.2383 30.5875 32.2559 30.5766C32.2735 30.5658 32.2879 30.5217 32.2879 30.4787C32.2879 30.4358 32.3023 30.4006 32.3199 30.4006C32.3375 30.4006 32.3519 30.3655 32.3519 30.3226C32.3519 30.2796 32.3663 30.2355 32.3839 30.2246C32.4015 30.2138 32.4159 30.1769 32.4159 30.1427C32.4159 30.1086 32.4268 30.0806 32.44 30.0806C32.4534 30.0806 32.4847 30.0338 32.5096 29.9766C32.5345 29.9194 32.5884 29.819 32.6294 29.7533C32.6704 29.6876 32.7039 29.6152 32.7039 29.5923C32.7039 29.5694 32.7327 29.53 32.7679 29.5046C32.8031 29.4793 32.8319 29.439 32.8319 29.415C32.8319 29.3912 32.8895 29.3163 32.9599 29.2486C33.0303 29.181 33.0879 29.1094 33.0879 29.0894C33.0879 29.0502 33.4179 28.719 33.5352 28.6406C33.6504 28.5635 33.8916 28.3747 33.9744 28.2966C34.0164 28.257 34.0685 28.2246 34.0903 28.2246C34.112 28.2246 34.1505 28.1958 34.1759 28.1606C34.2012 28.1254 34.2444 28.0966 34.2719 28.0966C34.2993 28.0966 34.3425 28.0678 34.3679 28.0326C34.3932 27.9974 34.4364 27.9686 34.4639 27.9686C34.4913 27.9686 34.5345 27.9398 34.5599 27.9046C34.5852 27.8694 34.6259 27.8406 34.6501 27.8406C34.6744 27.8406 34.7345 27.7974 34.7839 27.7446C34.8332 27.6918 34.8908 27.6486 34.9119 27.6486C34.9329 27.6486 34.9905 27.6054 35.0399 27.5526C35.0892 27.4998 35.138 27.4566 35.1484 27.4566C35.1653 27.4566 35.2721 27.3721 35.3721 27.2796C35.3918 27.2614 35.4583 27.2112 35.5199 27.1679C35.6964 27.044 36.8319 25.893 36.8319 25.8379C36.8319 25.8278 36.8895 25.7643 36.9599 25.6966C37.0303 25.629 37.0879 25.5602 37.0879 25.5439C37.0879 25.5275 37.1311 25.469 37.1839 25.4137C37.2367 25.3584 37.2799 25.3023 37.28 25.289C37.28 25.2756 37.3232 25.2142 37.3759 25.1526C37.4286 25.0911 37.4718 25.0226 37.4718 25.0006C37.4719 24.9786 37.4839 24.9606 37.4984 24.9606C37.5131 24.9606 37.5455 24.921 37.5704 24.8726C37.5955 24.8242 37.6388 24.7592 37.6668 24.7281C37.6948 24.6971 37.738 24.6325 37.7628 24.5848C37.7876 24.5371 37.8547 24.4194 37.9119 24.3232C37.9691 24.2271 38.0159 24.1079 38.0159 24.0586V23.9687H31.9999H25.9839V24.047ZM31.7759 32.5126C31.7759 32.5302 31.7536 32.5446 31.7264 32.5446C31.6633 32.5446 31.5199 32.6868 31.5199 32.7493C31.5199 32.7754 31.5055 32.8058 31.4879 32.8166C31.4298 32.8525 31.4509 33.6323 31.5134 33.7595C31.6884 34.1157 32.3114 34.1157 32.4864 33.7595C32.5488 33.6323 32.57 32.8525 32.5119 32.8166C32.4943 32.8058 32.4799 32.7754 32.4799 32.7493C32.4799 32.6868 32.3364 32.5446 32.2733 32.5446C32.2461 32.5446 32.2239 32.5302 32.2239 32.5126C32.2239 32.4943 32.1279 32.4806 31.9999 32.4806C31.8719 32.4806 31.7759 32.4943 31.7759 32.5126ZM31.7759 35.0086C31.7759 35.0262 31.7536 35.0406 31.7264 35.0406C31.6633 35.0406 31.5199 35.1828 31.5199 35.2453C31.5199 35.2714 31.5055 35.3018 31.4879 35.3126C31.4397 35.3424 31.4467 36.145 31.4959 36.233C31.7344 36.6599 32.3208 36.6495 32.5058 36.2151C32.5528 36.1048 32.5579 35.3411 32.5119 35.3126C32.4943 35.3018 32.4799 35.2714 32.4799 35.2453C32.4799 35.1828 32.3364 35.0406 32.2733 35.0406C32.2461 35.0406 32.2239 35.0262 32.2239 35.0086C32.2239 34.9903 32.1279 34.9766 31.9999 34.9766C31.8719 34.9766 31.7759 34.9903 31.7759 35.0086ZM31.9039 38.0486C31.9039 38.0838 31.8895 38.1126 31.8719 38.1126C31.8543 38.1126 31.8399 38.1342 31.8399 38.1606C31.8399 38.187 31.8255 38.2086 31.8079 38.2086C31.7903 38.2086 31.7759 38.2278 31.7759 38.251C31.7759 38.2744 31.6824 38.3932 31.5683 38.515C31.4541 38.637 31.3605 38.7474 31.3603 38.7606C31.36 38.7738 31.3343 38.7846 31.3029 38.7846C31.2716 38.7846 31.2252 38.8134 31.1999 38.8486C31.1745 38.8838 31.1313 38.9126 31.1039 38.9126C31.0764 38.9126 31.0332 38.9414 31.0079 38.9766C30.9825 39.0118 30.9361 39.0406 30.9048 39.0406C30.8735 39.0406 30.8479 39.055 30.8479 39.0726C30.8479 39.0902 30.8191 39.1046 30.7839 39.1046C30.7487 39.1046 30.7199 39.119 30.7199 39.1366C30.7199 39.1542 30.6911 39.1686 30.6559 39.1686C30.6207 39.1686 30.5919 39.183 30.5919 39.2006C30.5919 39.2182 30.5631 39.2326 30.5279 39.2326C30.4927 39.2326 30.4639 39.247 30.4639 39.2646C30.4639 39.2822 30.4288 39.2966 30.3858 39.2966C30.3428 39.2966 30.2992 39.3102 30.289 39.3268C30.2788 39.3434 30.206 39.3666 30.1272 39.3784C30.0484 39.3902 29.9839 39.4126 29.9839 39.4282C29.9839 39.4438 29.9407 39.4566 29.8879 39.4566C29.8351 39.4566 29.7919 39.471 29.7919 39.4886C29.7919 39.5062 29.7487 39.5206 29.6959 39.5206C29.6431 39.5206 29.5999 39.535 29.5999 39.5526C29.5999 39.5702 29.5567 39.5846 29.5039 39.5846C29.4511 39.5846 29.4079 39.599 29.4079 39.6166C29.4079 39.6342 29.3647 39.6486 29.3119 39.6486C29.2591 39.6486 29.2159 39.663 29.2159 39.6806C29.2159 39.6982 29.1808 39.7126 29.1378 39.7126C29.0948 39.7126 29.0508 39.727 29.0399 39.7446C29.029 39.7622 28.9849 39.7766 28.942 39.7766C28.899 39.7766 28.8639 39.791 28.8639 39.8086C28.8639 39.8262 28.8351 39.8406 28.7999 39.8406C28.7647 39.8406 28.7359 39.855 28.7359 39.8726C28.7359 39.8902 28.6927 39.9046 28.6399 39.9046C28.5871 39.9046 28.5439 39.919 28.5439 39.9366C28.5439 39.9542 28.5151 39.9686 28.4799 39.9686C28.4447 39.9686 28.4159 39.983 28.4159 40.0006C28.4159 40.0182 28.3871 40.0326 28.3519 40.0326C28.3167 40.0326 28.2879 40.047 28.2879 40.0646C28.2879 40.0822 28.2528 40.0966 28.2098 40.0966C28.1668 40.0966 28.1228 40.111 28.1119 40.1286C28.101 40.1462 28.0641 40.1606 28.03 40.1606C27.9958 40.1606 27.9679 40.175 27.9679 40.1926C27.9679 40.2102 27.9391 40.2246 27.9039 40.2246C27.8687 40.2246 27.8399 40.239 27.8399 40.2566C27.8399 40.2742 27.8111 40.2886 27.7759 40.2886C27.7407 40.2886 27.7119 40.303 27.7119 40.3206C27.7119 40.3382 27.6831 40.3526 27.6479 40.3526C27.6127 40.3526 27.5839 40.3643 27.5839 40.3786C27.5839 40.393 27.5335 40.4245 27.4719 40.4486C27.4103 40.4728 27.3599 40.5043 27.3599 40.5186C27.3599 40.533 27.3343 40.5446 27.3029 40.5446C27.2716 40.5446 27.2252 40.5734 27.1999 40.6086C27.1745 40.6438 27.1358 40.6726 27.1139 40.6726C27.0544 40.6726 26.8479 40.7766 26.8479 40.8066C26.8479 40.8209 26.829 40.8326 26.8059 40.8326C26.7828 40.8326 26.733 40.8614 26.6952 40.8966C26.6575 40.9318 26.6137 40.9606 26.598 40.9606C26.5822 40.9606 26.5242 41.0038 26.4689 41.0566C26.4136 41.1094 26.3562 41.1526 26.3412 41.1526C26.3263 41.1526 26.2434 41.2178 26.157 41.2973C26.0706 41.3768 25.9249 41.51 25.8333 41.5933C25.7417 41.6766 25.6661 41.7609 25.6653 41.7808C25.6645 41.8006 25.6063 41.8762 25.5359 41.9488C25.4655 42.0214 25.4079 42.0885 25.4079 42.098C25.4079 42.1075 25.3791 42.1462 25.3439 42.184C25.3087 42.2218 25.2799 42.2716 25.2799 42.2946C25.2799 42.3178 25.2655 42.3366 25.2479 42.3366C25.2303 42.3366 25.2159 42.3654 25.2159 42.4006C25.2159 42.4358 25.2015 42.4646 25.1839 42.4646C25.1663 42.4646 25.1519 42.4934 25.1519 42.5286C25.1519 42.5638 25.141 42.5926 25.1276 42.5926C25.0936 42.5926 25.0239 42.8286 25.0239 42.9442V43.0406H31.9999C37.5573 43.0406 38.9767 43.0325 38.9796 43.0006C38.9899 42.8931 38.9112 42.5926 38.8729 42.5926C38.8592 42.5926 38.8479 42.5638 38.8479 42.5286C38.8479 42.4934 38.8335 42.4646 38.8159 42.4646C38.7983 42.4646 38.7839 42.4358 38.7839 42.4006C38.7839 42.3654 38.7695 42.3366 38.7519 42.3366C38.7343 42.3366 38.7199 42.3178 38.7199 42.2946C38.7199 42.2716 38.6911 42.2218 38.6559 42.184C38.6207 42.1462 38.5919 42.1064 38.5919 42.0954C38.5919 42.0846 38.5343 42.0203 38.4639 41.9526C38.3935 41.885 38.3359 41.8138 38.3359 41.7945C38.3359 41.76 38.0014 41.4086 37.9686 41.4086C37.9595 41.4086 37.8926 41.351 37.82 41.2806C37.7475 41.2102 37.6754 41.1526 37.6597 41.1526C37.6441 41.1526 37.5861 41.1094 37.5308 41.0566C37.4756 41.0038 37.4176 40.9606 37.4018 40.9606C37.386 40.9606 37.3423 40.9318 37.3045 40.8966C37.2668 40.8614 37.2169 40.8326 37.1939 40.8326C37.1708 40.8326 37.1519 40.8209 37.1519 40.8066C37.1519 40.7766 36.9454 40.6726 36.8859 40.6726C36.864 40.6726 36.8252 40.6438 36.7999 40.6086C36.7745 40.5734 36.7281 40.5446 36.6968 40.5446C36.6655 40.5446 36.6399 40.533 36.6399 40.5186C36.6399 40.5043 36.5895 40.4728 36.5279 40.4486C36.4663 40.4245 36.4159 40.393 36.4159 40.3786C36.4159 40.3643 36.3871 40.3526 36.3519 40.3526C36.3167 40.3526 36.2879 40.3382 36.2879 40.3206C36.2879 40.303 36.2591 40.2886 36.2239 40.2886C36.1887 40.2886 36.1599 40.2742 36.1599 40.2566C36.1599 40.239 36.1311 40.2246 36.0959 40.2246C36.0607 40.2246 36.0319 40.2102 36.0319 40.1926C36.0319 40.175 36.0031 40.1606 35.9679 40.1606C35.9327 40.1606 35.9039 40.1462 35.9039 40.1286C35.9039 40.111 35.8688 40.0966 35.8258 40.0966C35.7828 40.0966 35.7388 40.0822 35.7279 40.0646C35.717 40.047 35.6801 40.0326 35.646 40.0326C35.6118 40.0326 35.5839 40.0182 35.5839 40.0006C35.5839 39.983 35.5551 39.9686 35.5199 39.9686C35.4847 39.9686 35.4559 39.9542 35.4559 39.9366C35.4559 39.919 35.4208 39.9046 35.3778 39.9046C35.3348 39.9046 35.2908 39.8902 35.2799 39.8726C35.269 39.855 35.2321 39.8406 35.198 39.8406C35.1638 39.8406 35.1359 39.8262 35.1359 39.8086C35.1359 39.791 35.1008 39.7766 35.0578 39.7766C35.0148 39.7766 34.9708 39.7622 34.9599 39.7446C34.949 39.727 34.9049 39.7126 34.862 39.7126C34.819 39.7126 34.7839 39.6982 34.7839 39.6806C34.7839 39.663 34.7407 39.6486 34.6879 39.6486C34.6351 39.6486 34.5919 39.6342 34.5919 39.6166C34.5919 39.599 34.5487 39.5846 34.4959 39.5846C34.4431 39.5846 34.3999 39.5702 34.3999 39.5526C34.3999 39.535 34.3567 39.5206 34.3039 39.5206C34.2511 39.5206 34.2079 39.5062 34.2079 39.4886C34.2079 39.471 34.1647 39.4566 34.1119 39.4566C34.0591 39.4566 34.0159 39.4438 34.0159 39.4282C34.0159 39.4126 33.9514 39.3902 33.8726 39.3784C33.7938 39.3666 33.721 39.3434 33.7108 39.3268C33.7005 39.3102 33.6569 39.2966 33.614 39.2966C33.571 39.2966 33.5359 39.2822 33.5359 39.2646C33.5359 39.247 33.5071 39.2326 33.4719 39.2326C33.4367 39.2326 33.4079 39.2182 33.4079 39.2006C33.4079 39.183 33.3791 39.1686 33.3439 39.1686C33.3087 39.1686 33.2799 39.1542 33.2799 39.1366C33.2799 39.119 33.2511 39.1046 33.2159 39.1046C33.1807 39.1046 33.1519 39.0902 33.1519 39.0726C33.1519 39.055 33.1263 39.0406 33.0949 39.0406C33.0636 39.0406 33.0172 39.0118 32.9919 38.9766C32.9665 38.9414 32.9233 38.9126 32.8959 38.9126C32.8684 38.9126 32.8252 38.8838 32.7999 38.8486C32.7745 38.8134 32.7408 38.7846 32.7248 38.7846C32.6783 38.7846 32.2239 38.303 32.2239 38.2536C32.2239 38.2289 32.2095 38.2086 32.1919 38.2086C32.1743 38.2086 32.1599 38.187 32.1599 38.1606C32.1599 38.1342 32.1455 38.1126 32.1279 38.1126C32.1103 38.1126 32.0959 38.0838 32.0959 38.0486C32.0959 37.9989 32.0745 37.9846 31.9999 37.9846C31.9252 37.9846 31.9039 37.9989 31.9039 38.0486Z" fill="#7A7A7A"/>
<path fill-rule="evenodd" clip-rule="evenodd" d="M25.9841 24.0466C25.9841 24.136 26.1622 24.4902 26.262 24.5992C26.2828 24.622 26.309 24.6694 26.3202 24.7044C26.3313 24.7396 26.3538 24.7683 26.3702 24.7683C26.3866 24.7683 26.4001 24.7872 26.4001 24.8103C26.4001 24.8333 26.4289 24.8832 26.4641 24.9209C26.4993 24.9587 26.5281 25.001 26.5282 25.0149C26.5282 25.0288 26.5714 25.0907 26.6241 25.1523C26.6768 25.2139 26.72 25.2752 26.72 25.2886C26.7201 25.302 26.7633 25.358 26.8161 25.4133C26.8689 25.4686 26.9121 25.5272 26.9121 25.5436C26.9121 25.5599 26.9697 25.6286 27.0401 25.6963C27.1105 25.764 27.1681 25.828 27.1681 25.8387C27.1681 25.8817 28.4026 27.1363 28.445 27.1363C28.4706 27.1363 28.5502 27.2011 28.759 27.3916C28.7979 27.4272 28.839 27.4563 28.8501 27.4563C28.8613 27.4563 28.9107 27.4995 28.9601 27.5523C29.0094 27.6051 29.067 27.6483 29.0881 27.6483C29.1091 27.6483 29.1667 27.6915 29.2161 27.7443C29.2654 27.7971 29.3235 27.8403 29.3452 27.8403C29.3668 27.8403 29.4078 27.8656 29.4363 27.8965C29.4648 27.9274 29.5277 27.9731 29.5761 27.9979C29.6245 28.0228 29.6641 28.0551 29.6641 28.0697C29.6641 28.0843 29.6897 28.0963 29.721 28.0963C29.7523 28.0963 29.7987 28.1251 29.8241 28.1603C29.8494 28.1955 29.8926 28.2243 29.9201 28.2243C29.9475 28.2243 29.9907 28.2531 30.0161 28.2883C30.0414 28.3235 30.0794 28.3523 30.1005 28.3523C30.1215 28.3523 30.1435 28.3631 30.1494 28.3763C30.1616 28.4037 30.3132 28.53 30.4471 28.6243C30.5734 28.7132 30.9121 29.055 30.9121 29.0936C30.9121 29.111 30.9697 29.1806 31.0401 29.2483C31.1105 29.316 31.1681 29.3908 31.1681 29.4147C31.1681 29.4386 31.1969 29.4789 31.2321 29.5043C31.2673 29.5296 31.2961 29.576 31.2961 29.6073C31.2961 29.6387 31.3069 29.6647 31.3201 29.6651C31.3333 29.6656 31.3873 29.759 31.4401 29.8727C31.4929 29.9864 31.5469 30.0796 31.5601 30.0799C31.5733 30.0801 31.5841 30.1082 31.5841 30.1424C31.5841 30.1765 31.5985 30.2134 31.6161 30.2243C31.6337 30.2352 31.6481 30.2792 31.6481 30.3222C31.6481 30.3652 31.6625 30.4003 31.6801 30.4003C31.6977 30.4003 31.7121 30.4354 31.7121 30.4784C31.7121 30.5213 31.7265 30.5654 31.7441 30.5763C31.7617 30.5872 31.7761 30.6304 31.7761 30.6723C31.7761 30.7142 31.7905 30.7574 31.8081 30.7683C31.8257 30.7792 31.8401 30.8276 31.8401 30.8758C31.8401 30.924 31.8536 30.9772 31.8701 30.9939C31.8866 31.0106 31.9046 31.0891 31.9101 31.1683C31.919 31.2979 31.9281 31.3123 32.0001 31.3123C32.0721 31.3123 32.0811 31.2979 32.0901 31.1683C32.0956 31.0891 32.1136 31.0106 32.1301 30.9939C32.1466 30.9772 32.1601 30.924 32.1601 30.8758C32.1601 30.8276 32.1745 30.7792 32.1921 30.7683C32.2097 30.7574 32.2241 30.7142 32.2241 30.6723C32.2241 30.6304 32.2385 30.5872 32.2561 30.5763C32.2737 30.5654 32.2881 30.5213 32.2881 30.4784C32.2881 30.4354 32.3025 30.4003 32.3201 30.4003C32.3377 30.4003 32.3521 30.3652 32.3521 30.3222C32.3521 30.2792 32.3665 30.2352 32.3841 30.2243C32.4017 30.2134 32.4161 30.1765 32.4161 30.1424C32.4161 30.1082 32.427 30.0803 32.4402 30.0803C32.4536 30.0803 32.4849 30.0335 32.5098 29.9763C32.5347 29.9191 32.5886 29.8186 32.6296 29.7529C32.6706 29.6872 32.7041 29.6148 32.7041 29.592C32.7041 29.5691 32.7329 29.5296 32.7681 29.5043C32.8033 29.4789 32.8321 29.4386 32.8321 29.4147C32.8321 29.3908 32.8897 29.316 32.9601 29.2483C33.0305 29.1806 33.0881 29.109 33.0881 29.089C33.0881 29.0498 33.4181 28.7187 33.5354 28.6403C33.6506 28.5632 33.8918 28.3744 33.9746 28.2963C34.0166 28.2567 34.0687 28.2243 34.0905 28.2243C34.1122 28.2243 34.1507 28.1955 34.1761 28.1603C34.2014 28.1251 34.2446 28.0963 34.2721 28.0963C34.2995 28.0963 34.3427 28.0675 34.3681 28.0323C34.3934 27.9971 34.4366 27.9683 34.4641 27.9683C34.4915 27.9683 34.5347 27.9395 34.5601 27.9043C34.5854 27.8691 34.6261 27.8403 34.6503 27.8403C34.6746 27.8403 34.7347 27.7971 34.7841 27.7443C34.8334 27.6915 34.891 27.6483 34.9121 27.6483C34.9331 27.6483 34.9907 27.6051 35.0401 27.5523C35.0894 27.4995 35.1382 27.4563 35.1486 27.4563C35.1655 27.4563 35.2723 27.3717 35.3723 27.2792C35.392 27.2611 35.4585 27.2108 35.5201 27.1676C35.6966 27.0436 36.8321 25.8926 36.8321 25.8376C36.8321 25.8275 36.8897 25.764 36.9601 25.6963C37.0305 25.6286 37.0881 25.5599 37.0881 25.5436C37.0881 25.5272 37.1313 25.4686 37.1841 25.4133C37.2369 25.358 37.2801 25.302 37.2802 25.2886C37.2802 25.2752 37.3234 25.2139 37.3761 25.1523C37.4288 25.0907 37.472 25.0223 37.472 25.0003C37.4721 24.9783 37.4841 24.9603 37.4986 24.9603C37.5133 24.9603 37.5457 24.9207 37.5706 24.8723C37.5957 24.8239 37.639 24.7588 37.667 24.7277C37.695 24.6967 37.7382 24.6321 37.763 24.5844C37.7878 24.5367 37.8549 24.419 37.9121 24.3228C37.9693 24.2267 38.0161 24.1076 38.0161 24.0582V23.9683H32.0001H25.9841V24.0466ZM31.7761 32.5123C31.7761 32.5299 31.7538 32.5443 31.7266 32.5443C31.6635 32.5443 31.5201 32.6864 31.5201 32.7489C31.5201 32.7751 31.5057 32.8054 31.4881 32.8163C31.43 32.8521 31.4511 33.632 31.5136 33.7592C31.6886 34.1153 32.3116 34.1153 32.4866 33.7592C32.549 33.632 32.5702 32.8521 32.5121 32.8163C32.4945 32.8054 32.4801 32.7751 32.4801 32.7489C32.4801 32.6864 32.3366 32.5443 32.2735 32.5443C32.2463 32.5443 32.2241 32.5299 32.2241 32.5123C32.2241 32.494 32.1281 32.4803 32.0001 32.4803C31.8721 32.4803 31.7761 32.494 31.7761 32.5123ZM31.7761 35.0083C31.7761 35.0259 31.7538 35.0403 31.7266 35.0403C31.6635 35.0403 31.5201 35.1824 31.5201 35.2449C31.5201 35.2711 31.5057 35.3014 31.4881 35.3123C31.4399 35.342 31.4469 36.1447 31.4961 36.2327C31.7346 36.6595 32.321 36.6491 32.506 36.2147C32.553 36.1044 32.5581 35.3407 32.5121 35.3123C32.4945 35.3014 32.4801 35.2711 32.4801 35.2449C32.4801 35.1824 32.3366 35.0403 32.2735 35.0403C32.2463 35.0403 32.2241 35.0259 32.2241 35.0083C32.2241 34.99 32.1281 34.9763 32.0001 34.9763C31.8721 34.9763 31.7761 34.99 31.7761 35.0083ZM31.9041 38.0483C31.9041 38.0835 31.8897 38.1123 31.8721 38.1123C31.8545 38.1123 31.8401 38.1339 31.8401 38.1603C31.8401 38.1867 31.8257 38.2083 31.8081 38.2083C31.7905 38.2083 31.7761 38.2274 31.7761 38.2507C31.7761 38.274 31.6826 38.3928 31.5685 38.5147C31.4543 38.6366 31.3607 38.7471 31.3605 38.7603C31.3602 38.7735 31.3345 38.7843 31.3031 38.7843C31.2718 38.7843 31.2254 38.8131 31.2001 38.8483C31.1747 38.8835 31.1315 38.9123 31.1041 38.9123C31.0766 38.9123 31.0334 38.9411 31.0081 38.9763C30.9827 39.0115 30.9363 39.0403 30.905 39.0403C30.8737 39.0403 30.8481 39.0547 30.8481 39.0723C30.8481 39.0899 30.8193 39.1043 30.7841 39.1043C30.7489 39.1043 30.7201 39.1187 30.7201 39.1363C30.7201 39.1539 30.6913 39.1683 30.6561 39.1683C30.6209 39.1683 30.5921 39.1827 30.5921 39.2003C30.5921 39.2179 30.5633 39.2323 30.5281 39.2323C30.4929 39.2323 30.4641 39.2467 30.4641 39.2643C30.4641 39.2819 30.429 39.2963 30.386 39.2963C30.343 39.2963 30.2994 39.3099 30.2892 39.3264C30.279 39.343 30.2062 39.3663 30.1274 39.378C30.0486 39.3899 29.9841 39.4123 29.9841 39.4279C29.9841 39.4435 29.9409 39.4563 29.8881 39.4563C29.8353 39.4563 29.7921 39.4707 29.7921 39.4883C29.7921 39.5059 29.7489 39.5203 29.6961 39.5203C29.6433 39.5203 29.6001 39.5347 29.6001 39.5523C29.6001 39.5699 29.5569 39.5843 29.5041 39.5843C29.4513 39.5843 29.4081 39.5987 29.4081 39.6163C29.4081 39.6339 29.3649 39.6483 29.3121 39.6483C29.2593 39.6483 29.2161 39.6627 29.2161 39.6803C29.2161 39.6979 29.181 39.7123 29.138 39.7123C29.095 39.7123 29.051 39.7267 29.0401 39.7443C29.0292 39.7619 28.9851 39.7763 28.9422 39.7763C28.8992 39.7763 28.8641 39.7907 28.8641 39.8083C28.8641 39.8259 28.8353 39.8403 28.8001 39.8403C28.7649 39.8403 28.7361 39.8547 28.7361 39.8723C28.7361 39.8899 28.6929 39.9043 28.6401 39.9043C28.5873 39.9043 28.5441 39.9187 28.5441 39.9363C28.5441 39.9539 28.5153 39.9683 28.4801 39.9683C28.4449 39.9683 28.4161 39.9827 28.4161 40.0003C28.4161 40.0179 28.3873 40.0323 28.3521 40.0323C28.3169 40.0323 28.2881 40.0467 28.2881 40.0643C28.2881 40.0819 28.253 40.0963 28.21 40.0963C28.167 40.0963 28.123 40.1107 28.1121 40.1283C28.1012 40.1459 28.0643 40.1603 28.0302 40.1603C27.996 40.1603 27.9681 40.1747 27.9681 40.1923C27.9681 40.2099 27.9393 40.2243 27.9041 40.2243C27.8689 40.2243 27.8401 40.2387 27.8401 40.2563C27.8401 40.2739 27.8113 40.2883 27.7761 40.2883C27.7409 40.2883 27.7121 40.3027 27.7121 40.3203C27.7121 40.3379 27.6833 40.3523 27.6481 40.3523C27.6129 40.3523 27.5841 40.3639 27.5841 40.3783C27.5841 40.3926 27.5337 40.4241 27.4721 40.4483C27.4105 40.4724 27.3601 40.5039 27.3601 40.5183C27.3601 40.5326 27.3345 40.5443 27.3031 40.5443C27.2718 40.5443 27.2254 40.5731 27.2001 40.6083C27.1747 40.6435 27.136 40.6723 27.1141 40.6723C27.0546 40.6723 26.8481 40.7762 26.8481 40.8062C26.8481 40.8205 26.8292 40.8323 26.8061 40.8323C26.783 40.8323 26.7332 40.8611 26.6954 40.8963C26.6577 40.9315 26.6139 40.9603 26.5982 40.9603C26.5824 40.9603 26.5244 41.0035 26.4691 41.0563C26.4138 41.1091 26.3564 41.1523 26.3414 41.1523C26.3265 41.1523 26.2436 41.2174 26.1572 41.2969C26.0708 41.3764 25.9251 41.5096 25.8335 41.5929C25.7419 41.6762 25.6663 41.7605 25.6655 41.7804C25.6647 41.8003 25.6065 41.8759 25.5361 41.9484C25.4657 42.021 25.4081 42.0881 25.4081 42.0976C25.4081 42.1071 25.3793 42.1459 25.3441 42.1836C25.3089 42.2214 25.2801 42.2712 25.2801 42.2943C25.2801 42.3174 25.2657 42.3363 25.2481 42.3363C25.2305 42.3363 25.2161 42.3651 25.2161 42.4003C25.2161 42.4355 25.2017 42.4643 25.1841 42.4643C25.1665 42.4643 25.1521 42.4931 25.1521 42.5283C25.1521 42.5635 25.1412 42.5923 25.1278 42.5923C25.0938 42.5923 25.0241 42.8283 25.0241 42.9438V43.0403H32.0001C37.5575 43.0403 38.9769 43.0321 38.9798 43.0003C38.9901 42.8927 38.9114 42.5923 38.8731 42.5923C38.8594 42.5923 38.8481 42.5635 38.8481 42.5283C38.8481 42.4931 38.8337 42.4643 38.8161 42.4643C38.7985 42.4643 38.7841 42.4355 38.7841 42.4003C38.7841 42.3651 38.7697 42.3363 38.7521 42.3363C38.7345 42.3363 38.7201 42.3174 38.7201 42.2943C38.7201 42.2712 38.6913 42.2214 38.6561 42.1836C38.6209 42.1459 38.5921 42.106 38.5921 42.0951C38.5921 42.0842 38.5345 42.0199 38.4641 41.9523C38.3937 41.8846 38.3361 41.8135 38.3361 41.7941C38.3361 41.7596 38.0016 41.4083 37.9688 41.4083C37.9597 41.4083 37.8928 41.3507 37.8202 41.2803C37.7477 41.2099 37.6756 41.1523 37.6599 41.1523C37.6443 41.1523 37.5863 41.1091 37.531 41.0563C37.4758 41.0035 37.4178 40.9603 37.402 40.9603C37.3862 40.9603 37.3425 40.9315 37.3047 40.8963C37.267 40.8611 37.2171 40.8323 37.1941 40.8323C37.171 40.8323 37.1521 40.8205 37.1521 40.8062C37.1521 40.7762 36.9456 40.6723 36.8861 40.6723C36.8642 40.6723 36.8254 40.6435 36.8001 40.6083C36.7747 40.5731 36.7283 40.5443 36.697 40.5443C36.6657 40.5443 36.6401 40.5326 36.6401 40.5183C36.6401 40.5039 36.5897 40.4724 36.5281 40.4483C36.4665 40.4241 36.4161 40.3926 36.4161 40.3783C36.4161 40.3639 36.3873 40.3523 36.3521 40.3523C36.3169 40.3523 36.2881 40.3379 36.2881 40.3203C36.2881 40.3027 36.2593 40.2883 36.2241 40.2883C36.1889 40.2883 36.1601 40.2739 36.1601 40.2563C36.1601 40.2387 36.1313 40.2243 36.0961 40.2243C36.0609 40.2243 36.0321 40.2099 36.0321 40.1923C36.0321 40.1747 36.0033 40.1603 35.9681 40.1603C35.9329 40.1603 35.9041 40.1459 35.9041 40.1283C35.9041 40.1107 35.869 40.0963 35.826 40.0963C35.783 40.0963 35.739 40.0819 35.7281 40.0643C35.7172 40.0467 35.6803 40.0323 35.6462 40.0323C35.612 40.0323 35.5841 40.0179 35.5841 40.0003C35.5841 39.9827 35.5553 39.9683 35.5201 39.9683C35.4849 39.9683 35.4561 39.9539 35.4561 39.9363C35.4561 39.9187 35.421 39.9043 35.378 39.9043C35.335 39.9043 35.291 39.8899 35.2801 39.8723C35.2692 39.8547 35.2323 39.8403 35.1982 39.8403C35.164 39.8403 35.1361 39.8259 35.1361 39.8083C35.1361 39.7907 35.101 39.7763 35.058 39.7763C35.015 39.7763 34.971 39.7619 34.9601 39.7443C34.9492 39.7267 34.9051 39.7123 34.8622 39.7123C34.8192 39.7123 34.7841 39.6979 34.7841 39.6803C34.7841 39.6627 34.7409 39.6483 34.6881 39.6483C34.6353 39.6483 34.5921 39.6339 34.5921 39.6163C34.5921 39.5987 34.5489 39.5843 34.4961 39.5843C34.4433 39.5843 34.4001 39.5699 34.4001 39.5523C34.4001 39.5347 34.3569 39.5203 34.3041 39.5203C34.2513 39.5203 34.2081 39.5059 34.2081 39.4883C34.2081 39.4707 34.1649 39.4563 34.1121 39.4563C34.0593 39.4563 34.0161 39.4435 34.0161 39.4279C34.0161 39.4123 33.9516 39.3899 33.8728 39.378C33.794 39.3663 33.7212 39.343 33.711 39.3264C33.7007 39.3099 33.6571 39.2963 33.6142 39.2963C33.5712 39.2963 33.5361 39.2819 33.5361 39.2643C33.5361 39.2467 33.5073 39.2323 33.4721 39.2323C33.4369 39.2323 33.4081 39.2179 33.4081 39.2003C33.4081 39.1827 33.3793 39.1683 33.3441 39.1683C33.3089 39.1683 33.2801 39.1539 33.2801 39.1363C33.2801 39.1187 33.2513 39.1043 33.2161 39.1043C33.1809 39.1043 33.1521 39.0899 33.1521 39.0723C33.1521 39.0547 33.1265 39.0403 33.0951 39.0403C33.0638 39.0403 33.0174 39.0115 32.9921 38.9763C32.9667 38.9411 32.9235 38.9123 32.8961 38.9123C32.8686 38.9123 32.8254 38.8835 32.8001 38.8483C32.7747 38.8131 32.741 38.7843 32.725 38.7843C32.6785 38.7843 32.2241 38.3026 32.2241 38.2532C32.2241 38.2285 32.2097 38.2083 32.1921 38.2083C32.1745 38.2083 32.1601 38.1867 32.1601 38.1603C32.1601 38.1339 32.1457 38.1123 32.1281 38.1123C32.1105 38.1123 32.0961 38.0835 32.0961 38.0483C32.0961 37.9985 32.0747 37.9843 32.0001 37.9843C31.9254 37.9843 31.9041 37.9985 31.9041 38.0483Z" fill="#60CA9A"/>
</svg>
