<svg width="380" height="180" viewBox="0 0 380 180" fill="none" xmlns="http://www.w3.org/2000/svg">
<g clip-path="url(#clip0_6849_5319)">
<path d="M143.755 182.779C128.603 183.163 110.565 182.779 97.7585 182.586C84.9517 182.971 66.9137 183.163 51.7629 182.779C66.7334 173.745 71.7844 157.023 72.6859 145.875H122.651C123.732 157.023 128.783 173.745 143.755 182.779Z" fill="#F5F5F5"/>
<path d="M-2.35181 179.934H374.968" stroke="#BDBDBD" stroke-width="1.60879" stroke-miterlimit="10" stroke-linecap="round" stroke-linejoin="round"/>
<path d="M190.008 5.93206V143.531C190.008 146.549 187.834 148.632 185.272 148.632H9.2495C6.70438 148.632 4.51297 146.375 4.51297 143.531V5.93206C4.51297 3.08776 6.70417 0.831818 9.2495 0.831818H185.272C187.834 0.831818 190.008 2.91463 190.008 5.93206Z" fill="white" stroke="#BDBDBD" stroke-width="1.66364"/>
<path d="M188.761 6.20818V121.825H5.76074V6.03548C5.76074 2.88582 7.29077 1.21094 10.2793 1.21094H184.242C187.055 1.21094 188.761 2.87346 188.761 6.20818Z" fill="#F5F5F5"/>
<rect x="10.0852" y="6.65234" width="174.528" height="110.58" rx="1.6296" fill="white"/>
<path d="M54.0688 57.4297L50.05 56.7728C49.8147 55.9663 49.493 55.1911 49.0905 54.4574L51.4365 51.1138C51.6262 50.8439 51.5936 50.476 51.3603 50.2421L48.7158 47.5989C48.4798 47.3636 48.1086 47.333 47.8379 47.5282L44.5447 49.8953C43.8042 49.4859 43.0222 49.1609 42.2109 48.9249L41.5098 44.9224C41.4527 44.5974 41.1705 44.3594 40.84 44.3594H37.1C36.7668 44.3594 36.4826 44.6008 36.4289 44.9299L35.7788 48.9106C34.9628 49.1452 34.1794 49.4669 33.4416 49.8708L30.1572 47.5248C29.8859 47.331 29.5167 47.3623 29.2807 47.5969L26.6376 50.24C26.4043 50.4733 26.3717 50.8405 26.5614 51.1104L28.8727 54.4173C28.4613 55.1619 28.1336 55.95 27.8949 56.7701L23.9298 57.4303C23.602 57.4847 23.3613 57.769 23.3613 58.1008V61.8408C23.3613 62.1706 23.598 62.4528 23.9223 62.5106L27.8874 63.2137C28.1247 64.0318 28.4525 64.8199 28.8652 65.5665L26.5254 68.8394C26.3322 69.1093 26.3628 69.4799 26.5974 69.7159L29.2413 72.3618C29.4745 72.595 29.8424 72.6277 30.1124 72.4379L33.424 70.1185C34.1672 70.5271 34.9526 70.8515 35.7666 71.0868L36.4302 75.0723C36.484 75.3993 36.7675 75.6394 37.1 75.6394H40.84C41.1698 75.6394 41.452 75.4027 41.5092 75.0784L42.2198 71.0732C43.0351 70.8331 43.8164 70.5067 44.5522 70.0974L47.8876 72.4373C48.1582 72.6283 48.5254 72.595 48.7593 72.3618L51.4032 69.7159C51.6385 69.4799 51.6691 69.108 51.4739 68.8373L49.0952 65.5346C49.4985 64.8002 49.8188 64.0236 50.052 63.2171L54.0763 62.5106C54.402 62.4535 54.6386 62.1706 54.6386 61.8408V58.1008C54.6393 57.7676 54.3979 57.4834 54.0688 57.4297ZM39 64.7594C36.3711 64.7594 34.24 62.6283 34.24 59.9994C34.24 57.3705 36.3711 55.2394 39 55.2394C41.6288 55.2394 43.76 57.3705 43.76 59.9994C43.76 62.6283 41.6288 64.7594 39 64.7594Z" fill="#60CA9A"/>
<path d="M68.9776 81.6383L66.85 81.2905C66.7254 80.8636 66.5551 80.4532 66.342 80.0647L67.584 78.2946C67.6845 78.1517 67.6672 77.9569 67.5437 77.8331L66.1437 76.4338C66.0187 76.3092 65.8222 76.293 65.6789 76.3963L63.9354 77.6495C63.5434 77.4328 63.1294 77.2607 62.6999 77.1358L62.3287 75.0168C62.2985 74.8448 62.1491 74.7188 61.9741 74.7188H59.9941C59.8177 74.7188 59.6673 74.8465 59.6388 75.0208L59.2947 77.1282C58.8627 77.2524 58.4479 77.4227 58.0573 77.6365L56.3185 76.3945C56.1749 76.2919 55.9794 76.3085 55.8545 76.4327L54.4552 77.832C54.3317 77.9555 54.3144 78.1499 54.4149 78.2928L55.6385 80.0435C55.4207 80.4377 55.2472 80.8549 55.1208 81.2891L53.0217 81.6387C52.8481 81.6675 52.7207 81.8179 52.7207 81.9936V83.9736C52.7207 84.1482 52.846 84.2976 53.0177 84.3282L55.1169 84.7005C55.2425 85.1335 55.416 85.5508 55.6345 85.9461L54.3958 87.6787C54.2935 87.8217 54.3097 88.0179 54.4339 88.1428L55.8336 89.5435C55.9571 89.667 56.1519 89.6843 56.2948 89.5839L58.048 88.3559C58.4415 88.5723 58.8573 88.744 59.2882 88.8685L59.6395 90.9785C59.668 91.1517 59.8181 91.2787 59.9941 91.2787H61.9741C62.1487 91.2787 62.2981 91.1535 62.3284 90.9817L62.7046 88.8613C63.1362 88.7343 63.5499 88.5615 63.9394 88.3447L65.7052 89.5835C65.8485 89.6847 66.0429 89.667 66.1667 89.5435L67.5664 88.1428C67.6909 88.0179 67.7071 87.8209 67.6038 87.6777L66.3445 85.9291C66.558 85.5403 66.7276 85.1292 66.8511 84.7023L68.9815 84.3282C69.154 84.298 69.2793 84.1482 69.2793 83.9736V81.9936C69.2796 81.8172 69.1518 81.6667 68.9776 81.6383ZM61 85.5187C59.6082 85.5187 58.48 84.3905 58.48 82.9987C58.48 81.607 59.6082 80.4787 61 80.4787C62.3917 80.4787 63.52 81.607 63.52 82.9987C63.52 84.3905 62.3917 85.5187 61 85.5187Z" fill="#7A7A7A"/>
<path d="M169.875 34.9974H140.582C139.551 34.9974 138.647 34.1365 138.647 33.154C138.647 32.1715 139.551 31.3125 140.582 31.3125H169.875C170.908 31.3125 171.811 32.1715 171.811 33.154C171.811 34.1365 171.036 34.9974 169.875 34.9974Z" fill="#BDBDBD"/>
<path d="M127.453 34.9974H90.759C89.7683 34.9974 88.9006 34.1365 88.9006 33.154C88.9006 32.1715 89.7683 31.3125 90.759 31.3125H127.576C128.567 31.3125 129.435 32.1715 129.435 33.154C129.435 34.1365 128.567 34.9974 127.453 34.9974Z" fill="#EAE8E8"/>
<path d="M151.504 47.9037H114.722C113.725 47.9037 112.853 47.0427 112.853 46.0602C112.853 45.0777 113.725 44.2188 114.722 44.2188H151.504C152.5 44.2188 153.375 45.0777 153.375 46.0602C153.499 47.0427 152.626 47.9037 151.504 47.9037Z" fill="#EAE8E8"/>
<path d="M103.51 47.9037H90.8738C89.8218 47.9037 88.9006 47.0427 88.9006 46.0602C88.9006 45.0777 89.8218 44.2188 90.8738 44.2188H103.51C104.562 44.2188 105.483 45.0777 105.483 46.0602C105.483 47.0427 104.562 47.9037 103.51 47.9037Z" fill="#BDBDBD"/>
<path d="M169.976 62.638H147.851C146.874 62.638 146.016 61.7816 146.016 60.7857C146.016 59.8097 146.874 58.9531 147.851 58.9531H169.976C170.955 58.9531 171.81 59.8097 171.81 60.7857C171.81 61.7816 171.076 62.638 169.976 62.638Z" fill="#BDBDBD"/>
<path d="M136.742 62.638H90.8031C89.7889 62.638 88.9006 61.7816 88.9006 60.7857C88.9006 59.8097 89.7889 58.9531 90.8031 58.9531H136.742C137.759 58.9531 138.647 59.8097 138.647 60.7857C138.647 61.7816 137.885 62.638 136.742 62.638Z" fill="#EAE8E8"/>
<path d="M151.565 75.5482H127.56C126.594 75.5482 125.75 74.6917 125.75 73.6958C125.75 72.7198 126.594 71.8633 127.56 71.8633H151.565C152.531 71.8633 153.375 72.7198 153.375 73.6958C153.495 74.6917 152.651 75.5482 151.565 75.5482Z" fill="#EAE8E8"/>
<path d="M116.338 75.5482H90.8138C89.7939 75.5482 88.9006 74.6917 88.9006 73.6958C88.9006 72.7198 89.7939 71.8633 90.8138 71.8633H116.465C117.487 71.8633 118.38 72.7198 118.38 73.6958C118.38 74.6917 117.487 75.5482 116.338 75.5482Z" fill="#BDBDBD"/>
<path d="M169.848 88.4388H151.663C150.618 88.4388 149.702 87.5823 149.702 86.6063C149.702 85.6104 150.618 84.7539 151.663 84.7539H169.848C170.896 84.7539 171.811 85.6104 171.811 86.6063C171.811 87.5823 171.026 88.4388 169.848 88.4388Z" fill="#EAE8E8"/>
<path d="M140.438 88.4388H111.057C110.049 88.4388 109.167 87.5823 109.167 86.6063C109.167 85.6104 110.049 84.7539 111.057 84.7539H140.438C141.448 84.7539 142.331 85.6104 142.331 86.6063C142.331 87.5823 141.448 88.4388 140.438 88.4388Z" fill="#BDBDBD"/>
<path d="M101.647 88.4388H90.8914C89.8301 88.4388 88.9006 87.5823 88.9006 86.6063C88.9006 85.6104 89.8301 84.7539 90.8914 84.7539H101.647C102.711 84.7539 103.64 85.6104 103.64 86.6063C103.64 87.5823 102.711 88.4388 101.647 88.4388Z" fill="#EAE8E8"/>
<path d="M151.567 101.341H134.927C133.963 101.341 133.119 100.485 133.119 99.5086C133.119 98.5126 133.963 97.6562 134.927 97.6562H151.567C152.531 97.6562 153.374 98.5126 153.374 99.5086C153.496 100.485 152.652 101.341 151.567 101.341Z" fill="#EAE8E8"/>
<path d="M123.825 101.341H90.8255C89.7993 101.341 88.9006 100.485 88.9006 99.5086C88.9006 98.5126 89.7993 97.6562 90.8255 97.6562H123.825C124.851 97.6562 125.75 98.5126 125.75 99.5086C125.75 100.485 124.851 101.341 123.825 101.341Z" fill="#BDBDBD"/>
<path d="M17.6135 15.2426C18.6808 15.2426 19.5343 14.391 19.5343 13.3381C19.5343 12.2697 18.6808 11.4336 17.6135 11.4336C16.5462 11.4336 15.6926 12.2697 15.6926 13.3381C15.6926 14.391 16.5462 15.2426 17.6135 15.2426Z" fill="#BDBDBD"/>
<path d="M24.3364 15.2426C25.4037 15.2426 26.2572 14.391 26.2572 13.3381C26.2572 12.2697 25.4037 11.4336 24.3364 11.4336C23.2706 11.4336 22.4155 12.2697 22.4155 13.3381C22.4155 14.391 23.2706 15.2426 24.3364 15.2426Z" fill="#BDBDBD"/>
<path d="M31.0593 15.2426C32.1266 15.2426 32.9801 14.391 32.9801 13.3381C32.9801 12.2697 32.1266 11.4336 31.0593 11.4336C29.9919 11.4336 29.1384 12.2697 29.1384 13.3381C29.1384 14.391 29.9919 15.2426 31.0593 15.2426Z" fill="#BDBDBD"/>
<path d="M95.1808 139.33C97.4782 139.33 99.3404 137.468 99.3404 135.171C99.3404 132.874 97.4782 131.012 95.1808 131.012C92.8844 131.012 91.0222 132.874 91.0222 135.171C91.0222 137.468 92.8844 139.33 95.1808 139.33Z" fill="#7A7A7A"/>
<path d="M365.002 47.7249V86.0141C365.002 86.0663 364.979 86.1608 364.834 86.2962C364.686 86.4345 364.443 86.5811 364.097 86.7137C363.409 86.9778 362.424 87.1452 361.314 87.1452H228.32C227.215 87.1452 226.231 86.9658 225.541 86.6951C225.194 86.5592 224.948 86.4102 224.798 86.2715C224.647 86.1328 224.632 86.045 224.632 86.0141V47.7249C224.632 47.694 224.647 47.6063 224.798 47.4675C224.948 47.3289 225.194 47.18 225.541 47.044C226.231 46.7734 227.215 46.5941 228.32 46.5941H361.314C362.424 46.5941 363.409 46.7615 364.097 47.0255C364.443 47.1581 364.686 47.3046 364.834 47.4429C364.979 47.5782 365.002 47.6727 365.002 47.7249Z" fill="white" stroke="#BDBDBD" stroke-width="1.03977"/>
<circle cx="244.909" cy="66.8629" r="5.19886" fill="#BDBDBD"/>
<line x1="318.342" y1="59.7124" x2="318.342" y2="74.0092" stroke="#BDBDBD" stroke-width="1.29972" stroke-linecap="round"/>
<line x1="323.541" y1="59.7124" x2="323.541" y2="74.0092" stroke="#BDBDBD" stroke-width="1.29972" stroke-linecap="round"/>
<line x1="328.74" y1="59.7124" x2="328.74" y2="74.0092" stroke="#BDBDBD" stroke-width="1.29972" stroke-linecap="round"/>
<line x1="333.939" y1="59.7124" x2="333.939" y2="74.0092" stroke="#BDBDBD" stroke-width="1.29972" stroke-linecap="round"/>
<line x1="339.137" y1="59.7124" x2="339.137" y2="74.0092" stroke="#BDBDBD" stroke-width="1.29972" stroke-linecap="round"/>
<line x1="344.337" y1="59.7124" x2="344.337" y2="74.0092" stroke="#BDBDBD" stroke-width="1.29972" stroke-linecap="round"/>
<line x1="349.536" y1="59.7124" x2="349.536" y2="74.0092" stroke="#BDBDBD" stroke-width="1.29972" stroke-linecap="round"/>
<path d="M365.002 93.4749V131.764C365.002 131.816 364.979 131.911 364.834 132.046C364.686 132.185 364.443 132.331 364.097 132.464C363.409 132.728 362.424 132.895 361.314 132.895H228.32C227.215 132.895 226.231 132.716 225.541 132.445C225.194 132.309 224.948 132.16 224.798 132.022C224.647 131.883 224.632 131.795 224.632 131.764V93.4749C224.632 93.444 224.647 93.3563 224.798 93.2175C224.948 93.0789 225.194 92.93 225.541 92.794C226.231 92.5234 227.215 92.3441 228.32 92.3441H361.314C362.424 92.3441 363.409 92.5115 364.097 92.7755C364.443 92.9081 364.686 93.0546 364.834 93.1929C364.979 93.3282 365.002 93.4227 365.002 93.4749Z" fill="white" stroke="#BDBDBD" stroke-width="1.03977"/>
<circle cx="244.909" cy="112.613" r="5.19886" fill="#7A7A7A"/>
<line x1="318.342" y1="105.462" x2="318.342" y2="119.759" stroke="#BDBDBD" stroke-width="1.29972" stroke-linecap="round"/>
<line x1="323.541" y1="105.462" x2="323.541" y2="119.759" stroke="#BDBDBD" stroke-width="1.29972" stroke-linecap="round"/>
<line x1="328.74" y1="105.462" x2="328.74" y2="119.759" stroke="#BDBDBD" stroke-width="1.29972" stroke-linecap="round"/>
<line x1="333.939" y1="105.462" x2="333.939" y2="119.759" stroke="#BDBDBD" stroke-width="1.29972" stroke-linecap="round"/>
<line x1="339.137" y1="105.462" x2="339.137" y2="119.759" stroke="#BDBDBD" stroke-width="1.29972" stroke-linecap="round"/>
<line x1="344.337" y1="105.462" x2="344.337" y2="119.759" stroke="#BDBDBD" stroke-width="1.29972" stroke-linecap="round"/>
<line x1="349.536" y1="105.462" x2="349.536" y2="119.759" stroke="#BDBDBD" stroke-width="1.29972" stroke-linecap="round"/>
<path d="M365.002 139.225V177.514C365.002 177.566 364.979 177.661 364.834 177.796C364.686 177.935 364.443 178.081 364.097 178.214C363.409 178.478 362.424 178.645 361.314 178.645H228.32C227.215 178.645 226.231 178.466 225.541 178.195C225.194 178.059 224.948 177.91 224.798 177.772C224.647 177.633 224.632 177.545 224.632 177.514V139.225C224.632 139.194 224.647 139.106 224.798 138.968C224.948 138.829 225.194 138.68 225.541 138.544C226.231 138.273 227.215 138.094 228.32 138.094H361.314C362.424 138.094 363.409 138.261 364.097 138.526C364.443 138.658 364.686 138.805 364.834 138.943C364.979 139.078 365.002 139.173 365.002 139.225Z" fill="white" stroke="#BDBDBD" stroke-width="1.03977"/>
<circle cx="244.909" cy="158.363" r="5.19886" fill="#BDBDBD"/>
<line x1="318.342" y1="151.212" x2="318.342" y2="165.509" stroke="#BDBDBD" stroke-width="1.29972" stroke-linecap="round"/>
<line x1="323.541" y1="151.212" x2="323.541" y2="165.509" stroke="#BDBDBD" stroke-width="1.29972" stroke-linecap="round"/>
<line x1="328.74" y1="151.212" x2="328.74" y2="165.509" stroke="#BDBDBD" stroke-width="1.29972" stroke-linecap="round"/>
<line x1="333.939" y1="151.212" x2="333.939" y2="165.509" stroke="#BDBDBD" stroke-width="1.29972" stroke-linecap="round"/>
<line x1="339.137" y1="151.212" x2="339.137" y2="165.509" stroke="#BDBDBD" stroke-width="1.29972" stroke-linecap="round"/>
<line x1="344.337" y1="151.212" x2="344.337" y2="165.509" stroke="#BDBDBD" stroke-width="1.29972" stroke-linecap="round"/>
<line x1="349.536" y1="151.212" x2="349.536" y2="165.509" stroke="#BDBDBD" stroke-width="1.29972" stroke-linecap="round"/>
<path d="M190.84 24.7496C190.553 24.7496 190.32 24.9824 190.32 25.2695C190.32 25.5567 190.553 25.7894 190.84 25.7894V24.7496ZM296.377 46.065C296.377 46.3521 296.61 46.5849 296.897 46.5849C297.184 46.5849 297.417 46.3521 297.417 46.065H296.377ZM194.089 25.7894C194.376 25.7894 194.609 25.5567 194.609 25.2695C194.609 24.9824 194.376 24.7496 194.089 24.7496V25.7894ZM200.588 24.7496C200.301 24.7496 200.068 24.9824 200.068 25.2695C200.068 25.5567 200.301 25.7894 200.588 25.7894V24.7496ZM207.086 25.7894C207.373 25.7894 207.606 25.5567 207.606 25.2695C207.606 24.9824 207.373 24.7496 207.086 24.7496V25.7894ZM213.585 24.7496C213.298 24.7496 213.065 24.9824 213.065 25.2695C213.065 25.5567 213.298 25.7894 213.585 25.7894V24.7496ZM220.083 25.7894C220.371 25.7894 220.603 25.5567 220.603 25.2695C220.603 24.9824 220.371 24.7496 220.083 24.7496V25.7894ZM226.582 24.7496C226.295 24.7496 226.062 24.9824 226.062 25.2695C226.062 25.5567 226.295 25.7894 226.582 25.7894V24.7496ZM233.081 25.7894C233.368 25.7894 233.6 25.5567 233.6 25.2695C233.6 24.9824 233.368 24.7496 233.081 24.7496V25.7894ZM239.579 24.7496C239.292 24.7496 239.059 24.9824 239.059 25.2695C239.059 25.5567 239.292 25.7894 239.579 25.7894V24.7496ZM246.078 25.7894C246.365 25.7894 246.598 25.5567 246.598 25.2695C246.598 24.9824 246.365 24.7496 246.078 24.7496V25.7894ZM252.576 24.7496C252.289 24.7496 252.056 24.9824 252.056 25.2695C252.056 25.5567 252.289 25.7894 252.576 25.7894V24.7496ZM259.075 25.7894C259.362 25.7894 259.595 25.5567 259.595 25.2695C259.595 24.9824 259.362 24.7496 259.075 24.7496V25.7894ZM265.574 24.7496C265.286 24.7496 265.054 24.9824 265.054 25.2695C265.054 25.5567 265.286 25.7894 265.574 25.7894V24.7496ZM272.072 25.7894C272.359 25.7894 272.592 25.5567 272.592 25.2695C272.592 24.9824 272.359 24.7496 272.072 24.7496V25.7894ZM278.571 24.7496C278.284 24.7496 278.051 24.9824 278.051 25.2695C278.051 25.5567 278.284 25.7894 278.571 25.7894V24.7496ZM285.069 25.7894C285.356 25.7894 285.589 25.5567 285.589 25.2695C285.589 24.9824 285.356 24.7496 285.069 24.7496V25.7894ZM291.568 24.7496C291.281 24.7496 291.048 24.9824 291.048 25.2695C291.048 25.5567 291.281 25.7894 291.568 25.7894V24.7496ZM295.414 25.9076C295.679 26.0175 295.983 25.8917 296.093 25.6265C296.203 25.3612 296.078 25.0571 295.812 24.9471L295.414 25.9076ZM297.219 26.3539C297.109 26.0887 296.805 25.9628 296.54 26.0728C296.274 26.1828 296.149 26.487 296.259 26.7522L297.219 26.3539ZM296.377 32.0281C296.377 32.3152 296.61 32.5479 296.897 32.5479C297.184 32.5479 297.417 32.3152 297.417 32.0281H296.377ZM297.417 41.386C297.417 41.0989 297.184 40.8661 296.897 40.8661C296.61 40.8661 296.377 41.0989 296.377 41.386H297.417ZM190.84 25.7894H194.089V24.7496H190.84V25.7894ZM200.588 25.7894H207.086V24.7496H200.588V25.7894ZM213.585 25.7894H220.083V24.7496H213.585V25.7894ZM226.582 25.7894H233.081V24.7496H226.582V25.7894ZM239.579 25.7894H246.078V24.7496H239.579V25.7894ZM252.576 25.7894H259.075V24.7496H252.576V25.7894ZM265.574 25.7894H272.072V24.7496H265.574V25.7894ZM278.571 25.7894H285.069V24.7496H278.571V25.7894ZM291.568 25.7894H294.817V24.7496H291.568V25.7894ZM294.817 25.7894C295.03 25.7894 295.231 25.8316 295.414 25.9076L295.812 24.9471C295.505 24.8197 295.169 24.7496 294.817 24.7496V25.7894ZM296.259 26.7522C296.335 26.9354 296.377 27.1366 296.377 27.3491H297.417C297.417 26.9976 297.346 26.6611 297.219 26.3539L296.259 26.7522ZM296.377 27.3491V32.0281H297.417V27.3491H296.377ZM296.377 41.386V46.065H297.417V41.386H296.377ZM190.84 24.2298C190.266 24.2298 189.8 24.6953 189.8 25.2695C189.8 25.8438 190.266 26.3093 190.84 26.3093V24.2298ZM295.857 46.065C295.857 46.6392 296.322 47.1048 296.897 47.1048C297.471 47.1048 297.936 46.6392 297.936 46.065H295.857ZM194.089 26.3093C194.663 26.3093 195.129 25.8438 195.129 25.2695C195.129 24.6953 194.663 24.2298 194.089 24.2298V26.3093ZM200.588 24.2298C200.013 24.2298 199.548 24.6953 199.548 25.2695C199.548 25.8438 200.013 26.3093 200.588 26.3093V24.2298ZM207.086 26.3093C207.661 26.3093 208.126 25.8438 208.126 25.2695C208.126 24.6953 207.661 24.2298 207.086 24.2298V26.3093ZM213.585 24.2298C213.011 24.2298 212.545 24.6953 212.545 25.2695C212.545 25.8438 213.011 26.3093 213.585 26.3093V24.2298ZM220.083 26.3093C220.658 26.3093 221.123 25.8438 221.123 25.2695C221.123 24.6953 220.658 24.2298 220.083 24.2298V26.3093ZM226.582 24.2298C226.008 24.2298 225.542 24.6953 225.542 25.2695C225.542 25.8438 226.008 26.3093 226.582 26.3093V24.2298ZM233.081 26.3093C233.655 26.3093 234.12 25.8438 234.12 25.2695C234.12 24.6953 233.655 24.2298 233.081 24.2298V26.3093ZM239.579 24.2298C239.005 24.2298 238.539 24.6953 238.539 25.2695C238.539 25.8438 239.005 26.3093 239.579 26.3093V24.2298ZM246.078 26.3093C246.652 26.3093 247.118 25.8438 247.118 25.2695C247.118 24.6953 246.652 24.2298 246.078 24.2298V26.3093ZM252.576 24.2298C252.002 24.2298 251.537 24.6953 251.537 25.2695C251.537 25.8438 252.002 26.3093 252.576 26.3093V24.2298ZM259.075 26.3093C259.649 26.3093 260.115 25.8438 260.115 25.2695C260.115 24.6953 259.649 24.2298 259.075 24.2298V26.3093ZM265.574 24.2298C264.999 24.2298 264.534 24.6953 264.534 25.2695C264.534 25.8438 264.999 26.3093 265.574 26.3093V24.2298ZM272.072 26.3093C272.646 26.3093 273.112 25.8438 273.112 25.2695C273.112 24.6953 272.646 24.2298 272.072 24.2298V26.3093ZM278.571 24.2298C277.996 24.2298 277.531 24.6953 277.531 25.2695C277.531 25.8438 277.996 26.3093 278.571 26.3093V24.2298ZM285.069 26.3093C285.644 26.3093 286.109 25.8438 286.109 25.2695C286.109 24.6953 285.644 24.2298 285.069 24.2298V26.3093ZM291.568 24.2298C290.994 24.2298 290.528 24.6953 290.528 25.2695C290.528 25.8438 290.994 26.3093 291.568 26.3093V24.2298ZM295.215 26.3878C295.745 26.6078 296.354 26.3561 296.574 25.8256C296.794 25.2952 296.542 24.6868 296.011 24.4669L295.215 26.3878ZM297.699 26.1548C297.479 25.6243 296.871 25.3726 296.341 25.5926C295.81 25.8126 295.558 26.4209 295.778 26.9513L297.699 26.1548ZM295.857 32.0281C295.857 32.6023 296.322 33.0678 296.897 33.0678C297.471 33.0678 297.936 32.6023 297.936 32.0281H295.857ZM297.936 41.386C297.936 40.8118 297.471 40.3462 296.897 40.3462C296.322 40.3462 295.857 40.8118 295.857 41.386H297.936ZM190.84 26.3093H194.089V24.2298H190.84V26.3093ZM200.588 26.3093H207.086V24.2298H200.588V26.3093ZM213.585 26.3093H220.083V24.2298H213.585V26.3093ZM226.582 26.3093H233.081V24.2298H226.582V26.3093ZM239.579 26.3093H246.078V24.2298H239.579V26.3093ZM252.576 26.3093H259.075V24.2298H252.576V26.3093ZM265.574 26.3093H272.072V24.2298H265.574V26.3093ZM278.571 26.3093H285.069V24.2298H278.571V26.3093ZM291.568 26.3093H294.817V24.2298H291.568V26.3093ZM294.817 26.3093C294.96 26.3093 295.094 26.3376 295.215 26.3878L296.011 24.4669C295.642 24.3137 295.238 24.2298 294.817 24.2298V26.3093ZM295.778 26.9513C295.829 27.0725 295.857 27.2062 295.857 27.3491H297.936C297.936 26.928 297.852 26.524 297.699 26.1548L295.778 26.9513ZM295.857 27.3491V32.0281H297.936V27.3491H295.857ZM295.857 41.386V46.065H297.936V41.386H295.857Z" fill="#BDBDBD"/>
</g>
<defs>
<clipPath id="clip0_6849_5319">
<rect width="380" height="180" fill="white"/>
</clipPath>
</defs>
</svg>
