<svg width="220" height="104" viewBox="0 0 220 104" fill="none" xmlns="http://www.w3.org/2000/svg">
<g clip-path="url(#clip0_6849_5319)">
<path d="M81.6049 103.875C72.994 104.094 62.7429 103.875 55.4647 103.765C48.1866 103.984 37.9355 104.094 29.3252 103.875C37.833 98.7408 40.7035 89.2377 41.2159 82.9023H69.6111C70.2259 89.2377 73.0964 98.7408 81.6049 103.875Z" fill="#F5F5F5"/>
<path d="M-1.42847 104.395H213.005" stroke="#BDBDBD" stroke-width="0.914286" stroke-miterlimit="10" stroke-linecap="round" stroke-linejoin="round"/>
<path d="M107.891 3.37123V81.5695C107.891 83.2845 106.655 84.4687 105.199 84.4687H5.16452C3.71812 84.4687 2.47273 83.1861 2.47273 81.5695V3.37123C2.47273 1.75479 3.718 0.472727 5.16452 0.472727H105.199C106.655 0.472727 107.891 1.6564 107.891 3.37123Z" fill="white" stroke="#BDBDBD" stroke-width="0.945455"/>
<path d="M107.182 3.52747V69.2329H3.18188V3.42932C3.18188 1.63935 4.05141 0.6875 5.74979 0.6875H104.614C106.212 0.6875 107.182 1.63232 107.182 3.52747Z" fill="#F5F5F5"/>
<rect x="5.6394" y="3.78125" width="99.1852" height="62.8433" rx="0.92611" fill="white"/>
<path d="M96.4489 19.891H79.8016C79.2155 19.891 78.7021 19.4018 78.7021 18.8434C78.7021 18.285 79.2155 17.7969 79.8016 17.7969H96.4489C97.0362 17.7969 97.5496 18.285 97.5496 18.8434C97.5496 19.4018 97.1091 19.891 96.4489 19.891Z" fill="#BDBDBD"/>
<path d="M72.3403 19.891H51.4868C50.9238 19.891 50.4307 19.4018 50.4307 18.8434C50.4307 18.285 50.9238 17.7969 51.4868 17.7969H72.4102C72.9733 17.7969 73.4664 18.285 73.4664 18.8434C73.4664 19.4018 72.9733 19.891 72.3403 19.891Z" fill="#EAE8E8"/>
<path d="M86.0083 27.227H65.105C64.5387 27.227 64.0427 26.7377 64.0427 26.1793C64.0427 25.621 64.5387 25.1328 65.105 25.1328H86.0083C86.5747 25.1328 87.0718 25.621 87.0718 26.1793C87.1421 26.7377 86.6462 27.227 86.0083 27.227Z" fill="#EAE8E8"/>
<path d="M58.733 27.227H51.552C50.9542 27.227 50.4307 26.7377 50.4307 26.1793C50.4307 25.621 50.9542 25.1328 51.552 25.1328H58.733C59.3308 25.1328 59.8544 25.621 59.8544 26.1793C59.8544 26.7377 59.3308 27.227 58.733 27.227Z" fill="#BDBDBD"/>
<path d="M96.5064 35.5981H83.9325C83.3773 35.5981 82.8899 35.1113 82.8899 34.5454C82.8899 33.9907 83.3773 33.5039 83.9325 33.5039H96.5064C97.0627 33.5039 97.549 33.9907 97.549 34.5454C97.549 35.1113 97.1317 35.5981 96.5064 35.5981Z" fill="#BDBDBD"/>
<path d="M77.6194 35.5981H51.5119C50.9355 35.5981 50.4307 35.1113 50.4307 34.5454C50.4307 33.9907 50.9355 33.5039 51.5119 33.5039H77.6194C78.197 33.5039 78.7018 33.9907 78.7018 34.5454C78.7018 35.1113 78.2686 35.5981 77.6194 35.5981Z" fill="#EAE8E8"/>
<path d="M86.0434 42.934H72.4014C71.8524 42.934 71.3726 42.4473 71.3726 41.8813C71.3726 41.3266 71.8524 40.8398 72.4014 40.8398H86.0434C86.5924 40.8398 87.0723 41.3266 87.0723 41.8813C87.1404 42.4473 86.6605 42.934 86.0434 42.934Z" fill="#EAE8E8"/>
<path d="M66.0234 42.934H51.5179C50.9383 42.934 50.4307 42.4473 50.4307 41.8813C50.4307 41.3266 50.9383 40.8398 51.5179 40.8398H66.0954C66.6763 40.8398 67.1839 41.3266 67.1839 41.8813C67.1839 42.4473 66.6763 42.934 66.0234 42.934Z" fill="#BDBDBD"/>
<path d="M96.4335 50.2582H86.099C85.5048 50.2582 84.9844 49.7715 84.9844 49.2168C84.9844 48.6508 85.5048 48.1641 86.099 48.1641H96.4335C97.0289 48.1641 97.5493 48.6508 97.5493 49.2168C97.5493 49.7715 97.1027 50.2582 96.4335 50.2582Z" fill="#EAE8E8"/>
<path d="M79.7201 50.2582H63.0226C62.4498 50.2582 61.9482 49.7715 61.9482 49.2168C61.9482 48.6508 62.4498 48.1641 63.0226 48.1641H79.7201C80.294 48.1641 80.7956 48.6508 80.7956 49.2168C80.7956 49.7715 80.294 50.2582 79.7201 50.2582Z" fill="#BDBDBD"/>
<path d="M57.6747 50.2582H51.562C50.9589 50.2582 50.4307 49.7715 50.4307 49.2168C50.4307 48.6508 50.9589 48.1641 51.562 48.1641H57.6747C58.2791 48.1641 58.8073 48.6508 58.8073 49.2168C58.8073 49.7715 58.2791 50.2582 57.6747 50.2582Z" fill="#EAE8E8"/>
<path d="M86.0445 57.5902H76.5879C76.0402 57.5902 75.5605 57.1034 75.5605 56.5488C75.5605 55.9828 76.0402 55.4961 76.5879 55.4961H86.0445C86.5921 55.4961 87.0718 55.9828 87.0718 56.5488C87.1409 57.1034 86.6613 57.5902 86.0445 57.5902Z" fill="#EAE8E8"/>
<path d="M70.2783 57.5902H51.5246C50.9414 57.5902 50.4307 57.1034 50.4307 56.5488C50.4307 55.9828 50.9414 55.4961 51.5246 55.4961H70.2783C70.8615 55.4961 71.3722 55.9828 71.3722 56.5488C71.3722 57.1034 70.8615 57.5902 70.2783 57.5902Z" fill="#BDBDBD"/>
<path d="M9.91782 8.6608C10.5244 8.6608 11.0094 8.17683 11.0094 7.57845C11.0094 6.97126 10.5244 6.49609 9.91782 6.49609C9.31126 6.49609 8.82617 6.97126 8.82617 7.57845C8.82617 8.17683 9.31126 8.6608 9.91782 8.6608Z" fill="#BDBDBD"/>
<path d="M13.7386 8.6608C14.3452 8.6608 14.8302 8.17683 14.8302 7.57845C14.8302 6.97126 14.3452 6.49609 13.7386 6.49609C13.1329 6.49609 12.647 6.97126 12.647 7.57845C12.647 8.17683 13.1329 8.6608 13.7386 8.6608Z" fill="#BDBDBD"/>
<path d="M17.5591 8.6608C18.1657 8.6608 18.6508 8.17683 18.6508 7.57845C18.6508 6.97126 18.1657 6.49609 17.5591 6.49609C16.9526 6.49609 16.4675 6.97126 16.4675 7.57845C16.4675 8.17683 16.9526 8.6608 17.5591 8.6608Z" fill="#BDBDBD"/>
<path d="M53.9998 79.1843C55.3055 79.1843 56.3637 78.1262 56.3637 76.821C56.3637 75.5151 55.3055 74.457 53.9998 74.457C52.6948 74.457 51.6365 75.5151 51.6365 76.821C51.6365 78.1262 52.6948 79.1843 53.9998 79.1843Z" fill="#7A7A7A"/>
<path d="M39.2973 40.7541C39.066 41.7311 38.7188 42.7713 38.3141 43.6346C37.2151 45.7654 35.48 47.4372 33.3399 48.5279C31.1422 49.6228 28.5394 50.086 25.9367 49.5091C19.8063 48.2415 15.8731 42.2533 17.1456 36.1472C18.418 30.041 24.3754 26.0657 30.5058 27.3922C32.7039 27.8512 34.6123 28.9461 36.2319 30.4453C38.9501 33.2078 40.0492 37.0694 39.2973 40.7541Z" fill="#E96560"/>
<path d="M30.0366 35.2609L28.2155 37.082L26.3945 35.2611C26.0304 34.8969 25.4212 34.8547 25.0163 35.2595C24.6521 35.6238 24.6125 36.2318 25.0182 36.6374L26.8391 38.4584L25.018 40.2795C24.6537 40.6438 24.6139 41.2521 25.0195 41.6577C25.4252 42.0633 25.99 42.0612 26.3948 41.6563L28.2159 39.8352L30.0398 41.659C30.404 42.0232 31.0102 42.0625 31.4148 41.658C31.779 41.2937 31.8218 40.6883 31.4162 40.2827L29.5923 38.4588L31.4134 36.6377C31.7777 36.2734 31.8202 35.6684 31.4145 35.2627C31.0494 34.8165 30.4414 34.8561 30.0366 35.2609Z" fill="white"/>
<path d="M207.341 28.1217V49.8817C207.341 49.9113 207.328 49.9651 207.245 50.042C207.161 50.1206 207.023 50.2039 206.826 50.2792C206.435 50.4293 205.875 50.5245 205.245 50.5245H129.663C129.036 50.5245 128.476 50.4225 128.084 50.2687C127.887 50.1914 127.747 50.1068 127.662 50.028C127.576 49.9491 127.568 49.8993 127.568 49.8817V28.1217C127.568 28.1041 127.576 28.0543 127.662 27.9754C127.747 27.8966 127.887 27.812 128.084 27.7348C128.476 27.581 129.036 27.479 129.663 27.479H205.245C205.875 27.479 206.435 27.5742 206.826 27.7242C207.023 27.7996 207.161 27.8828 207.245 27.9614C207.328 28.0383 207.341 28.092 207.341 28.1217Z" fill="white" stroke="#BDBDBD" stroke-width="0.590909"/>
<circle cx="139.091" cy="38.9975" r="2.95455" fill="#BDBDBD"/>
<line x1="180.824" y1="34.9357" x2="180.824" y2="43.0607" stroke="#BDBDBD" stroke-width="0.738636" stroke-linecap="round"/>
<line x1="183.778" y1="34.9357" x2="183.778" y2="43.0607" stroke="#BDBDBD" stroke-width="0.738636" stroke-linecap="round"/>
<line x1="186.733" y1="34.9357" x2="186.733" y2="43.0607" stroke="#BDBDBD" stroke-width="0.738636" stroke-linecap="round"/>
<line x1="189.687" y1="34.9357" x2="189.687" y2="43.0607" stroke="#BDBDBD" stroke-width="0.738636" stroke-linecap="round"/>
<line x1="192.642" y1="34.9357" x2="192.642" y2="43.0607" stroke="#BDBDBD" stroke-width="0.738636" stroke-linecap="round"/>
<line x1="195.597" y1="34.9357" x2="195.597" y2="43.0607" stroke="#BDBDBD" stroke-width="0.738636" stroke-linecap="round"/>
<line x1="198.551" y1="34.9357" x2="198.551" y2="43.0607" stroke="#BDBDBD" stroke-width="0.738636" stroke-linecap="round"/>
<path d="M207.341 54.1217V75.8817C207.341 75.9113 207.328 75.9651 207.245 76.042C207.161 76.1206 207.023 76.2039 206.826 76.2792C206.435 76.4293 205.875 76.5245 205.245 76.5245H129.663C129.036 76.5245 128.476 76.4225 128.084 76.2687C127.887 76.1914 127.747 76.1068 127.662 76.028C127.576 75.9491 127.568 75.8993 127.568 75.8817V54.1217C127.568 54.1041 127.576 54.0543 127.662 53.9754C127.747 53.8966 127.887 53.812 128.084 53.7348C128.476 53.581 129.036 53.479 129.663 53.479H205.245C205.875 53.479 206.435 53.5742 206.826 53.7242C207.023 53.7996 207.161 53.8828 207.245 53.9614C207.328 54.0383 207.341 54.092 207.341 54.1217Z" fill="white" stroke="#BDBDBD" stroke-width="0.590909"/>
<circle cx="139.091" cy="64.9975" r="2.95455" fill="#7A7A7A"/>
<line x1="180.824" y1="60.9357" x2="180.824" y2="69.0607" stroke="#BDBDBD" stroke-width="0.738636" stroke-linecap="round"/>
<line x1="183.778" y1="60.9357" x2="183.778" y2="69.0607" stroke="#BDBDBD" stroke-width="0.738636" stroke-linecap="round"/>
<line x1="186.733" y1="60.9357" x2="186.733" y2="69.0607" stroke="#BDBDBD" stroke-width="0.738636" stroke-linecap="round"/>
<line x1="189.687" y1="60.9357" x2="189.687" y2="69.0607" stroke="#BDBDBD" stroke-width="0.738636" stroke-linecap="round"/>
<line x1="192.642" y1="60.9357" x2="192.642" y2="69.0607" stroke="#BDBDBD" stroke-width="0.738636" stroke-linecap="round"/>
<line x1="195.597" y1="60.9357" x2="195.597" y2="69.0607" stroke="#BDBDBD" stroke-width="0.738636" stroke-linecap="round"/>
<line x1="198.551" y1="60.9357" x2="198.551" y2="69.0607" stroke="#BDBDBD" stroke-width="0.738636" stroke-linecap="round"/>
<path d="M207.341 80.1217V101.882C207.341 101.911 207.328 101.965 207.245 102.042C207.161 102.121 207.023 102.204 206.826 102.279C206.435 102.429 205.875 102.525 205.245 102.525H129.663C129.036 102.525 128.476 102.423 128.084 102.269C127.887 102.191 127.747 102.107 127.662 102.028C127.576 101.949 127.568 101.899 127.568 101.882V80.1217C127.568 80.1041 127.576 80.0543 127.662 79.9754C127.747 79.8966 127.887 79.812 128.084 79.7348C128.476 79.581 129.036 79.479 129.663 79.479H205.245C205.875 79.479 206.435 79.5742 206.826 79.7242C207.023 79.7996 207.161 79.8828 207.245 79.9614C207.328 80.0383 207.341 80.092 207.341 80.1217Z" fill="white" stroke="#BDBDBD" stroke-width="0.590909"/>
<circle cx="139.091" cy="90.9975" r="2.95455" fill="#BDBDBD"/>
<line x1="180.824" y1="86.9357" x2="180.824" y2="95.0607" stroke="#BDBDBD" stroke-width="0.738636" stroke-linecap="round"/>
<line x1="183.778" y1="86.9357" x2="183.778" y2="95.0607" stroke="#BDBDBD" stroke-width="0.738636" stroke-linecap="round"/>
<line x1="186.733" y1="86.9357" x2="186.733" y2="95.0607" stroke="#BDBDBD" stroke-width="0.738636" stroke-linecap="round"/>
<line x1="189.687" y1="86.9357" x2="189.687" y2="95.0607" stroke="#BDBDBD" stroke-width="0.738636" stroke-linecap="round"/>
<line x1="192.642" y1="86.9357" x2="192.642" y2="95.0607" stroke="#BDBDBD" stroke-width="0.738636" stroke-linecap="round"/>
<line x1="195.597" y1="86.9357" x2="195.597" y2="95.0607" stroke="#BDBDBD" stroke-width="0.738636" stroke-linecap="round"/>
<line x1="198.551" y1="86.9357" x2="198.551" y2="95.0607" stroke="#BDBDBD" stroke-width="0.738636" stroke-linecap="round"/>
<path d="M108.364 15.0639C108.2 15.0639 108.068 15.1962 108.068 15.3594C108.068 15.5226 108.2 15.6548 108.364 15.6548V15.0639ZM168.341 27.1776C168.341 27.3407 168.473 27.473 168.636 27.473C168.799 27.473 168.932 27.3407 168.932 27.1776H168.341ZM110.21 15.6548C110.373 15.6548 110.506 15.5226 110.506 15.3594C110.506 15.1962 110.373 15.0639 110.21 15.0639V15.6548ZM113.903 15.0639C113.74 15.0639 113.608 15.1962 113.608 15.3594C113.608 15.5226 113.74 15.6548 113.903 15.6548V15.0639ZM117.596 15.6548C117.76 15.6548 117.892 15.5226 117.892 15.3594C117.892 15.1962 117.76 15.0639 117.596 15.0639V15.6548ZM121.29 15.0639C121.126 15.0639 120.994 15.1962 120.994 15.3594C120.994 15.5226 121.126 15.6548 121.29 15.6548V15.0639ZM124.983 15.6548C125.146 15.6548 125.278 15.5226 125.278 15.3594C125.278 15.1962 125.146 15.0639 124.983 15.0639V15.6548ZM128.676 15.0639C128.513 15.0639 128.381 15.1962 128.381 15.3594C128.381 15.5226 128.513 15.6548 128.676 15.6548V15.0639ZM132.369 15.6548C132.532 15.6548 132.665 15.5226 132.665 15.3594C132.665 15.1962 132.532 15.0639 132.369 15.0639V15.6548ZM136.062 15.0639C135.899 15.0639 135.767 15.1962 135.767 15.3594C135.767 15.5226 135.899 15.6548 136.062 15.6548V15.0639ZM139.756 15.6548C139.919 15.6548 140.051 15.5226 140.051 15.3594C140.051 15.1962 139.919 15.0639 139.756 15.0639V15.6548ZM143.449 15.0639C143.286 15.0639 143.153 15.1962 143.153 15.3594C143.153 15.5226 143.286 15.6548 143.449 15.6548V15.0639ZM147.142 15.6548C147.305 15.6548 147.437 15.5226 147.437 15.3594C147.437 15.1962 147.305 15.0639 147.142 15.0639V15.6548ZM150.835 15.0639C150.672 15.0639 150.54 15.1962 150.54 15.3594C150.54 15.5226 150.672 15.6548 150.835 15.6548V15.0639ZM154.528 15.6548C154.691 15.6548 154.824 15.5226 154.824 15.3594C154.824 15.1962 154.691 15.0639 154.528 15.0639V15.6548ZM158.221 15.0639C158.058 15.0639 157.926 15.1962 157.926 15.3594C157.926 15.5226 158.058 15.6548 158.221 15.6548V15.0639ZM161.915 15.6548C162.078 15.6548 162.21 15.5226 162.21 15.3594C162.21 15.1962 162.078 15.0639 161.915 15.0639V15.6548ZM165.608 15.0639C165.445 15.0639 165.312 15.1962 165.312 15.3594C165.312 15.5226 165.445 15.6548 165.608 15.6548V15.0639ZM167.794 15.722C167.944 15.7845 168.117 15.713 168.18 15.5622C168.242 15.4115 168.171 15.2386 168.02 15.1761L167.794 15.722ZM168.819 15.9756C168.757 15.8249 168.584 15.7534 168.433 15.8159C168.283 15.8784 168.211 16.0513 168.274 16.202L168.819 15.9756ZM168.341 19.2003C168.341 19.3635 168.473 19.4957 168.636 19.4957C168.799 19.4957 168.932 19.3635 168.932 19.2003H168.341ZM168.932 24.5185C168.932 24.3553 168.799 24.223 168.636 24.223C168.473 24.223 168.341 24.3553 168.341 24.5185H168.932ZM108.364 15.6548H110.21V15.0639H108.364V15.6548ZM113.903 15.6548H117.596V15.0639H113.903V15.6548ZM121.29 15.6548H124.983V15.0639H121.29V15.6548ZM128.676 15.6548H132.369V15.0639H128.676V15.6548ZM136.062 15.6548H139.756V15.0639H136.062V15.6548ZM143.449 15.6548H147.142V15.0639H143.449V15.6548ZM150.835 15.6548H154.528V15.0639H150.835V15.6548ZM158.221 15.6548H161.915V15.0639H158.221V15.6548ZM165.608 15.6548H167.454V15.0639H165.608V15.6548ZM167.454 15.6548C167.575 15.6548 167.69 15.6788 167.794 15.722L168.02 15.1761C167.845 15.1037 167.654 15.0639 167.454 15.0639V15.6548ZM168.274 16.202C168.317 16.3061 168.341 16.4205 168.341 16.5412H168.932C168.932 16.3414 168.892 16.1502 168.819 15.9756L168.274 16.202ZM168.341 16.5412V19.2003H168.932V16.5412H168.341ZM168.341 24.5185V27.1776H168.932V24.5185H168.341ZM108.364 14.7685C108.037 14.7685 107.773 15.033 107.773 15.3594C107.773 15.6857 108.037 15.9503 108.364 15.9503V14.7685ZM168.045 27.1776C168.045 27.5039 168.31 27.7685 168.636 27.7685C168.963 27.7685 169.227 27.5039 169.227 27.1776H168.045ZM110.21 15.9503C110.536 15.9503 110.801 15.6857 110.801 15.3594C110.801 15.033 110.536 14.7685 110.21 14.7685V15.9503ZM113.903 14.7685C113.577 14.7685 113.312 15.033 113.312 15.3594C113.312 15.6857 113.577 15.9503 113.903 15.9503V14.7685ZM117.596 15.9503C117.923 15.9503 118.187 15.6857 118.187 15.3594C118.187 15.033 117.923 14.7685 117.596 14.7685V15.9503ZM121.29 14.7685C120.963 14.7685 120.699 15.033 120.699 15.3594C120.699 15.6857 120.963 15.9503 121.29 15.9503V14.7685ZM124.983 15.9503C125.309 15.9503 125.574 15.6857 125.574 15.3594C125.574 15.033 125.309 14.7685 124.983 14.7685V15.9503ZM128.676 14.7685C128.35 14.7685 128.085 15.033 128.085 15.3594C128.085 15.6857 128.35 15.9503 128.676 15.9503V14.7685ZM132.369 15.9503C132.696 15.9503 132.96 15.6857 132.96 15.3594C132.96 15.033 132.696 14.7685 132.369 14.7685V15.9503ZM136.062 14.7685C135.736 14.7685 135.471 15.033 135.471 15.3594C135.471 15.6857 135.736 15.9503 136.062 15.9503V14.7685ZM139.756 15.9503C140.082 15.9503 140.346 15.6857 140.346 15.3594C140.346 15.033 140.082 14.7685 139.756 14.7685V15.9503ZM143.449 14.7685C143.122 14.7685 142.858 15.033 142.858 15.3594C142.858 15.6857 143.122 15.9503 143.449 15.9503V14.7685ZM147.142 15.9503C147.468 15.9503 147.733 15.6857 147.733 15.3594C147.733 15.033 147.468 14.7685 147.142 14.7685V15.9503ZM150.835 14.7685C150.509 14.7685 150.244 15.033 150.244 15.3594C150.244 15.6857 150.509 15.9503 150.835 15.9503V14.7685ZM154.528 15.9503C154.855 15.9503 155.119 15.6857 155.119 15.3594C155.119 15.033 154.855 14.7685 154.528 14.7685V15.9503ZM158.221 14.7685C157.895 14.7685 157.631 15.033 157.631 15.3594C157.631 15.6857 157.895 15.9503 158.221 15.9503V14.7685ZM161.915 15.9503C162.241 15.9503 162.506 15.6857 162.506 15.3594C162.506 15.033 162.241 14.7685 161.915 14.7685V15.9503ZM165.608 14.7685C165.281 14.7685 165.017 15.033 165.017 15.3594C165.017 15.6857 165.281 15.9503 165.608 15.9503V14.7685ZM167.68 15.9949C167.982 16.1199 168.328 15.9769 168.453 15.6754C168.578 15.3739 168.435 15.0282 168.133 14.9032L167.68 15.9949ZM169.092 15.8625C168.967 15.561 168.622 15.418 168.32 15.543C168.019 15.668 167.876 16.0137 168.001 16.3152L169.092 15.8625ZM168.045 19.2003C168.045 19.5266 168.31 19.7912 168.636 19.7912C168.963 19.7912 169.227 19.5266 169.227 19.2003H168.045ZM169.227 24.5185C169.227 24.1921 168.963 23.9276 168.636 23.9276C168.31 23.9276 168.045 24.1921 168.045 24.5185H169.227ZM108.364 15.9503H110.21V14.7685H108.364V15.9503ZM113.903 15.9503H117.596V14.7685H113.903V15.9503ZM121.29 15.9503H124.983V14.7685H121.29V15.9503ZM128.676 15.9503H132.369V14.7685H128.676V15.9503ZM136.062 15.9503H139.756V14.7685H136.062V15.9503ZM143.449 15.9503H147.142V14.7685H143.449V15.9503ZM150.835 15.9503H154.528V14.7685H150.835V15.9503ZM158.221 15.9503H161.915V14.7685H158.221V15.9503ZM165.608 15.9503H167.454V14.7685H165.608V15.9503ZM167.454 15.9503C167.536 15.9503 167.612 15.9663 167.68 15.9949L168.133 14.9032C167.923 14.8162 167.694 14.7685 167.454 14.7685V15.9503ZM168.001 16.3152C168.029 16.384 168.045 16.46 168.045 16.5412H169.227C169.227 16.3019 169.179 16.0723 169.092 15.8625L168.001 16.3152ZM168.045 16.5412V19.2003H169.227V16.5412H168.045ZM168.045 24.5185V27.1776H169.227V24.5185H168.045Z" fill="#BDBDBD"/>
</g>
<defs>
<clipPath id="clip0_6849_5319">
<rect width="220" height="104" fill="white"/>
</clipPath>
</defs>
</svg>
