<svg width="20" height="20" viewBox="0 0 20 20" fill="none" xmlns="http://www.w3.org/2000/svg">
<path fill-rule="evenodd" clip-rule="evenodd" d="M7.85397 2C6.97137 2.00065 6.25708 2.71698 6.25773 3.59967C6.25708 4.48236 6.97203 5.19869 7.85462 5.19935H9.45152V3.60033C9.45217 2.71764 8.73722 2.0013 7.85397 2C7.85462 2 7.85462 2 7.85397 2V2ZM7.85397 6.26667H3.59689C2.7143 6.26732 1.99935 6.98365 2 7.86634C1.9987 8.74903 2.71365 9.46536 3.59624 9.46667H7.85397C8.73657 9.46601 9.45151 8.74968 9.45086 7.86699C9.45151 6.98365 8.73657 6.26732 7.85397 6.26667V6.26667Z" fill="#36C5F0"/>
<path fill-rule="evenodd" clip-rule="evenodd" d="M17.9665 7.86634C17.9671 6.98365 17.2522 6.26732 16.3696 6.26667C15.487 6.26732 14.7721 6.98365 14.7727 7.86634V9.46667H16.3696C17.2522 9.46601 17.9671 8.74968 17.9665 7.86634ZM13.7088 7.86634V3.59967C13.7094 2.71764 12.9951 2.0013 12.1125 2C11.2299 2.00065 10.515 2.71698 10.5156 3.59967V7.86634C10.5143 8.74903 11.2293 9.46536 12.1119 9.46667C12.9945 9.46601 13.7094 8.74968 13.7088 7.86634Z" fill="#2EB67D"/>
<path fill-rule="evenodd" clip-rule="evenodd" d="M12.1115 17.9986C12.9941 17.9979 13.7091 17.2816 13.7084 16.3989C13.7091 15.5162 12.9941 14.7999 12.1115 14.7992H10.5146V16.3989C10.514 17.2809 11.2289 17.9973 12.1115 17.9986ZM12.1115 13.7312H16.3693C17.2519 13.7306 17.9668 13.0143 17.9662 12.1316C17.9675 11.2489 17.2525 10.5326 16.3699 10.5312H12.1122C11.2296 10.5319 10.5146 11.2482 10.5153 12.1309C10.5146 13.0143 11.2289 13.7306 12.1115 13.7312V13.7312Z" fill="#ECB22E"/>
<path fill-rule="evenodd" clip-rule="evenodd" d="M2 12.1309C1.99935 13.0136 2.7143 13.73 3.59689 13.7306C4.47949 13.73 5.19444 13.0136 5.19379 12.1309V10.5312H3.59689C2.7143 10.5319 1.99935 11.2482 2 12.1309ZM6.25773 12.1309V16.3976C6.25643 17.2803 6.97137 17.9966 7.85397 17.9979C8.73657 17.9973 9.45152 17.2809 9.45086 16.3983V12.1322C9.45217 11.2495 8.73722 10.5332 7.85462 10.5319C6.97137 10.5319 6.25708 11.2482 6.25773 12.1309C6.25773 12.1316 6.25773 12.1309 6.25773 12.1309Z" fill="#E01E5A"/>
</svg>
