<svg width="24" height="24" viewBox="0 0 24 24" fill="none" xmlns="http://www.w3.org/2000/svg">
<path d="M12 6V4M12 6C11.4696 6 10.9609 6.21071 10.5858 6.58579C10.2107 6.96086 10 7.46957 10 8C10 8.53043 10.2107 9.03914 10.5858 9.41421C10.9609 9.78929 11.4696 10 12 10M12 6C12.5304 6 13.0391 6.21071 13.4142 6.58579C13.7893 6.96086 14 7.46957 14 8C14 8.53043 13.7893 9.03914 13.4142 9.41421C13.0391 9.78929 12.5304 10 12 10M6 18C6.53043 18 7.03914 17.7893 7.41421 17.4142C7.78929 17.0391 8 16.5304 8 16C8 15.4696 7.78929 14.9609 7.41421 14.5858C7.03914 14.2107 6.53043 14 6 14M6 18C5.46957 18 4.96086 17.7893 4.58579 17.4142C4.21071 17.0391 4 16.5304 4 16C4 15.4696 4.21071 14.9609 4.58579 14.5858C4.96086 14.2107 5.46957 14 6 14M6 18V20M6 14V4M12 10V20M18 18C18.5304 18 19.0391 17.7893 19.4142 17.4142C19.7893 17.0391 20 16.5304 20 16C20 15.4696 19.7893 14.9609 19.4142 14.5858C19.0391 14.2107 18.5304 14 18 14M18 18C17.4696 18 16.9609 17.7893 16.5858 17.4142C16.2107 17.0391 16 16.5304 16 16C16 15.4696 16.2107 14.9609 16.5858 14.5858C16.9609 14.2107 17.4696 14 18 14M18 18V20M18 14V4" stroke="#222222" stroke-width="1.5" stroke-linecap="round" stroke-linejoin="round"/>
</svg>
