<svg width="17" height="18" viewBox="0 0 16 16" fill="none" xmlns="http://www.w3.org/2000/svg">
<path fill-rule="evenodd" clip-rule="evenodd" d="M6.15108 2.03443C5.86472 2.10662 5.56274 2.33447 5.42562 2.58181L5.3581 2.70358H4.6709C3.94459 2.70358 3.84195 2.71535 3.60444 2.82595C3.47041 2.88834 3.24144 3.08875 3.16123 3.21386C3.12569 3.26929 3.07487 3.37848 3.04831 3.4565C3.00167 3.59349 3 3.76177 3 8.35193C3 12.9421 3.00167 13.1104 3.04831 13.2474C3.11485 13.4428 3.20159 13.5698 3.36479 13.7109C3.51933 13.8445 3.63738 13.9064 3.84441 13.9625C3.96987 13.9965 4.38169 14.0002 7.99826 14C12.2949 13.9997 12.1257 14.0042 12.3827 13.8841C12.5282 13.8161 12.7558 13.6195 12.8388 13.49C12.8743 13.4346 12.9251 13.3254 12.9517 13.2474C12.9983 13.1104 13 12.9421 13 8.35193C13 3.76177 12.9983 3.59349 12.9517 3.4565C12.9251 3.37848 12.8743 3.26929 12.8388 3.21386C12.7586 3.08875 12.5296 2.88834 12.3956 2.82595C12.1581 2.71535 12.0554 2.70358 11.3291 2.70358H10.6419L10.5744 2.58181C10.4341 2.3288 10.1339 2.10538 9.83718 2.03317C9.65226 1.98817 6.33013 1.98932 6.15108 2.03443ZM9.73374 2.76363C9.86085 2.85039 9.90731 2.92842 9.90731 3.05514C9.90731 3.18187 9.86085 3.25989 9.73374 3.34665C9.66433 3.39404 9.63246 3.39512 8.09428 3.40208C7.23154 3.40597 6.47613 3.40262 6.41559 3.39463C6.19231 3.36514 6.04341 3.1622 6.10118 2.96613C6.13141 2.86347 6.24149 2.75744 6.34882 2.72758C6.38967 2.71622 7.15205 2.70881 8.043 2.71111C9.63551 2.71523 9.66415 2.71612 9.73374 2.76363ZM5.42526 3.5278C5.50726 3.67573 5.71715 3.88273 5.86595 3.96244C5.92659 3.99492 6.04605 4.04137 6.13141 4.06566C6.27692 4.10705 6.39379 4.10981 8 4.10981C9.60621 4.10981 9.72308 4.10705 9.86859 4.06566C9.95395 4.04137 10.0734 3.99492 10.1341 3.96244C10.2834 3.88245 10.4928 3.67557 10.5755 3.52637L10.6435 3.40384L11.3071 3.41113C12.0377 3.41914 12.0332 3.41828 12.1651 3.57978L12.2179 3.64451V8.35193V13.0593L12.1651 13.1241C12.136 13.1597 12.0804 13.2105 12.0414 13.2371C11.9706 13.2854 11.9703 13.2854 8 13.2854C4.02972 13.2854 4.02938 13.2854 3.95859 13.2371C3.91964 13.2105 3.864 13.1597 3.83492 13.1241L3.78205 13.0594L3.77454 8.43811C3.77041 5.89642 3.77408 3.77159 3.78269 3.71626C3.80156 3.59487 3.91854 3.46304 4.03467 3.43229C4.07905 3.42055 4.395 3.40998 4.73674 3.40881L5.3581 3.4067L5.42526 3.5278ZM6.29487 4.83985C6.26667 4.85387 6.03326 5.05622 5.77621 5.28954L5.30882 5.71373L5.22492 5.64114C5.10969 5.54142 5.04738 5.51601 4.91836 5.51613C4.63838 5.51634 4.44559 5.80324 4.5751 6.02697C4.61856 6.10204 5.06526 6.50729 5.14574 6.54469C5.22408 6.58107 5.39959 6.57711 5.48205 6.5371C5.56528 6.49672 6.77738 5.38549 6.81779 5.31251C6.89749 5.16861 6.82131 4.9493 6.66049 4.85968C6.56826 4.80826 6.37903 4.79802 6.29487 4.83985ZM7.80105 5.56279C7.68418 5.6279 7.61556 5.74066 7.61556 5.86759C7.61556 5.99453 7.68418 6.10729 7.80105 6.17239C7.88215 6.2176 7.93331 6.21899 9.53846 6.21899C11.1436 6.21899 11.1948 6.2176 11.2759 6.17239C11.5235 6.03437 11.5235 5.70082 11.2759 5.56279C11.1948 5.51758 11.1436 5.5162 9.53846 5.5162C7.93331 5.5162 7.88215 5.51758 7.80105 5.56279ZM6.29487 7.67574C6.26667 7.68976 6.03326 7.89211 5.77621 8.12543L5.30882 8.54962L5.22492 8.47703C5.10969 8.37731 5.04738 8.3519 4.91836 8.35202C4.63838 8.35223 4.44559 8.63913 4.5751 8.86286C4.61856 8.93792 5.06526 9.34318 5.14574 9.38058C5.22408 9.41696 5.39959 9.413 5.48205 9.37299C5.56528 9.33261 6.77738 8.22138 6.81779 8.1484C6.89749 8.0045 6.82131 7.78519 6.66049 7.69557C6.56826 7.64415 6.37903 7.63391 6.29487 7.67574ZM7.80105 8.39868C7.68418 8.46379 7.61556 8.57655 7.61556 8.70348C7.61556 8.83042 7.68418 8.94317 7.80105 9.00828C7.88215 9.05349 7.93331 9.05488 9.53846 9.05488C11.1436 9.05488 11.1948 9.05349 11.2759 9.00828C11.5235 8.87026 11.5235 8.53671 11.2759 8.39868C11.1948 8.35347 11.1436 8.35209 9.53846 8.35209C7.93331 8.35209 7.88215 8.35347 7.80105 8.39868ZM6.29487 10.5116C6.26667 10.5256 6.03326 10.728 5.77621 10.9613L5.30882 11.3855L5.22492 11.3129C5.10969 11.2132 5.04738 11.1878 4.91836 11.1879C4.63838 11.1881 4.44559 11.475 4.5751 11.6987C4.61856 11.7738 5.06526 12.1791 5.14574 12.2165C5.22408 12.2528 5.39959 12.2489 5.48205 12.2089C5.56528 12.1685 6.77738 11.0573 6.81779 10.9843C6.89749 10.8404 6.82131 10.6211 6.66049 10.5315C6.56826 10.48 6.37903 10.4698 6.29487 10.5116ZM7.80105 11.2346C7.68418 11.2997 7.61556 11.4124 7.61556 11.5394C7.61556 11.6663 7.68418 11.7791 7.80105 11.8442C7.88215 11.8894 7.93331 11.8908 9.53846 11.8908C11.1436 11.8908 11.1948 11.8894 11.2759 11.8442C11.5235 11.7062 11.5235 11.3726 11.2759 11.2346C11.1948 11.1894 11.1436 11.188 9.53846 11.188C7.93331 11.188 7.88215 11.1894 7.80105 11.2346Z" fill="#222222"/>
</svg>
