<svg width="17" height="18" viewBox="0 0 17 18" fill="none" xmlns="http://www.w3.org/2000/svg">
<path fill-rule="evenodd" clip-rule="evenodd" d="M5.1589 2.05935C4.99784 2.16983 4.9644 2.25311 4.9644 2.54359V2.80233H4.62581C4.23621 2.80233 4.08423 2.83348 3.81095 2.96935C3.55784 3.09519 3.28786 3.37003 3.16423 3.6277C2.98824 3.99454 3.00017 3.64754 3.00017 8.40108C3.00017 13.1546 2.98824 12.8076 3.16423 13.1745C3.28786 13.4321 3.55784 13.707 3.81095 13.8328C4.17131 14.012 3.83045 13.9998 8.5 13.9998C13.1696 13.9998 12.8287 14.012 13.189 13.8328C13.4422 13.707 13.7121 13.4321 13.8358 13.1745C14.0118 12.8076 13.9998 13.1546 13.9998 8.40108C13.9998 3.64754 14.0118 3.99454 13.8358 3.6277C13.7121 3.37003 13.4422 3.09519 13.189 2.96935C12.9158 2.83348 12.7638 2.80233 12.3742 2.80233H12.0356V2.54359C12.0356 2.31584 12.0289 2.27473 11.9798 2.20052C11.8037 1.93458 11.4818 1.93458 11.3057 2.20052C11.2566 2.27473 11.2499 2.31584 11.2499 2.54359V2.80233H10.0714H8.89285V2.54359C8.89285 2.31584 8.88617 2.27473 8.83701 2.20052C8.66097 1.93458 8.33903 1.93458 8.16299 2.20052C8.11383 2.27473 8.10716 2.31584 8.10716 2.54359V2.80233H6.92862H5.75009V2.54359C5.75009 2.31584 5.74341 2.27473 5.69425 2.20052C5.56395 2.00366 5.32999 1.94198 5.1589 2.05935ZM4.9644 3.8609C4.9644 4.08865 4.97107 4.12976 5.02023 4.20397C5.19627 4.46991 5.51821 4.46991 5.69425 4.20397C5.74341 4.12976 5.75009 4.08865 5.75009 3.8609V3.60215H6.92862H8.10716V3.8609C8.10716 4.08865 8.11383 4.12976 8.16299 4.20397C8.33903 4.46991 8.66097 4.46991 8.83701 4.20397C8.88617 4.12976 8.89285 4.08865 8.89285 3.8609V3.60215H10.0714H11.2499V3.8609C11.2499 4.08865 11.2566 4.12976 11.3057 4.20397C11.4818 4.46991 11.8037 4.46991 11.9798 4.20397C12.029 4.12961 12.0356 4.08875 12.0356 3.8584V3.59713L12.3487 3.6069C12.6095 3.61505 12.6831 3.62635 12.79 3.67474C12.9475 3.74597 13.0928 3.90174 13.1551 4.06603C13.2004 4.18572 13.2019 4.31879 13.2019 8.40108C13.2019 12.4834 13.2004 12.6164 13.1551 12.7361C13.093 12.8998 12.948 13.0557 12.79 13.1284L12.6617 13.1875H8.5H4.3383L4.20996 13.1284C4.05201 13.0557 3.90695 12.8998 3.84493 12.7361C3.79956 12.6164 3.79814 12.4834 3.79814 8.40108C3.79814 4.33002 3.79968 4.18542 3.84457 4.06695C3.87013 3.99954 3.93006 3.90041 3.97777 3.84665C4.13925 3.66469 4.31065 3.6061 4.68818 3.60383L4.9644 3.60215V3.8609ZM7.17415 6.02924C7.14039 6.04268 6.89459 6.27523 6.62792 6.54597L6.14308 7.03826L5.85451 6.7476C5.6958 6.58774 5.5418 6.44447 5.51232 6.42925C5.4828 6.414 5.40546 6.40158 5.34045 6.40163C5.1194 6.4018 4.96467 6.55917 4.96449 6.78394C4.96444 6.8499 4.98023 6.93426 4.99958 6.9714C5.04174 7.05231 5.91127 7.93401 5.98785 7.9735C6.06281 8.01217 6.2309 8.00799 6.30989 7.9655C6.34635 7.94588 6.67091 7.62815 7.03113 7.25941C7.73491 6.53897 7.74301 6.5276 7.7038 6.31477C7.66184 6.0871 7.39286 5.94211 7.17415 6.02924ZM8.69451 6.85828C8.56725 6.94556 8.5 7.06418 8.5 7.20135C8.5 7.33852 8.56725 7.45714 8.69451 7.54442L8.77735 7.60126H10.2678H11.7583L11.8411 7.54442C12.1023 7.36521 12.1023 7.03749 11.8411 6.85828L11.7583 6.80144H10.2678H8.77735L8.69451 6.85828ZM7.17415 9.62843C7.14039 9.64188 6.89459 9.87443 6.62792 10.1452L6.14308 10.6375L5.85451 10.3468C5.6958 10.1869 5.5418 10.0437 5.51232 10.0284C5.4828 10.0132 5.40546 10.0008 5.34045 10.0008C5.1194 10.001 4.96467 10.1584 4.96449 10.3831C4.96444 10.4491 4.98023 10.5335 4.99958 10.5706C5.04174 10.6515 5.91127 11.5332 5.98785 11.5727C6.06281 11.6114 6.2309 11.6072 6.30989 11.5647C6.34635 11.5451 6.67091 11.2273 7.03113 10.8586C7.73491 10.1382 7.74301 10.1268 7.7038 9.91397C7.66184 9.68629 7.39286 9.5413 7.17415 9.62843ZM8.69451 10.4575C8.43327 10.6367 8.43327 10.9644 8.69451 11.1436L8.77735 11.2005H10.2678H11.7583L11.8411 11.1436C12.1023 10.9644 12.1023 10.6367 11.8411 10.4575L11.7583 10.4006H10.2678H8.77735L8.69451 10.4575Z" fill="#222222"/>
</svg>
