<svg width="104" height="104" viewBox="0 0 104 104" fill="none" xmlns="http://www.w3.org/2000/svg">
<rect width="104" height="104" fill="white"/>
<path d="M94 16.5666V75.4333C94 76.9185 92.8233 78 91.5491 78H12.4502C11.0785 78 10 76.8176 10 75.4333V16.5666C10 15.1895 11.176 14 12.4502 14H91.4516C92.9215 14 94 15.1895 94 16.5666Z" fill="white" stroke="#222222" stroke-width="1.43688" stroke-miterlimit="10"/>
<path d="M94 16.5666V67.2504H10V16.5666C10 15.1895 11.176 14 12.4502 14H91.4516C92.9215 14 94 15.1895 94 16.5666Z" fill="white" stroke="#222222" stroke-width="1.43688" stroke-miterlimit="10"/>
<path d="M51.8531 74.4893C53.0291 74.4893 53.9113 73.6025 53.9113 72.4201C53.9113 71.2377 53.0291 70.3438 51.8531 70.3438C50.6764 70.3438 49.7949 71.2377 49.7949 72.4201C49.7949 73.6025 50.6764 74.4893 51.8531 74.4893Z" fill="#D6DCE8"/>
<path d="M86.2566 25.9339V31.9541C86.2566 32.8408 85.57 33.5329 84.6878 33.5329H18.8216C17.9395 33.5329 17.2529 32.8408 17.2529 31.9541V25.9339C17.2529 25.0471 17.9395 24.3623 18.8216 24.3623H84.5904C85.57 24.2613 86.2566 25.0471 86.2566 25.9339Z" fill="#E6E6E6"/>
<path opacity="0.8" d="M86.2566 38.5552V44.5681C86.2566 45.4549 85.57 46.147 84.6878 46.147H18.8216C17.9395 46.147 17.2529 45.4549 17.2529 44.5681V38.5552C17.2529 37.6684 17.9395 36.9764 18.8216 36.9764H84.5904C85.57 36.8826 86.2566 37.6684 86.2566 38.5552Z" fill="#E6E6E6"/>
<path opacity="0.5" d="M86.2566 51.1804V57.1933C86.2566 58.08 85.57 58.7722 84.6878 58.7722H18.8216C17.9395 58.7722 17.2529 58.08 17.2529 57.1933V51.1804C17.2529 50.2936 17.9395 49.6016 18.8216 49.6016H84.5904C85.57 49.5006 86.2566 50.1927 86.2566 51.1804Z" fill="#E6E6E6"/>
<path opacity="0.3" d="M86.2566 63.6532V66.5082H17.1548V63.6532C17.1548 62.7664 17.8413 62.0742 18.7235 62.0742H84.5904C85.57 62.0742 86.2566 62.7664 86.2566 63.6532Z" fill="#E6E6E6"/>
<path d="M16.0773 20.9064C16.5674 20.9064 16.9594 20.5098 16.9594 20.0196C16.9594 19.5221 16.5674 19.1328 16.0773 19.1328C15.5871 19.1328 15.1951 19.5221 15.1951 20.0196C15.1951 20.5098 15.5871 20.9064 16.0773 20.9064Z" fill="#BDBDBD"/>
<path d="M18.919 20.9064C19.4092 20.9064 19.8012 20.5098 19.8012 20.0196C19.8012 19.5221 19.4092 19.1328 18.919 19.1328C18.4296 19.1328 18.0369 19.5221 18.0369 20.0196C18.0369 20.5098 18.4296 20.9064 18.919 20.9064Z" fill="#BDBDBD"/>
<path d="M21.7621 20.9064C22.2522 20.9064 22.6442 20.5098 22.6442 20.0196C22.6442 19.5221 22.2522 19.1328 21.7621 19.1328C21.2719 19.1328 20.8799 19.5221 20.8799 20.0196C20.8799 20.5098 21.2719 20.9064 21.7621 20.9064Z" fill="#BDBDBD"/>
<path d="M34.5962 85.2818L48.829 63.5328C50.3779 61.4891 53.6211 61.4891 55.17 63.5328L69.4028 85.2818C70.903 87.233 69.4028 90 66.8373 90H37.2105C34.5961 89.9495 33.096 87.233 34.5962 85.2818Z" fill="white" stroke="#BDBDBD" stroke-width="2" stroke-miterlimit="10"/>
<path d="M48.8202 71.6639L48.8211 71.6723L48.822 71.6808L49.5738 79.7715C49.6583 80.991 50.722 82.0002 51.9999 82.0002C53.2779 82.0002 54.3416 80.991 54.4261 79.7715L55.1778 71.6808L55.1787 71.6639L55.1796 71.6555C55.3129 69.7968 53.8895 68.2578 51.9999 68.2578C50.1 68.2578 48.6869 69.8641 48.8202 71.6639Z" fill="#E96560" stroke="white" stroke-width="2"/>
<path d="M52 81.8242C50.4886 81.8242 49.3203 83.0268 49.3203 84.465C49.3203 85.9031 50.4886 87.1058 52 87.1058C53.5114 87.1058 54.6796 85.9031 54.6796 84.465C54.6796 83.0268 53.5114 81.8242 52 81.8242Z" fill="#E96560" stroke="white" stroke-width="2"/>
</svg>
