<svg width="48" height="45" viewBox="0 0 48 45" fill="none" xmlns="http://www.w3.org/2000/svg">
<g clip-path="url(#clip0)">
<path d="M37.5614 23.4891C31.7952 23.4891 27.1217 28.1627 27.1217 33.9278C27.1217 39.6935 31.7952 44.368 37.5614 44.368C43.3265 44.368 48 39.6935 48 33.9278C48 28.1627 43.3265 23.4891 37.5614 23.4891ZM10.4392 23.4897C4.67403 23.4902 3.05176e-05 28.1627 3.05176e-05 33.9283C3.05176e-05 39.6935 4.67403 44.3675 10.4392 44.3675C16.2048 44.3675 20.8789 39.6935 20.8789 33.9283C20.8789 28.1626 16.2048 23.4897 10.4387 23.4897H10.4392ZM34.4392 10.4402C34.4392 16.2053 29.7657 20.8803 24.0006 20.8803C18.2344 20.8803 13.5609 16.2053 13.5609 10.4402C13.5609 4.67498 18.2344 0.000976562 24.0005 0.000976562C29.7657 0.000976562 34.4387 4.67498 34.4387 10.4402H34.4392Z" fill="url(#paint0_radial)"/>
</g>
<defs>
<radialGradient id="paint0_radial" cx="0" cy="0" r="1" gradientUnits="userSpaceOnUse" gradientTransform="translate(24.0065 24.2762) scale(31.824 29.4153)">
<stop stop-color="#FFB900"/>
<stop offset="0.6" stop-color="#F95D8F"/>
<stop offset="0.999" stop-color="#F95353"/>
</radialGradient>
<clipPath id="clip0">
<rect width="48" height="44.3712" fill="white"/>
</clipPath>
</defs>
</svg>
