<svg width="48" height="48" viewBox="0 0 48 48" fill="none" xmlns="http://www.w3.org/2000/svg">
<path d="M45 20.9998C44.772 20.8681 44.5133 20.7988 44.25 20.7988C43.9867 20.7988 43.728 20.8681 43.5 20.9998L24 32.0248L4.50001 20.9998C4.27154 20.8679 4.01233 20.7986 3.74852 20.7988C3.48471 20.7991 3.22563 20.8689 2.99742 21.0013C2.76922 21.1336 2.57996 21.3238 2.44873 21.5527C2.31751 21.7816 2.24896 22.041 2.25001 22.3048V35.2498C2.25001 36.4433 2.72412 37.5879 3.56803 38.4318C4.41195 39.2757 5.55654 39.7498 6.75001 39.7498H41.25C42.4435 39.7498 43.5881 39.2757 44.432 38.4318C45.2759 37.5879 45.75 36.4433 45.75 35.2498V22.3123C45.7524 22.0467 45.6842 21.7853 45.5524 21.5547C45.4207 21.3241 45.23 21.1326 45 20.9998Z" fill="#0597F2"/>
<path d="M41.25 8.25H6.75001C5.55654 8.25 4.41195 8.72411 3.56803 9.56802C2.72412 10.4119 2.25001 11.5565 2.25001 12.75V15.5625C2.24896 15.8268 2.31777 16.0867 2.44948 16.3159C2.58118 16.545 2.77111 16.7353 3.00001 16.8675L23.25 28.305C23.478 28.4367 23.7367 28.506 24 28.506C24.2633 28.506 24.522 28.4367 24.75 28.305L45 16.8675C45.2289 16.7353 45.4188 16.545 45.5505 16.3159C45.6822 16.0867 45.7511 15.8268 45.75 15.5625V12.75C45.75 11.5565 45.2759 10.4119 44.432 9.56802C43.5881 8.72411 42.4435 8.25 41.25 8.25Z" fill="#0597F2"/>
</svg>
