<svg width="48" height="37" viewBox="0 0 48 37" fill="none" xmlns="http://www.w3.org/2000/svg">
<path d="M3.27281 36.7232H10.9091V18.1779L0 9.99609V33.4506C0 35.2587 1.46456 36.7234 3.27281 36.7234V36.7232Z" fill="#4285F4"/>
<path d="M37.0909 36.7234H44.7272C46.5354 36.7234 47.9999 35.2588 47.9999 33.4507V9.99609L37.0909 18.1779V36.7234Z" fill="#34A853"/>
<path d="M37.0909 3.99636V18.1782L47.9999 9.99636V5.63277C47.9999 1.5882 43.3828 -0.721796 40.1454 1.70549L37.0909 3.99636Z" fill="#FBBC04"/>
<path fill-rule="evenodd" clip-rule="evenodd" d="M10.9091 18.1789V3.99707L24 13.8153L37.0909 3.99707V18.1789L24 27.9971L10.9091 18.1789Z" fill="#EA4335"/>
<path d="M0 5.63277V9.99636L10.9091 18.1782V3.99636L7.85456 1.70549C4.61719 -0.721791 0 1.58821 0 5.63258V5.63277Z" fill="#C5221F"/>
</svg>
