<svg width="48" height="48" viewBox="0 0 48 48" fill="none" xmlns="http://www.w3.org/2000/svg">
<path d="M3.27281 42.7232H10.9091V24.1779L0 15.9961V39.4506C0 41.2587 1.46456 42.7234 3.27281 42.7234V42.7232Z" fill="#4285F4"/>
<path d="M37.0909 42.7234H44.7272C46.5354 42.7234 47.9999 41.2588 47.9999 39.4507V15.9961L37.0909 24.1779V42.7234Z" fill="#34A853"/>
<path d="M37.0909 9.99636V24.1782L47.9999 15.9964V11.6328C47.9999 7.5882 43.3828 5.2782 40.1454 7.70549L37.0909 9.99636Z" fill="#FBBC04"/>
<path fill-rule="evenodd" clip-rule="evenodd" d="M10.9091 24.1789V9.99707L24 19.8153L37.0909 9.99707V24.1789L24 33.9971L10.9091 24.1789Z" fill="#EA4335"/>
<path d="M0 11.6328V15.9964L10.9091 24.1782V9.99636L7.85456 7.70549C4.61719 5.27821 0 7.58821 0 11.6326V11.6328Z" fill="#C5221F"/>
</svg>
