<svg width="104" height="104" viewBox="0 0 104 104" fill="none" xmlns="http://www.w3.org/2000/svg">
<g clip-path="url(#clip0)">
<path d="M104 0H0V104H104V0Z" fill="white"/>
<path d="M88.9196 19.1631C92.3054 28.7588 82.3699 35.6552 86.664 50.5434C91.0089 65.6095 104.154 68.8404 102.555 77.8006C101.127 85.8155 89.1045 91.6973 79.7191 92.6611C68.3092 93.8305 64.6576 87.3455 55.0572 89.8877C45.4107 92.4577 45.3714 100.008 37.6153 101.889C23.8688 105.233 1.80233 86.8971 2.85619 71.3434C3.69281 58.9951 18.5024 57.0145 19.7943 44.0723C21.4537 27.4646 -1.73367 19.0337 0.843216 10.2561C5.2713 -4.79388 80.5696 -4.50036 88.9196 19.1631Z" fill="#F5F5F5"/>
<path d="M55.3324 1.31333L54.2115 2.43422L55.3324 3.55511C55.4053 3.65031 55.4411 3.76873 55.4332 3.88834C55.4252 4.00796 55.3741 4.12063 55.2894 4.20539C55.2046 4.29016 55.0919 4.34125 54.9723 4.34917C54.8527 4.35709 54.7343 4.32129 54.6391 4.24844L53.5182 3.12756L52.5383 4.10978C52.4963 4.16838 52.442 4.21713 52.3793 4.25266C52.3166 4.2882 52.2469 4.30965 52.175 4.31554C52.1032 4.32142 52.0309 4.3116 51.9632 4.28676C51.8955 4.26192 51.8341 4.22264 51.7831 4.17166C51.7321 4.12068 51.6928 4.05922 51.668 3.99154C51.6431 3.92386 51.6333 3.85158 51.6392 3.77973C51.6451 3.70787 51.6665 3.63816 51.7021 3.57543C51.7376 3.51269 51.7864 3.45844 51.845 3.41644L52.8249 2.43653L51.7063 1.31565C51.6334 1.22045 51.5977 1.10203 51.6056 0.982413C51.6135 0.862799 51.6646 0.750132 51.7493 0.665367C51.8341 0.580602 51.9468 0.529508 52.0664 0.521589C52.186 0.513669 52.3044 0.549464 52.3996 0.622314L53.5182 1.7432L54.6391 0.622314C54.7343 0.549464 54.8527 0.513669 54.9723 0.521589C55.0919 0.529508 55.2046 0.580602 55.2894 0.665367C55.3741 0.750132 55.4252 0.862799 55.4332 0.982413C55.4411 1.10203 55.4053 1.22045 55.3324 1.31565V1.31333Z" fill="#C1C1C1"/>
<path opacity="0.79" d="M94.4849 81.7159L93.3686 82.8368L94.3486 83.8167C94.4045 83.8596 94.4507 83.9138 94.4839 83.9759C94.5172 84.038 94.5368 84.1065 94.5415 84.1768C94.5461 84.2471 94.5357 84.3176 94.5109 84.3836C94.4861 84.4495 94.4475 84.5094 94.3977 84.5592C94.3479 84.609 94.288 84.6476 94.2221 84.6724C94.1561 84.6972 94.0856 84.7077 94.0153 84.703C93.945 84.6983 93.8765 84.6787 93.8144 84.6454C93.7523 84.6122 93.698 84.566 93.6552 84.5101L92.6753 83.5371L91.6931 84.517C91.5979 84.5898 91.4795 84.6256 91.3599 84.6177C91.2402 84.6098 91.1276 84.5587 91.0428 84.4739C90.958 84.3892 90.9069 84.2765 90.899 84.1569C90.8911 84.0373 90.9269 83.9189 90.9998 83.8237L91.982 82.8438L90.8611 81.7229C90.7882 81.6277 90.7524 81.5093 90.7604 81.3896C90.7683 81.27 90.8194 81.1574 90.9041 81.0726C90.9889 80.9878 91.1016 80.9367 91.2212 80.9288C91.3408 80.9209 91.4592 80.9567 91.5544 81.0295L92.6753 82.1481L93.7939 81.0295C93.8896 80.9609 94.0066 80.9286 94.1239 80.9382C94.2413 80.9478 94.3514 80.9988 94.4347 81.0821C94.518 81.1653 94.569 81.2755 94.5786 81.3928C94.5882 81.5102 94.5558 81.6272 94.4872 81.7229L94.4849 81.7159Z" fill="#BDBDBD"/>
<path d="M5.15809 31.8314L12.0614 34.4037C12.2584 34.477 12.4327 34.6009 12.5666 34.763C12.7005 34.9251 12.7894 35.1195 12.8243 35.3269C12.8592 35.5342 12.8389 35.7471 12.7654 35.944C12.692 36.141 12.5679 36.3152 12.4057 36.449L6.72502 41.1382C6.56305 41.2717 6.36886 41.3602 6.16191 41.3949C5.95496 41.4296 5.74253 41.4093 5.54589 41.336C5.34926 41.2627 5.17534 41.1391 5.04157 40.9774C4.90779 40.8157 4.81886 40.6217 4.78369 40.4149L3.5588 33.151C3.52245 32.9435 3.54204 32.7301 3.61557 32.5327C3.68909 32.3353 3.81388 32.161 3.97711 32.0278C4.13895 31.8935 4.33343 31.8044 4.54084 31.7695C4.74824 31.7346 4.96119 31.7551 5.15809 31.8291V31.8314ZM6.21889 40.5258L11.8973 35.8342C11.9541 35.79 11.9978 35.7312 12.024 35.6641C12.0501 35.5971 12.0577 35.5242 12.0458 35.4532C12.034 35.3822 12.0032 35.3157 11.9567 35.2607C11.9103 35.2058 11.8498 35.1644 11.7817 35.1409L4.87844 32.5871C4.81266 32.5633 4.74181 32.5571 4.67289 32.5691C4.60397 32.5811 4.53936 32.6108 4.48545 32.6554C4.43154 32.7 4.39019 32.7578 4.36549 32.8233C4.34078 32.8887 4.33357 32.9595 4.34458 33.0286L5.56946 40.2924C5.581 40.3615 5.61059 40.4263 5.65523 40.4803C5.69987 40.5342 5.75799 40.5755 5.82368 40.5998C5.88938 40.6258 5.96098 40.6334 6.03067 40.6216C6.10036 40.6098 6.16547 40.579 6.21889 40.5327V40.5258Z" fill="#7A7A7A"/>
<path d="M60.7817 77.9814C60.8299 79.0423 60.6625 80.1018 60.2898 81.0962C59.917 82.0905 59.3466 82.999 58.6129 83.7667C57.8793 84.5344 56.9976 85.1455 56.0212 85.563C55.0448 85.9804 53.9939 86.1957 52.932 86.1957C51.8701 86.1957 50.8192 85.9804 49.8428 85.563C48.8664 85.1455 47.9847 84.5344 47.2511 83.7667C46.5174 82.999 45.947 82.0905 45.5742 81.0962C45.2015 80.1018 45.0341 79.0423 45.0823 77.9814H60.7817Z" fill="#BDBDBD"/>
<path d="M52.9242 86.5242C51.1903 86.5185 49.4989 85.988 48.0724 85.0024C46.6459 84.0169 45.5512 82.6226 44.9323 81.003C44.5639 80.0385 44.3744 79.0149 44.373 77.9824C44.373 77.7985 44.4461 77.6222 44.5761 77.4921C44.7061 77.3621 44.8825 77.2891 45.0664 77.2891H60.7819C60.9658 77.2891 61.1422 77.3621 61.2722 77.4921C61.4022 77.6222 61.4753 77.7985 61.4753 77.9824C61.4772 79.0161 61.29 80.0414 60.9229 81.0076C60.3024 82.6271 59.2061 84.0208 57.7785 85.0055C56.3508 85.9901 54.6585 86.5196 52.9242 86.5242ZM45.8013 78.6665C45.8607 79.2956 46.0053 79.9137 46.2312 80.5038C46.7485 81.8601 47.6655 83.0273 48.8609 83.8508C50.0563 84.6743 51.4737 85.1152 52.9253 85.1152C54.3769 85.1152 55.7943 84.6743 56.9897 83.8508C58.1851 83.0273 59.1022 81.8601 59.6194 80.5038C59.8461 79.9099 59.9907 79.2879 60.0493 78.6549L45.8013 78.6665Z" fill="#222222"/>
<path opacity="0.1" d="M60.7824 77.9814C60.7834 78.9289 60.6119 79.8687 60.2763 80.7548C57.8866 80.7548 55.4091 80.7548 52.9315 80.7548H45.5891C45.2533 79.8688 45.0818 78.929 45.083 77.9814H60.7824Z" fill="#BDBDBD"/>
<path d="M82.085 65.0602C77.5529 61.1614 75.3111 55.5546 74.1856 43.2179C72.9353 29.476 64.0375 21.9141 52.9234 21.9141C41.8092 21.9141 32.8421 29.7718 31.6195 43.2179C30.4987 55.5523 28.2569 61.159 23.7248 65.0579C21.5731 66.9068 21.0069 68.788 21.2658 72.1299C21.8713 75.689 23.4706 77.6465 26.0128 77.9793C26.0128 77.9793 39.4496 77.9678 52.9234 77.9793C66.3971 77.9909 79.7947 77.9793 79.7947 77.9793C82.3369 77.6465 83.9385 75.689 84.5417 72.1299C84.8005 68.7903 84.2366 66.9114 82.085 65.0602Z" fill="white"/>
<path d="M79.7954 78.9059C79.6614 78.9059 66.2454 78.8943 52.9264 78.9059C39.6075 78.9174 26.1499 78.9059 26.0159 78.9059C25.9759 78.9093 25.9357 78.9093 25.8957 78.9059C23.8342 78.6378 21.1995 77.2742 20.349 72.2961C20.349 72.2684 20.349 72.2406 20.3375 72.2129C20.0509 68.4851 20.7997 66.3565 23.1108 64.3667C27.5782 60.5256 29.6304 54.7732 30.6889 43.146C31.2967 36.4646 33.7927 30.8348 37.9088 26.8689C41.8932 23.0301 47.0816 21.001 52.9126 21.001C65.1615 21.001 73.8767 29.6931 75.0992 43.146C76.1554 54.7732 78.21 60.5256 82.6774 64.3667C84.9885 66.3565 85.7419 68.4851 85.4507 72.2129C85.4507 72.2406 85.4507 72.2684 85.4507 72.2961C84.6048 77.2742 81.9725 78.6378 79.904 78.9059C79.8679 78.9087 79.8316 78.9087 79.7954 78.9059ZM39.9958 77.057C43.9824 77.057 48.4614 77.057 52.9264 77.057C65.7762 77.057 78.7184 77.057 79.7353 77.057C81.8153 76.7588 83.0934 75.1087 83.6272 72.0188C83.8583 68.8826 83.3407 67.3572 81.4848 65.7603C76.6015 61.561 74.3759 55.4666 73.2619 43.3055C72.1063 30.6822 64.3202 22.8406 52.9241 22.8406C41.6713 22.8406 33.6703 30.874 32.5401 43.3055C31.4354 55.4758 29.2098 61.5633 24.3287 65.7603C22.4799 67.3572 21.9483 68.8826 22.1863 72.0188C22.7179 75.1087 23.9913 76.7588 26.0759 77.057C26.7415 77.0547 32.5008 77.0523 39.9958 77.0523V77.057Z" fill="#222222"/>
<path opacity="0.07" d="M83.7196 72.0596C83.9669 68.8241 83.396 67.1716 81.4662 65.5099C76.6591 61.3754 74.4636 55.3411 73.3658 43.2747C72.2102 30.6607 64.1052 22.5117 52.6929 22.5117C52.2122 22.5117 51.7315 22.5279 51.2554 22.5579C59.3882 25.3937 64.6806 32.8909 65.6143 43.1661C66.6797 54.8904 68.7644 60.7005 73.3034 64.6063C75.5544 66.543 76.2501 68.5236 75.9681 72.1775V72.233C75.566 74.6042 74.734 76.3259 73.4883 77.3821H79.5249C81.7875 77.0724 83.1603 75.3414 83.7196 72.0596Z" fill="#F5F5F5"/>
<path d="M81.892 66.0403H23.652C23.4068 66.0403 23.1717 65.9429 22.9983 65.7695C22.8249 65.5962 22.7275 65.361 22.7275 65.1158C22.7275 64.8707 22.8249 64.6355 22.9983 64.4622C23.1717 64.2888 23.4068 64.1914 23.652 64.1914H81.892C82.1372 64.1914 82.3723 64.2888 82.5457 64.4622C82.719 64.6355 82.8164 64.8707 82.8164 65.1158C82.8164 65.361 82.719 65.5962 82.5457 65.7695C82.3723 65.9429 82.1372 66.0403 81.892 66.0403Z" fill="#222222"/>
<path d="M71.9325 37.6706C76.4642 37.6706 80.1379 33.9969 80.1379 29.4652C80.1379 24.9335 76.4642 21.2598 71.9325 21.2598C67.4007 21.2598 63.7271 24.9335 63.7271 29.4652C63.7271 33.9969 67.4007 37.6706 71.9325 37.6706Z" fill="#9096FE"/>
<path d="M71.9333 38.3831H71.9335C74.2975 38.3806 76.564 37.4404 78.2356 35.7688C79.9072 34.0972 80.8474 31.8307 80.8499 29.4667V29.4665C80.8499 27.7029 80.327 25.979 79.3472 24.5126C78.3674 23.0463 76.9748 21.9034 75.3455 21.2285C73.7162 20.5537 71.9234 20.3771 70.1937 20.7211C68.464 21.0652 66.8753 21.9144 65.6282 23.1614C64.3812 24.4085 63.532 25.9973 63.1879 27.7269C62.8439 29.4566 63.0205 31.2494 63.6953 32.8787C64.3702 34.508 65.5131 35.9006 66.9794 36.8804C68.4458 37.8602 70.1697 38.3831 71.9333 38.3831ZM67.7697 23.2353C69.0021 22.4118 70.4509 21.9723 71.9331 21.9723C73.92 21.9747 75.8248 22.765 77.2298 24.17C78.6347 25.575 79.4251 27.4798 79.4275 29.4668C79.4274 30.9489 78.9879 32.3977 78.1644 33.63C77.341 34.8624 76.1705 35.823 74.8012 36.3902C73.4318 36.9574 71.925 37.1058 70.4712 36.8167C69.0175 36.5275 67.6822 35.8137 66.6341 34.7657C65.586 33.7176 64.8722 32.3822 64.5831 30.9285C64.2939 29.4748 64.4423 27.968 65.0095 26.5986C65.5768 25.2292 66.5373 24.0588 67.7697 23.2353Z" fill="#222222" stroke="#222222" stroke-width="0.5"/>
<path d="M58.5302 22.6102C58.3463 22.6102 58.17 22.5371 58.0399 22.4071C57.9099 22.2771 57.8369 22.1007 57.8369 21.9168C57.8511 21.2628 57.7345 20.6125 57.494 20.0041C57.2535 19.3957 56.8939 18.8414 56.4364 18.3739C55.9788 17.9063 55.4325 17.5348 54.8295 17.2811C54.2264 17.0275 53.5788 16.8969 52.9246 16.8969C52.2704 16.8969 51.6228 17.0275 51.0197 17.2811C50.4167 17.5348 49.8704 17.9063 49.4128 18.3739C48.9553 18.8414 48.5957 19.3957 48.3552 20.0041C48.1147 20.6125 47.9981 21.2628 48.0123 21.9168C48.0123 22.1007 47.9393 22.2771 47.8093 22.4071C47.6792 22.5371 47.5029 22.6102 47.319 22.6102C47.1351 22.6102 46.9588 22.5371 46.8287 22.4071C46.6987 22.2771 46.6257 22.1007 46.6257 21.9168C46.6096 21.0795 46.7607 20.2474 47.07 19.4691C47.3794 18.6908 47.8408 17.9821 48.4273 17.3842C49.0138 16.7864 49.7136 16.3115 50.4858 15.9873C51.258 15.6631 52.0871 15.4961 52.9246 15.4961C53.7621 15.4961 54.5912 15.6631 55.3634 15.9873C56.1356 16.3115 56.8354 16.7864 57.4219 17.3842C58.0084 17.9821 58.4698 18.6908 58.7792 19.4691C59.0885 20.2474 59.2396 21.0795 59.2235 21.9168C59.2235 22.1007 59.1505 22.2771 59.0205 22.4071C58.8904 22.5371 58.7141 22.6102 58.5302 22.6102Z" fill="#222222"/>
<path d="M68.4446 74.3574H53.769C53.5851 74.3574 53.4088 74.2843 53.2788 74.1543C53.1487 74.0243 53.0757 73.8479 53.0757 73.664C53.0757 73.4802 53.1487 73.3038 53.2788 73.1738C53.4088 73.0438 53.5851 72.9707 53.769 72.9707H68.4446C68.6285 72.9707 68.8048 73.0438 68.9348 73.1738C69.0649 73.3038 69.1379 73.4802 69.1379 73.664C69.1379 73.8479 69.0649 74.0243 68.9348 74.1543C68.8048 74.2843 68.6285 74.3574 68.4446 74.3574Z" fill="#222222"/>
<path d="M72.7103 74.3574H71.8759C71.6921 74.3574 71.5157 74.2843 71.3857 74.1543C71.2557 74.0243 71.1826 73.8479 71.1826 73.664C71.1826 73.4802 71.2557 73.3038 71.3857 73.1738C71.5157 73.0438 71.6921 72.9707 71.8759 72.9707H72.7056C72.8895 72.9707 73.0659 73.0438 73.1959 73.1738C73.3259 73.3038 73.399 73.4802 73.399 73.664C73.399 73.8479 73.3259 74.0243 73.1959 74.1543C73.0659 74.2843 72.8895 74.3574 72.7056 74.3574H72.7103Z" fill="#222222"/>
<path d="M78.199 74.3574H75.9873C75.8034 74.3574 75.627 74.2843 75.497 74.1543C75.367 74.0243 75.2939 73.8479 75.2939 73.664C75.2939 73.4802 75.367 73.3038 75.497 73.1738C75.627 73.0438 75.8034 72.9707 75.9873 72.9707H78.199C78.3829 72.9707 78.5592 73.0438 78.6892 73.1738C78.8193 73.3038 78.8923 73.4802 78.8923 73.664C78.8923 73.8479 78.8193 74.0243 78.6892 74.1543C78.5592 74.2843 78.3829 74.3574 78.199 74.3574Z" fill="#222222"/>
<path d="M69.442 15.8912C69.1969 15.8912 68.9617 15.7938 68.7883 15.6205C68.615 15.4471 68.5176 15.212 68.5176 14.9668V8.40784C68.5176 8.16266 68.615 7.92753 68.7883 7.75416C68.9617 7.5808 69.1969 7.4834 69.442 7.4834C69.6872 7.4834 69.9224 7.5808 70.0957 7.75416C70.2691 7.92753 70.3665 8.16266 70.3665 8.40784V14.9668C70.3665 15.212 70.2691 15.4471 70.0957 15.6205C69.9224 15.7938 69.6872 15.8912 69.442 15.8912Z" fill="#222222"/>
<path d="M81.5033 20.906C81.3204 20.9061 81.1415 20.852 80.9893 20.7504C80.8372 20.6488 80.7186 20.5044 80.6485 20.3354C80.5785 20.1664 80.5602 19.9804 80.5959 19.801C80.6317 19.6216 80.7198 19.4568 80.8492 19.3275L85.5015 14.6752C85.675 14.5017 85.9102 14.4043 86.1556 14.4043C86.4009 14.4043 86.6361 14.5017 86.8096 14.6752C86.9831 14.8487 87.0805 15.0839 87.0805 15.3293C87.0805 15.5746 86.9831 15.8098 86.8096 15.9833L82.1573 20.6356C82.0714 20.7214 81.9694 20.7894 81.8572 20.8358C81.745 20.8822 81.6247 20.9061 81.5033 20.906Z" fill="#222222"/>
<path d="M93.0788 32.968H86.5314C86.2862 32.968 86.0511 32.8706 85.8777 32.6973C85.7043 32.5239 85.6069 32.2888 85.6069 32.0436C85.6069 31.7984 85.7043 31.5633 85.8777 31.3899C86.0511 31.2165 86.2862 31.1191 86.5314 31.1191H93.0788C93.3239 31.1191 93.5591 31.2165 93.7324 31.3899C93.9058 31.5633 94.0032 31.7984 94.0032 32.0436C94.0032 32.2888 93.9058 32.5239 93.7324 32.6973C93.5591 32.8706 93.3239 32.968 93.0788 32.968Z" fill="#222222"/>
</g>
<defs>
<clipPath id="clip0">
<rect width="104" height="104" fill="white"/>
</clipPath>
</defs>
</svg>
