<svg width="48" height="48" viewBox="0 0 48 48" fill="none" xmlns="http://www.w3.org/2000/svg">
<path fill-rule="evenodd" clip-rule="evenodd" d="M17.5987 0C14.9453 0.00195719 12.7979 2.15095 12.7999 4.79902C12.7979 7.4471 14.9473 9.59609 17.6007 9.59804H22.4015V4.80098C22.4034 2.15291 20.2541 0.00391437 17.5987 0C17.6007 0 17.6007 0 17.5987 0V0ZM17.5987 12.8H4.80055C2.14717 12.802 -0.00219989 14.9509 -0.000238781 17.599C-0.00416099 20.2471 2.14521 22.3961 4.79858 22.4H17.5987C20.2521 22.398 22.4015 20.2491 22.3995 17.601C22.4015 14.9509 20.2521 12.802 17.5987 12.8Z" fill="#36C5F0"/>
<path fill-rule="evenodd" clip-rule="evenodd" d="M48.0002 17.599C48.0022 14.9509 45.8528 12.802 43.1994 12.8C40.546 12.802 38.3966 14.9509 38.3985 17.599V22.4H43.1994C45.8528 22.398 48.0022 20.2491 48.0002 17.599ZM35.1999 17.599V4.79902C35.2019 2.15291 33.0545 0.00391437 30.4011 0C27.7477 0.00195719 25.5983 2.15095 25.6002 4.79902V17.599C25.5963 20.2471 27.7457 22.3961 30.3991 22.4C33.0525 22.398 35.2019 20.2491 35.1999 17.599Z" fill="#2EB67D"/>
<path fill-rule="evenodd" clip-rule="evenodd" d="M30.399 47.9999C33.0524 47.9979 35.2018 45.8489 35.1998 43.2008C35.2018 40.5527 33.0524 38.4037 30.399 38.4017H25.5983V43.2008C25.5963 45.8469 27.7457 47.9959 30.399 47.9999ZM30.399 35.1978H43.1992C45.8526 35.1958 48.0019 33.0468 48 30.3987C48.0039 27.7506 45.8545 25.6016 43.2011 25.5977H30.401C27.7476 25.5996 25.5983 27.7486 25.6002 30.3967C25.5983 33.0468 27.7457 35.1958 30.399 35.1978Z" fill="#ECB22E"/>
<path fill-rule="evenodd" clip-rule="evenodd" d="M-0.000120729 30.3987C-0.00208183 33.0468 2.14729 35.1958 4.80066 35.1978C7.45404 35.1958 9.60341 33.0468 9.60145 30.3987V25.5996H4.80066C2.14729 25.6016 -0.00208183 27.7506 -0.000120729 30.3987ZM12.8 30.3987V43.1988C12.7961 45.8469 14.9455 47.9959 17.5988 47.9998C20.2522 47.9979 22.4016 45.8489 22.3996 43.2008V30.4026C22.4035 27.7545 20.2542 25.6055 17.6008 25.6016C14.9455 25.6016 12.798 27.7506 12.8 30.3987C12.8 30.3987 12.8 30.4006 12.8 30.3987Z" fill="#E01E5A"/>
</svg>
