<svg width="24" height="24" viewBox="0 0 24 24" fill="none" xmlns="http://www.w3.org/2000/svg">
<path d="M2.55215 2.33919L2.5522 2.33915C2.61985 2.29179 2.69556 2.25467 2.78523 2.25157C2.8736 2.24853 2.95284 2.2794 3.02601 2.32017L3.02603 2.32018C3.05643 2.33712 3.0835 2.36403 3.09989 2.38085C3.12049 2.402 3.14401 2.42847 3.16932 2.45835C3.22017 2.51838 3.28339 2.59825 3.35387 2.69046C3.4951 2.87525 3.66941 3.11481 3.83956 3.35619C4.00971 3.59758 4.17668 3.84217 4.30313 4.03712C4.36623 4.1344 4.42013 4.22068 4.45949 4.28863C4.47908 4.32246 4.49607 4.35345 4.50902 4.37992C4.51924 4.40082 4.5356 4.4356 4.54123 4.47024L4.54123 4.47026C4.5726 4.66351 4.46608 4.82628 4.33214 4.91263C4.19819 4.99899 4.00613 5.02881 3.84266 4.9217L3.84265 4.92169C3.81123 4.9011 3.77787 4.86668 3.7515 4.838C3.72116 4.805 3.68569 4.76337 3.64761 4.71652C3.57128 4.62263 3.48087 4.50336 3.39423 4.38078L3.39421 4.38075C3.36342 4.33718 3.33312 4.29447 3.30405 4.25362C3.30126 4.40384 3.29869 4.58966 3.29642 4.80497C3.2899 5.42347 3.28586 6.283 3.28586 7.2352V10.5436H3.91699C4.16361 10.5436 4.3716 10.5481 4.52731 10.5565C4.60497 10.5607 4.67149 10.5659 4.72412 10.5724C4.7694 10.578 4.82475 10.5865 4.86524 10.6049C4.86527 10.605 4.8653 10.605 4.86533 10.605L4.80306 10.7415C5.03816 10.8485 5.03816 11.216 4.80306 11.3231L2.55215 2.33919ZM2.55215 2.33919C2.52896 2.35544 2.5067 2.37979 2.49301 2.39504M2.55215 2.33919L2.49301 2.39504M8.78938 11.1604C8.74795 11.2202 8.67576 11.3698 8.59684 11.5454C8.51486 11.7278 8.41815 11.9555 8.32626 12.1851C7.39053 14.522 6.25302 16.2958 4.68226 17.8732C4.39751 18.1591 4.01986 18.5045 3.70137 18.7785C3.55006 18.9086 3.41348 19.0214 3.30748 19.1034C3.30712 19.0873 3.30677 19.0704 3.30642 19.0528C3.30242 18.8505 3.2988 18.5574 3.29575 18.1951C3.28965 17.4706 3.28586 16.4709 3.28586 15.3712V11.5209H3.91699C4.16361 11.5209 4.3716 11.5164 4.52731 11.508C4.60497 11.5039 4.67149 11.4986 4.72412 11.4921C4.7694 11.4865 4.82475 11.478 4.86524 11.4596L8.91265 11.2459M8.78938 11.1604L8.91265 11.2459M8.78938 11.1604C8.78937 11.1604 8.78937 11.1604 8.78936 11.1604L8.91265 11.2459M8.78938 11.1604C8.9365 10.9481 9.17742 10.7743 9.43371 10.6613C9.69006 10.5482 9.98114 10.4874 10.2377 10.5215C10.7204 10.5855 11.1373 10.8168 11.3844 11.1769M8.91265 11.2459C9.16659 10.8794 9.7745 10.6113 10.218 10.6702C10.6663 10.7296 11.0418 10.9427 11.2608 11.2618M11.3844 11.1769L11.2608 11.2618M11.3844 11.1769C11.3845 11.1769 11.3845 11.177 11.3845 11.177L11.2608 11.2618M11.3844 11.1769C11.4265 11.2382 11.4987 11.3886 11.5774 11.5651C11.6591 11.7481 11.7549 11.9758 11.8455 12.2046C12.3821 13.5597 13.0839 14.8649 13.8764 15.9829C14.8061 17.2945 16.0393 18.5393 17.1869 19.328L17.463 19.5177H18.9389H19.9922L19.884 19.4407C19.6259 19.2569 19.4529 19.122 19.3569 19.0004C19.3059 18.9357 19.2699 18.8669 19.2572 18.7891C19.2446 18.7116 19.2576 18.6402 19.2791 18.5752C19.3165 18.4618 19.4047 18.3751 19.497 18.3229C19.589 18.2709 19.7093 18.2396 19.8258 18.2688C19.8258 18.2688 19.8258 18.2688 19.8258 18.2688L11.2608 11.2618M1.35964 4.95404L1.3596 4.95402C1.24851 4.90338 1.15972 4.81828 1.10666 4.71965C1.05404 4.62184 1.03119 4.49885 1.07586 4.38159L1.35964 4.95404ZM1.35964 4.95404C1.42248 4.98266 1.49405 5.00125 1.57391 4.99059C1.6526 4.98009 1.72203 4.94348 1.78573 4.89347C1.90666 4.79852 2.04189 4.62606 2.22121 4.37262C2.22121 4.37262 2.22121 4.37262 2.22121 4.37262L2.28862 4.27734M1.35964 4.95404L2.28862 4.27734M2.28862 4.27734L2.30857 11.9744L2.32974 20.1411C2.32985 20.1846 2.34889 20.226 2.38191 20.2544L2.50069 20.3566L2.50071 20.3566L2.61949 20.4587C2.64671 20.4821 2.68141 20.495 2.7173 20.495H11.5905H19.9927L19.8843 20.5719C19.6191 20.7599 19.442 20.8969 19.3473 21.0207C19.2963 21.0873 19.2618 21.1592 19.2541 21.2407C19.2465 21.3207 19.2666 21.3931 19.2931 21.457C19.3171 21.5151 19.3573 21.5678 19.399 21.6091C19.4408 21.6505 19.4938 21.69 19.5518 21.714M2.28862 4.27734L21.9304 19.8257C21.9606 19.8887 21.9886 19.9689 21.9701 20.0641C21.9526 20.1544 21.898 20.2325 21.8272 20.3072C21.688 20.4543 21.4183 20.6562 20.9599 20.9872C20.442 21.3612 20.1599 21.5633 19.9867 21.6607C19.8996 21.7096 19.8228 21.7425 19.7462 21.7498C19.6632 21.7577 19.5996 21.7338 19.5518 21.714M19.5518 21.714C19.5518 21.714 19.5518 21.7139 19.5517 21.7139L19.6092 21.5754L19.5518 21.714ZM10.3083 11.5138L10.3082 11.5138C10.2518 11.4926 10.1613 11.4798 10.0618 11.4823C9.96212 11.4848 9.8742 11.5022 9.82177 11.5255L10.3083 11.5138ZM10.3083 11.5138C10.3649 11.5351 10.4534 11.599 10.5394 11.6884C10.6256 11.7782 10.6843 11.8676 10.7016 11.9219L10.3083 11.5138ZM2.49301 2.39504C2.47546 2.4146 2.45462 2.43936 2.43148 2.46778M2.49301 2.39504L2.43148 2.46778M2.43148 2.46778C2.38503 2.52484 2.32572 2.60109 2.25845 2.68962M2.43148 2.46778L2.25845 2.68962M2.25845 2.68962C2.12372 2.86693 1.95439 3.09707 1.78694 3.32936M2.25845 2.68962L1.78694 3.32936M1.78694 3.32936C1.61948 3.56167 1.45327 3.79702 1.32481 3.98481M1.78694 3.32936L1.32481 3.98481M1.32481 3.98481C1.26065 4.07861 1.20536 4.16134 1.16387 4.22624M1.32481 3.98481L1.16387 4.22624M1.16387 4.22624C1.12657 4.2846 1.09027 4.34379 1.07587 4.38158L1.16387 4.22624ZM5.63669 10.679C5.58498 10.7235 5.54085 10.774 5.51085 10.8364M5.63669 10.679L5.7345 10.7928L5.63667 10.6791L5.63669 10.679ZM5.63669 10.679L5.63743 10.6784C5.66588 10.6539 5.70338 10.6216 5.75903 10.598C5.81298 10.575 5.87421 10.5639 5.95001 10.5571C6.09862 10.5438 6.35595 10.5436 6.84018 10.5436C7.16402 10.5436 7.42323 10.5478 7.61095 10.556C7.70461 10.5601 7.78239 10.5652 7.84234 10.5717C7.87224 10.5749 7.89955 10.5786 7.92312 10.583L5.51085 10.8364M5.51085 10.8364C5.48048 10.8995 5.46928 10.965 5.46928 11.0323C5.46928 11.0996 5.48048 11.165 5.51085 11.2281C5.54085 11.2905 5.58498 11.341 5.63669 11.3855L5.51085 10.8364ZM11.9016 10.679C11.8499 10.7235 11.8058 10.774 11.7758 10.8364M11.9016 10.679L11.9994 10.7928L11.9016 10.6791L11.9016 10.679ZM11.9016 10.679L11.9024 10.6784C11.9308 10.6539 11.9683 10.6216 12.024 10.598C12.0779 10.575 12.1392 10.5639 12.215 10.5571C12.3636 10.5438 12.6209 10.5436 13.1051 10.5436C13.429 10.5436 13.6882 10.5478 13.8759 10.556C13.9696 10.5601 14.0473 10.5652 14.1073 10.5717C14.1372 10.5749 14.1645 10.5786 14.1881 10.583L11.7758 10.8364M11.7758 10.8364C11.7454 10.8995 11.7342 10.965 11.7342 11.0323C11.7342 11.0996 11.7454 11.165 11.7758 11.2281C11.8058 11.2905 11.8499 11.341 11.9016 11.3855L11.7758 10.8364ZM15.0341 10.679C14.9824 10.7235 14.9383 10.774 14.9083 10.8364M15.0341 10.679L15.1319 10.7928L15.0341 10.6791L15.0341 10.679ZM15.0341 10.679L15.0348 10.6784C15.0633 10.6539 15.1008 10.6216 15.1564 10.598C15.2104 10.575 15.2716 10.5639 15.3474 10.5571C15.496 10.5438 15.7534 10.5436 16.2376 10.5436C16.5614 10.5436 16.8206 10.5478 17.0084 10.556C17.102 10.5601 17.1798 10.5652 17.2398 10.5717C17.2697 10.5749 17.297 10.5786 17.3205 10.583L14.9083 10.8364M14.9083 10.8364C14.8779 10.8995 14.8667 10.965 14.8667 11.0323C14.8667 11.0996 14.8779 11.165 14.9083 11.2281C14.9383 11.2905 14.9824 11.341 15.0341 11.3855L14.9083 10.8364ZM18.1666 10.6791C18.1666 10.679 18.1666 10.679 18.1666 10.679L18.1673 10.6784C18.1958 10.6539 18.2333 10.6216 18.2889 10.598C18.3429 10.575 18.4041 10.5639 18.4799 10.5571C18.6285 10.5438 18.8858 10.5436 19.3701 10.5436C19.6939 10.5436 19.9531 10.5478 20.1408 10.556C20.2345 10.5601 20.3123 10.5652 20.3722 10.5717C20.4021 10.5749 20.4294 10.5786 20.453 10.583L18.1666 10.6791ZM18.1666 10.6791C18.1149 10.7235 18.0707 10.774 18.0407 10.8364M18.1666 10.6791L18.0407 10.8364M18.0407 10.8364C18.0104 10.8995 17.9992 10.965 17.9992 11.0323M18.0407 10.8364L17.9992 11.0323M17.9992 11.0323C17.9992 11.0996 18.0104 11.165 18.0407 11.2281M17.9992 11.0323L18.0407 11.2281M18.0407 11.2281C18.0707 11.2905 18.1149 11.341 18.1666 11.3855M18.0407 11.2281L18.1666 11.3855M18.1666 11.3855C18.1666 11.3855 18.1666 11.3855 18.1666 11.3855M18.1666 11.3855L18.1666 11.3855M18.1666 11.3855L18.1673 11.3861M18.1666 11.3855L18.1673 11.3861M18.1673 11.3861C18.1958 11.4106 18.2333 11.4429 18.2889 11.4666M18.1673 11.3861L18.2889 11.4666M18.2889 11.4666C18.3429 11.4895 18.4041 11.5006 18.4799 11.5074M18.2889 11.4666L18.4799 11.5074M18.4799 11.5074C18.6285 11.5208 18.8858 11.5209 19.3701 11.5209M18.4799 11.5074L19.3701 11.5209M19.3701 11.5209C19.6939 11.5209 19.9531 11.5167 20.1408 11.5085M19.3701 11.5209L20.1408 11.5085M20.1408 11.5085C20.2345 11.5045 20.3123 11.4993 20.3722 11.4929M20.1408 11.5085L20.3722 11.4929M20.3722 11.4929C20.4021 11.4896 20.4294 11.4859 20.453 11.4815M20.3722 11.4929L20.453 11.4815M20.453 11.4815C20.4739 11.4775 20.502 11.4713 20.5276 11.4596M20.453 11.4815L20.5276 11.4596M20.5276 11.4596C20.7091 11.3769 20.7917 11.1972 20.7917 11.0323M20.5276 11.4596C20.5276 11.4596 20.5276 11.4596 20.5276 11.4596L20.7917 11.0323M20.7917 11.0323C20.7917 10.8673 20.7091 10.6877 20.5276 10.605L20.7917 11.0323ZM11.5079 13.8691C12.5425 16.0552 14.1749 18.2041 15.7852 19.4981L13.1473 19.5074C11.4593 19.5134 8.6969 19.5134 7.00893 19.5074L4.3709 19.4981C5.39976 18.6695 6.52826 17.3955 7.39116 16.0888L7.26599 16.0061L7.39116 16.0888C8.1328 14.9656 8.62784 14.0059 9.20505 12.5742C9.37533 12.1519 9.4832 11.9089 9.5761 11.7579C9.66267 11.6171 9.72956 11.5667 9.82173 11.5255L11.5079 13.8691ZM7.99774 11.4596C8.17925 11.3769 8.26186 11.1972 8.26186 11.0323C8.26186 10.8673 8.17925 10.6877 7.99774 10.605V11.4596ZM14.2627 11.4596C14.4442 11.3769 14.5268 11.1972 14.5268 11.0323C14.5268 10.8673 14.4442 10.6877 14.2627 10.605V11.4596ZM17.3952 11.4596C17.5767 11.3769 17.6593 11.1972 17.6593 11.0323C17.6593 10.8673 17.5767 10.6877 17.3952 10.605V11.4596Z" fill="#BDBDBD" stroke="#BDBDBD" stroke-width="0.3" stroke-linejoin="round"/>
</svg>
