<svg width="48" height="48" viewBox="0 0 48 48" fill="none" xmlns="http://www.w3.org/2000/svg">
<path d="M25.354 15.7316C29.1553 15.7316 32.2369 12.65 32.2369 8.84871C32.2369 5.0474 29.1553 1.96582 25.354 1.96582C21.5527 1.96582 18.4712 5.0474 18.4712 8.84871C18.4712 12.65 21.5527 15.7316 25.354 15.7316Z" fill="#7B83EB"/>
<path opacity="0.1" d="M24.8628 10.3242H18.6289L18.6599 10.4614L18.6628 10.4732L18.6953 10.6C19.1482 12.3177 20.2472 13.7941 21.7628 14.7207C23.2784 15.6474 25.0933 15.9528 26.8287 15.5731V12.2901C26.8271 11.7692 26.6195 11.2701 26.2512 10.9017C25.8828 10.5334 25.3837 10.3258 24.8628 10.3242Z" fill="black"/>
<path opacity="0.2" d="M23.388 11.7979H19.1348C19.693 12.9748 20.5737 13.9691 21.6746 14.6654C22.7754 15.3616 24.0513 15.7312 25.3539 15.7311V13.7637C25.3523 13.2428 25.1447 12.7437 24.7764 12.3754C24.408 12.007 23.9089 11.7994 23.388 11.7979Z" fill="black"/>
<path d="M40.8395 16.223C43.6903 16.223 46.0013 13.912 46.0013 11.0612C46.0013 8.21043 43.6903 5.89941 40.8395 5.89941C37.9888 5.89941 35.6777 8.21043 35.6777 11.0612C35.6777 13.912 37.9888 16.223 40.8395 16.223Z" fill="#5059C9"/>
<path d="M45.2638 17.6982H33.6704C33.42 17.6982 33.18 17.7977 33.003 17.9747C32.8259 18.1517 32.7265 18.3918 32.7265 18.6421V30.6027C32.6946 32.3338 33.2583 34.0232 34.3234 35.3882C35.3885 36.7532 36.8902 37.7108 38.577 38.1006C39.6514 38.3261 40.7625 38.3091 41.8295 38.0509C42.8965 37.7927 43.8925 37.2998 44.7449 36.6081C45.5974 35.9165 46.2848 35.0434 46.7573 34.0525C47.2297 33.0616 47.4753 31.9778 47.476 30.88V19.9104C47.476 19.3237 47.2429 18.761 46.828 18.3462C46.4132 17.9313 45.8505 17.6982 45.2638 17.6982Z" fill="#5059C9"/>
<path d="M37.1525 19.9095V33.92C37.1539 36.5164 36.2983 39.0407 34.7184 41.1012C33.1385 43.1616 30.9226 44.6429 28.4147 45.3153C25.9069 45.9876 23.2472 45.8134 20.8484 44.8196C18.4497 43.8258 16.446 42.0681 15.1484 39.8191C14.8647 39.3475 14.6181 38.8544 14.411 38.3443C14.218 37.8634 14.0555 37.3709 13.9244 36.8695C13.6812 35.9051 13.5574 34.9145 13.5557 33.92V19.9095C13.5553 19.6188 13.6122 19.331 13.7233 19.0624C13.8343 18.7939 13.9972 18.5498 14.2027 18.3443C14.4082 18.1388 14.6523 17.9759 14.9208 17.8649C15.1894 17.7538 15.4772 17.6969 15.7679 17.6973H34.9403C35.2309 17.6969 35.5187 17.7538 35.7873 17.8649C36.0559 17.9759 36.2999 18.1388 36.5054 18.3443C36.7109 18.5498 36.8738 18.7939 36.9849 19.0624C37.0959 19.331 37.1529 19.6188 37.1525 19.9095Z" fill="#7B83EB"/>
<path opacity="0.2" d="M23.388 11.7979H19.1348C19.693 12.9748 20.5737 13.9691 21.6746 14.6654C22.7754 15.3616 24.0513 15.7312 25.3539 15.7311V13.7637C25.3523 13.2428 25.1447 12.7437 24.7764 12.3754C24.408 12.007 23.9089 11.7994 23.388 11.7979Z" fill="black"/>
<path opacity="0.1" d="M26.8288 17.6973V36.383C26.8288 36.8276 26.6766 37.2588 26.3976 37.6049C26.1186 37.951 25.7295 38.1912 25.295 38.2855C25.1563 38.3267 25.012 38.3466 24.8673 38.3445H14.411C14.218 37.8636 14.0555 37.371 13.9244 36.8697C13.6812 35.9053 13.5574 34.9146 13.5557 33.9201V19.9095C13.5553 19.6188 13.6122 19.331 13.7233 19.0624C13.8343 18.7939 13.9972 18.5498 14.2027 18.3443C14.4082 18.1388 14.6523 17.9759 14.9208 17.8649C15.1894 17.7538 15.4772 17.6969 15.7679 17.6973H26.8288Z" fill="black"/>
<path opacity="0.2" d="M25.354 17.6973V37.8576C25.3561 38.0023 25.3362 38.1466 25.295 38.2853C25.2007 38.7198 24.9605 39.1089 24.6144 39.3879C24.2683 39.6669 23.8371 39.8191 23.3925 39.8191H15.1484C14.8646 39.3474 14.6181 38.8543 14.411 38.3443C14.218 37.8634 14.0555 37.3708 13.9244 36.8695C13.6812 35.9051 13.5574 34.9145 13.5557 33.9199V19.9094C13.5553 19.6188 13.6122 19.331 13.7233 19.0624C13.8343 18.7939 13.9972 18.5498 14.2027 18.3443C14.4082 18.1388 14.6523 17.9759 14.9208 17.8649C15.1894 17.7538 15.4772 17.6969 15.7678 17.6973H25.354Z" fill="black"/>
<path opacity="0.2" d="M25.354 17.6973V34.9083C25.3516 35.4278 25.1442 35.9253 24.7769 36.2927C24.4096 36.66 23.912 36.8674 23.3925 36.8698H13.9244C13.6812 35.9053 13.5574 34.9147 13.5557 33.9201V19.9095C13.5553 19.6189 13.6122 19.331 13.7233 19.0624C13.8343 18.7939 13.9972 18.5498 14.2027 18.3443C14.4082 18.1388 14.6523 17.9759 14.9208 17.8649C15.1894 17.7538 15.4772 17.6969 15.7678 17.6973H25.354Z" fill="black"/>
<path opacity="0.2" d="M15.7679 17.6973C15.4772 17.6969 15.1894 17.7538 14.9208 17.8649C14.6523 17.9759 14.4082 18.1388 14.2027 18.3443C13.9972 18.5498 13.8343 18.7939 13.7233 19.0624C13.6122 19.331 13.5553 19.6189 13.5557 19.9095V33.9201C13.5574 34.9147 13.6812 35.9053 13.9244 36.8698H21.9178C22.4373 36.8674 22.9348 36.66 23.3022 36.2927C23.6695 35.9253 23.8769 35.4278 23.8793 34.9083V17.6973H15.7679Z" fill="black"/>
<path d="M2.24826 11.7979H21.9132C22.4346 11.7979 22.9347 12.005 23.3033 12.3737C23.672 12.7423 23.8792 13.2424 23.8792 13.7638V33.4287C23.8792 33.9501 23.672 34.4502 23.3033 34.8188C22.9347 35.1875 22.4346 35.3946 21.9132 35.3946H2.24826C1.72687 35.3946 1.22683 35.1875 0.85815 34.8188C0.489471 34.4502 0.282349 33.9501 0.282349 33.4287L0.282349 13.7638C0.282349 13.2424 0.489471 12.7423 0.85815 12.3737C1.22683 12.005 1.72687 11.7979 2.24826 11.7979Z" fill="#4B53BC"/>
<path d="M17.9505 19.1358H13.5408V30.9637H10.6473V19.1358H6.21106V16.2305H17.9505V19.1358Z" fill="white"/>
</svg>
