<svg width="24" height="24" viewBox="0 0 24 24" fill="none" xmlns="http://www.w3.org/2000/svg">
<path fill-rule="evenodd" clip-rule="evenodd" d="M11.8917 2.034C11.6956 2.10702 11.565 2.21906 11.4521 2.4111C11.3505 2.58392 11.3437 2.62579 11.331 3.15393C11.3218 3.53404 11.303 3.71741 11.2724 3.72546C11.2475 3.73199 11.0513 3.77718 10.8363 3.82584C8.82272 4.28163 7.14874 5.86156 6.57126 7.85132C6.36589 8.55896 6.35134 8.72681 6.32113 10.7445C6.29337 12.598 6.29048 12.6497 6.19198 13.0601C6.07682 13.5398 5.8723 14.0799 5.65515 14.4776C5.39466 14.9547 5.10938 15.3219 4.56048 15.8866C3.93743 16.5275 3.84873 16.6893 3.84342 17.1943C3.83806 17.7054 4.05775 18.123 4.48562 18.4151C4.9017 18.6992 4.37555 18.6819 12.2661 18.6704L19.1156 18.6605C19.2757 18.6603 19.4342 18.6294 19.5826 18.5694C20.2606 18.2956 20.6537 17.5095 20.4547 16.8251C20.3597 16.4983 20.2637 16.3673 19.721 15.824C19.011 15.1132 18.5876 14.4381 18.2875 13.5381C18.0584 12.8507 18.04 12.6567 18.0086 10.5881C17.9826 8.86765 17.9723 8.65872 17.898 8.32989C17.6301 7.14567 17.1265 6.22358 16.2908 5.38752C15.4601 4.55647 14.4646 4.01019 13.3832 3.79203C13.1735 3.74972 13.0203 3.56882 13.0132 3.355L13.0058 3.13446C12.9872 2.57677 12.9812 2.54135 12.8784 2.38632C12.7189 2.14557 12.4986 2.01473 12.2303 2.00136C12.1086 1.99531 11.9562 2.01 11.8917 2.034ZM6.3019 2.68669C6.21371 2.72687 6.00806 2.90328 5.83028 3.09127C4.6982 4.28824 3.84428 5.78362 3.39514 7.35546C3.06143 8.52335 2.89475 10.1794 3.07171 10.5689C3.35214 11.1861 4.23154 11.2214 4.55931 10.6285C4.64261 10.4778 4.65766 10.3849 4.68514 9.85233C4.77055 8.19883 5.23592 6.75164 6.10871 5.42548C6.39028 4.99772 6.58979 4.74485 7.06954 4.20775C7.35744 3.88542 7.41557 3.79723 7.45204 3.62719C7.59362 2.967 6.91142 2.40915 6.3019 2.68669ZM17.3643 2.6879C17.0632 2.82733 16.8757 3.12133 16.8757 3.45422C16.8757 3.71893 16.9511 3.85712 17.3049 4.2407C18.3123 5.33299 19.0215 6.61475 19.3828 7.99638C19.5203 8.52233 19.6501 9.36636 19.6522 9.74768C19.6561 10.4898 19.7704 10.7779 20.1322 10.9582C20.5107 11.1468 20.966 11.0358 21.2005 10.6978C21.3064 10.5451 21.3131 10.511 21.3253 10.0563C21.3727 8.29577 20.7363 6.19098 19.6601 4.54873C19.1073 3.7051 18.3415 2.82843 18.0362 2.68985C17.8288 2.59569 17.5652 2.5949 17.3643 2.6879ZM9.15424 19.6863C9.34735 20.3985 9.81224 21.0527 10.4087 21.4517C11.441 22.1421 12.6841 22.1826 13.7681 21.5612C14.095 21.3737 14.6473 20.8296 14.8365 20.5085C14.9807 20.2638 15.1702 19.8191 15.2127 19.6256C15.2268 19.5614 15.1779 19.5006 15.1121 19.5006H12.172H9.29628C9.19933 19.5006 9.12887 19.5927 9.15424 19.6863Z" fill="url(#paint0_linear)"/>
<defs>
<linearGradient id="paint0_linear" x1="4.59094" y1="-6.57978" x2="25.8948" y2="-2.62943" gradientUnits="userSpaceOnUse">
<stop stop-color="#DEFB9D"/>
<stop offset="0.37" stop-color="#71F79E"/>
<stop offset="0.7" stop-color="#38F9D7"/>
<stop offset="1" stop-color="#89C4FE"/>
</linearGradient>
</defs>
</svg>
