<svg width="24" height="24" viewBox="0 0 24 24" fill="none" xmlns="http://www.w3.org/2000/svg">
<path fill-rule="evenodd" clip-rule="evenodd" d="M11.1793 2.01183C7.24551 2.36974 3.9261 4.90437 2.57833 8.57945C2.38226 9.11415 2.16995 9.95696 2.07579 10.5746C1.97474 11.2373 1.97474 12.7677 2.07579 13.4304C2.41067 15.6271 3.38391 17.5541 4.94008 19.102C6.48193 20.6357 8.3713 21.5794 10.5922 21.9254C11.2797 22.0325 12.8136 22.0226 13.5274 21.9066C16.2073 21.4708 18.4807 20.0888 20.0804 17.9231C21.0597 16.5974 21.6623 15.1183 21.93 13.3837C22.0243 12.7722 22.0231 11.2077 21.9277 10.5942C21.7311 9.32872 21.3274 8.13054 20.7614 7.13198C19.2041 4.38469 16.5487 2.55166 13.4492 2.08428C13.053 2.02454 11.5625 1.97697 11.1793 2.01183ZM16.6771 7.08453C16.8957 7.20823 17.0198 7.43341 16.9944 7.66011C16.983 7.76249 16.4443 9.16231 15.7072 11.0049C14.6309 13.6958 14.4196 14.1938 14.3065 14.3069C14.1934 14.4198 13.6917 14.633 11.0032 15.7101C7.5186 17.1061 7.55066 17.0959 7.27455 16.8991C7.11891 16.7881 6.99105 16.55 6.99355 16.3758C6.99461 16.3016 7.53896 14.8886 8.27894 13.0392C9.36935 10.314 9.58257 9.81128 9.69579 9.69806C9.80905 9.58489 10.312 9.37176 13.0382 8.28178C15.0629 7.47229 16.298 6.99827 16.3844 6.99752C16.4597 6.9969 16.5915 7.03602 16.6771 7.08453ZM13.1557 9.5823C12.2947 9.92743 11.5594 10.2374 11.5217 10.2711C11.4841 10.3049 11.4532 10.3865 11.4532 10.4527C11.4532 10.5576 11.5787 10.6984 12.4423 11.5615C13.49 12.6088 13.5317 12.639 13.7168 12.4817C13.7956 12.4148 15.0538 9.32974 15.0538 9.20338C15.0538 9.11978 14.8766 8.9507 14.7913 8.95293C14.7527 8.95395 14.0166 9.23718 13.1557 9.5823ZM10.2691 11.5233C10.2353 11.561 9.92262 12.3047 9.57415 13.1761C8.89134 14.8837 8.89037 14.8875 9.11262 15.0123C9.21296 15.0685 9.27864 15.0462 10.8283 14.4275C11.8683 14.0123 12.4591 13.7565 12.4944 13.7062C12.6252 13.5194 12.5937 13.4767 11.56 12.4435C10.6965 11.5803 10.5557 11.4548 10.4507 11.4548C10.3845 11.4548 10.3028 11.4856 10.2691 11.5233Z" fill="url(#paint0_linear)"/>
<defs>
<linearGradient id="paint0_linear" x1="3.7361" y1="-6.57978" x2="26.8372" y2="-1.90533" gradientUnits="userSpaceOnUse">
<stop stop-color="#DEFB9D"/>
<stop offset="0.37" stop-color="#71F79E"/>
<stop offset="0.7" stop-color="#38F9D7"/>
<stop offset="0.959424" stop-color="#89C4FE"/>
</linearGradient>
</defs>
</svg>
