<svg width="60" height="60" viewBox="0 0 60 60" fill="none" xmlns="http://www.w3.org/2000/svg">
<path d="M51.2132 8.78684C45.5469 3.12059 38.0133 0 30 0C21.9866 0 14.453 3.12059 8.78672 8.78684C3.12059 14.4531 0 21.9867 0 30C0 38.0134 3.12059 45.547 8.78672 51.2134C14.453 56.8795 21.9866 60 30 60C38.0133 60 45.5469 56.8795 51.2132 51.2134C56.8794 45.547 60 38.0134 60 30C60 21.9867 56.8794 14.4531 51.2132 8.78684ZM45.364 22.1145L27.1068 40.3716C26.7635 40.7148 26.3136 40.8865 25.8639 40.8865C25.414 40.8865 24.9641 40.7148 24.6209 40.3716L14.6359 30.3868C13.9494 29.7005 13.9494 28.5873 14.6358 27.9009C15.3223 27.2145 16.4352 27.2145 17.1218 27.9009L25.8639 36.6428L42.8781 19.6286C43.5646 18.9421 44.6775 18.9421 45.364 19.6286C46.0506 20.315 46.0506 21.428 45.364 22.1145Z" fill="#9F9F9F"/>
</svg>
