<svg width="20" height="22" viewBox="0 0 20 22" fill="none" xmlns="http://www.w3.org/2000/svg">
<path d="M10.6354 19.4758V14.7884C10.6354 13.6426 9.69788 12.7051 8.55206 12.7051C7.40624 12.7051 6.46875 13.6426 6.46875 14.7884V19.4758C6.46875 20.6217 7.40624 21.5591 8.55206 21.5591C9.69788 21.5591 10.6354 20.6217 10.6354 19.4758ZM7.51041 19.4758V14.7884C7.51041 14.2155 7.97915 13.7467 8.55206 13.7467C9.12497 13.7467 9.59372 14.2155 9.59372 14.7884V19.4758C9.59372 20.0487 9.12497 20.5175 8.55206 20.5175C7.97915 20.5175 7.51041 20.0487 7.51041 19.4758Z" fill="#60CA9A" stroke="#60CA9A" stroke-width="0.3"/>
<path d="M1 9.5794V19.4751C1 20.621 1.93749 21.5584 3.08331 21.5584C4.22913 21.5584 5.16662 20.621 5.16662 19.4751V9.5794C5.16662 8.43358 4.22913 7.49609 3.08331 7.49609C1.93749 7.49609 1 8.43358 1 9.5794ZM2.04166 9.5794C2.04166 9.00649 2.5104 8.53775 3.08331 8.53775C3.65622 8.53775 4.12497 9.00649 4.12497 9.5794V19.4751C4.12497 20.048 3.65622 20.5168 3.08331 20.5168C2.5104 20.5168 2.04166 20.048 2.04166 19.4751V9.5794Z" fill="#60CA9A" stroke="#60CA9A" stroke-width="0.3"/>
<path d="M16.1041 19.4752V17.3919C16.1041 16.2461 15.1666 15.3086 14.0208 15.3086C12.875 15.3086 11.9375 16.2461 11.9375 17.3919V19.4752C11.9375 20.621 12.875 21.5585 14.0208 21.5585C15.1666 21.5585 16.1041 20.621 16.1041 19.4752ZM12.9792 19.4752V17.3919C12.9792 16.819 13.4479 16.3502 14.0208 16.3502C14.5937 16.3502 15.0625 16.819 15.0625 17.3919V19.4752C15.0625 20.0481 14.5937 20.5169 14.0208 20.5169C13.4479 20.5169 12.9792 20.0481 12.9792 19.4752Z" fill="#60CA9A" stroke="#60CA9A" stroke-width="0.3"/>
<path d="M3.83876 0.803609C3.68251 0.569236 3.37001 0.491112 3.13564 0.621319C2.90127 0.777567 2.82314 1.09006 2.95335 1.32444C3.16168 1.63693 7.82309 9.13685 17.0417 9.55352L15.1147 10.9858C14.8803 11.1681 14.8282 11.4806 15.0105 11.715C15.1147 11.8452 15.2709 11.9233 15.4272 11.9233C15.5313 11.9233 15.6355 11.8972 15.7397 11.8191L18.6563 9.63164C18.8907 9.44935 18.9428 9.13685 18.7605 8.90248L16.573 5.98584C16.3907 5.75147 16.0782 5.69939 15.8438 5.88168C15.6095 6.06397 15.5574 6.37647 15.7397 6.61084L17.1719 8.51186C8.44808 8.14728 3.89084 0.881733 3.83876 0.803609Z" fill="#60CA9A" stroke="#60CA9A" stroke-width="0.3"/>
</svg>
