<svg width="24" height="24" viewBox="0 0 24 24" fill="none" xmlns="http://www.w3.org/2000/svg">
<mask id="path-1-outside-1" maskUnits="userSpaceOnUse" x="0.202148" y="1.40137" width="22" height="21" fill="black">
<rect fill="white" x="0.202148" y="1.40137" width="22" height="21"/>
<path fill-rule="evenodd" clip-rule="evenodd" d="M2.63822 2.46203C2.52736 2.53971 1.27755 4.27349 1.21604 4.43498C1.16507 4.56875 1.259 4.74332 1.42181 4.81753C1.60557 4.90121 1.73582 4.79894 2.09876 4.28598L2.43741 3.80739L2.45857 11.974L2.47974 20.1407L2.59852 20.2429L2.7173 20.345H11.5905H20.4637L19.9711 20.6942C19.4314 21.0769 19.3448 21.19 19.4317 21.3996C19.4604 21.4689 19.5382 21.546 19.6092 21.5754C19.7805 21.6463 19.8276 21.6198 20.8721 20.8656C21.7993 20.196 21.8937 20.0963 21.7951 19.8905C21.735 19.765 19.9569 18.4563 19.7893 18.4143C19.6517 18.3797 19.467 18.4841 19.4215 18.6222C19.3539 18.8271 19.4476 18.9458 19.971 19.3185L20.4615 19.6677H18.9389H17.4164L17.1019 19.4516C15.9379 18.6515 14.6925 17.3935 13.754 16.0696C12.9541 14.9413 12.2468 13.6254 11.7061 12.2599C11.5263 11.8059 11.3259 11.3567 11.2608 11.2618C11.0418 10.9427 10.6663 10.7296 10.218 10.6702C9.7745 10.6113 9.16659 10.8794 8.91265 11.2459C8.84911 11.3375 8.64791 11.7852 8.46551 12.2408C7.52323 14.5941 6.37526 16.3856 4.78854 17.979C4.21233 18.5576 3.26611 19.3714 3.16952 19.3714C3.15102 19.3714 3.13586 17.5713 3.13586 15.3712V11.3709H3.91699C4.40739 11.3709 4.73719 11.3531 4.80306 11.3231C5.03816 11.216 5.03816 10.8485 4.80306 10.7415C4.73719 10.7114 4.40739 10.6936 3.91699 10.6936H3.13586V7.2352C3.13586 5.33011 3.15203 3.79486 3.17189 3.817C3.1917 3.83909 3.34688 4.05384 3.51671 4.29419C3.68659 4.5345 3.87022 4.76042 3.92487 4.79623C4.13051 4.93097 4.43245 4.73634 4.39317 4.49429C4.36718 4.33424 3.09599 2.53091 2.95299 2.4512C2.82833 2.38173 2.749 2.38448 2.63822 2.46203ZM5.7345 10.7928C5.65217 10.8636 5.61928 10.9319 5.61928 11.0323C5.61928 11.1326 5.65217 11.201 5.7345 11.2718C5.84825 11.3696 5.8626 11.3709 6.84018 11.3709C7.48611 11.3709 7.86708 11.3543 7.93553 11.3231C8.17063 11.216 8.17063 10.8485 7.93553 10.7415C7.86708 10.7103 7.48611 10.6936 6.84018 10.6936C5.8626 10.6936 5.84825 10.6949 5.7345 10.7928ZM11.9994 10.7928C11.9171 10.8636 11.8842 10.9319 11.8842 11.0323C11.8842 11.1326 11.9171 11.201 11.9994 11.2718C12.1132 11.3696 12.1275 11.3709 13.1051 11.3709C13.751 11.3709 14.132 11.3543 14.2005 11.3231C14.4356 11.216 14.4356 10.8485 14.2005 10.7415C14.132 10.7103 13.751 10.6936 13.1051 10.6936C12.1275 10.6936 12.1132 10.6949 11.9994 10.7928ZM15.1319 10.7928C15.0496 10.8636 15.0167 10.9319 15.0167 11.0323C15.0167 11.1326 15.0496 11.201 15.1319 11.2718C15.2457 11.3696 15.26 11.3709 16.2376 11.3709C16.8835 11.3709 17.2645 11.3543 17.3329 11.3231C17.568 11.216 17.568 10.8485 17.3329 10.7415C17.2645 10.7103 16.8835 10.6936 16.2376 10.6936C15.26 10.6936 15.2457 10.6949 15.1319 10.7928ZM18.2644 10.7928C18.1821 10.8636 18.1492 10.9319 18.1492 11.0323C18.1492 11.1326 18.1821 11.201 18.2644 11.2718C18.3781 11.3696 18.3925 11.3709 19.3701 11.3709C20.016 11.3709 20.397 11.3543 20.4654 11.3231C20.7005 11.216 20.7005 10.8485 20.4654 10.7415C20.397 10.7103 20.016 10.6936 19.3701 10.6936C18.3925 10.6936 18.3781 10.6949 18.2644 10.7928ZM10.3611 11.3734C10.5356 11.4391 10.7892 11.7029 10.8445 11.8763C10.9422 12.1823 11.4102 13.3122 11.6434 13.8049C12.6923 16.0212 14.3598 18.1958 15.982 19.4627L16.2175 19.6466L13.1478 19.6574C11.4595 19.6634 8.69672 19.6634 7.0084 19.6574L3.93871 19.6466L4.17419 19.4627C5.21532 18.6495 6.38089 17.3464 7.26599 16.0061C8.00135 14.8924 8.49193 13.9418 9.06593 12.5182C9.40479 11.6777 9.51523 11.4981 9.76062 11.3886C9.91491 11.3197 10.1993 11.3125 10.3611 11.3734Z"/>
</mask>
<path fill-rule="evenodd" clip-rule="evenodd" d="M2.63822 2.46203C2.52736 2.53971 1.27755 4.27349 1.21604 4.43498C1.16507 4.56875 1.259 4.74332 1.42181 4.81753C1.60557 4.90121 1.73582 4.79894 2.09876 4.28598L2.43741 3.80739L2.45857 11.974L2.47974 20.1407L2.59852 20.2429L2.7173 20.345H11.5905H20.4637L19.9711 20.6942C19.4314 21.0769 19.3448 21.19 19.4317 21.3996C19.4604 21.4689 19.5382 21.546 19.6092 21.5754C19.7805 21.6463 19.8276 21.6198 20.8721 20.8656C21.7993 20.196 21.8937 20.0963 21.7951 19.8905C21.735 19.765 19.9569 18.4563 19.7893 18.4143C19.6517 18.3797 19.467 18.4841 19.4215 18.6222C19.3539 18.8271 19.4476 18.9458 19.971 19.3185L20.4615 19.6677H18.9389H17.4164L17.1019 19.4516C15.9379 18.6515 14.6925 17.3935 13.754 16.0696C12.9541 14.9413 12.2468 13.6254 11.7061 12.2599C11.5263 11.8059 11.3259 11.3567 11.2608 11.2618C11.0418 10.9427 10.6663 10.7296 10.218 10.6702C9.7745 10.6113 9.16659 10.8794 8.91265 11.2459C8.84911 11.3375 8.64791 11.7852 8.46551 12.2408C7.52323 14.5941 6.37526 16.3856 4.78854 17.979C4.21233 18.5576 3.26611 19.3714 3.16952 19.3714C3.15102 19.3714 3.13586 17.5713 3.13586 15.3712V11.3709H3.91699C4.40739 11.3709 4.73719 11.3531 4.80306 11.3231C5.03816 11.216 5.03816 10.8485 4.80306 10.7415C4.73719 10.7114 4.40739 10.6936 3.91699 10.6936H3.13586V7.2352C3.13586 5.33011 3.15203 3.79486 3.17189 3.817C3.1917 3.83909 3.34688 4.05384 3.51671 4.29419C3.68659 4.5345 3.87022 4.76042 3.92487 4.79623C4.13051 4.93097 4.43245 4.73634 4.39317 4.49429C4.36718 4.33424 3.09599 2.53091 2.95299 2.4512C2.82833 2.38173 2.749 2.38448 2.63822 2.46203ZM5.7345 10.7928C5.65217 10.8636 5.61928 10.9319 5.61928 11.0323C5.61928 11.1326 5.65217 11.201 5.7345 11.2718C5.84825 11.3696 5.8626 11.3709 6.84018 11.3709C7.48611 11.3709 7.86708 11.3543 7.93553 11.3231C8.17063 11.216 8.17063 10.8485 7.93553 10.7415C7.86708 10.7103 7.48611 10.6936 6.84018 10.6936C5.8626 10.6936 5.84825 10.6949 5.7345 10.7928ZM11.9994 10.7928C11.9171 10.8636 11.8842 10.9319 11.8842 11.0323C11.8842 11.1326 11.9171 11.201 11.9994 11.2718C12.1132 11.3696 12.1275 11.3709 13.1051 11.3709C13.751 11.3709 14.132 11.3543 14.2005 11.3231C14.4356 11.216 14.4356 10.8485 14.2005 10.7415C14.132 10.7103 13.751 10.6936 13.1051 10.6936C12.1275 10.6936 12.1132 10.6949 11.9994 10.7928ZM15.1319 10.7928C15.0496 10.8636 15.0167 10.9319 15.0167 11.0323C15.0167 11.1326 15.0496 11.201 15.1319 11.2718C15.2457 11.3696 15.26 11.3709 16.2376 11.3709C16.8835 11.3709 17.2645 11.3543 17.3329 11.3231C17.568 11.216 17.568 10.8485 17.3329 10.7415C17.2645 10.7103 16.8835 10.6936 16.2376 10.6936C15.26 10.6936 15.2457 10.6949 15.1319 10.7928ZM18.2644 10.7928C18.1821 10.8636 18.1492 10.9319 18.1492 11.0323C18.1492 11.1326 18.1821 11.201 18.2644 11.2718C18.3781 11.3696 18.3925 11.3709 19.3701 11.3709C20.016 11.3709 20.397 11.3543 20.4654 11.3231C20.7005 11.216 20.7005 10.8485 20.4654 10.7415C20.397 10.7103 20.016 10.6936 19.3701 10.6936C18.3925 10.6936 18.3781 10.6949 18.2644 10.7928ZM10.3611 11.3734C10.5356 11.4391 10.7892 11.7029 10.8445 11.8763C10.9422 12.1823 11.4102 13.3122 11.6434 13.8049C12.6923 16.0212 14.3598 18.1958 15.982 19.4627L16.2175 19.6466L13.1478 19.6574C11.4595 19.6634 8.69672 19.6634 7.0084 19.6574L3.93871 19.6466L4.17419 19.4627C5.21532 18.6495 6.38089 17.3464 7.26599 16.0061C8.00135 14.8924 8.49193 13.9418 9.06593 12.5182C9.40479 11.6777 9.51523 11.4981 9.76062 11.3886C9.91491 11.3197 10.1993 11.3125 10.3611 11.3734Z" fill="#BDBDBD"/>
<path fill-rule="evenodd" clip-rule="evenodd" d="M2.63822 2.46203C2.52736 2.53971 1.27755 4.27349 1.21604 4.43498C1.16507 4.56875 1.259 4.74332 1.42181 4.81753C1.60557 4.90121 1.73582 4.79894 2.09876 4.28598L2.43741 3.80739L2.45857 11.974L2.47974 20.1407L2.59852 20.2429L2.7173 20.345H11.5905H20.4637L19.9711 20.6942C19.4314 21.0769 19.3448 21.19 19.4317 21.3996C19.4604 21.4689 19.5382 21.546 19.6092 21.5754C19.7805 21.6463 19.8276 21.6198 20.8721 20.8656C21.7993 20.196 21.8937 20.0963 21.7951 19.8905C21.735 19.765 19.9569 18.4563 19.7893 18.4143C19.6517 18.3797 19.467 18.4841 19.4215 18.6222C19.3539 18.8271 19.4476 18.9458 19.971 19.3185L20.4615 19.6677H18.9389H17.4164L17.1019 19.4516C15.9379 18.6515 14.6925 17.3935 13.754 16.0696C12.9541 14.9413 12.2468 13.6254 11.7061 12.2599C11.5263 11.8059 11.3259 11.3567 11.2608 11.2618C11.0418 10.9427 10.6663 10.7296 10.218 10.6702C9.7745 10.6113 9.16659 10.8794 8.91265 11.2459C8.84911 11.3375 8.64791 11.7852 8.46551 12.2408C7.52323 14.5941 6.37526 16.3856 4.78854 17.979C4.21233 18.5576 3.26611 19.3714 3.16952 19.3714C3.15102 19.3714 3.13586 17.5713 3.13586 15.3712V11.3709H3.91699C4.40739 11.3709 4.73719 11.3531 4.80306 11.3231C5.03816 11.216 5.03816 10.8485 4.80306 10.7415C4.73719 10.7114 4.40739 10.6936 3.91699 10.6936H3.13586V7.2352C3.13586 5.33011 3.15203 3.79486 3.17189 3.817C3.1917 3.83909 3.34688 4.05384 3.51671 4.29419C3.68659 4.5345 3.87022 4.76042 3.92487 4.79623C4.13051 4.93097 4.43245 4.73634 4.39317 4.49429C4.36718 4.33424 3.09599 2.53091 2.95299 2.4512C2.82833 2.38173 2.749 2.38448 2.63822 2.46203ZM5.7345 10.7928C5.65217 10.8636 5.61928 10.9319 5.61928 11.0323C5.61928 11.1326 5.65217 11.201 5.7345 11.2718C5.84825 11.3696 5.8626 11.3709 6.84018 11.3709C7.48611 11.3709 7.86708 11.3543 7.93553 11.3231C8.17063 11.216 8.17063 10.8485 7.93553 10.7415C7.86708 10.7103 7.48611 10.6936 6.84018 10.6936C5.8626 10.6936 5.84825 10.6949 5.7345 10.7928ZM11.9994 10.7928C11.9171 10.8636 11.8842 10.9319 11.8842 11.0323C11.8842 11.1326 11.9171 11.201 11.9994 11.2718C12.1132 11.3696 12.1275 11.3709 13.1051 11.3709C13.751 11.3709 14.132 11.3543 14.2005 11.3231C14.4356 11.216 14.4356 10.8485 14.2005 10.7415C14.132 10.7103 13.751 10.6936 13.1051 10.6936C12.1275 10.6936 12.1132 10.6949 11.9994 10.7928ZM15.1319 10.7928C15.0496 10.8636 15.0167 10.9319 15.0167 11.0323C15.0167 11.1326 15.0496 11.201 15.1319 11.2718C15.2457 11.3696 15.26 11.3709 16.2376 11.3709C16.8835 11.3709 17.2645 11.3543 17.3329 11.3231C17.568 11.216 17.568 10.8485 17.3329 10.7415C17.2645 10.7103 16.8835 10.6936 16.2376 10.6936C15.26 10.6936 15.2457 10.6949 15.1319 10.7928ZM18.2644 10.7928C18.1821 10.8636 18.1492 10.9319 18.1492 11.0323C18.1492 11.1326 18.1821 11.201 18.2644 11.2718C18.3781 11.3696 18.3925 11.3709 19.3701 11.3709C20.016 11.3709 20.397 11.3543 20.4654 11.3231C20.7005 11.216 20.7005 10.8485 20.4654 10.7415C20.397 10.7103 20.016 10.6936 19.3701 10.6936C18.3925 10.6936 18.3781 10.6949 18.2644 10.7928ZM10.3611 11.3734C10.5356 11.4391 10.7892 11.7029 10.8445 11.8763C10.9422 12.1823 11.4102 13.3122 11.6434 13.8049C12.6923 16.0212 14.3598 18.1958 15.982 19.4627L16.2175 19.6466L13.1478 19.6574C11.4595 19.6634 8.69672 19.6634 7.0084 19.6574L3.93871 19.6466L4.17419 19.4627C5.21532 18.6495 6.38089 17.3464 7.26599 16.0061C8.00135 14.8924 8.49193 13.9418 9.06593 12.5182C9.40479 11.6777 9.51523 11.4981 9.76062 11.3886C9.91491 11.3197 10.1993 11.3125 10.3611 11.3734Z" stroke="#BDBDBD" stroke-width="0.6" stroke-linejoin="round" mask="url(#path-1-outside-1)"/>
</svg>
