<svg width="48" height="48" viewBox="0 0 48 48" fill="none" xmlns="http://www.w3.org/2000/svg">
<path d="M23.1666 20.8543C21.3626 23.8746 19.6343 26.7994 17.8699 29.7022C17.4168 30.4475 17.1925 31.0545 17.5545 32.0018C18.5539 34.6188 17.144 37.1655 14.4943 37.8567C11.9954 38.5088 9.5608 36.8732 9.065 34.2086C8.62565 31.8503 10.4633 29.5383 13.0743 29.1696C13.2929 29.1385 13.5163 29.1349 13.8839 29.1075L17.8554 22.4748C15.3576 20.0011 13.8708 17.1097 14.1998 13.5265C14.4324 10.9937 15.4325 8.80483 17.2603 7.01086C20.7612 3.57532 26.1021 3.01904 30.2243 5.65598C34.1832 8.18894 35.9964 13.1228 34.4508 17.3456C33.2854 17.031 32.1119 16.7136 30.8219 16.3651C31.3072 14.0172 30.9482 11.909 29.3583 10.1028C28.3079 8.91032 26.9599 8.2853 25.4273 8.055C22.3545 7.5927 19.3377 9.55872 18.4425 12.5624C17.4265 15.9712 18.9644 18.756 23.1666 20.8544V20.8543Z" fill="#C73A63"/>
<path d="M28.0809 17.0424C29.3538 19.2779 30.6462 21.5471 31.9271 23.7954C38.4014 21.8014 43.2828 25.3693 45.0341 29.1891C47.1494 33.8032 45.7033 39.2682 41.5492 42.115C37.2852 45.0371 31.8927 44.5379 28.1149 40.7841C29.0777 39.9817 30.0453 39.1758 31.0791 38.3148C34.8104 40.7207 38.074 40.6074 40.4968 37.7585C42.5629 35.328 42.5181 31.7042 40.3921 29.3248C37.9386 26.5791 34.6522 26.4954 30.6798 29.1311C29.0319 26.2208 27.3555 23.3337 25.7597 20.4023C25.2216 19.4144 24.6277 18.841 23.4149 18.632C21.3897 18.2825 20.0822 16.5512 20.0037 14.6115C19.9266 12.6932 21.0619 10.9592 22.8362 10.2837C24.5939 9.61423 26.6566 10.1545 27.8389 11.6422C28.8051 12.8577 29.1121 14.2257 28.6037 15.7248C28.4623 16.1428 28.2793 16.5473 28.0809 17.0426V17.0424Z" fill="#4B4B4B"/>
<path d="M31.458 34.7158H23.6913C22.9468 37.7035 21.3389 40.1157 18.5683 41.6496C16.4145 42.8418 14.0931 43.246 11.6224 42.8567C7.07339 42.1409 3.3538 38.145 3.0263 33.6455C2.65569 28.5484 6.24616 24.0176 11.0319 23C11.3623 24.1708 11.6963 25.3529 12.0266 26.5209C7.63575 28.7068 6.11601 31.4611 7.3449 34.9051C8.42667 37.9359 11.4996 39.5971 14.8362 38.9547C18.2436 38.2986 19.9615 35.5355 19.7518 31.1009C22.982 31.1009 26.2149 31.0683 29.4455 31.117C30.7069 31.1364 31.6808 31.0087 32.631 29.9235C34.1956 28.1379 37.0754 28.299 38.7604 29.9854C40.4824 31.7089 40.3999 34.482 38.5776 36.1329C36.8195 37.7257 34.0418 37.6406 32.3969 35.9242C32.0588 35.5706 31.7924 35.1505 31.458 34.7158Z" fill="#4A4A4A"/>
</svg>
