<svg width="56" height="56" viewBox="0 0 56 56" fill="none" xmlns="http://www.w3.org/2000/svg">
<circle cx="28" cy="28" r="28" fill="#222222"/>
<path fill-rule="evenodd" clip-rule="evenodd" d="M27.6449 16.0867C27.2918 16.2997 27.2947 16.2863 27.2794 17.7281L27.2656 19.0195L26.7945 19.0998C24.1991 19.5428 21.9775 21.5461 21.2647 24.0864C21.038 24.8942 21.0208 25.1017 20.984 27.4828C20.9517 29.5659 20.9404 29.7933 20.849 30.1798C20.6999 30.8108 20.578 31.1571 20.3039 31.7277C19.9643 32.4346 19.559 32.9893 18.916 33.6271C18.2802 34.2578 18.1542 34.435 18.0494 34.8452C17.8493 35.6285 18.2475 36.4543 19.0053 36.8275L19.3171 36.981L21.8228 37.0045L24.3286 37.0279L24.4086 37.3094C24.8371 38.8147 26.1851 39.89 27.7718 39.9921C29.3287 40.0923 30.7549 39.2293 31.4234 37.7823C31.5087 37.5977 31.6036 37.3471 31.6342 37.2255L31.6898 37.0045H34.0957C36.3189 37.0045 36.5231 36.9978 36.785 36.9162C37.552 36.6775 38.0576 35.9331 37.9999 35.1274C37.9626 34.6052 37.8188 34.3653 37.1055 33.6343C36.7619 33.2822 36.3693 32.8358 36.233 32.6423C35.7446 31.9488 35.3403 31.0113 35.1448 30.1188C35.0542 29.7054 35.0418 29.4539 35.0092 27.3655C34.9762 25.2561 34.9649 25.0286 34.8708 24.5981C34.4011 22.448 33.0515 20.6924 31.1393 19.7439C30.4605 19.4071 30.0267 19.2596 29.311 19.1219L28.7706 19.018L28.7696 17.8211C28.7684 16.4807 28.742 16.3453 28.4403 16.1304C28.2227 15.9755 27.8623 15.9557 27.6449 16.0867ZM20.7733 17.2046C20.5861 17.321 19.9939 17.9407 19.6246 18.4067C18.0319 20.4165 17.1153 22.8961 17.015 25.4659C16.9873 26.1781 16.989 26.1962 17.0988 26.3559C17.1604 26.4456 17.2842 26.5688 17.3739 26.6298C17.5101 26.7224 17.5812 26.7375 17.8066 26.7218C18.0263 26.7064 18.1033 26.6773 18.2212 26.5651C18.4507 26.347 18.4833 26.2358 18.5161 25.5609C18.6445 22.9161 19.651 20.5163 21.4226 18.6313C21.8055 18.2239 21.8931 18.0551 21.8625 17.7838C21.8038 17.2626 21.1981 16.9406 20.7733 17.2046ZM34.6337 17.1507C34.3362 17.2624 34.1538 17.5352 34.1538 17.8684C34.1538 18.1505 34.1797 18.1945 34.6384 18.6931C36.1235 20.3072 37.086 22.3253 37.399 24.4809C37.4271 24.6744 37.4675 25.1558 37.4888 25.5507C37.5215 26.1558 37.5423 26.2886 37.6211 26.395C37.9651 26.8594 38.6128 26.8486 38.9064 26.3736C39.0049 26.2141 39.0081 26.1735 38.9821 25.4026C38.9083 23.2126 38.2164 21.0972 36.9545 19.2041C36.3678 18.3239 35.5134 17.3295 35.227 17.1936C35.0692 17.1188 34.7752 17.0975 34.6337 17.1507ZM29.1928 20.63C31.0483 21.0479 32.608 22.4406 33.1998 24.2077C33.463 24.9935 33.4682 25.0497 33.506 27.4828C33.5437 29.9125 33.5624 30.126 33.8158 31.0156C34.2267 32.4578 35.0975 33.8779 36.1473 34.8178C36.4998 35.1334 36.5664 35.2696 36.4379 35.4116C36.3558 35.5023 36.238 35.5035 28.0218 35.5035C21.1686 35.5035 19.6739 35.4925 19.6038 35.4412C19.4243 35.3099 19.4964 35.1652 19.9693 34.7077C21.037 33.6748 21.7797 32.4452 22.179 31.0493C22.4431 30.126 22.4854 29.6721 22.4854 27.7557C22.4854 26.8188 22.5072 25.82 22.5337 25.5362C22.7757 22.9481 24.7193 20.9076 27.2931 20.5394C27.7178 20.4786 28.7364 20.5273 29.1928 20.63ZM29.9846 37.2968C29.6834 37.8935 29.0526 38.3475 28.3595 38.4663C27.4744 38.6181 26.5053 38.1519 26.0492 37.3547C25.9723 37.2203 25.9094 37.0865 25.9094 37.0574C25.9094 37.0189 26.4845 37.0045 28.0208 37.0045H30.1322L29.9846 37.2968Z" fill="white"/>
</svg>
