<svg width="56" height="56" viewBox="0 0 56 56" fill="none" xmlns="http://www.w3.org/2000/svg">
<circle cx="28" cy="28" r="28" fill="white"/>
<path fill-rule="evenodd" clip-rule="evenodd" d="M34.2344 16.1118C34.1184 16.1733 33.9602 16.3134 33.8828 16.4232C33.7598 16.5979 33.7422 16.6629 33.7422 16.9429C33.7422 17.2228 33.7598 17.2879 33.8828 17.4625C33.9602 17.5723 34.1164 17.7113 34.23 17.7712C34.4335 17.8786 34.4585 17.8803 35.9005 17.8803H37.3643L37.6141 18.0108C37.8164 18.1164 37.8888 18.1889 37.9945 18.3911L38.125 18.6409V20.1046C38.125 21.5463 38.1266 21.5713 38.2341 21.7748C38.294 21.8884 38.433 22.0446 38.5428 22.122C38.7175 22.245 38.7825 22.2626 39.0625 22.2626C39.3425 22.2626 39.4075 22.245 39.5822 22.122C39.692 22.0446 39.831 21.8884 39.8909 21.7748C39.9987 21.5707 40 21.5495 40 20.0364C40 18.6644 39.9903 18.4668 39.9074 18.1426C39.783 17.6562 39.5667 17.2645 39.2194 16.8968C38.898 16.5564 38.5613 16.3348 38.0895 16.1531C37.774 16.0316 37.7707 16.0314 36.1094 16.0157L34.4453 16L34.2344 16.1118ZM19.6184 19.154C19.0723 19.216 18.5864 19.3994 18.1094 19.7235C17.7632 19.9588 16.2 21.5276 16.0944 21.7458C15.8189 22.3147 16.208 23.0111 16.835 23.0714C17.2577 23.112 17.3554 23.0483 18.3009 22.1159C19.3451 21.0861 19.4923 20.9959 20.0714 21.0305C20.3075 21.0446 20.4937 21.085 20.6172 21.149C20.7203 21.2024 22.1652 22.4825 23.8281 23.9938C25.491 25.505 26.9664 26.8185 27.1068 26.9127C28.342 27.7412 30.1145 27.5596 31.1848 26.4948C32.1658 25.5189 36.5762 20.8373 36.6639 20.6789C36.7519 20.5197 36.7694 20.4293 36.7546 20.2118C36.7087 19.5403 35.9915 19.1271 35.4125 19.4387C35.2829 19.5085 34.3124 20.4955 32.5439 22.3563C31.0739 23.903 29.7934 25.2273 29.6982 25.2992C29.3294 25.578 28.7638 25.6342 28.317 25.4365C28.1777 25.3749 27.1907 24.509 25.2546 22.7495C21.6325 19.458 21.9059 19.6941 21.4641 19.476C20.8843 19.1898 20.2608 19.081 19.6184 19.154ZM18.7446 24.2382C17.4037 24.5256 16.3533 25.5869 16.0746 26.936C16.0092 27.2525 16 27.8888 16 32.0818C16 36.2748 16.0092 36.9111 16.0746 37.2276C16.3565 38.5923 17.4106 39.6463 18.7755 39.9281C20.6452 40.3143 22.475 39.1053 22.8629 37.2276C22.9283 36.9111 22.9375 36.2748 22.9375 32.0818C22.9375 26.8695 22.9407 26.9387 22.6705 26.2935C22.3288 25.4777 21.5921 24.7444 20.7847 24.4163C20.1778 24.1698 19.3866 24.1007 18.7446 24.2382ZM35.8071 24.9413C34.4662 25.2286 33.4158 26.2899 33.1371 27.639C33.072 27.9544 33.0625 28.5618 33.0625 32.4333C33.0625 36.3048 33.072 36.9122 33.1371 37.2276C33.419 38.5923 34.4731 39.6463 35.838 39.9281C37.7077 40.3143 39.5375 39.1053 39.9254 37.2276C39.9905 36.9122 40 36.3048 40 32.4333C40 28.5618 39.9905 27.9544 39.9254 27.639C39.5364 25.7557 37.6803 24.5399 35.8071 24.9413ZM20.0985 26.17C20.3954 26.3013 20.757 26.6568 20.9095 26.9671L21.0391 27.2308V32.0818V36.9328L20.9351 37.1558C20.7888 37.4696 20.4412 37.8229 20.1309 37.9731C19.9072 38.0815 19.8067 38.1008 19.4688 38.1008C19.1308 38.1008 19.0303 38.0815 18.8066 37.9731C18.4962 37.8228 18.1445 37.4654 18.0006 37.1539L17.8984 36.9328V32.0818V27.2308L17.9997 27.0116C18.1183 26.7551 18.4252 26.4079 18.6635 26.2606C19.05 26.0218 19.6743 25.9824 20.0985 26.17ZM37.161 26.8731C37.4579 27.0044 37.8195 27.3598 37.972 27.6701L38.1016 27.9338V32.4333V36.9328L37.9976 37.1558C37.8513 37.4696 37.5037 37.8229 37.1934 37.9731C36.9697 38.0815 36.8692 38.1008 36.5312 38.1008C36.1933 38.1008 36.0928 38.0815 35.8691 37.9731C35.5587 37.8228 35.207 37.4654 35.0631 37.1539L34.9609 36.9328V32.4333V27.9338L35.0622 27.7146C35.1808 27.4582 35.4877 27.1109 35.726 26.9637C36.1125 26.7249 36.7368 26.6854 37.161 26.8731ZM27.2759 29.3002C25.935 29.5875 24.8845 30.6488 24.6059 31.9979C24.4956 32.5314 24.4956 36.694 24.6059 37.2276C24.8878 38.5923 25.9419 39.6463 27.3067 39.9281C29.1765 40.3143 31.0062 39.1055 31.3941 37.2276C31.5044 36.694 31.5044 32.5314 31.3941 31.9979C31.2045 31.0798 30.6442 30.2667 29.8524 29.7602C29.1119 29.2866 28.1449 29.1139 27.2759 29.3002ZM28.6298 31.2319C28.9266 31.3633 29.2883 31.7187 29.4407 32.029L29.5703 32.2927V34.6127V36.9328L29.4407 37.1965C29.2867 37.5101 28.9309 37.8577 28.6215 37.997C28.2745 38.1533 27.6873 38.1424 27.3378 37.9731C27.0274 37.8228 26.6758 37.4654 26.5318 37.1539C26.4312 36.9362 26.4297 36.8975 26.4297 34.6127C26.4297 32.334 26.4315 32.2888 26.531 32.0735C26.6495 31.8171 26.9565 31.4698 27.1948 31.3225C27.5812 31.0837 28.2055 31.0443 28.6298 31.2319Z" fill="#222222"/>
</svg>
