<svg width="56" height="56" viewBox="0 0 56 56" fill="none" xmlns="http://www.w3.org/2000/svg">
<circle cx="28" cy="28" r="28" fill="#222222"/>
<path fill-rule="evenodd" clip-rule="evenodd" d="M27.41 16.0105C27.0799 16.0711 26.6066 16.1937 26.3767 16.2782C25.9466 16.4362 17.3052 20.9119 17.0715 21.0977C16.6127 21.4627 16.2472 22.0133 16.0871 22.581C15.9883 22.9316 16.0009 23.7845 16.1098 24.1073C16.314 24.7131 16.607 25.1387 17.0918 25.5338C17.2707 25.6796 25.7057 30.059 26.2593 30.2935C26.8175 30.5299 27.2505 30.607 28.0205 30.607C28.8 30.607 29.2153 30.5316 29.8063 30.2828C30.3786 30.042 38.759 25.6905 38.9465 25.5369C39.4358 25.136 39.7254 24.7158 39.9318 24.1073C40.0549 23.7447 40.0549 22.8731 39.9318 22.5105C39.7254 21.9021 39.4358 21.4818 38.9465 21.0809C38.7756 20.9409 30.4513 16.6093 29.8522 16.3486C29.3543 16.132 28.817 16.0231 28.1614 16.0057C27.8127 15.9965 27.4746 15.9987 27.41 16.0105ZM28.8189 17.9799C29.0259 18.042 32.6679 19.8838 34.7131 20.9606C34.9455 21.083 35.6853 21.4642 36.3569 21.8076C37.0285 22.1511 37.6649 22.491 37.7712 22.5631C38.2767 22.9059 38.2764 23.7122 37.7707 24.0551C37.6647 24.127 37.0285 24.4668 36.3569 24.8103C35.6853 25.1537 34.9455 25.5348 34.7131 25.6572C32.5837 26.7784 29.0208 28.5782 28.7954 28.6465C28.3765 28.7736 27.5794 28.7615 27.1814 28.6222C26.8474 28.5051 18.454 24.1994 18.2208 24.0255C17.8341 23.7371 17.7768 23.086 18.1041 22.7013C18.1947 22.5948 19.3521 21.9762 22.3847 20.4135C27.0145 18.0277 27.0345 18.0179 27.4317 17.927C27.7827 17.8467 28.4613 17.8726 28.8189 17.9799ZM16.6315 28.0596C16.1059 28.2527 15.8552 28.8434 16.0862 29.344C16.1339 29.4473 16.2232 29.5771 16.2848 29.6324C16.407 29.7422 25.8776 34.8296 26.2593 34.9905C26.8203 35.2269 27.2512 35.3035 28.0205 35.3035C28.8027 35.3035 29.215 35.2282 29.8143 34.976C30.2229 34.804 39.6272 29.7502 39.7563 29.6332C40.0359 29.3798 40.1191 28.8955 39.9449 28.5356C39.8239 28.2856 39.6198 28.1239 39.3266 28.0454C39.0367 27.9679 38.8355 28.0216 38.2824 28.3241C35.5849 29.7993 29.0734 33.2529 28.8504 33.3266C28.4202 33.4688 27.5937 33.4642 27.1751 33.3172C27.0072 33.2582 24.8093 32.105 22.2908 30.7545C19.7723 29.4039 17.5986 28.2401 17.4605 28.1683C17.1825 28.0238 16.8481 27.98 16.6315 28.0596ZM16.6315 32.7561C16.1059 32.9492 15.8552 33.5399 16.0862 34.0405C16.1339 34.1438 16.2232 34.2735 16.2848 34.3287C16.4073 34.4386 25.8793 39.527 26.2593 39.6871C26.8206 39.9235 27.2512 40 28.0205 40C28.8015 40 29.2152 39.9247 29.8109 39.6739C30.218 39.5026 39.6281 34.4461 39.7563 34.3298C40.0359 34.0762 40.1191 33.592 39.9449 33.2322C39.8239 32.9822 39.6198 32.8204 39.3266 32.7419C39.0367 32.6644 38.8355 32.7181 38.2824 33.0206C35.5849 34.4959 29.0734 37.9494 28.8504 38.0231C28.4202 38.1653 27.5937 38.1607 27.1751 38.0137C27.0072 37.9548 24.8093 36.8015 22.2908 35.451C19.7723 34.1004 17.5986 32.9367 17.4605 32.8649C17.1825 32.7203 16.8481 32.6765 16.6315 32.7561Z" fill="white"/>
</svg>
