<svg width="56" height="56" viewBox="0 0 56 56" fill="none" xmlns="http://www.w3.org/2000/svg">
<circle cx="28" cy="28" r="28" fill="white"/>
<path fill-rule="evenodd" clip-rule="evenodd" d="M27.0151 16.0142C25.3051 16.1698 23.5499 16.7044 22.1544 17.4948C18.8463 19.3686 16.6634 22.5348 16.0909 26.2895C15.9697 27.0847 15.9697 28.9213 16.0909 29.7165C16.4883 32.3232 17.6475 34.6365 19.4775 36.4749C21.3348 38.3407 23.6249 39.4921 26.3107 39.9105C27.1357 40.039 28.9763 40.0272 29.8329 39.8879C33.041 39.3662 35.7819 37.6998 37.6977 35.1062C38.8716 33.517 39.5949 31.7411 39.916 29.6604C40.0292 28.9266 40.0277 27.0492 39.9133 26.313C39.6773 24.7945 39.1929 23.3566 38.5137 22.1584C36.6449 18.8616 33.4584 16.662 29.739 16.1011C29.2636 16.0295 27.475 15.9724 27.0151 16.0142ZM29.5277 17.6031C33.9262 18.2742 37.4303 21.6004 38.3077 25.9374C39.3503 31.0918 36.3391 36.2936 31.3515 37.9539C29.1212 38.6964 26.8566 38.6951 24.645 37.95C23.0893 37.4259 21.7538 36.5955 20.5791 35.422C18.953 33.7976 17.9493 31.8069 17.5913 29.4969C17.4777 28.7639 17.4777 27.2421 17.5913 26.5091C18.0255 23.7071 19.4871 21.2524 21.7075 19.5964C23.3083 18.4025 25.1527 17.7043 27.203 17.5163C27.6157 17.4785 29.0652 17.5326 29.5277 17.6031ZM29.2224 23.546C26.6227 24.5893 25.306 25.1404 25.2204 25.2212C25.1239 25.3123 24.7131 26.2909 23.5358 29.2345C22.1064 32.808 21.9807 33.1449 22.0027 33.3403C22.043 33.6983 22.3038 33.959 22.662 33.9993C22.8575 34.0213 23.1942 33.8957 26.7663 32.4681C29.6188 31.3281 30.6917 30.8788 30.785 30.7856C30.8783 30.6922 31.3277 29.6198 32.4682 26.7685C33.8964 23.1978 34.0221 22.8611 34 22.6657C33.9587 22.2986 33.6913 22.0394 33.3234 22.0095C33.1158 21.9927 32.7739 22.1208 29.2224 23.546ZM31.8097 24.3296C31.0839 26.1628 30.0057 28.8324 29.9805 28.8587C29.9625 28.8775 29.3052 28.2504 28.5198 27.465C27.1456 26.0908 27.0962 26.0352 27.2062 25.9863C27.3151 25.9379 31.8639 24.1132 31.8869 24.1087C31.893 24.1076 31.8582 24.2069 31.8097 24.3296ZM28.8917 29.9879C28.8537 30.018 24.1325 31.8973 24.1221 31.8864C24.1131 31.8769 25.8632 27.4791 25.9839 27.208C26.0329 27.098 26.0884 27.1472 27.474 28.5323C28.2655 29.3235 28.9035 29.9785 28.8917 29.9879Z" fill="#222222"/>
</svg>
