<svg width="20" height="20" viewBox="0 0 20 20" fill="none" xmlns="http://www.w3.org/2000/svg">
<g clip-path="url(#clip0)">
<path d="M15.6506 9.78771C13.248 9.78771 11.3007 11.735 11.3007 14.1372C11.3007 16.5395 13.248 18.4872 15.6506 18.4872C18.0527 18.4872 20 16.5395 20 14.1372C20 11.735 18.0527 9.78771 15.6506 9.78771V9.78771ZM4.34966 9.78793C1.9475 9.78814 0 11.735 0 14.1374C0 16.5395 1.9475 18.487 4.34966 18.487C6.752 18.487 8.69952 16.5395 8.69952 14.1374C8.69952 11.735 6.752 9.78793 4.34944 9.78793H4.34966V9.78793ZM14.3497 4.35063C14.3497 6.75279 12.4024 8.70071 10.0002 8.70071C7.59766 8.70071 5.65035 6.75279 5.65035 4.35063C5.65035 1.94848 7.59766 0.000976562 10.0002 0.000976562C12.4024 0.000976562 14.3495 1.94848 14.3495 4.35063H14.3497Z" fill="url(#paint0_radial)"/>
</g>
<defs>
<radialGradient id="paint0_radial" cx="0" cy="0" r="1" gradientUnits="userSpaceOnUse" gradientTransform="translate(10.0027 10.1156) scale(13.26 12.2564)">
<stop stop-color="#FFB900"/>
<stop offset="0.6" stop-color="#F95D8F"/>
<stop offset="0.999" stop-color="#F95353"/>
</radialGradient>
<clipPath id="clip0">
<rect width="20" height="18.488" fill="white"/>
</clipPath>
</defs>
</svg>
