<svg width="20" height="20" viewBox="0 0 20 20" fill="none" xmlns="http://www.w3.org/2000/svg">
<path d="M1.36367 17.8013H4.54547V10.0741L0 6.66504V16.4377C0 17.1911 0.610234 17.8014 1.36367 17.8014V17.8013Z" fill="#4285F4"/>
<path d="M15.4541 17.8014H18.6359C19.3893 17.8014 19.9995 17.1912 19.9995 16.4378V6.66504L15.4541 10.0741V17.8014Z" fill="#34A853"/>
<path d="M15.4541 4.16515V10.0743L19.9995 6.66515V4.84699C19.9995 3.16175 18.0757 2.19925 16.7268 3.21062L15.4541 4.16515Z" fill="#FBBC04"/>
<path fill-rule="evenodd" clip-rule="evenodd" d="M4.5459 10.0741V4.16504L10.0004 8.25598L15.455 4.16504V10.0741L10.0004 14.165L4.5459 10.0741Z" fill="#EA4335"/>
<path d="M0 4.84699V6.66515L4.54547 10.0743V4.16515L3.27273 3.21062C1.92383 2.19925 0 3.16175 0 4.84691V4.84699Z" fill="#C5221F"/>
</svg>
