<svg width="24" height="24" viewBox="0 0 24 24" fill="none" xmlns="http://www.w3.org/2000/svg">
<path fill-rule="evenodd" clip-rule="evenodd" d="M11.9299 2.70731C11.0075 2.91742 10.3473 3.68526 10.2591 4.6504C10.2314 4.9543 10.1883 5.10273 10.0923 5.2247C10.0496 5.27904 9.77239 5.43861 9.42838 5.60689C8.91426 5.85838 8.64984 6.01948 8.00532 6.47385C7.90981 6.54119 7.80518 6.57695 7.67124 6.58809C7.50332 6.60199 7.43817 6.58597 7.20281 6.47276C6.37052 6.07243 5.48443 6.17108 4.77797 6.74272C4.49998 6.96764 4.22663 7.37085 4.10937 7.72899C3.98477 8.10942 3.98251 8.72723 4.1044 9.08208C4.27462 9.57762 4.57856 9.96612 5.02888 10.2638C5.16334 10.3527 5.30834 10.4843 5.35494 10.5597L5.43888 10.6955L5.39414 11.3374C5.35906 11.8404 5.35885 12.109 5.39319 12.5784C5.43618 13.1658 5.43549 13.1802 5.35764 13.327C5.30523 13.4258 5.19826 13.5309 5.04301 13.6362C4.81385 13.7916 4.49725 14.0864 4.38404 14.2498C4.26396 14.4231 4.10929 14.7768 4.05747 14.9967C3.89021 15.7061 4.09309 16.45 4.60035 16.9876C5.27388 17.7015 6.23913 17.8769 7.17303 17.4553C7.62478 17.2513 7.71974 17.2694 8.24663 17.6601C8.6428 17.9538 9.12086 18.2313 9.58458 18.4366C9.79458 18.5296 9.99808 18.6338 10.0368 18.6682C10.1502 18.7689 10.2412 19.0084 10.2421 19.2085C10.2432 19.4659 10.3643 19.9145 10.5054 20.1838C10.6605 20.4798 11.1033 20.9226 11.3993 21.0777C11.8835 21.3314 12.4434 21.3998 12.9583 21.2681C13.3733 21.1619 13.651 21.0012 13.9655 20.6848C14.3865 20.2614 14.558 19.8798 14.6176 19.2343C14.6583 18.7935 14.7288 18.6789 15.0538 18.5261C15.873 18.1409 16.1472 17.9827 16.68 17.5879C16.9733 17.3706 17.0234 17.3465 17.2092 17.3334C17.3863 17.3208 17.4513 17.3367 17.6844 17.4487C18.4876 17.8349 19.3376 17.743 20.0366 17.1945C20.8709 16.5396 21.0951 15.4402 20.5953 14.4539C20.4661 14.1988 20.1313 13.8458 19.8263 13.643C19.4644 13.4024 19.421 13.3317 19.4247 12.9891C19.4264 12.835 19.4317 12.405 19.4365 12.0337C19.4413 11.6624 19.4289 11.2479 19.4089 11.1126C19.3463 10.6893 19.4195 10.5506 19.873 10.2328C20.3693 9.88503 20.6526 9.48803 20.7912 8.94628C21.0732 7.84337 20.4542 6.70995 19.3669 6.33874C19.0419 6.22776 18.5214 6.20345 18.1808 6.28334C18.0403 6.3163 17.8021 6.40418 17.6516 6.47867C17.4475 6.57958 17.3343 6.61338 17.2065 6.61141C17.0223 6.6086 17.0396 6.61805 16.3149 6.12502C16.0966 5.97652 15.6698 5.73572 15.3664 5.58988C14.7098 5.27434 14.6691 5.22926 14.6174 4.75974C14.5459 4.1115 14.3531 3.66446 13.9837 3.2907C13.5888 2.89103 13.1275 2.6949 12.5239 2.67012C12.2867 2.66042 12.0788 2.67341 11.9299 2.70731ZM12.7444 4.18267C13.0167 4.30635 13.1613 4.56004 13.1629 4.91697C13.1663 5.65488 13.6682 6.40338 14.3852 6.7394C15.0792 7.06469 15.3151 7.19527 15.6474 7.43822C16.2836 7.90326 16.5719 8.03165 17.0789 8.07585C17.422 8.10577 17.7804 8.0295 18.196 7.83804C18.5588 7.67092 18.7502 7.65187 18.9837 7.75964C19.3446 7.92621 19.4984 8.33555 19.3352 8.69497C19.2663 8.84672 19.1848 8.92369 18.7842 9.21569C18.1634 9.66828 17.8451 10.415 17.9456 11.1832C17.9661 11.3398 17.9788 11.7226 17.9739 12.0337C17.9523 13.3846 17.9556 13.4582 18.0483 13.7125C18.2244 14.1953 18.4955 14.5178 19.0141 14.8613C19.3061 15.0547 19.4151 15.2497 19.395 15.5432C19.3753 15.8333 19.2421 16.0259 18.9774 16.1471C18.7343 16.2584 18.5441 16.2487 18.2821 16.1118C17.9648 15.9458 17.6289 15.8634 17.2698 15.8633C16.7211 15.8632 16.3683 15.9923 15.86 16.3792C15.4921 16.6592 15.0871 16.9025 14.6809 17.0874C14.1168 17.3441 14.0284 17.4002 13.7647 17.6681C13.3882 18.0507 13.1646 18.5661 13.1631 19.055C13.1623 19.3164 13.0901 19.5148 12.9419 19.6631C12.7033 19.9017 12.3105 19.9405 12.0266 19.7535C11.8157 19.6146 11.7399 19.4557 11.7003 19.0698C11.6573 18.6512 11.5847 18.3892 11.4392 18.1285C11.1779 17.6602 10.874 17.4076 10.2238 17.1186C9.75706 16.911 9.39564 16.6982 8.96338 16.3763C8.46926 16.0084 8.08255 15.8658 7.57868 15.8658C7.24755 15.8658 7.00252 15.9253 6.59416 16.1048C6.35066 16.2119 6.25782 16.2353 6.13329 16.2213C5.7583 16.179 5.49541 15.9114 5.47049 15.5466C5.44936 15.2367 5.55457 15.0608 5.90698 14.8173C6.55519 14.3693 6.88544 13.785 6.88515 13.0868C6.88507 12.9392 6.86752 12.6317 6.84613 12.4035C6.81723 12.0949 6.81872 11.866 6.85197 11.5094C6.92861 10.6869 6.89091 10.362 6.66759 9.91952C6.5292 9.64536 6.18687 9.27668 5.8903 9.08234C5.61311 8.90073 5.49322 8.73347 5.47045 8.49672C5.43939 8.17322 5.59819 7.88734 5.88012 7.75928C6.11504 7.65257 6.30698 7.67114 6.66292 7.83508C7.07759 8.0261 7.29361 8.06847 7.74058 8.04661C8.28999 8.01975 8.41645 7.96326 9.31079 7.34538C9.59104 7.15173 9.82104 7.0291 10.5119 6.70484C11.0989 6.4294 11.5135 5.90331 11.6478 5.26368C11.6773 5.12317 11.7018 4.93788 11.7021 4.85193C11.7028 4.67069 11.7813 4.46266 11.8961 4.33785C12.0912 4.12559 12.4673 4.05679 12.7444 4.18267ZM11.9686 8.20296C11.0954 8.3122 10.2934 8.69325 9.71107 9.27562C8.78966 10.197 8.392 11.6734 8.72243 12.9461C9.19531 14.7675 10.9704 16.0086 12.8067 15.802C14.6228 15.5976 16.0086 14.2382 16.2328 12.4413C16.332 11.6464 16.1112 10.6506 15.6767 9.93371C15.1664 9.09182 14.224 8.44876 13.2168 8.2553C12.8649 8.18771 12.2849 8.1634 11.9686 8.20296ZM13.1626 9.7343C14.1687 10.0723 14.8626 11.0749 14.7917 12.0884C14.6977 13.4319 13.7493 14.3352 12.4327 14.3355C11.9695 14.3356 11.717 14.2761 11.3036 14.0694C10.3794 13.6073 9.87191 12.4617 10.1335 11.4282C10.3519 10.5654 11.0162 9.89674 11.8694 9.68105C12.1834 9.60164 12.8493 9.62908 13.1626 9.7343Z" fill="#7A7A7A"/>
</svg>
