<svg width="20" height="20" viewBox="0 0 20 20" fill="none" xmlns="http://www.w3.org/2000/svg">
<g clip-path="url(#clip0)">
<path fill-rule="evenodd" clip-rule="evenodd" d="M7.3329 0C6.22733 0.000815494 5.33257 0.896228 5.33339 1.99959C5.33257 3.10296 6.22814 3.99837 7.33372 3.99918H9.33404V2.00041C9.33486 0.897044 8.43929 0.00163099 7.3329 0C7.33372 0 7.33372 0 7.3329 0V0ZM7.3329 5.33333H2.00033C0.894756 5.33415 -0.000814894 6.22956 2.23311e-06 7.33293C-0.00163202 8.43629 0.893939 9.3317 1.99951 9.33333H7.3329C8.43847 9.33252 9.33404 8.43711 9.33323 7.33374C9.33404 6.22956 8.43847 5.33415 7.3329 5.33333V5.33333Z" fill="#36C5F0"/>
<path fill-rule="evenodd" clip-rule="evenodd" d="M20.0003 7.33293C20.0011 6.22956 19.1056 5.33415 18 5.33333C16.8944 5.33415 15.9988 6.22956 15.9996 7.33293V9.33333H18C19.1056 9.33252 20.0011 8.43711 20.0003 7.33293ZM14.6669 7.33293V1.99959C14.6677 0.897044 13.7729 0.00163099 12.6673 0C11.5618 0.000815494 10.6662 0.896228 10.667 1.99959V7.33293C10.6654 8.43629 11.5609 9.3317 12.6665 9.33333C13.7721 9.33252 14.6677 8.43711 14.6669 7.33293Z" fill="#2EB67D"/>
<path fill-rule="evenodd" clip-rule="evenodd" d="M12.6663 19.9993C13.7719 19.9985 14.6675 19.1031 14.6667 17.9997C14.6675 16.8963 13.7719 16.0009 12.6663 16.0001H10.666V17.9997C10.6652 19.1022 11.5608 19.9977 12.6663 19.9993ZM12.6663 14.6651H17.9997C19.1053 14.6643 20.0009 13.7688 20.0001 12.6655C20.0017 11.5621 19.1061 10.6667 18.0005 10.665H12.6672C11.5616 10.6659 10.666 11.5613 10.6668 12.6647C10.666 13.7688 11.5608 14.6643 12.6663 14.6651V14.6651Z" fill="#ECB22E"/>
<path fill-rule="evenodd" clip-rule="evenodd" d="M5.58721e-07 12.6666C-0.000816568 13.77 0.894754 14.6654 2.00033 14.6662C3.1059 14.6654 4.00147 13.77 4.00065 12.6666V10.667H2.00033C0.894754 10.6678 -0.000816568 11.5632 5.58721e-07 12.6666ZM5.33339 12.6666V18C5.33175 19.1034 6.22732 19.9988 7.3329 20.0004C8.43847 19.9996 9.33404 19.1042 9.33322 18.0008V12.6682C9.33486 11.5649 8.43929 10.6694 7.33371 10.6678C6.22732 10.6678 5.33257 11.5632 5.33339 12.6666C5.33339 12.6674 5.33339 12.6666 5.33339 12.6666Z" fill="#E01E5A"/>
</g>
<defs>
<clipPath id="clip0">
<rect width="20" height="20" fill="white"/>
</clipPath>
</defs>
</svg>
