<svg width="45" height="48" viewBox="0 0 45 48" fill="none" xmlns="http://www.w3.org/2000/svg">
<g clip-path="url(#clip0)">
<path d="M37.4399 33.9746L33.4596 31.3492L30.1392 36.8956L26.2774 35.7664L22.8771 40.9563L23.0514 42.59L41.5392 39.1835L40.4654 27.6321L37.4399 33.9746ZM20.1986 28.9943L23.1648 28.5864C23.6447 28.8021 23.9788 28.8842 24.5543 29.0306C25.4505 29.2641 26.488 29.4882 28.0245 28.7138C28.3821 28.5367 29.1268 27.8556 29.428 27.4673L41.5811 25.2626L42.8209 40.2674L22.0004 44.0197L20.1986 28.9943ZM42.7739 23.5876L41.5744 23.8161L39.2697 0.00488281L0 4.55839L4.8379 43.818L9.43443 43.1509C9.06735 42.6269 8.49579 41.9927 7.51972 41.1809C6.16596 40.0562 6.64477 38.146 7.44318 36.9397C8.4997 34.9015 13.9432 32.3113 13.6348 29.0535C13.5242 27.869 13.3359 26.327 12.2364 25.2704C12.195 25.709 12.2693 26.1314 12.2693 26.1314C12.2693 26.1314 11.8179 25.5554 11.5927 24.7698C11.3693 24.4687 11.1938 24.3726 10.9564 23.9703C10.7871 24.4357 10.8094 24.9754 10.8094 24.9754C10.8094 24.9754 10.4401 24.1027 10.3803 23.3664C10.1613 23.696 10.106 24.3223 10.106 24.3223C10.106 24.3223 9.62607 22.9468 9.73557 22.2059C9.51656 21.5611 8.86733 20.2817 9.05115 17.3736C10.2496 18.2133 12.8878 18.0139 13.9159 16.4987C14.2572 15.9969 14.4908 14.627 13.7455 11.9278C13.2666 10.1969 12.0811 7.61958 11.619 6.64183L11.5637 6.6815C11.8073 7.46929 12.3096 9.12084 12.5023 9.92148C13.0856 12.3502 13.2421 13.1955 12.9683 14.3152C12.7353 15.2885 12.1766 15.9254 10.7603 16.6372C9.34392 17.3512 7.46441 15.6136 7.3454 15.5176C5.96929 14.4214 4.90494 12.6329 4.78594 11.7641C4.66246 10.8132 5.33403 10.2422 5.67261 9.46445C5.18821 9.60301 4.64793 9.84885 4.64793 9.84885C4.64793 9.84885 5.29269 9.18174 6.08774 8.60459C6.41682 8.38669 6.61013 8.24813 6.9571 7.95984C6.45481 7.95146 6.04695 7.96598 6.04695 7.96598C6.04695 7.96598 6.88446 7.51343 7.7527 7.18379C7.11744 7.15585 6.50957 7.17932 6.50957 7.17932C6.50957 7.17932 8.37846 6.34348 9.85458 5.73001C10.8698 5.31377 11.8615 5.43669 12.4185 6.24236C13.1499 7.29776 13.9181 7.871 15.5462 8.22634C16.5457 7.78329 16.8497 7.55533 18.1057 7.2134C19.2113 5.99764 20.0796 5.84008 20.0796 5.84008C20.0796 5.84008 19.6488 6.23509 19.5337 6.85582C20.1606 6.36192 20.8478 5.94959 20.8478 5.94959C20.8478 5.94959 20.5819 6.27811 20.3338 6.79995L20.3913 6.88543C21.1227 6.44684 21.9826 6.101 21.9826 6.101C21.9826 6.101 21.7367 6.41164 21.4484 6.81392C21.9999 6.80945 23.1184 6.83738 23.5525 6.88655C26.1154 6.94298 26.6473 4.14942 27.6306 3.7991C28.862 3.3594 29.4123 3.09345 31.5109 5.15454C33.3116 6.92399 34.7184 10.0913 34.02 10.8009C33.4345 11.3898 32.2791 10.5713 30.9985 8.97502C30.3219 8.12969 29.8101 7.13071 29.5704 5.86075C29.3682 4.78914 28.581 4.16729 28.581 4.16729C28.581 4.16729 29.038 5.18304 29.038 6.08033C29.038 6.57032 29.0994 8.40234 29.885 9.43037C29.8073 9.58066 29.771 10.174 29.685 10.2874C28.7709 9.18286 26.8082 8.39228 26.488 8.1593C27.5714 9.04709 30.0616 11.0864 31.0181 13.0408C31.9226 14.889 31.3896 16.583 31.8472 17.0216C31.9774 17.1473 33.7926 19.409 34.1418 20.5454C34.7508 22.526 34.1782 24.6073 33.3809 25.8984L31.1544 26.2454C30.8287 26.1549 30.6091 26.1096 30.3169 25.9403C30.4778 25.6554 30.7979 24.9447 30.8013 24.7983L30.6756 24.5776C29.9828 25.5593 28.8218 26.5125 27.8574 27.06C26.5953 27.7752 25.1404 27.6651 24.1934 27.3718C21.5054 26.5426 18.9638 24.7263 18.3509 24.2491C18.3509 24.2491 18.3319 24.6302 18.4476 24.7156C19.1253 25.48 20.678 26.8628 22.1787 27.8266L18.9795 28.1785L20.4919 39.9551C19.8215 40.0512 19.717 40.0981 18.9828 40.2026C18.3358 37.9169 17.0983 36.4246 15.7457 35.5552C14.5528 34.7887 12.9074 34.616 11.3324 34.9278L11.2312 35.0451C12.3263 34.9311 13.6192 35.0898 14.9473 35.9307C16.2507 36.7548 17.3011 38.8835 17.6877 40.1652C18.1828 41.8033 18.5252 43.5554 17.1927 45.4126C16.2446 46.7328 13.4767 47.4625 11.2407 45.8842C11.838 46.8446 12.6454 47.6301 13.732 47.7782C15.3456 47.9972 16.877 47.7173 17.9313 46.6351C18.8314 45.7098 19.3086 43.775 19.1829 41.7374L20.607 41.5307L21.121 45.188L44.6976 42.3492L42.7739 23.5876ZM28.4301 13.6554C28.3642 13.8057 28.2608 13.904 28.4161 14.3929L28.4256 14.4208L28.4502 14.4839L28.515 14.6303C28.795 15.2024 29.1022 15.7422 29.6157 16.0176C29.7487 15.9952 29.8861 15.9802 30.0286 15.9729C30.5108 15.9517 30.8153 16.0282 31.0086 16.1321C31.0259 16.036 31.0298 15.8952 31.0192 15.688C30.9818 14.9633 31.1628 13.7308 29.7699 13.0821C29.2442 12.838 28.5067 12.9134 28.2608 13.2179C28.3055 13.2235 28.3457 13.233 28.377 13.2436C28.7486 13.3738 28.4966 13.5017 28.4301 13.6554ZM32.3338 20.4169C32.1511 20.3163 31.2974 20.356 30.6974 20.4275C29.5542 20.5622 28.32 20.9589 28.0496 21.17C27.558 21.55 27.7814 22.2126 28.1446 22.4847C29.1631 23.2457 30.056 23.7558 30.9985 23.6317C31.5773 23.5558 32.0874 22.6395 32.4489 21.8081C32.6964 21.2354 32.6964 20.6175 32.3338 20.4169ZM22.2133 14.5527C22.5357 14.2465 20.6076 13.8442 19.1113 14.8644C18.0079 15.617 17.9727 17.2306 19.0292 18.1452C19.1348 18.2357 19.222 18.2999 19.3035 18.3525C19.6119 18.2072 19.9634 18.0603 20.3679 17.929C21.0512 17.7071 21.6194 17.5926 22.0865 17.5317C22.31 17.282 22.5698 16.8423 22.505 16.0461C22.4167 14.9661 21.5982 15.1376 22.2133 14.5527Z" fill="#632CA6"/>
</g>
<defs>
<clipPath id="clip0">
<rect width="44.6976" height="48" fill="white"/>
</clipPath>
</defs>
</svg>
