<svg width="286" height="300" viewBox="0 0 286 300" fill="none" xmlns="http://www.w3.org/2000/svg">
<path d="M20 0H266C277 0 286 9 286 20V280C286 291 277 300 266 300H20C9 300 0 291 0 280V20C0 9 9 0 20 0Z" fill="url(#paint0_linear)"/>
<mask id="mask0" mask-type="alpha" maskUnits="userSpaceOnUse" x="0" y="0" width="286" height="290">
<path d="M20 0H266C277 0 286 9 286 20V270C286 281 277 290 266 290H20C9 290 0 281 0 270V20C0 9 9 0 20 0Z" fill="#222222"/>
</mask>
<g mask="url(#mask0)">
<g opacity="0.4">
<path opacity="0.4" d="M498.7 284C274.9 389.7 248.3 194.8 12.8 290.5" stroke="#FDF2E2" stroke-width="2.5484" stroke-miterlimit="10" stroke-linecap="round" stroke-linejoin="round" stroke-dasharray="1 1"/>
<path opacity="0.4" d="M499.3 278.9C270 390.3 241.2 189.4 12.2 281.2" stroke="#FDF2E2" stroke-width="2.4839" stroke-miterlimit="10" stroke-linecap="round" stroke-linejoin="round" stroke-dasharray="1 1"/>
<path opacity="0.4" d="M500 273.9C265 390.8 234.2 184.1 11.7 271.9" stroke="#FDF2E2" stroke-width="2.4194" stroke-miterlimit="10" stroke-linecap="round" stroke-linejoin="round" stroke-dasharray="1 1"/>
<path opacity="0.4" d="M500.6 268.7C260.1 391.2 227.1 178.6 11.1001 262.4" stroke="#FDF2E2" stroke-width="2.3548" stroke-miterlimit="10" stroke-linecap="round" stroke-linejoin="round" stroke-dasharray="1 1"/>
<path opacity="0.4" d="M501.3 263.6C255.2 391.7 220 173.3 10.7 253.1" stroke="#FDF2E2" stroke-width="2.2903" stroke-miterlimit="10" stroke-linecap="round" stroke-linejoin="round" stroke-dasharray="1 1"/>
<path opacity="0.4" d="M502 258.6C250.3 392.3 213 168 10.1001 243.8" stroke="#FDF2E2" stroke-width="2.2258" stroke-miterlimit="10" stroke-linecap="round" stroke-linejoin="round" stroke-dasharray="1 1"/>
<path opacity="0.4" d="M502.6 253.5C245.3 392.7 205.9 162.6 9.6001 234.5" stroke="#FDF2E2" stroke-width="2.1613" stroke-miterlimit="10" stroke-linecap="round" stroke-linejoin="round" stroke-dasharray="1 1"/>
<path opacity="0.4" d="M503.3 248.3C240.4 393.2 198.8 157.2 9 225.1" stroke="#FDF2E2" stroke-width="2.0968" stroke-miterlimit="10" stroke-linecap="round" stroke-linejoin="round" stroke-dasharray="1 1"/>
<path opacity="0.4" d="M503.9 243.3C235.4 393.6 191.8 151.8 8.5 215.7" stroke="#FDF2E2" stroke-width="2.0323" stroke-miterlimit="10" stroke-linecap="round" stroke-linejoin="round" stroke-dasharray="1 1"/>
<path opacity="0.4" d="M504.5 238.2C230.4 394.1 184.7 146.5 8 206.4" stroke="#FDF2E2" stroke-width="1.9677" stroke-miterlimit="10" stroke-linecap="round" stroke-linejoin="round" stroke-dasharray="1 1"/>
<path opacity="0.4" d="M505.2 233.1C225.5 394.6 177.7 141 7.5 197" stroke="#FDF2E2" stroke-width="1.9032" stroke-miterlimit="10" stroke-linecap="round" stroke-linejoin="round" stroke-dasharray="1 1"/>
<path opacity="0.4" d="M505.8 228C220.6 395 170.6 135.7 6.8999 187.6" stroke="#FDF2E2" stroke-width="1.8387" stroke-miterlimit="10" stroke-linecap="round" stroke-linejoin="round" stroke-dasharray="1 1"/>
<path opacity="0.4" d="M506.5 222.9C215.7 395.6 163.6 130.3 6.3999 178.3" stroke="#FDF2E2" stroke-width="1.7742" stroke-miterlimit="10" stroke-linecap="round" stroke-linejoin="round" stroke-dasharray="1 1"/>
<path opacity="0.4" d="M507.2 217.8C210.7 396.1 156.5 125 5.80005 168.9" stroke="#FDF2E2" stroke-width="1.7097" stroke-miterlimit="10" stroke-linecap="round" stroke-linejoin="round" stroke-dasharray="1 1"/>
<path opacity="0.4" d="M507.8 212.7C205.7 396.5 149.4 119.5 5.30005 159.6" stroke="#FDF2E2" stroke-width="1.6452" stroke-miterlimit="10" stroke-linecap="round" stroke-linejoin="round" stroke-dasharray="1 1"/>
<path opacity="0.4" d="M508.5 207.6C200.8 397 142.4 114.2 4.80005 150.2" stroke="#FDF2E2" stroke-width="1.5806" stroke-miterlimit="10" stroke-linecap="round" stroke-linejoin="round" stroke-dasharray="1 1"/>
<path opacity="0.4" d="M509.1 202.5C195.8 397.5 135.3 108.8 4.19995 140.9" stroke="#FDF2E2" stroke-width="1.5161" stroke-miterlimit="10" stroke-linecap="round" stroke-linejoin="round" stroke-dasharray="1 1"/>
<path opacity="0.4" d="M509.8 197.4C190.9 398 128.2 103.5 3.69995 131.5" stroke="#FDF2E2" stroke-width="1.4516" stroke-miterlimit="10" stroke-linecap="round" stroke-linejoin="round" stroke-dasharray="1 1"/>
<path opacity="0.4" d="M510.4 192.3C186 398.5 121.2 98 3.19995 122.1" stroke="#FDF2E2" stroke-width="1.3871" stroke-miterlimit="10" stroke-linecap="round" stroke-linejoin="round" stroke-dasharray="1 1"/>
<path opacity="0.4" d="M511 187.3C181 399 114 92.7 2.6001 112.8" stroke="#FDF2E2" stroke-width="1.3226" stroke-miterlimit="10" stroke-linecap="round" stroke-linejoin="round" stroke-dasharray="1 1"/>
<path opacity="0.4" d="M511.7 182.1C176.1 399.4 107 87.3 2.1001 103.4" stroke="#FDF2E2" stroke-width="1.2581" stroke-miterlimit="10" stroke-linecap="round" stroke-linejoin="round" stroke-dasharray="1 1"/>
<path opacity="0.4" d="M512.4 177C171.2 399.9 100 81.9 1.6001 94" stroke="#FDF2E2" stroke-width="1.1935" stroke-miterlimit="10" stroke-linecap="round" stroke-linejoin="round" stroke-dasharray="1 1"/>
<path opacity="0.4" d="M513 172C166.3 400.4 92.9001 76.6 1.1001 84.7" stroke="#FDF2E2" stroke-width="1.129" stroke-miterlimit="10" stroke-linecap="round" stroke-linejoin="round" stroke-dasharray="1 1"/>
<path opacity="0.4" d="M513.7 166.9C161.3 400.9 85.9 71.2 0.5 75.3" stroke="#FDF2E2" stroke-width="1.0645" stroke-miterlimit="10" stroke-linecap="round" stroke-linejoin="round" stroke-dasharray="1 1"/>
<path opacity="0.4" d="M514.4 161.8C156.4 401.4 78.8 65.8 0 66" stroke="#FDF2E2" stroke-miterlimit="10" stroke-linecap="round" stroke-linejoin="round" stroke-dasharray="1 1"/>
</g>
<path d="M20 0H266C277 0 286 9 286 20V280C286 291 277 300 266 300H20C9 300 0 291 0 280V20C0 9 9 0 20 0Z" fill="url(#paint1_linear)" stroke="url(#paint2_linear)" stroke-miterlimit="10"/>
</g>
<defs>
<linearGradient id="paint0_linear" x1="230.488" y1="319.144" x2="45.2749" y2="-38.9353" gradientUnits="userSpaceOnUse">
<stop stop-color="#222222"/>
<stop offset="1" stop-color="#222222" stop-opacity="0.83"/>
</linearGradient>
<linearGradient id="paint1_linear" x1="-38.5668" y1="93.6648" x2="307.5" y2="293" gradientUnits="userSpaceOnUse">
<stop offset="0.2" stop-color="#222222" stop-opacity="0"/>
<stop offset="0.8" stop-color="#222222" stop-opacity="0.8"/>
</linearGradient>
<linearGradient id="paint2_linear" x1="-0.5" y1="150" x2="286.5" y2="150" gradientUnits="userSpaceOnUse">
<stop offset="0.5" stop-color="#222222" stop-opacity="0"/>
<stop offset="0.8" stop-color="#222222" stop-opacity="0.6"/>
</linearGradient>
</defs>
</svg>
