<svg width="24" height="24" viewBox="0 0 24 24" fill="none" xmlns="http://www.w3.org/2000/svg">
<path d="M10.333 6.16667C10.333 5.72464 10.5086 5.30072 10.8212 4.98816C11.1337 4.67559 11.5576 4.5 11.9997 4.5C12.4417 4.5 12.8656 4.67559 13.1782 4.98816C13.4907 5.30072 13.6663 5.72464 13.6663 6.16667C14.6233 6.61919 15.4392 7.32361 16.0264 8.20442C16.6136 9.08523 16.95 10.1092 16.9997 11.1667V13.6667C17.0624 14.1848 17.2459 14.6809 17.5353 15.1151C17.8248 15.5493 18.2122 15.9095 18.6663 16.1667H5.33301C5.78712 15.9095 6.17452 15.5493 6.464 15.1151C6.75348 14.6809 6.93696 14.1848 6.99967 13.6667V11.1667C7.04931 10.1092 7.38576 9.08523 7.97297 8.20442C8.56017 7.32361 9.376 6.61919 10.333 6.16667" stroke="#7A7A7A" stroke-width="1.3" stroke-linecap="round" stroke-linejoin="round"/>
<path d="M9.5 16.167V17.0003C9.5 17.6634 9.76339 18.2993 10.2322 18.7681C10.7011 19.2369 11.337 19.5003 12 19.5003C12.663 19.5003 13.2989 19.2369 13.7678 18.7681C14.2366 18.2993 14.5 17.6634 14.5 17.0003V16.167" stroke="#7A7A7A" stroke-width="1.3" stroke-linecap="round" stroke-linejoin="round"/>
<path d="M10.333 11.167H13.6663" stroke="#7A7A7A" stroke-width="1.3" stroke-linecap="round" stroke-linejoin="round"/>
<path d="M12 9.5V12.8333" stroke="#7A7A7A" stroke-width="1.3" stroke-linecap="round" stroke-linejoin="round"/>
</svg>
