<svg width="104" height="104" viewBox="0 0 104 104" fill="none" xmlns="http://www.w3.org/2000/svg">
<rect width="104" height="104" fill="white"/>
<path d="M83.1425 52.0002C83.1425 69.1997 69.1995 83.143 51.9997 83.143C34.8 83.143 20.8569 69.1997 20.8569 52.0002C20.8569 34.8005 34.8 20.8574 51.9997 20.8574C69.1995 20.8574 83.1425 34.8005 83.1425 52.0002Z" fill="#F5F5F5"/>
<mask id="path-2-inside-1" fill="white">
<path d="M41.8873 39.2572C41.1558 39.0917 40.4288 39.5508 40.2633 40.2822L40.1453 40.8051L34.0802 39.4329C33.7292 39.3534 33.3606 39.417 33.0559 39.6089L30.7908 41.0386C30.4866 41.2307 30.2708 41.5358 30.1913 41.8872L28.5196 49.276C28.4402 49.6268 28.5035 49.995 28.6956 50.2995L30.1246 52.565C30.3171 52.8694 30.6223 53.0854 30.9735 53.1649L37.0383 54.537L36.9197 55.06C36.7541 55.7915 37.2128 56.5181 37.9444 56.6836C38.6759 56.8491 39.4027 56.3906 39.5682 55.6593L42.9118 40.8813C43.0772 40.15 42.6189 39.4228 41.8873 39.2572Z"/>
</mask>
<path d="M41.8873 39.2572C41.1558 39.0917 40.4288 39.5508 40.2633 40.2822L40.1453 40.8051L34.0802 39.4329C33.7292 39.3534 33.3606 39.417 33.0559 39.6089L30.7908 41.0386C30.4866 41.2307 30.2708 41.5358 30.1913 41.8872L28.5196 49.276C28.4402 49.6268 28.5035 49.995 28.6956 50.2995L30.1246 52.565C30.3171 52.8694 30.6223 53.0854 30.9735 53.1649L37.0383 54.537L36.9197 55.06C36.7541 55.7915 37.2128 56.5181 37.9444 56.6836C38.6759 56.8491 39.4027 56.3906 39.5682 55.6593L42.9118 40.8813C43.0772 40.15 42.6189 39.4228 41.8873 39.2572Z" fill="#BDBDBD" stroke="#BDBDBD" stroke-width="2" mask="url(#path-2-inside-1)"/>
<mask id="path-3-inside-2" fill="white">
<path d="M26.9414 43.9477C22.1312 42.8594 17.1852 43.7092 13.0132 46.3414C8.84229 48.9731 5.94616 53.0721 4.85787 57.8821C3.76978 62.6916 4.61934 67.638 7.25106 71.8088C7.45112 72.1263 7.76072 72.3321 8.09994 72.4089C8.43874 72.4855 8.80696 72.4331 9.12362 72.2333C9.75776 71.8332 9.94763 70.9947 9.54774 70.3606C7.30309 66.8023 6.57779 62.5835 7.50597 58.481C8.43433 54.378 10.9049 50.8826 14.4623 48.6376C18.0205 46.3923 22.2391 45.6679 26.342 46.5962C27.0731 46.7616 27.8001 46.3031 27.9656 45.5713C28.1312 44.84 27.6725 44.113 26.9414 43.9477Z"/>
</mask>
<path d="M26.9414 43.9477C22.1312 42.8594 17.1852 43.7092 13.0132 46.3414C8.84229 48.9731 5.94616 53.0721 4.85787 57.8821C3.76978 62.6916 4.61934 67.638 7.25106 71.8088C7.45112 72.1263 7.76072 72.3321 8.09994 72.4089C8.43874 72.4855 8.80696 72.4331 9.12362 72.2333C9.75776 71.8332 9.94763 70.9947 9.54774 70.3606C7.30309 66.8023 6.57779 62.5835 7.50597 58.481C8.43433 54.378 10.9049 50.8826 14.4623 48.6376C18.0205 46.3923 22.2391 45.6679 26.342 46.5962C27.0731 46.7616 27.8001 46.3031 27.9656 45.5713C28.1312 44.84 27.6725 44.113 26.9414 43.9477Z" fill="white" stroke="#7A7A7A" stroke-width="2" mask="url(#path-3-inside-2)"/>
<path d="M47.4147 52.203L42.8872 51.1786C42.2359 51.0312 41.5887 51.4396 41.4413 52.0913C41.294 52.7422 41.7025 53.3892 42.3538 53.5366L46.8813 54.561C47.5322 54.7082 48.1795 54.3 48.3269 53.6491C48.4742 52.9975 48.0658 52.3502 47.4147 52.203Z" fill="#222222"/>
<path d="M44.0256 46.1478L48.5533 47.1723C49.2044 47.3197 49.8515 46.9113 49.9989 46.2603C50.1462 45.6087 49.7378 44.9618 49.0867 44.8146L44.5591 43.7899C43.9078 43.6426 43.2605 44.0508 43.1131 44.7023C42.9658 45.3534 43.3743 46.0004 44.0256 46.1478Z" fill="#222222"/>
<mask id="path-6-inside-3" fill="white">
<path d="M60.6131 63.8708C61.3518 64.0007 62.0554 63.5074 62.1855 62.769L62.2782 62.2406L68.4025 63.318C68.7571 63.3804 69.1219 63.299 69.4171 63.0923L71.6105 61.555C71.9052 61.3483 72.1059 61.033 72.1683 60.6782L73.4805 53.2172C73.5428 52.863 73.4618 52.498 73.2551 52.2033L71.7181 50.0095C71.5111 49.7149 71.1959 49.5138 70.8414 49.4514L64.7173 48.3746L64.8101 47.8461C64.94 47.1078 64.4469 46.4042 63.7081 46.2743C62.9696 46.1443 62.2659 46.6374 62.1358 47.3758L59.5113 62.2982C59.3814 63.0367 59.8746 63.741 60.6131 63.8708Z"/>
</mask>
<path d="M60.6131 63.8708C61.3518 64.0007 62.0554 63.5074 62.1855 62.769L62.2782 62.2406L68.4025 63.318C68.7571 63.3804 69.1219 63.299 69.4171 63.0923L71.6105 61.555C71.9052 61.3483 72.1059 61.033 72.1683 60.6782L73.4805 53.2172C73.5428 52.863 73.4618 52.498 73.2551 52.2033L71.7181 50.0095C71.5111 49.7149 71.1959 49.5138 70.8414 49.4514L64.7173 48.3746L64.8101 47.8461C64.94 47.1078 64.4469 46.4042 63.7081 46.2743C62.9696 46.1443 62.2659 46.6374 62.1358 47.3758L59.5113 62.2982C59.3814 63.0367 59.8746 63.741 60.6131 63.8708Z" fill="#BDBDBD" stroke="#BDBDBD" stroke-width="2" mask="url(#path-6-inside-3)"/>
<mask id="path-7-inside-4" fill="white">
<path d="M75.3148 58.4605C80.172 59.3149 85.0707 58.227 89.1104 55.3961C93.1492 52.5656 95.8437 48.3314 96.6982 43.4742C97.5523 38.6178 96.4644 33.718 93.6337 29.6793C93.4186 29.372 93.0992 29.1813 92.7569 29.121C92.4149 29.0609 92.0495 29.1312 91.7426 29.3462C91.1287 29.7763 90.9797 30.6231 91.4097 31.2371C93.8239 34.6826 94.753 38.8612 94.0242 43.0037C93.2954 47.1469 90.9967 50.758 87.552 53.1723C84.1068 55.5872 79.9281 56.5151 75.7849 55.7865C75.0466 55.6567 74.3426 56.1497 74.2128 56.8886C74.0827 57.627 74.5766 58.3308 75.3148 58.4605Z"/>
</mask>
<path d="M75.3148 58.4605C80.172 59.3149 85.0707 58.227 89.1104 55.3961C93.1492 52.5656 95.8437 48.3314 96.6982 43.4742C97.5523 38.6178 96.4644 33.718 93.6337 29.6793C93.4186 29.372 93.0992 29.1813 92.7569 29.121C92.4149 29.0609 92.0495 29.1312 91.7426 29.3462C91.1287 29.7763 90.9797 30.6231 91.4097 31.2371C93.8239 34.6826 94.753 38.8612 94.0242 43.0037C93.2954 47.1469 90.9967 50.758 87.552 53.1723C84.1068 55.5872 79.9281 56.5151 75.7849 55.7865C75.0466 55.6567 74.3426 56.1497 74.2128 56.8886C74.0827 57.627 74.5766 58.3308 75.3148 58.4605Z" fill="white" stroke="#7A7A7A" stroke-width="2" mask="url(#path-7-inside-4)"/>
<path d="M62.1935 32.9309L65.1429 28.6315C65.5669 28.0133 65.6089 27.3049 65.2363 27.0492C64.8634 26.7936 64.2174 27.0877 63.7932 27.7059L60.844 32.0055C60.4197 32.6238 60.3777 33.3325 60.7504 33.5881C61.1231 33.8438 61.7692 33.5494 62.1935 32.9309Z" fill="#E96560"/>
<path d="M67.3013 40.0589L70.165 38.4654C70.5767 38.2364 70.7323 37.7305 70.5126 37.3357C70.2928 36.9407 69.7811 36.8066 69.3692 37.0356L66.5057 38.6291C66.0936 38.8583 65.9379 39.3639 66.1577 39.7591C66.3774 40.1539 66.8895 40.2881 67.3013 40.0589Z" fill="#E96560"/>
<path d="M53.3579 31.8326L52.9188 28.5851C52.8555 28.1181 52.4416 27.7884 51.9938 27.849C51.5457 27.9095 51.2342 28.3373 51.2974 28.8043L51.7365 32.0518C51.7997 32.519 52.2136 32.8487 52.6617 32.7879C53.1095 32.7274 53.4211 32.2998 53.3579 31.8326Z" fill="#E96560"/>
<path d="M41.9314 70.4934L38.9817 74.793C38.5576 75.4114 38.5158 76.1198 38.8883 76.3753C39.2613 76.6311 39.9071 76.337 40.331 75.7186L43.2807 71.419C43.705 70.8006 43.747 70.0922 43.3741 69.8363C43.0015 69.5807 42.3557 69.8748 41.9314 70.4934Z" fill="#E96560"/>
<path d="M36.7209 63.3659L33.8571 64.9594C33.4453 65.1886 33.2895 65.6943 33.5093 66.0892C33.7292 66.4842 34.2411 66.6184 34.6527 66.3894L37.5165 64.7957C37.9283 64.5665 38.0843 64.0608 37.8645 63.6656C37.6446 63.2708 37.1327 63.1365 36.7209 63.3659Z" fill="#E96560"/>
<path d="M50.4547 72.4232L50.8938 75.6712C50.9571 76.1379 51.3712 76.4674 51.819 76.4069C52.267 76.3463 52.5786 75.9189 52.5154 75.4519L52.0763 72.2042C52.0131 71.737 51.5992 71.4076 51.1511 71.4681C50.7033 71.5286 50.3915 71.9563 50.4547 72.4232Z" fill="#E96560"/>
</svg>
