<svg width="502" height="241" viewBox="0 0 502 241" fill="none" xmlns="http://www.w3.org/2000/svg">
<path d="M294.563 220.561C275.116 221.025 251.965 220.561 235.528 220.328C219.091 220.793 195.94 221.025 176.495 220.561C195.709 209.66 202.191 189.483 203.348 176.031H267.476C268.865 189.483 275.348 209.66 294.563 220.561Z" fill="#F5F5F5"/>
<path d="M354.261 7.15787V173.19C354.261 176.928 351.376 179.617 347.847 179.617H121.929C118.416 179.617 115.515 176.712 115.515 173.19V7.15787C115.515 3.63607 118.416 0.733129 121.929 0.733129H347.847C351.376 0.733129 354.261 3.42085 354.261 7.15787Z" fill="white" stroke="#BDBDBD" stroke-width="1.46626"/>
<path d="M353.529 7.54177V148.093H116.247V7.33183C116.247 3.5029 118.231 1.4668 122.106 1.4668H347.671C351.318 1.4668 353.529 3.48786 353.529 7.54177Z" fill="#F5F5F5"/>
<rect x="123.699" y="8.79688" width="224.337" height="133.429" fill="white"/>
<path d="M145.589 136.361H137.223C136.625 136.361 135.429 135.267 135.429 134.721V105.744C135.429 104.651 136.027 104.104 137.223 104.104H145.589C146.187 104.104 147.382 105.197 147.382 105.744V134.721C147.382 135.267 146.187 136.361 145.589 136.361Z" fill="#60CA9A"/>
<path d="M169.495 102.637H161.128C160.53 102.637 159.335 102.339 159.335 102.19V94.2872C159.335 93.989 159.933 93.8398 161.128 93.8398H169.495C170.092 93.8398 171.288 94.1381 171.288 94.2872V102.19C171.288 102.339 170.092 102.637 169.495 102.637Z" fill="#BDBDBD"/>
<path d="M193.401 115.835H185.034C184.436 115.835 183.241 115.587 183.241 115.462V108.877C183.241 108.628 183.839 108.504 185.034 108.504H193.401C193.998 108.504 195.193 108.752 195.193 108.877V115.462C195.193 115.587 193.998 115.835 193.401 115.835Z" fill="#BDBDBD"/>
<path d="M240.722 115.835H232.758C232.19 115.835 231.052 115.587 231.052 115.462V108.877C231.052 108.628 231.621 108.504 232.758 108.504H240.722C241.291 108.504 242.428 108.752 242.428 108.877V115.462C242.428 115.587 241.291 115.835 240.722 115.835Z" fill="#BDBDBD"/>
<path d="M217.306 126.098H208.939C208.342 126.098 207.146 125.75 207.146 125.576V116.356C207.146 116.008 207.744 115.834 208.939 115.834H217.306C217.904 115.834 219.099 116.182 219.099 116.356V125.576C219.099 125.75 217.904 126.098 217.306 126.098Z" fill="#BDBDBD"/>
<path d="M265.117 137.828H256.751C256.153 137.828 254.957 137.082 254.957 136.709V116.952C254.957 116.207 255.555 115.834 256.751 115.834H265.117C265.715 115.834 266.91 116.58 266.91 116.952V136.709C266.91 137.082 265.715 137.828 265.117 137.828Z" fill="#60CA9A"/>
<path d="M332.432 71.3999H139.471C137.677 71.3999 135.883 70.76 135.883 69.6404C135.883 68.7721 137.229 67.8809 139.471 67.8809H332.432C334.226 67.8809 336.02 68.5436 336.02 69.6404C336.02 70.5315 334.226 71.3999 332.432 71.3999Z" fill="#F5F5F5"/>
<path d="M332.432 77.8511H139.471C137.677 77.8511 135.883 77.1926 135.883 76.1029C135.883 75.2175 137.229 74.332 139.471 74.332H332.432C334.226 74.332 336.02 74.9905 336.02 76.1029C336.02 77.1926 334.226 77.8511 332.432 77.8511Z" fill="#F5F5F5"/>
<path d="M287.547 34.4189L287.765 34.4207L287.967 34.3392L304.516 27.6794L334.468 19.0923V62.6259H145.058L155.386 59.6582L178.175 57.3428L178.311 57.3289L178.441 57.2819L201.775 48.7837L201.889 48.7421L201.991 48.6768L209.834 43.6669L232 41.8984L232.115 41.8892L232.226 41.8563L258.091 34.1798L287.547 34.4189Z" fill="#F5F5F5" stroke="#60CA9A" stroke-width="2.20554"/>
<path d="M137.228 63.728H335.571V19.5996L306.101 29.0444L287.556 40.5313L257.935 40.2906L231.912 46.1969L209.473 47.7468L201.398 51.3545L178.063 58.0624L155.176 59.8531L137.228 63.728Z" fill="#F5F5F5"/>
<path d="M137.228 63.7223H335.571V43.8926L304.157 47.7411L287.556 50.5737H257.935L231.912 53.6738L209.473 54.6894L201.398 56.7472L178.063 60.355L155.176 61.3973L137.228 63.7223Z" fill="#F5F5F5"/>
<path d="M235.529 171.857C238.853 171.857 241.548 169.157 241.548 165.828C241.548 162.496 238.853 159.797 235.529 159.797C232.205 159.797 229.51 162.496 229.51 165.828C229.51 169.157 232.205 171.857 235.529 171.857Z" fill="#7A7A7A"/>
<path d="M2 221.404H500" stroke="#BDBDBD" stroke-width="2.93252" stroke-miterlimit="10" stroke-linecap="round" stroke-linejoin="round"/>
<path d="M357.32 115.197L329.741 108.43L332.205 100.012L359.782 106.78L357.32 115.197Z" fill="#222222"/>
<path d="M346.279 119.248L337.086 116.993L340.166 106.471L349.358 108.728L346.279 119.248Z" fill="#222222"/>
<path d="M368.153 137.615L363.402 130.071L370.249 126.454L375 133.998L368.153 137.615Z" fill="#222222"/>
<path d="M299.658 143.899C294.903 160.146 305.471 176.902 323.21 181.254C340.949 185.607 359.25 175.934 364.004 159.687C368.758 143.441 358.189 126.685 340.452 122.333C322.713 117.981 304.41 127.653 299.658 143.899Z" fill="white"/>
<path d="M320.746 189.659C297.938 184.063 284.353 162.517 290.464 141.632C296.576 120.746 320.105 108.306 342.915 113.903C365.724 119.499 379.308 141.045 373.197 161.931C367.086 182.816 343.555 195.256 320.746 189.659ZM340.452 122.321C322.713 117.969 304.41 127.641 299.658 143.887C294.903 160.133 305.471 176.89 323.21 181.242C340.949 185.594 359.25 175.921 364.004 159.675C368.759 143.429 358.189 126.673 340.452 122.321Z" fill="#BDBDBD"/>
<path d="M324.441 177.04C309.239 173.31 300.178 158.947 304.253 145.022C308.329 131.097 324.017 122.805 339.22 126.536C341.756 127.158 343.265 129.548 342.585 131.872C341.904 134.197 339.291 135.575 336.757 134.953C326.616 132.465 316.163 137.995 313.446 147.277C310.729 156.559 316.765 166.135 326.904 168.623C329.44 169.245 330.949 171.635 330.27 173.959C329.589 176.284 326.976 177.662 324.441 177.04Z" fill="#F5F5F5"/>
<path d="M330.599 155.999C328.064 155.377 326.555 152.984 327.235 150.663C327.914 148.342 330.527 146.96 333.061 147.582C335.597 148.204 337.106 150.597 336.427 152.918C335.748 155.24 333.133 156.621 330.599 155.999Z" fill="#222222"/>
<path d="M331.83 151.796C330.559 151.484 329.808 150.289 330.149 149.128L336.305 128.085C336.646 126.924 337.948 126.232 339.219 126.544C340.491 126.856 341.242 128.052 340.902 129.212L334.744 150.256C334.405 151.416 333.102 152.108 331.83 151.796Z" fill="#222222"/>
<path d="M151.4 239H456.059" stroke="#BDBDBD" stroke-width="2.93252" stroke-miterlimit="10" stroke-linecap="round" stroke-linejoin="round"/>
<path d="M51.8 239H89.8824" stroke="#BDBDBD" stroke-width="2.93252" stroke-miterlimit="10" stroke-linecap="round" stroke-linejoin="round"/>
</svg>
