<svg width="24" height="24" viewBox="0 0 24 24" fill="none" xmlns="http://www.w3.org/2000/svg">
<path d="M5.33301 7.83301H18.6663" stroke="#E96560" stroke-width="1.3" stroke-linecap="round" stroke-linejoin="round"/>
<path d="M10.333 11.167V16.167" stroke="#E96560" stroke-width="1.3" stroke-linecap="round" stroke-linejoin="round"/>
<path d="M13.667 11.167V16.167" stroke="#E96560" stroke-width="1.3" stroke-linecap="round" stroke-linejoin="round"/>
<path d="M6.16699 7.83301L7.00033 17.833C7.00033 18.275 7.17592 18.699 7.48848 19.0115C7.80104 19.3241 8.22496 19.4997 8.66699 19.4997H15.3337C15.7757 19.4997 16.1996 19.3241 16.5122 19.0115C16.8247 18.699 17.0003 18.275 17.0003 17.833L17.8337 7.83301" stroke="#E96560" stroke-width="1.3" stroke-linecap="round" stroke-linejoin="round"/>
<path d="M9.5 7.83333V5.33333C9.5 5.11232 9.5878 4.90036 9.74408 4.74408C9.90036 4.5878 10.1123 4.5 10.3333 4.5H13.6667C13.8877 4.5 14.0996 4.5878 14.2559 4.74408C14.4122 4.90036 14.5 5.11232 14.5 5.33333V7.83333" stroke="#E96560" stroke-width="1.3" stroke-linecap="round" stroke-linejoin="round"/>
</svg>
