<svg width="24" height="24" viewBox="0 0 24 24" fill="none" xmlns="http://www.w3.org/2000/svg">
<path d="M9.49999 7.8335H6.99999C6.55796 7.8335 6.13404 8.00909 5.82148 8.32165C5.50892 8.63421 5.33332 9.05813 5.33332 9.50016V17.0002C5.33332 17.4422 5.50892 17.8661 5.82148 18.1787C6.13404 18.4912 6.55796 18.6668 6.99999 18.6668H14.5C14.942 18.6668 15.3659 18.4912 15.6785 18.1787C15.9911 17.8661 16.1666 17.4422 16.1666 17.0002V14.5002" stroke="#0597F2" stroke-linecap="round" stroke-linejoin="round"/>
<path d="M9.5 14.5H12L19.0833 7.41669C19.4149 7.08517 19.6011 6.63553 19.6011 6.16669C19.6011 5.69785 19.4149 5.24821 19.0833 4.91669C18.7518 4.58517 18.3022 4.39893 17.8333 4.39893C17.3645 4.39893 16.9149 4.58517 16.5833 4.91669L9.5 12V14.5Z" stroke="#0597F2" stroke-linecap="round" stroke-linejoin="round"/>
<path d="M15.3333 6.1665L17.8333 8.6665" stroke="#0597F2" stroke-linecap="round" stroke-linejoin="round"/>
</svg>
