<svg width="16" height="16" viewBox="0 0 16 16" fill="none" xmlns="http://www.w3.org/2000/svg">
<path fill-rule="evenodd" clip-rule="evenodd" d="M7.41657 0.0082964C7.0535 0.037882 6.35599 0.157633 5.97757 0.255344C4.93173 0.525434 3.87206 1.05766 2.99008 1.75579C2.68805 1.99489 1.99132 2.69217 1.75242 2.99444C0.861835 4.12136 0.303691 5.40403 0.0767675 6.84527C-0.0255892 7.49537 -0.0255892 8.51193 0.0767675 9.16203C0.303691 10.6033 0.861835 11.8859 1.75242 13.0129C1.99132 13.3151 2.68805 14.0124 2.99008 14.2515C3.87206 14.9496 4.93173 15.4819 5.97757 15.752C6.70358 15.9394 7.19637 16 7.9953 16C8.79422 16 9.28702 15.9394 10.013 15.752C11.0589 15.4819 12.1185 14.9496 13.0005 14.2515C13.3025 14.0124 13.9993 13.3151 14.2382 13.0129C14.9358 12.1301 15.4678 11.0691 15.7373 10.023C15.9363 9.25088 16.0567 8.13292 15.9731 7.83427C15.8128 7.26113 15.029 7.17096 14.7597 7.6947C14.6961 7.81824 14.6814 7.90888 14.6576 8.32057C14.5584 10.0432 13.9036 11.5173 12.7049 12.717C11.4248 13.998 9.80155 14.6718 7.9953 14.6718C6.18904 14.6718 4.56576 13.998 3.28573 12.717C2.00571 11.4359 1.33245 9.81135 1.33245 8.00365C1.33245 6.19595 2.00571 4.57137 3.28573 3.29033C4.325 2.25023 5.60903 1.60345 7.04959 1.39444C7.44382 1.33724 7.6027 1.33004 8.16673 1.34384C8.86564 1.36097 9.14008 1.39788 9.73405 1.5547C10.7626 1.82629 11.7316 2.36544 12.5377 3.11466C12.8763 3.42933 12.9635 3.47689 13.2038 3.47777C13.6559 3.47946 13.96 3.06754 13.8299 2.62958C13.7885 2.49023 13.7378 2.42602 13.4586 2.15931C12.2901 1.04276 10.7877 0.323563 9.09019 0.0680938C8.77017 0.0199115 7.73008 -0.0172192 7.41657 0.0082964ZM5.72731 5.40187C5.38961 5.55834 5.24734 5.94158 5.40103 6.28067C5.44617 6.38032 5.69065 6.64806 6.25142 7.21207L7.03846 8.00365L6.25142 8.79523C5.69065 9.35923 5.44617 9.62698 5.40103 9.72663C5.14708 10.2869 5.71389 10.8541 6.27369 10.6C6.37326 10.5548 6.64079 10.3101 7.20435 9.74892L7.9953 8.96125L8.78625 9.74892C9.3498 10.3101 9.61733 10.5548 9.7169 10.6C10.2767 10.8541 10.8435 10.2869 10.5896 9.72663C10.5444 9.62698 10.2999 9.35923 9.73917 8.79523L8.95214 8.00365L9.73917 7.21207C10.2999 6.64806 10.5444 6.38032 10.5896 6.28067C10.8435 5.72042 10.2767 5.15316 9.7169 5.40731C9.61733 5.45249 9.3498 5.69716 8.78625 6.25838L7.9953 7.04604L7.20435 6.25838C6.36366 5.42118 6.26127 5.34388 5.99321 5.34388C5.91579 5.34388 5.79613 5.36996 5.72731 5.40187Z" fill="#E96560"/>
</svg>
