<svg width="14" height="14" viewBox="0 0 14 14" fill="none" xmlns="http://www.w3.org/2000/svg">
<path d="M7 12.25C9.8995 12.25 12.25 9.8995 12.25 7C12.25 4.1005 9.8995 1.75 7 1.75C4.1005 1.75 1.75 4.1005 1.75 7C1.75 9.8995 4.1005 12.25 7 12.25Z" stroke="#0597F2" stroke-width="1.3" stroke-linecap="round" stroke-linejoin="round"/>
<path d="M7 9.91675V9.92258" stroke="#0597F2" stroke-width="1.3" stroke-linecap="round" stroke-linejoin="round"/>
<path d="M6.99967 7.87493C6.98893 7.68557 7.04002 7.49784 7.14523 7.34002C7.25044 7.18221 7.40408 7.06285 7.58301 6.99993C7.80227 6.91609 7.99907 6.78249 8.15792 6.60966C8.31678 6.43683 8.43334 6.22948 8.49845 6.00394C8.56355 5.77841 8.57541 5.54084 8.5331 5.30994C8.49079 5.07904 8.39545 4.86111 8.25461 4.67332C8.11376 4.48552 7.93124 4.33298 7.72143 4.22771C7.51161 4.12244 7.28022 4.06731 7.04548 4.06666C6.81074 4.06601 6.57905 4.11985 6.36865 4.22396C6.15825 4.32807 5.97489 4.47959 5.83301 4.6666" stroke="#0597F2" stroke-width="1.3" stroke-linecap="round" stroke-linejoin="round"/>
</svg>
