<svg width="236" height="56" viewBox="0 0 236 56" fill="none" xmlns="http://www.w3.org/2000/svg">
<path d="M22 52H232" stroke="#BDBDBD" stroke-linecap="round" stroke-linejoin="round"/>
<path d="M31.5 19L48.3425 29.4783L65.399 22.9565L85.0294 11L101.838 15.1304L121.221 35.5652L139.828 26.8696L157.918 46L176.008 25.5652L194.441 31L212.964 29.913L231.5 18" stroke="#EFFAF5" stroke-width="8" stroke-linecap="round" stroke-linejoin="round"/>
<path d="M32 12.087L50.3908 29.4783L67.249 22.9565L86.4061 6L103.264 15.1304L122.421 35.5652L140.812 26.8696L158.692 46L176.572 25.5652L194.963 22.5217L213.098 29.913L232 12.087" stroke="#60CA9A" stroke-width="1.5" stroke-linecap="round" stroke-linejoin="round"/>
<circle cx="32.5" cy="11.5" r="3" fill="#E96560" stroke="white"/>
<circle cx="86.5" cy="5.5" r="3" fill="#E96560" stroke="white"/>
<circle cx="194.5" cy="22.5" r="3" fill="#E96560" stroke="white"/>
<circle cx="231.5" cy="11.5" r="3" fill="#E96560" stroke="white"/>
<path d="M0.788086 8.57955H4.23624V10H5.28382V8.57955H6.24618V7.64915H5.28382V2.72727H3.93084L0.788086 7.69176V8.57955ZM4.24334 7.64915H1.93865V7.59233L4.18652 4.03409H4.24334V7.64915ZM7.58319 2.72727V10H8.62722V4.73366H8.69469L10.8396 9.98935H11.7061L13.8509 4.73722H13.9184V10H14.9624V2.72727H13.6308L11.3154 8.38068H11.2302L8.91486 2.72727H7.58319Z" fill="#BDBDBD"/>
<path d="M1.14586 32H5.93279V31.0589H2.65865V31.0057L4.10396 29.4929C5.43564 28.147 5.81561 27.5043 5.81561 26.6911C5.81561 25.5227 4.8639 24.6278 3.49316 24.6278C2.13308 24.6278 1.13876 25.5085 1.13876 26.8366H2.18635C2.18279 26.0554 2.68706 25.544 3.47186 25.544C4.21049 25.544 4.77157 25.9986 4.77157 26.723C4.77157 27.3658 4.38805 27.8274 3.6068 28.6548L1.14586 31.2045V32ZM7.37811 24.7273V32H8.42214V26.7337H8.48961L10.6345 31.9893H11.501L13.6459 26.7372H13.7133V32H14.7574V24.7273H13.4257L11.1104 30.3807H11.0251L8.70978 24.7273H7.37811Z" fill="#BDBDBD"/>
<path d="M8.004 54.1207C9.68368 54.1207 10.6673 52.75 10.6673 50.3672C10.6673 48.0021 9.66948 46.6278 8.004 46.6278C6.33496 46.6278 5.34064 47.9986 5.33709 50.3672C5.33709 52.7464 6.32076 54.1172 8.004 54.1207ZM8.004 53.1726C7.02033 53.1726 6.42729 52.1854 6.42729 50.3672C6.43084 48.5561 7.02388 47.5582 8.004 47.5582C8.98056 47.5582 9.57715 48.5561 9.57715 50.3672C9.57715 52.1854 8.98411 53.1726 8.004 53.1726Z" fill="#BDBDBD"/>
</svg>
