<svg width="104" height="104" viewBox="0 0 104 104" fill="none" xmlns="http://www.w3.org/2000/svg">
<rect width="104" height="104" fill="white"/>
<path d="M49.2993 83.2137C75.0035 85.815 88.2507 79.4921 89.0416 64.2446C90.2274 41.3734 70.25 43.8441 64.4321 37.8163C58.6139 31.7885 65.1316 40.3547 53.9268 27.8637C46.4566 19.5363 36.5028 19.4935 24.0652 27.7357C14.0329 35.9009 12.9479 46.609 20.8098 59.8598C28.6717 73.1102 38.1681 80.895 49.2993 83.2137Z" fill="#F5F5F5"/>
<path d="M17.2931 68.2788C17.5054 68.4911 17.5054 68.8353 17.2931 69.0476C17.0808 69.2599 16.7365 69.2598 16.5243 69.0475L15.6503 68.173L14.7738 69.0495C14.5614 69.2618 14.2172 69.2618 14.0048 69.0495C13.7925 68.8372 13.7925 68.493 14.0047 68.2807L14.8808 67.4042L14.0068 66.5301C13.7945 66.3178 13.7944 65.9736 14.0066 65.7613C14.219 65.5487 14.5635 65.5487 14.7759 65.7612L15.6496 66.6353L16.5261 65.7593C16.7384 65.5471 17.0827 65.5471 17.295 65.7594C17.5073 65.9717 17.5074 66.316 17.2951 66.5283L16.4191 67.4048L17.2931 68.2788Z" fill="#222222"/>
<path d="M83.7221 39.8478C82.479 39.8478 81.4724 38.8396 81.4724 37.5968C81.4724 36.354 82.479 35.3457 83.7221 35.3457C84.9653 35.3457 85.9719 36.354 85.9719 37.5968C85.9719 38.8396 84.9653 39.8478 83.7221 39.8478ZM83.7221 38.5648C84.2541 38.5648 84.6863 38.132 84.6863 37.5968C84.6863 37.0615 84.2541 36.6287 83.7221 36.6287C83.1898 36.6287 82.7576 37.0615 82.7576 37.5968C82.7576 38.132 83.1898 38.5648 83.7221 38.5648Z" fill="#BDBDBD"/>
<path d="M37.6166 26.6032C42.8004 26.6032 43.4484 29.6671 43.4484 32.7256V36.0623C43.4484 36.5911 43.8505 37.0207 44.3452 37.0207L74.8891 36.755C75.3842 36.755 75.7859 36.3257 75.7859 35.797V32.1997C75.7859 28.9184 73.2971 26.2578 70.2273 26.2578C70.0193 26.2578 37.3995 26.6032 37.6166 26.6032Z" fill="#F5F5F5"/>
<path d="M37.6162 27.1632C37.6162 27.6635 38.0228 28.0694 38.5234 28.0694C70.2343 28.0694 70.2401 28.0691 70.246 28.0694C72.324 28.073 74.0078 29.7713 74.011 31.8679V36.1665H74.9078C75.4026 36.1665 75.8043 35.7615 75.8043 35.2623V31.8679C75.8176 28.7676 73.3371 26.2438 70.2641 26.2305H70.2282H69.8935C69.8112 26.2353 69.7312 26.2486 69.6498 26.2574H38.5221C38.0218 26.2574 37.6162 26.663 37.6162 27.1632Z" fill="#1EBBD7"/>
<path d="M69.5786 27.3624C67.4484 27.6953 65.8412 29.6227 65.8136 31.8115L65.8135 31.8115V31.8197V31.8621V71.5563C65.8109 75.4643 62.6756 78.6253 58.8127 78.6381C58.8123 78.6381 58.8119 78.6381 58.8115 78.6381L31.1602 78.6381C31.0295 78.6381 30.9137 78.5292 30.9137 78.3842V33.9896C30.9199 30.0762 34.0635 26.914 37.9317 26.9078H69.5786V27.3624ZM70.227 27.3117C70.2272 27.3117 70.2275 27.3117 70.2277 27.3117L70.227 27.3117Z" fill="white" stroke="#BDBDBD" stroke-width="1.3"/>
<path d="M70.2282 26.2305H69.8936C66.9621 26.4093 64.6748 28.8567 64.6706 31.8196V31.9041V71.534C64.665 74.2344 62.8562 76.5921 60.2663 77.2741C59.6782 77.4273 59.0607 77.4273 58.473 77.2741C56.0739 76 56.0668 76.2085 56.0739 73.498V72.2921C56.0775 71.7929 55.679 71.3846 55.1839 71.3817H49.5015H44.9329H37.8898H30.5155H26.108C25.6132 71.3817 25.2115 71.787 25.2115 72.2863V73.5644C25.2076 77.833 26.636 79.2961 30.8676 79.2996H30.879H40.5452H58.8132C59.0105 79.2996 59.3154 79.2996 59.5127 79.2695C59.8613 79.2374 60.207 79.1794 60.5468 79.0949C64.0187 78.2797 66.4771 75.1604 66.4813 71.5644V31.85V31.8076C66.5069 29.8591 67.9879 28.2453 69.9117 28.0697C70.0232 28.0636 70.1346 28.0636 70.2464 28.0697C72.3244 28.073 74.0082 29.7717 74.0118 31.8678V36.1668H74.9082C75.4033 36.1668 75.805 35.7619 75.805 35.2626V31.8678C75.818 28.7676 73.3375 26.2441 70.2645 26.2305H70.2282Z" fill="#BDBDBD"/>
<path opacity="0.5" d="M72.1198 62.6064C72.7305 61.9977 73.7187 61.9986 74.3288 62.6077L82.0358 70.3021C82.6439 70.9093 82.6446 71.8945 82.0374 72.503L82.0348 72.5056C81.4241 73.114 80.4359 73.1137 79.8255 72.5043L72.1185 64.8102C71.5104 64.2027 71.5098 63.2175 72.1169 62.6094L72.1198 62.6064Z" fill="#BDBDBD"/>
<g opacity="0.5">
<path d="M73.7645 63.1969C78.5235 58.8361 78.8533 51.451 74.5015 46.7018C70.1494 41.9524 62.7639 41.6375 58.0049 45.9983C53.246 50.3591 52.9155 57.7444 57.2675 62.4938C61.6194 67.243 69.0055 67.5577 73.7645 63.1969Z" stroke="#BDBDBD" stroke-width="2" stroke-miterlimit="10"/>
</g>
<path d="M37.4869 61.4961H46.2524" stroke="#BDBDBD" stroke-width="2" stroke-miterlimit="10" stroke-linecap="round"/>
<path d="M37.4869 53.332H46.2524" stroke="#BDBDBD" stroke-width="2" stroke-miterlimit="10" stroke-linecap="round"/>
<path d="M37.4865 45.166H57.3551" stroke="#BDBDBD" stroke-width="2" stroke-miterlimit="10" stroke-linecap="round"/>
<path d="M37.4865 36.418H59.6508" stroke="#BDBDBD" stroke-width="2" stroke-miterlimit="10" stroke-linecap="round"/>
<path d="M72.3547 60.6299C72.9654 60.0211 73.9536 60.0221 74.5636 60.6312L82.2707 68.3256C82.8788 68.9327 82.8795 69.918 82.2723 70.5264L82.2697 70.529C81.659 71.1374 80.6708 71.1371 80.0604 70.5277L72.3534 62.8336C71.7453 62.2262 71.7446 61.2409 72.3518 60.6328L72.3547 60.6299Z" fill="#222222"/>
<path d="M73.9994 62.2203C78.7584 57.8595 79.0882 50.4745 74.7364 45.7253C70.3843 40.9759 62.9988 40.661 58.2399 45.0218C53.4809 49.3826 53.1504 56.7678 57.5025 61.5172C61.8543 66.2664 69.2404 66.5811 73.9994 62.2203Z" fill="white"/>
<path d="M73.9994 62.2203C78.7584 57.8595 79.0882 50.4745 74.7364 45.7253C70.3843 40.9759 62.9988 40.661 58.2399 45.0218C53.4809 49.3826 53.1504 56.7678 57.5025 61.5172C61.8543 66.2664 69.2404 66.5811 73.9994 62.2203Z" stroke="#222222" stroke-width="1.3" stroke-miterlimit="10"/>
<path d="M69.8776 55.6918C70.1828 55.997 70.1827 56.4919 69.8774 56.797C69.5722 57.1021 69.0775 57.102 68.7724 56.7969L66.4796 54.504L64.2114 56.772C63.9045 57.0788 63.4069 57.0789 63.1 56.772C62.793 56.4651 62.7929 55.9674 63.0999 55.6605L65.368 53.3921L63.0751 51.0992C62.7699 50.794 62.7699 50.2991 63.0752 49.9939C63.3804 49.6888 63.8752 49.6888 64.1804 49.994L66.4731 52.287L68.7412 50.0189C69.0481 49.712 69.5458 49.712 69.8528 50.0189C70.1598 50.3259 70.1598 50.8236 69.8528 51.1305L67.5847 53.3989L69.8776 55.6918Z" fill="#E96560"/>
</svg>
