<svg width="16" height="16" viewBox="0 0 16 16" fill="none" xmlns="http://www.w3.org/2000/svg">
<g clip-path="url(#clip0)">
<path d="M15.4534 9.58002C15.3604 9.29829 15.1167 9.10207 14.8016 9.05498C14.653 9.0328 14.4828 9.04226 14.2815 9.08377C13.9305 9.15618 13.6701 9.18376 13.48 9.18909C14.1974 7.978 14.7806 6.59692 15.1164 5.29687C15.6594 3.19472 15.3692 2.23706 15.0302 1.80389C14.1329 0.657336 12.8237 0.0413976 11.2444 0.022551C10.4019 0.012249 9.66223 0.178596 9.27639 0.29822C8.91716 0.234833 8.53089 0.199442 8.1256 0.192898C7.36586 0.180778 6.69459 0.346397 6.12101 0.686788C5.80347 0.579404 5.29382 0.428026 4.70528 0.331429C3.32105 0.104179 2.20541 0.281252 1.38937 0.85774C0.401224 1.55573 -0.0568513 2.76846 0.0278675 4.46223C0.0547739 4.99999 0.355592 6.63619 0.829242 8.18792C1.10146 9.07983 1.39173 9.82048 1.692 10.3895C2.11784 11.1964 2.57349 11.6716 3.08502 11.8422C3.37171 11.9377 3.89263 12.0046 4.44052 11.5483C4.50996 11.6324 4.60262 11.716 4.72558 11.7936C4.88174 11.8921 5.0727 11.9726 5.2634 12.0203C5.95067 12.1921 6.59442 12.1491 7.14364 11.9083C7.14703 12.006 7.14964 12.0993 7.15182 12.1799C7.15546 12.3106 7.15909 12.4388 7.16388 12.5586C7.19642 13.3691 7.25157 13.9993 7.41495 14.4402C7.42391 14.4644 7.43597 14.5014 7.4487 14.5406C7.53021 14.7902 7.6665 15.2079 8.01325 15.5351C8.3723 15.8741 8.80662 15.978 9.2044 15.978C9.4039 15.978 9.59424 15.9518 9.76119 15.9161C10.3563 15.7885 11.0322 15.5942 11.5211 14.898C11.9833 14.2399 12.208 13.2487 12.2487 11.6868C12.254 11.6427 12.2588 11.6005 12.2635 11.5603L12.2732 11.4778L12.3821 11.4873L12.4101 11.4892C13.0163 11.5169 13.7574 11.3883 14.2126 11.1769C14.5722 11.01 15.7248 10.4015 15.4534 9.58002Z" fill="black"/>
<path d="M14.4171 9.7398C12.6149 10.1116 12.4909 9.5014 12.4909 9.5014C14.3938 6.67787 15.1893 3.0938 14.5029 2.21661C12.6301 -0.176177 9.38828 0.955467 9.33416 0.984798L9.31677 0.987949C8.96068 0.914017 8.56224 0.870021 8.11434 0.862689C7.29891 0.849357 6.68031 1.07649 6.2109 1.43245C6.2109 1.43245 0.427843 -0.949979 0.696846 4.42876C0.754052 5.57301 2.33692 13.0869 4.22486 10.8173C4.91491 9.98741 5.58169 9.28573 5.58169 9.28573C5.91281 9.5057 6.30925 9.61794 6.72485 9.57764L6.75715 9.55024C6.74709 9.65326 6.75169 9.75404 6.77006 9.87336C6.28368 10.4168 6.42664 10.5121 5.45437 10.7123C4.47053 10.9151 5.04847 11.276 5.42583 11.3704C5.8833 11.4848 6.94161 11.6468 7.65669 10.6458L7.62821 10.76C7.81874 10.9127 7.95254 11.7528 7.93012 12.5145C7.9077 13.2761 7.89273 13.799 8.04284 14.2075C8.19306 14.6159 8.34269 15.5349 9.62086 15.2611C10.6888 15.0322 11.2423 14.4391 11.3193 13.4497C11.3739 12.7464 11.4976 12.8504 11.5053 12.2216L11.6045 11.9239C11.7189 10.9705 11.6227 10.6629 12.2807 10.8059L12.4406 10.82C12.9248 10.842 13.5587 10.7421 13.9307 10.5692C14.7317 10.1975 15.2068 9.57673 14.417 9.7398H14.4171Z" fill="#336791"/>
<path d="M6.54936 4.9401C6.38695 4.91749 6.23988 4.9384 6.16546 4.99476C6.12365 5.02645 6.11068 5.06317 6.10716 5.08844C6.09783 5.1554 6.14474 5.22945 6.17358 5.26763C6.25515 5.37573 6.37429 5.45003 6.49222 5.46639C6.50931 5.46881 6.52634 5.4699 6.54324 5.4699C6.73989 5.4699 6.91872 5.31677 6.93448 5.20376C6.95417 5.0622 6.74868 4.96785 6.54936 4.94016V4.9401ZM11.9297 4.94458C11.9142 4.83363 11.7167 4.80199 11.5294 4.82805C11.3422 4.85411 11.1608 4.93858 11.1759 5.04978C11.1881 5.13625 11.3442 5.28387 11.529 5.28387C11.5447 5.28387 11.5604 5.28284 11.5763 5.2806C11.6997 5.26351 11.7902 5.18515 11.8333 5.14001C11.8987 5.07117 11.9366 4.99445 11.9297 4.94458Z" fill="white"/>
<path d="M15.0169 9.69723C14.9482 9.48944 14.727 9.42259 14.3595 9.49846C13.2684 9.72365 12.8777 9.56767 12.7494 9.4732C13.5975 8.1812 14.2952 6.61942 14.6716 5.16229C14.8498 4.47206 14.9483 3.83103 14.9564 3.30854C14.9653 2.73508 14.8676 2.31367 14.6662 2.05624C13.854 1.01847 12.662 0.461794 11.2191 0.446523C10.2272 0.435373 9.38906 0.689226 9.22659 0.760613C8.88444 0.67553 8.51145 0.623293 8.10537 0.616627C7.36072 0.604568 6.71702 0.782853 6.18411 1.14627C5.95261 1.0601 5.35437 0.854725 4.62275 0.736858C3.3579 0.533242 2.35279 0.687529 1.63553 1.19566C0.779677 1.80202 0.384566 2.88591 0.461103 4.41716C0.486858 4.93232 0.780405 6.51713 1.24363 8.03485C1.85339 10.0325 2.51623 11.1633 3.21362 11.396C3.29524 11.4232 3.38936 11.4422 3.49316 11.4422C3.74756 11.4422 4.05947 11.3276 4.38398 10.9374C4.7798 10.4626 5.18924 9.99929 5.6118 9.5481C5.88595 9.69523 6.18714 9.77741 6.49517 9.78565C6.49577 9.79371 6.49656 9.80177 6.49729 9.80977C6.44426 9.873 6.39234 9.93714 6.34154 10.0022C6.12811 10.2731 6.08369 10.3295 5.39667 10.471C5.20123 10.5113 4.6822 10.6183 4.67456 10.9821C4.66632 11.3797 5.28814 11.5466 5.35898 11.5643C5.60586 11.6261 5.84372 11.6566 6.07054 11.6566C6.62218 11.6566 7.10765 11.4753 7.49561 11.1245C7.48367 12.5417 7.54276 13.9381 7.71292 14.3636C7.8523 14.7119 8.19275 15.5632 9.26816 15.5631C9.42596 15.5631 9.59964 15.5448 9.79071 15.5038C10.9131 15.2632 11.4005 14.7671 11.589 13.6735C11.6899 13.089 11.8631 11.6933 11.9445 10.9447C12.1164 10.9983 12.3376 11.0229 12.5768 11.0228C13.0757 11.0228 13.6513 10.9168 14.0123 10.7492C14.4178 10.5609 15.1496 10.0988 15.0169 9.69723ZM12.3441 4.63835C12.3404 4.85935 12.31 5.06 12.2777 5.26943C12.243 5.49468 12.2071 5.72757 12.1981 6.01027C12.1892 6.28539 12.2236 6.57142 12.2568 6.84806C12.3239 7.4068 12.3928 7.98201 12.1261 8.54959C12.0818 8.47109 12.0424 8.38996 12.0079 8.30665C11.9748 8.22629 11.9028 8.09721 11.8031 7.91856C11.4153 7.22312 10.5072 5.59455 10.9721 4.93001C11.1106 4.73222 11.462 4.52884 12.3441 4.63835ZM11.2749 0.894054C12.5677 0.922597 13.5904 1.40625 14.3144 2.33149C14.8698 3.04117 14.2583 6.27036 12.488 9.05621C12.4702 9.03357 12.4523 9.01101 12.4343 8.98852L12.4118 8.96052C12.8693 8.20502 12.7799 7.45752 12.7002 6.7948C12.6675 6.52282 12.6366 6.26594 12.6445 6.02463C12.6526 5.7689 12.6864 5.54953 12.7191 5.33743C12.7593 5.07606 12.8002 4.8056 12.789 4.48678C12.7974 4.45333 12.8008 4.41382 12.7964 4.36692C12.7676 4.06119 12.4185 3.14619 11.7071 2.31803C11.3179 1.86505 10.7504 1.35813 9.97548 1.01622C10.3088 0.94714 10.7646 0.882722 11.2749 0.894054ZM4.04056 10.6519C3.68302 11.0818 3.43614 10.9993 3.35493 10.9723C2.8259 10.7958 2.21202 9.67766 1.6708 7.9045C1.20248 6.37023 0.928814 4.82742 0.907119 4.39479C0.838762 3.02657 1.17043 2.07303 1.89296 1.56059C3.06884 0.726738 5.0021 1.22584 5.77893 1.47897C5.76778 1.48999 5.75615 1.5003 5.74512 1.51151C4.47034 2.79889 4.50058 4.99843 4.50373 5.1329C4.50361 5.18478 4.50797 5.25822 4.51391 5.35924C4.53585 5.72921 4.57669 6.41774 4.46761 7.19748C4.36629 7.92208 4.58966 8.63128 5.08034 9.14329C5.1307 9.19573 5.18362 9.24565 5.23893 9.29285C5.02053 9.52677 4.54585 10.044 4.04056 10.6519ZM5.40279 8.83429C5.00731 8.4216 4.8277 7.8476 4.90993 7.2593C5.02507 6.43562 4.98259 5.71824 4.95974 5.33282C4.95653 5.27889 4.95368 5.23162 4.95205 5.19435C5.13827 5.02922 6.00128 4.56684 6.61673 4.70785C6.89755 4.77215 7.06868 4.9634 7.13983 5.29234C7.50803 6.99538 7.18855 7.70519 6.93185 8.27562C6.87895 8.39312 6.82895 8.5042 6.78629 8.6191L6.7532 8.70794C6.66945 8.93252 6.59152 9.14135 6.54322 9.33963C6.12278 9.33842 5.71379 9.1588 5.40279 8.83423V8.83429ZM5.46733 11.131C5.34455 11.1004 5.23414 11.0471 5.16936 11.0029C5.22347 10.9775 5.31977 10.9428 5.48678 10.9084C6.295 10.742 6.41984 10.6246 6.69242 10.2785C6.7549 10.1991 6.82574 10.1092 6.92385 9.99963L6.92397 9.99951C7.07008 9.83589 7.13692 9.86364 7.25812 9.91394C7.35635 9.95454 7.45204 10.0777 7.49082 10.2132C7.50919 10.2772 7.52979 10.3986 7.46234 10.4932C6.89294 11.2904 6.06321 11.2802 5.46733 11.131ZM9.69715 15.0671C8.7084 15.279 8.35831 14.7745 8.12761 14.1978C7.97871 13.8254 7.90551 12.1464 7.95744 10.2923C7.95811 10.2676 7.95459 10.2438 7.94781 10.2214C7.94174 10.1771 7.9325 10.1333 7.92017 10.0903C7.84297 9.82055 7.65481 9.59488 7.42907 9.50131C7.33938 9.46417 7.17479 9.39599 6.977 9.44659C7.01917 9.27279 7.09232 9.07651 7.17164 8.86398L7.20491 8.7746C7.24236 8.67382 7.28939 8.56941 7.33908 8.45887C7.60772 7.86208 7.97562 7.04465 7.57633 5.19799C7.42677 4.5063 6.9273 4.16851 6.17017 4.24699C5.71627 4.29396 5.30098 4.47709 5.09385 4.58211C5.04931 4.60465 5.00859 4.62647 4.97053 4.64768C5.02834 3.95078 5.24675 2.64836 6.06375 1.82432C6.57819 1.30559 7.26327 1.04937 8.09798 1.06319C9.74266 1.0901 10.7973 1.93413 11.3926 2.63752C11.9055 3.24358 12.1832 3.85412 12.294 4.18342C11.4605 4.09864 10.8936 4.26317 10.6062 4.67404C9.981 5.56777 10.9482 7.30238 11.4131 8.13606C11.4984 8.28883 11.5719 8.42088 11.5951 8.47699C11.7465 8.84386 11.9424 9.08881 12.0855 9.26758C12.1294 9.32236 12.1719 9.37551 12.2043 9.42193C11.9518 9.49471 11.4984 9.66287 11.5397 10.5035C11.5064 10.9252 11.2694 12.8999 11.1489 13.5976C10.99 14.5194 10.6508 14.8627 9.69715 15.0672V15.0671ZM13.8242 10.3442C13.5661 10.464 13.1341 10.5539 12.7237 10.5732C12.2704 10.5944 12.0396 10.5224 11.9853 10.4781C11.9599 9.9543 12.1548 9.89958 12.3612 9.84164C12.3936 9.83255 12.4252 9.82364 12.4558 9.81298C12.4747 9.82843 12.4955 9.84376 12.5183 9.85879C12.8826 10.0993 13.5325 10.1252 14.4499 9.93582L14.4599 9.93382C14.3362 10.0495 14.1245 10.2048 13.8242 10.3442Z" fill="white"/>
</g>
<defs>
<clipPath id="clip0">
<rect width="15.5136" height="16" fill="white"/>
</clipPath>
</defs>
</svg>
