<svg width="17" height="18" viewBox="0 0 17 18" fill="none" xmlns="http://www.w3.org/2000/svg">
<path fill-rule="evenodd" clip-rule="evenodd" d="M8.01819 0.0388809C7.12873 0.241485 6.49209 0.981903 6.40707 1.91257C6.38032 2.20562 6.33876 2.34875 6.24624 2.46636C6.20503 2.51876 5.93771 2.67263 5.60598 2.8349C5.11022 3.07741 4.85525 3.23275 4.23375 3.6709C4.14165 3.73583 4.04075 3.77032 3.9116 3.78105C3.74967 3.79446 3.68686 3.77901 3.4599 3.66985C2.65733 3.28382 1.80289 3.37894 1.12166 3.93017C0.853603 4.14706 0.59001 4.53587 0.476936 4.88121C0.356788 5.24806 0.354606 5.8438 0.47215 6.18598C0.636288 6.66382 0.929372 7.03845 1.36361 7.32552C1.49326 7.41121 1.63308 7.53808 1.67803 7.61082L1.75897 7.74177L1.71582 8.36078C1.682 8.84577 1.68179 9.10482 1.71491 9.5574C1.75636 10.1239 1.7557 10.1378 1.68063 10.2793C1.63009 10.3746 1.52694 10.4759 1.37723 10.5775C1.15626 10.7273 0.850963 11.0116 0.741796 11.1691C0.626012 11.3362 0.476866 11.6773 0.426892 11.8894C0.265604 12.5734 0.46124 13.2907 0.950382 13.8092C1.59986 14.4975 2.53064 14.6667 3.43118 14.2601C3.8668 14.0634 3.95837 14.0809 4.46644 14.4576C4.84846 14.7409 5.30945 15.0084 5.7566 15.2064C5.9591 15.2961 6.15534 15.3966 6.19268 15.4297C6.30205 15.5269 6.38979 15.7578 6.39063 15.9507C6.39169 16.199 6.50846 16.6315 6.64451 16.8912C6.79408 17.1767 7.22104 17.6036 7.50652 17.7532C7.97346 17.9979 8.51335 18.0638 9.00988 17.9368C9.41002 17.8344 9.67777 17.6794 9.98106 17.3743C10.387 16.9661 10.5524 16.5981 10.6099 15.9756C10.6491 15.5506 10.7171 15.4401 11.0305 15.2927C11.8204 14.9212 12.0848 14.7687 12.5986 14.388C12.8815 14.1784 12.9297 14.1552 13.1089 14.1426C13.2797 14.1305 13.3424 14.1457 13.5671 14.2538C14.3416 14.6262 15.1613 14.5376 15.8353 14.0086C16.6399 13.3771 16.856 12.317 16.3741 11.3659C16.2495 11.1199 15.9267 10.7796 15.6325 10.584C15.2836 10.352 15.2417 10.2838 15.2453 9.95349C15.2469 9.80487 15.2521 9.39027 15.2567 9.03218C15.2613 8.6741 15.2494 8.27441 15.2301 8.14399C15.1697 7.73579 15.2402 7.60202 15.6775 7.29557C16.1561 6.96025 16.4293 6.57743 16.563 6.05503C16.835 4.9915 16.238 3.89856 15.1896 3.54062C14.8761 3.4336 14.3743 3.41016 14.0458 3.4872C13.9103 3.51897 13.6807 3.60372 13.5355 3.67555C13.3387 3.77285 13.2295 3.80544 13.1063 3.80354C12.9287 3.80083 12.9454 3.80995 12.2466 3.33453C12.0361 3.19133 11.6245 2.95913 11.3319 2.8185C10.6988 2.51423 10.6596 2.47076 10.6097 2.01801C10.5408 1.39292 10.3548 0.961843 9.99865 0.601435C9.6178 0.216041 9.17296 0.0269154 8.59095 0.0030196C8.36223 -0.00634164 8.1617 0.00618693 8.01819 0.0388809ZM8.80354 1.46154C9.06615 1.58081 9.20559 1.82543 9.20714 2.16962C9.21037 2.88118 9.69441 3.60294 10.3858 3.92696C11.055 4.24063 11.2824 4.36655 11.6029 4.60083C12.2164 5.04926 12.4943 5.17306 12.9833 5.21568C13.3141 5.24454 13.6597 5.17099 14.0605 4.98637C14.4104 4.82522 14.5948 4.80685 14.82 4.91077C15.1681 5.07139 15.3164 5.46611 15.159 5.81269C15.0925 5.95902 15.014 6.03324 14.6277 6.31482C14.029 6.75124 13.7221 7.47125 13.819 8.21205C13.8388 8.3631 13.851 8.73217 13.8463 9.03218C13.8255 10.3348 13.8286 10.4058 13.9181 10.651C14.0878 11.1166 14.3493 11.4275 14.8494 11.7588C15.1309 11.9453 15.236 12.1334 15.2167 12.4163C15.1976 12.6961 15.0692 12.8818 14.814 12.9987C14.5795 13.106 14.3961 13.0967 14.1435 12.9646C13.8375 12.8046 13.5136 12.7251 13.1673 12.725C12.6382 12.7249 12.298 12.8494 11.8079 13.2225C11.4532 13.4925 11.0626 13.7271 10.6709 13.9054C10.1269 14.1529 10.0417 14.207 9.78739 14.4654C9.42434 14.8343 9.20875 15.3313 9.20735 15.8027C9.20657 16.0548 9.13696 16.2461 8.99404 16.3891C8.76392 16.6192 8.38518 16.6566 8.11138 16.4763C7.90807 16.3423 7.83497 16.1891 7.79676 15.817C7.75533 15.4134 7.68527 15.1607 7.54502 14.9094C7.29301 14.4577 6.99999 14.2142 6.37304 13.9355C5.92292 13.7353 5.57441 13.5301 5.15759 13.2197C4.68112 12.8649 4.30822 12.7274 3.82235 12.7274C3.50304 12.7274 3.26676 12.7848 2.87299 12.9579C2.63819 13.0611 2.54866 13.0838 2.42858 13.0702C2.06697 13.0295 1.81348 12.7714 1.78944 12.4196C1.76907 12.1208 1.87053 11.9512 2.21035 11.7163C2.8354 11.2843 3.15386 10.721 3.15358 10.0477C3.15351 9.90531 3.13658 9.60881 3.11596 9.38879C3.08809 9.09116 3.08953 8.87044 3.12159 8.52657C3.1955 7.73347 3.15914 7.42015 2.9438 6.99351C2.81035 6.72914 2.48024 6.37362 2.19427 6.18622C1.92698 6.01111 1.81137 5.84982 1.78941 5.62152C1.75946 5.30958 1.91258 5.03391 2.18445 4.91042C2.41098 4.80752 2.59606 4.82543 2.93929 4.98352C3.33915 5.16771 3.54746 5.20857 3.97846 5.18749C4.50825 5.16159 4.63019 5.10711 5.49259 4.5113C5.76283 4.32457 5.98462 4.20632 6.65085 3.89364C7.21685 3.62804 7.61667 3.12073 7.74618 2.50395C7.77462 2.36846 7.79816 2.18978 7.79851 2.10691C7.79922 1.93214 7.87488 1.73154 7.98556 1.61118C8.17374 1.4065 8.53633 1.34016 8.80354 1.46154ZM8.05553 5.33826C7.21347 5.44359 6.44011 5.81104 5.87858 6.3726C4.99007 7.26108 4.60661 8.68476 4.92525 9.912C5.38124 11.6683 7.0929 12.8652 8.86369 12.6659C10.6149 12.4688 11.9512 11.158 12.1674 9.42518C12.2631 8.65872 12.0501 7.69852 11.6311 7.0072C11.1391 6.19537 10.2303 5.57528 9.25911 5.38872C8.91979 5.32355 8.36047 5.30011 8.05553 5.33826ZM9.20682 6.81491C10.177 7.14079 10.8461 8.1076 10.7777 9.08497C10.6871 10.3804 9.77261 11.2515 8.50297 11.2518C8.05634 11.2519 7.81291 11.1945 7.41425 10.9952C6.52306 10.5495 6.03368 9.44489 6.2859 8.44834C6.49649 7.61631 7.13707 6.97155 7.9598 6.76356C8.26264 6.68698 8.90473 6.71344 9.20682 6.81491Z" fill="#222222"/>
</svg>
