<svg width="21" height="20" viewBox="0 0 21 20" fill="none" xmlns="http://www.w3.org/2000/svg">
<g clip-path="url(#clip0)">
<path d="M10.5014 17.3822C14.5774 17.3822 17.8817 14.0779 17.8817 10.0019C17.8817 5.92586 14.5774 2.62158 10.5014 2.62158C6.42537 2.62158 3.12109 5.92586 3.12109 10.0019C3.12109 14.0779 6.42537 17.3822 10.5014 17.3822Z" fill="#60CA9A"/>
<path d="M10.5 18C6.08916 18 2.5 14.4115 2.5 10C2.5 5.58916 6.08916 2 10.5 2C14.9115 2 18.5 5.58916 18.5 10C18.5 14.4115 14.9115 18 10.5 18ZM10.5 3.23934C6.77203 3.23934 3.73934 6.27203 3.73934 10C3.73934 13.728 6.77203 16.7607 10.5 16.7607C14.228 16.7607 17.2607 13.7273 17.2607 10C17.2607 6.27203 14.228 3.23934 10.5 3.23934Z" fill="#60CA9A"/>
<path d="M9.53318 12.944C9.36712 12.944 9.20846 12.8777 9.09134 12.7588L6.80474 10.435C6.56493 10.1908 6.56803 9.79921 6.81218 9.55877C7.05634 9.31958 7.44859 9.32205 7.6884 9.56621L9.51521 11.4227L13.2946 7.2604C13.5257 7.00696 13.9174 6.98899 14.1696 7.21827C14.423 7.44818 14.4416 7.8398 14.2117 8.09387L9.99174 12.7414C9.87712 12.8678 9.71599 12.9409 9.54559 12.9446C9.54124 12.944 9.53753 12.944 9.53318 12.944Z" fill="white"/>
</g>
<defs>
<clipPath id="clip0">
<rect width="16" height="16" fill="white" transform="translate(2.5 2)"/>
</clipPath>
</defs>
</svg>
