<svg width="20" height="20" viewBox="0 0 20 20" fill="none" xmlns="http://www.w3.org/2000/svg">
<g clip-path="url(#clip0)">
<path d="M9.99907 17.3824C14.077 17.3824 17.3829 14.0766 17.3829 9.99858C17.3829 5.9206 14.077 2.61475 9.99907 2.61475C5.92109 2.61475 2.61523 5.9206 2.61523 9.99858C2.61523 14.0766 5.92109 17.3824 9.99907 17.3824Z" fill="#F2545B"/>
<path d="M9.99998 17.9988C7.95035 17.9988 5.90072 17.2189 4.34025 15.659C1.21992 12.5387 1.21992 7.4605 4.34025 4.33953C7.46059 1.21982 12.5394 1.21919 15.6597 4.33953C18.7801 7.4605 18.7801 12.5381 15.6597 15.659C14.0992 17.2189 12.049 17.9988 9.99998 17.9988ZM5.21689 5.21618C2.58016 7.85354 2.58016 12.145 5.21689 14.7824C7.85488 17.4191 12.1463 17.4198 14.7831 14.7824C17.4199 12.145 17.4198 7.85354 14.7831 5.21618C12.1451 2.57944 7.85425 2.57944 5.21689 5.21618Z" fill="#F2545B"/>
<path d="M7.84864 12.7723C7.68992 12.7723 7.53123 12.7115 7.41032 12.5906C7.16791 12.3482 7.16791 11.9564 7.41032 11.714L11.7935 7.33073C12.0359 7.08832 12.4278 7.08832 12.6702 7.33073C12.9126 7.57315 12.9126 7.96497 12.6702 8.20738L8.28696 12.5906C8.16543 12.7115 8.00733 12.7723 7.84864 12.7723Z" fill="white"/>
<path d="M12.2309 12.7723C12.0722 12.7723 11.9135 12.7115 11.7926 12.5906L7.40935 8.20738C7.16694 7.96497 7.16694 7.57315 7.40935 7.33073C7.65176 7.08832 8.04358 7.08832 8.28599 7.33073L12.6692 11.714C12.9116 11.9564 12.9116 12.3482 12.6692 12.5906C12.5483 12.7115 12.3896 12.7723 12.2309 12.7723Z" fill="white"/>
</g>
<defs>
<clipPath id="clip0">
<rect width="16" height="16" fill="white" transform="translate(2 2)"/>
</clipPath>
</defs>
</svg>
