<svg width="30" height="30" viewBox="0 0 30 30" fill="none" xmlns="http://www.w3.org/2000/svg">
<path d="M7.54688 22.7344C7.31251 22.6875 7.12501 22.6406 6.89063 22.5469C6.65626 22.4531 6.46876 22.4062 6.28126 22.3125C5.85938 22.125 5.48438 21.8906 5.10938 21.6094C4.35938 21.0937 3.75001 20.3906 3.28126 19.5469C2.81251 18.75 2.53126 17.8125 2.48438 16.9219C2.43751 16.4531 2.48438 16.0313 2.53126 15.5625C2.57813 15.3281 2.62501 15.1406 2.67188 14.9062C2.71876 14.6719 2.81251 14.4844 2.85938 14.25L2.90626 14.9062C2.90626 15.1406 2.95313 15.3281 3.00001 15.5625C3.04688 15.9844 3.14063 16.4062 3.23438 16.7812C3.42188 17.5781 3.70313 18.3281 4.12501 19.0312C4.54688 19.7344 5.01563 20.3906 5.62501 21C5.90626 21.2812 6.23438 21.5625 6.56251 21.8437C6.70313 21.9844 6.89063 22.125 7.07813 22.2656L7.54688 22.7344Z" fill="#0597F2"/>
<path d="M7.40625 24.4219C7.26563 24.5156 7.07813 24.5625 6.89063 24.6094C6.70313 24.6562 6.5625 24.7031 6.375 24.7031C6.04688 24.75 5.67188 24.7969 5.29688 24.75C4.59375 24.7031 3.84375 24.5156 3.23438 24.1875C2.57813 23.8594 2.01563 23.3437 1.64063 22.7344C1.45313 22.4531 1.26563 22.125 1.125 21.7969C1.07813 21.6562 1.03125 21.4687 0.984375 21.2812C0.984375 21.1406 0.9375 21 0.9375 20.8125C1.07813 20.9531 1.17188 21.0937 1.26563 21.1875C1.40625 21.3281 1.5 21.4687 1.59375 21.5625C1.82813 21.7969 2.01563 22.0312 2.25 22.2187C2.71875 22.6406 3.1875 23.0156 3.75 23.2969C4.26563 23.5781 4.875 23.8125 5.4375 24C5.71875 24.0937 6.04688 24.1406 6.375 24.2344C6.51563 24.2812 6.70313 24.2812 6.84375 24.3281C7.07813 24.375 7.21875 24.375 7.40625 24.4219Z" fill="#0597F2"/>
<path d="M18 1.64062C18.2344 1.6875 18.4219 1.78125 18.6562 1.875C18.8906 1.96875 19.0781 2.0625 19.2656 2.15625C19.6875 2.39062 20.0625 2.625 20.4375 2.90625C21.1875 3.46875 21.7969 4.21875 22.2188 5.0625C22.6406 5.90625 22.875 6.84375 22.875 7.73438C22.875 8.20313 22.8281 8.625 22.7344 9.09375C22.6875 9.32813 22.6406 9.51562 22.5469 9.75C22.4531 9.98438 22.4063 10.1719 22.3125 10.3594L22.2656 9.70313C22.2656 9.46875 22.2656 9.28125 22.2188 9.04688L22.0781 7.78125C21.9375 6.98438 21.6563 6.1875 21.2813 5.4375C20.9063 4.6875 20.4375 4.03125 19.875 3.42188C19.5938 3.09375 19.2656 2.8125 18.9844 2.48438C18.8437 2.34375 18.6563 2.20313 18.4688 2.0625L18 1.64062Z" fill="#0597F2"/>
<path d="M22.0781 1.45312C22.2656 1.5 22.4062 1.54688 22.5469 1.64063C22.6875 1.6875 22.875 1.78125 23.0156 1.875C23.2969 2.0625 23.5781 2.25 23.8594 2.48438C24.375 2.95313 24.7969 3.51563 25.0312 4.17188C25.3125 4.82813 25.4062 5.53125 25.3125 6.23438C25.2656 6.5625 25.1719 6.89063 25.0781 7.21875C25.0312 7.35938 24.9375 7.54688 24.8906 7.6875C24.7969 7.82813 24.75 7.96875 24.6094 8.10938V7.17188C24.6094 6.84375 24.5625 6.5625 24.5625 6.28125C24.4687 5.67188 24.375 5.10938 24.1406 4.59375C23.9062 4.03125 23.625 3.5625 23.2969 3.04688C23.1094 2.8125 22.9219 2.53125 22.7344 2.29688C22.6406 2.15625 22.5469 2.0625 22.4063 1.92188C22.3125 1.6875 22.1719 1.54688 22.0781 1.45312Z" fill="#0597F2"/>
<path d="M4.68752 8.43762C3.75002 8.8595 3.4219 9.9845 3.84377 10.922L9.75002 23.2501L13.0313 21.7033L7.12502 9.32825C6.70315 8.39075 5.62502 7.96887 4.68752 8.43762Z" fill="#FFDD67"/>
<path d="M20.2031 18.2345L23.6719 16.5939L16.9219 2.53137C16.4531 1.59387 15.3281 1.172 14.3438 1.64075C13.4063 2.1095 12.9844 3.2345 13.4531 4.21887L20.2031 18.2345Z" fill="#FFDD67"/>
<path d="M14.3906 1.59384C14.2969 1.64071 14.2031 1.68759 14.1094 1.78134C15 1.54696 15.9375 1.96884 16.3594 2.81259L23.1094 16.8751L23.7187 16.5938L16.9687 2.53134C16.5 1.54696 15.375 1.12509 14.3906 1.59384Z" fill="#F7F7F7"/>
<path d="M13.0313 21.6566L16.6407 19.9223L9.75003 5.57851C9.28128 4.59413 8.06253 4.12538 7.07815 4.59413C6.09378 5.06288 5.6719 6.28163 6.14065 7.26601L13.0313 21.6566Z" fill="#FFDD67"/>
<path d="M7.07813 4.6407C6.98438 4.68758 6.89063 4.73445 6.79688 4.8282C7.6875 4.59383 8.71875 5.0157 9.14063 5.90633L13.4063 14.8595L14.4375 15.4688L9.75 5.62508C9.28125 4.59383 8.10938 4.17195 7.07813 4.6407Z" fill="#F7F7F7"/>
<path d="M16.0782 18.7969L19.6875 17.0625L12.7969 2.71873C12.3282 1.73435 11.1094 1.2656 10.125 1.78123C9.14065 2.24998 8.71878 3.46873 9.18753 4.4531L16.0782 18.7969Z" fill="#FFDD67"/>
<path d="M10.125 1.73445C10.0313 1.78133 9.9375 1.87508 9.84375 1.92195C10.7344 1.68758 11.7656 2.10945 12.1875 3.00008L17.0156 13.1251L18.0469 13.7345L12.7969 2.71883C12.3281 1.68758 11.1094 1.2657 10.125 1.73445Z" fill="#F7F7F7"/>
<path d="M4.6875 8.43759C4.59375 8.48446 4.5 8.53134 4.40625 8.62509C5.25 8.39071 6.14062 8.81259 6.51562 9.65634L10.0312 17.0157L11.0625 17.6251L7.125 9.37509C6.70312 8.39071 5.625 7.96884 4.6875 8.43759Z" fill="#F7F7F7"/>
<path d="M28.5 7.03088C27.2344 6.04651 25.1719 7.12463 24.1406 10.4996C23.4375 12.8434 23.3438 13.5465 21.8438 14.2496L21 12.5153C21 12.5153 7.68751 18.9371 8.20314 19.9684C8.20314 19.9684 9.79689 24.9371 12.5156 27.234C16.5469 30.7028 25.9688 26.9996 26.3906 18.0465C26.625 12.8434 29.8594 8.10901 28.5 7.03088Z" fill="#FFDD67"/>
<path d="M28.5 7.03125C28.2656 6.84375 27.9844 6.75 27.7031 6.70312C27.75 6.75 27.8438 6.75 27.8906 6.79687C29.2969 7.875 27.8438 10.3594 27.0469 12.6094C26.3906 14.3906 25.8281 16.2188 25.9219 18C26.2969 25.7813 18.4688 29.4844 13.7812 28.0781C18.375 30 26.9063 26.3438 26.5313 18.2344C26.4375 16.4531 26.9531 14.7188 27.6563 12.8437C28.4063 10.5937 29.8594 8.10937 28.5 7.03125Z" fill="#FFF0BA"/>
<path d="M22.2656 14.0625C19.3594 14.3906 15.0938 18.5625 18.0938 23.1094C15.8906 18.5156 19.5 15.4219 21.7969 14.3438C22.0313 14.1563 22.2656 14.0625 22.2656 14.0625Z" fill="#F7F7F7"/>
</svg>
