<svg width="104" height="104" viewBox="0 0 104 104" fill="none" xmlns="http://www.w3.org/2000/svg">
<rect width="104" height="104" fill="white"/>
<g clip-path="url(#clip0)">
<path d="M85.8048 76.6341H18.195C17.7507 76.6341 17.3901 76.2735 17.3901 75.8292V29.9512H86.6096V75.8292C86.6096 76.2735 86.2475 76.6341 85.8048 76.6341Z" fill="white"/>
<path d="M27.8537 77.4394H18.1952C17.3066 77.4394 16.5854 76.7166 16.5854 75.8297V70.1955C16.5854 69.7512 16.946 69.3906 17.3903 69.3906C17.8346 69.3906 18.1952 69.7512 18.1952 70.1955V75.8297H27.8537C28.298 75.8297 28.6586 76.1902 28.6586 76.6345C28.6586 77.0788 28.298 77.4394 27.8537 77.4394Z" fill="#BDBDBD"/>
<path d="M85.805 77.4392H76.1464C75.7021 77.4392 75.3415 77.0786 75.3415 76.6343C75.3415 76.19 75.7021 75.8294 76.1464 75.8294H85.805V30.7562H18.1952V74.2197C18.1952 74.6639 17.8346 75.0245 17.3903 75.0245C16.946 75.0245 16.5854 74.6639 16.5854 74.2197V30.1465C16.5854 29.5942 17.0332 29.1465 17.5854 29.1465H86.4147C86.967 29.1465 87.4147 29.5942 87.4147 30.1465V75.8294C87.4147 76.7164 86.6936 77.4392 85.805 77.4392Z" fill="#BDBDBD"/>
<path d="M83.3901 74.2189H20.6096C20.1653 74.2189 19.8047 73.8583 19.8047 73.414V33.1701C19.8047 32.7258 20.1653 32.3652 20.6096 32.3652H83.3901C83.8343 32.3652 84.1949 32.7258 84.1949 33.1701V73.414C84.1949 73.8583 83.8343 74.2189 83.3901 74.2189Z" fill="#F5F5F5"/>
<path opacity="0.4" d="M80.1708 71.0006H23.8293C23.385 71.0006 23.0244 70.64 23.0244 70.1957V55.7079C23.0244 55.2636 23.385 54.903 23.8293 54.903H80.1708C80.615 54.903 80.9756 55.2636 80.9756 55.7079V70.1957C80.9756 70.64 80.615 71.0006 80.1708 71.0006ZM80.1708 51.6835H23.8293C23.385 51.6835 23.0244 51.3229 23.0244 50.8786V36.3908C23.0244 35.9465 23.385 35.5859 23.8293 35.5859H80.1708C80.615 35.5859 80.9756 35.9465 80.9756 36.3908V50.8786C80.9756 51.3229 80.615 51.6835 80.1708 51.6835Z" fill="#7A7A7A"/>
<path d="M39.9269 26.7312C40.8159 26.7312 41.5367 26.0105 41.5367 25.1215C41.5367 24.2324 40.8159 23.5117 39.9269 23.5117C39.0379 23.5117 38.3171 24.2324 38.3171 25.1215C38.3171 26.0105 39.0379 26.7312 39.9269 26.7312Z" fill="white"/>
<path d="M31.8781 26.7312C32.7671 26.7312 33.4878 26.0105 33.4878 25.1215C33.4878 24.2324 32.7671 23.5117 31.8781 23.5117C30.989 23.5117 30.2683 24.2324 30.2683 25.1215C30.2683 26.0105 30.989 26.7312 31.8781 26.7312Z" fill="white"/>
<path d="M23.8292 26.7312C24.7183 26.7312 25.439 26.0105 25.439 25.1215C25.439 24.2324 24.7183 23.5117 23.8292 23.5117C22.9402 23.5117 22.2195 24.2324 22.2195 25.1215C22.2195 26.0105 22.9402 26.7312 23.8292 26.7312Z" fill="white"/>
<path d="M72.5708 76.9771C73.4417 78.5595 72.6562 79.8537 70.8275 79.8537H33.1721C31.3434 79.8537 30.5578 78.5595 31.4287 76.9771L50.4206 42.4043C51.2915 40.8236 52.7097 40.8236 53.5805 42.4043L72.5708 76.9771Z" fill="#F5F5F5"/>
<path d="M70.8276 80.6588H33.1721C32.0002 80.6588 31.0585 80.2016 30.5885 79.4048C30.1233 78.6176 30.1716 77.5922 30.7237 76.5893L49.714 42.0182C50.8553 39.9497 53.146 39.9497 54.2841 42.0182L73.2776 76.5909C73.8298 77.5938 73.878 78.6192 73.4128 79.4064C72.9428 80.2016 71.9995 80.6588 70.8276 80.6588ZM51.9999 42.0246C51.7165 42.0246 51.3898 42.3128 51.1241 42.7941L32.1339 77.3652C31.8634 77.8578 31.8039 78.3021 31.9713 78.5854C32.1467 78.88 32.583 79.049 33.1721 79.049H70.8292C71.4167 79.049 71.8546 78.88 72.0284 78.5854C72.1959 78.3005 72.1363 77.8562 71.8659 77.3652L52.874 42.7941C52.61 42.3128 52.2832 42.0246 51.9999 42.0246Z" fill="#222222"/>
<path d="M70.8273 79.0492H33.1718C32.8998 79.0492 32.7195 79.0154 32.61 78.9945C32.4507 78.98 32.2977 78.9188 32.1706 78.8142C31.9742 78.6516 31.8663 78.4053 31.8792 78.1494C31.8921 77.9127 31.979 77.6471 32.1368 77.3638L51.1238 42.7959C51.2204 42.6253 51.3057 42.5013 51.3782 42.4144C51.6856 42.0442 52.3118 42.0442 52.6193 42.4144C52.6917 42.5029 52.7819 42.6269 52.872 42.7959L71.8639 77.367C71.9766 77.5731 72.0314 77.7292 72.0652 77.8242C72.1344 77.9771 72.1553 78.1478 72.1215 78.3152C72.0748 78.555 71.9187 78.7611 71.6997 78.8738C71.476 78.9897 71.1814 79.0492 70.8273 79.0492ZM33.93 77.4395H70.0675L52.006 44.557L33.93 77.4395Z" fill="#F5F5F5"/>
<path d="M54.4147 54.9029C54.4147 58.4251 52.0001 66.9761 52.0001 66.9761C52.0001 66.9761 49.5854 58.3236 49.5854 54.9029C49.5854 53.5684 50.6656 52.4883 52.0001 52.4883C53.3346 52.4883 54.4147 53.5684 54.4147 54.9029Z" fill="white"/>
<path d="M51.9998 67.7812C51.6376 67.7812 51.3221 67.5397 51.2255 67.192C51.1241 66.8346 48.7803 58.3947 48.7803 54.9031C48.7803 53.1275 50.2242 51.6836 51.9998 51.6836C53.7753 51.6836 55.2193 53.1275 55.2193 54.9031C55.2193 58.4961 52.8739 66.8427 52.7741 67.1952C52.6759 67.5413 52.3604 67.7812 51.9998 67.7812ZM51.9998 53.2933C51.1112 53.2933 50.39 54.0161 50.39 54.9031C50.39 56.9411 51.306 61.0089 52.003 63.8067C52.7 61.0298 53.6095 56.9974 53.6095 54.9031C53.6095 54.0161 52.8884 53.2933 51.9998 53.2933Z" fill="#E96560"/>
<path d="M52.0001 75.0246C53.3336 75.0246 54.4147 73.9435 54.4147 72.6099C54.4147 71.2764 53.3336 70.1953 52.0001 70.1953C50.6665 70.1953 49.5854 71.2764 49.5854 72.6099C49.5854 73.9435 50.6665 75.0246 52.0001 75.0246Z" fill="white"/>
<path d="M51.9998 75.8297C50.2242 75.8297 48.7803 74.3857 48.7803 72.6101C48.7803 70.8346 50.2242 69.3906 51.9998 69.3906C53.7753 69.3906 55.2193 70.8346 55.2193 72.6101C55.2193 74.3857 53.7753 75.8297 51.9998 75.8297ZM51.9998 71.0004C51.1112 71.0004 50.39 71.7232 50.39 72.6101C50.39 73.4971 51.1112 74.2199 51.9998 74.2199C52.8884 74.2199 53.6095 73.4971 53.6095 72.6101C53.6095 71.7232 52.8884 71.0004 51.9998 71.0004Z" fill="#E96560"/>
</g>
<defs>
<clipPath id="clip0">
<rect width="72" height="57.9512" fill="white" transform="translate(16 23)"/>
</clipPath>
</defs>
</svg>
