<svg width="24" height="24" viewBox="0 0 24 24" fill="none" xmlns="http://www.w3.org/2000/svg">
<path fill-rule="evenodd" clip-rule="evenodd" d="M11.8707 2.07227C11.5765 2.24973 11.5789 2.23855 11.5661 3.44006L11.5546 4.51625L11.1621 4.58321C8.99923 4.95231 7.14789 6.62173 6.55388 8.73863C6.36501 9.41179 6.35071 9.58475 6.31998 11.569C6.29309 13.3049 6.28363 13.4944 6.20753 13.8165C6.08327 14.3424 5.98164 14.6309 5.75322 15.1064C5.47026 15.6955 5.13251 16.1577 4.59666 16.6892C4.06687 17.2148 3.9618 17.3625 3.87448 17.7043C3.70773 18.3571 4.03959 19.0452 4.67104 19.3562L4.93094 19.4842L7.01902 19.5037L9.10715 19.5233L9.17387 19.7578C9.5309 21.0123 10.6543 21.9083 11.9765 21.9934C13.2739 22.0769 14.4624 21.3577 15.0195 20.152C15.0906 19.9981 15.1696 19.7892 15.1952 19.688L15.2415 19.5037H17.2464C19.0991 19.5037 19.2693 19.4981 19.4875 19.4302C20.1266 19.2313 20.548 18.6109 20.5 17.9395C20.4688 17.5043 20.349 17.3044 19.7546 16.6953C19.4682 16.4018 19.141 16.0298 19.0275 15.8686C18.6205 15.2907 18.2836 14.5094 18.1207 13.7657C18.0452 13.4212 18.0349 13.2116 18.0077 11.4713C17.9802 9.71343 17.9707 9.52386 17.8924 9.16511C17.5009 7.37334 16.3762 5.9103 14.7828 5.11988C14.217 4.83927 13.8556 4.7163 13.2592 4.60162L12.8088 4.51496L12.808 3.51761C12.807 2.40061 12.785 2.28772 12.5336 2.10866C12.3523 1.97956 12.0519 1.96306 11.8707 2.07227ZM6.14444 3.00384C5.98841 3.10082 5.49489 3.61728 5.18715 4.00557C3.8599 5.68039 3.09606 7.74675 3.01253 9.88823C2.98939 10.4817 2.99083 10.4969 3.0823 10.63C3.13366 10.7047 3.23681 10.8074 3.31154 10.8582C3.42509 10.9353 3.48435 10.9479 3.6722 10.9348C3.85525 10.922 3.91939 10.8977 4.0177 10.8043C4.20891 10.6225 4.23612 10.5298 4.2634 9.96738C4.37042 7.76344 5.2092 5.76361 6.68553 4.19272C7.00456 3.85325 7.07758 3.71257 7.05209 3.48649C7.00315 3.05219 6.49842 2.78382 6.14444 3.00384ZM17.6948 2.95889C17.4468 3.05204 17.2949 3.27933 17.2949 3.55701C17.2949 3.79212 17.3164 3.82878 17.6986 4.24424C18.9362 5.58936 19.7383 7.27105 19.9992 9.06739C20.0225 9.22863 20.0563 9.62982 20.074 9.95894C20.1013 10.4632 20.1186 10.5739 20.1843 10.6625C20.4709 11.0495 21.0107 11.0405 21.2553 10.6446C21.3374 10.5118 21.3401 10.4779 21.3184 9.83554C21.2569 8.01047 20.6803 6.24771 19.6287 4.67006C19.1398 3.93655 18.4279 3.10793 18.1892 2.9947C18.0577 2.93231 17.8127 2.91457 17.6948 2.95889ZM13.1606 5.85836C14.7069 6.20662 16.0067 7.36713 16.4998 8.83975C16.7191 9.49462 16.7235 9.54141 16.755 11.569C16.7864 13.5937 16.802 13.7716 17.0132 14.513C17.3556 15.7148 18.0812 16.8982 18.956 17.6815C19.2498 17.9445 19.3053 18.058 19.1982 18.1763C19.1299 18.2519 19.0316 18.2529 12.1849 18.2529C6.47383 18.2529 5.22823 18.2437 5.16984 18.201C5.02021 18.0916 5.08033 17.971 5.47441 17.5898C6.36419 16.729 6.9831 15.7044 7.31585 14.5411C7.53595 13.7717 7.57113 13.3934 7.57117 11.7964C7.57117 11.0156 7.58931 10.1833 7.61139 9.94686C7.81312 7.79009 9.43275 6.08964 11.5776 5.78284C11.9315 5.73218 12.7803 5.77272 13.1606 5.85836ZM13.8205 19.7474C13.5695 20.2446 13.0438 20.6229 12.4663 20.7219C11.7286 20.8484 10.9211 20.4599 10.541 19.7956C10.4769 19.6836 10.4245 19.5721 10.4245 19.5478C10.4245 19.5157 10.9037 19.5037 12.184 19.5037H13.9435L13.8205 19.7474Z" fill="#BDBDBD"/>
</svg>
