<svg width="24" height="24" viewBox="0 0 24 24" fill="none" xmlns="http://www.w3.org/2000/svg">
<path fill-rule="evenodd" clip-rule="evenodd" d="M17.1953 2.09315C17.0986 2.1444 16.9668 2.26118 16.9023 2.35269C16.7998 2.49822 16.7852 2.55244 16.7852 2.78573C16.7852 3.01902 16.7998 3.07324 16.9023 3.21877C16.9668 3.31028 17.097 3.42605 17.1917 3.476C17.3613 3.56552 17.3821 3.56689 18.5837 3.56689H19.5687C19.723 3.56689 19.875 3.6042 20.0118 3.67563C20.1803 3.76367 20.2407 3.82405 20.3288 3.99259C20.4002 4.12932 20.4375 4.2813 20.4375 4.43556V5.42047C20.4375 6.62193 20.4389 6.64275 20.5284 6.81234C20.5784 6.90702 20.6941 7.0372 20.7857 7.10165C20.9312 7.20417 20.9854 7.21882 21.2188 7.21882C21.4521 7.21882 21.5063 7.20417 21.6518 7.10165C21.7434 7.0372 21.8591 6.90702 21.9091 6.81234C21.9989 6.64228 22 6.62459 22 5.36368C22 4.22029 21.992 4.05566 21.9229 3.78546C21.8191 3.38016 21.6389 3.05379 21.3495 2.7473C21.0817 2.46366 20.8011 2.27899 20.4079 2.12756C20.145 2.02636 20.1423 2.02617 18.7578 2.01308L17.57 2.00188C17.4395 2.00065 17.3107 2.03202 17.1953 2.09315ZM5.01535 4.62829C4.56023 4.67997 4.15535 4.8328 3.75781 5.10293C3.46934 5.299 2.16664 6.60635 2.07863 6.78817C1.84906 7.26229 2.17332 7.84262 2.69582 7.89281C3.04809 7.92667 3.12953 7.87355 3.91742 7.09657C4.78762 6.23842 4.91027 6.16324 5.39285 6.19206C5.58957 6.20382 5.74473 6.23749 5.84766 6.2908C5.93359 6.33533 7.1377 7.40212 8.52344 8.66147C9.90918 9.92086 11.1387 11.0154 11.2556 11.0939C12.285 11.7843 13.7621 11.633 14.654 10.7457C15.4715 9.93242 19.1468 6.0311 19.2199 5.89905C19.2932 5.76645 19.3079 5.6911 19.2955 5.50983C19.2573 4.95021 18.6596 4.60591 18.1771 4.86557C18.0691 4.92373 17.2604 5.74625 15.7866 7.29694C14.5616 8.58585 13.4945 9.68944 13.4152 9.74935C13.1079 9.98163 12.6365 10.0285 12.2642 9.86379C12.148 9.81243 11.3256 9.09079 9.71215 7.62459C6.69371 4.88163 6.9216 5.07844 6.5534 4.8967C6.07023 4.65817 5.5507 4.56752 5.01535 4.62829ZM4.28719 8.86519C3.16977 9.10466 2.29441 9.98905 2.06219 11.1133C2.0077 11.3771 2 11.9073 2 15.4015C2 18.8957 2.0077 19.4259 2.06219 19.6897C2.29711 20.8269 3.17551 21.7052 4.31289 21.9401C5.87098 22.2619 7.39582 21.2544 7.71906 19.6897C7.77355 19.4259 7.78125 18.8957 7.78125 15.4015C7.78125 11.0579 7.78391 11.1156 7.55871 10.5779C7.27402 9.89808 6.66012 9.28698 5.98727 9.01361C5.48148 8.80813 4.82219 8.75056 4.28719 8.86519ZM18.5059 9.45106C17.3885 9.69053 16.5132 10.5749 16.2809 11.6992C16.2266 11.962 16.2188 12.4681 16.2188 15.6944C16.2188 18.9207 16.2266 19.4268 16.2809 19.6897C16.5159 20.8269 17.3943 21.7052 18.5316 21.9401C20.0897 22.2619 21.6146 21.2544 21.9378 19.6897C21.9921 19.4268 22 18.9207 22 15.6944C22 12.4681 21.9921 11.962 21.9378 11.6992C21.6136 10.1298 20.0669 9.11657 18.5059 9.45106ZM11.3966 13.0835C10.2791 13.3229 9.40379 14.2073 9.17156 15.3316C9.07969 15.7762 9.07969 19.245 9.17156 19.6897C9.40648 20.8269 10.2849 21.7052 11.4223 21.9401C12.9804 22.2619 14.5052 21.2546 14.8284 19.6897C14.9203 19.245 14.9203 15.7762 14.8284 15.3316C14.6704 14.5665 14.2035 13.8889 13.5436 13.4669C12.9266 13.0722 12.1207 12.9283 11.3966 13.0835Z" fill="url(#paint0_linear)"/>
<defs>
<linearGradient id="paint0_linear" x1="3.7361" y1="-6.57978" x2="26.8372" y2="-1.90533" gradientUnits="userSpaceOnUse">
<stop stop-color="#DEFB9D"/>
<stop offset="0.37" stop-color="#71F79E"/>
<stop offset="0.7" stop-color="#38F9D7"/>
<stop offset="0.959424" stop-color="#89C4FE"/>
</linearGradient>
</defs>
</svg>
