<svg width="24" height="24" viewBox="0 0 24 24" fill="none" xmlns="http://www.w3.org/2000/svg">
<path fill-rule="evenodd" clip-rule="evenodd" d="M17.1953 2.09315C17.0986 2.1444 16.9668 2.26118 16.9023 2.35269C16.7998 2.49822 16.7852 2.55244 16.7852 2.78573C16.7852 3.01902 16.7998 3.07324 16.9023 3.21877C16.9668 3.31028 17.097 3.42605 17.1917 3.476C17.3613 3.56552 17.3821 3.56689 18.5837 3.56689H19.8036L20.0118 3.67563C20.1803 3.76367 20.2407 3.82405 20.3288 3.99259L20.4375 4.20073V5.42047C20.4375 6.62193 20.4389 6.64275 20.5284 6.81234C20.5784 6.90702 20.6941 7.0372 20.7857 7.10165C20.9312 7.20417 20.9854 7.21882 21.2188 7.21882C21.4521 7.21882 21.5063 7.20417 21.6518 7.10165C21.7434 7.0372 21.8591 6.90702 21.9091 6.81234C21.9989 6.64228 22 6.62459 22 5.36368C22 4.22029 21.992 4.05566 21.9229 3.78546C21.8191 3.38016 21.6389 3.05379 21.3495 2.7473C21.0817 2.46366 20.8011 2.27899 20.4079 2.12756C20.145 2.02636 20.1423 2.02617 18.7578 2.01308L17.3711 2L17.1953 2.09315ZM5.01535 4.62829C4.56023 4.67997 4.15535 4.8328 3.75781 5.10293C3.46934 5.299 2.16664 6.60635 2.07863 6.78817C1.84906 7.26229 2.17332 7.84262 2.69582 7.89281C3.04809 7.92667 3.12953 7.87355 3.91742 7.09657C4.78762 6.23842 4.91027 6.16324 5.39285 6.19206C5.58957 6.20382 5.74473 6.23749 5.84766 6.2908C5.93359 6.33533 7.1377 7.40212 8.52344 8.66147C9.90918 9.92086 11.1387 11.0154 11.2556 11.0939C12.285 11.7843 13.7621 11.633 14.654 10.7457C15.4715 9.93242 19.1468 6.0311 19.2199 5.89905C19.2932 5.76645 19.3079 5.6911 19.2955 5.50983C19.2573 4.95021 18.6596 4.60591 18.1771 4.86557C18.0691 4.92373 17.2604 5.74625 15.7866 7.29694C14.5616 8.58585 13.4945 9.68944 13.4152 9.74935C13.1079 9.98163 12.6365 10.0285 12.2642 9.86379C12.148 9.81243 11.3256 9.09079 9.71215 7.62459C6.69371 4.88163 6.9216 5.07844 6.5534 4.8967C6.07023 4.65817 5.5507 4.56752 5.01535 4.62829ZM4.28719 8.86519C3.16977 9.10466 2.29441 9.98905 2.06219 11.1133C2.0077 11.3771 2 11.9073 2 15.4015C2 18.8957 2.0077 19.4259 2.06219 19.6897C2.29711 20.8269 3.17551 21.7052 4.31289 21.9401C5.87098 22.2619 7.39582 21.2544 7.71906 19.6897C7.77355 19.4259 7.78125 18.8957 7.78125 15.4015C7.78125 11.0579 7.78391 11.1156 7.55871 10.5779C7.27402 9.89808 6.66012 9.28698 5.98727 9.01361C5.48148 8.80813 4.82219 8.75056 4.28719 8.86519ZM18.5059 9.45106C17.3885 9.69053 16.5132 10.5749 16.2809 11.6992C16.2266 11.962 16.2188 12.4681 16.2188 15.6944C16.2188 18.9207 16.2266 19.4268 16.2809 19.6897C16.5159 20.8269 17.3943 21.7052 18.5316 21.9401C20.0897 22.2619 21.6146 21.2544 21.9378 19.6897C21.9921 19.4268 22 18.9207 22 15.6944C22 12.4681 21.9921 11.962 21.9378 11.6992C21.6136 10.1298 20.0669 9.11657 18.5059 9.45106ZM5.41543 10.475C5.66281 10.5845 5.96418 10.8806 6.09125 11.1392L6.19922 11.359V15.4015V19.444L6.11258 19.6299C5.9907 19.8913 5.70098 20.1857 5.44242 20.3109C5.25602 20.4012 5.17227 20.4174 4.89062 20.4174C4.60898 20.4174 4.52523 20.4012 4.33883 20.3109C4.08016 20.1857 3.78711 19.8878 3.66715 19.6282L3.58203 19.444V15.4015V11.359L3.66645 11.1763C3.76523 10.9626 4.02102 10.6732 4.21961 10.5505C4.54164 10.3515 5.06191 10.3187 5.41543 10.475ZM19.6342 11.0609C19.8816 11.1703 20.1829 11.4665 20.31 11.7251L20.418 11.9448V15.6944V19.444L20.3313 19.6299C20.2095 19.8913 19.9197 20.1857 19.6612 20.3109C19.4748 20.4012 19.391 20.4174 19.1094 20.4174C18.8277 20.4174 18.744 20.4012 18.5576 20.3109C18.2989 20.1857 18.0059 19.8878 17.8859 19.6282L17.8008 19.444V15.6944V11.9448L17.8852 11.7622C17.984 11.5485 18.2398 11.2591 18.4384 11.1364C18.7604 10.9374 19.2807 10.9045 19.6342 11.0609ZM11.3966 13.0835C10.2791 13.3229 9.40379 14.2073 9.17156 15.3316C9.07969 15.7762 9.07969 19.245 9.17156 19.6897C9.40648 20.8269 10.2849 21.7052 11.4223 21.9401C12.9804 22.2619 14.5052 21.2546 14.8284 19.6897C14.9203 19.245 14.9203 15.7762 14.8284 15.3316C14.6704 14.5665 14.2035 13.8889 13.5436 13.4669C12.9266 13.0722 12.1207 12.9283 11.3966 13.0835ZM12.5248 14.6933C12.7722 14.8027 13.0736 15.0989 13.2006 15.3575L13.3086 15.5772V17.5106V19.444L13.2006 19.6637C13.0722 19.9251 12.7757 20.2148 12.5179 20.3308C12.2287 20.4611 11.7395 20.452 11.4482 20.3109C11.1895 20.1857 10.8965 19.8878 10.7765 19.6282C10.6927 19.4468 10.6914 19.4146 10.6914 17.5106C10.6914 15.6117 10.6929 15.574 10.7758 15.3946C10.8746 15.1809 11.1304 14.8915 11.329 14.7688C11.651 14.5698 12.1713 14.5369 12.5248 14.6933Z" fill="#BDBDBD"/>
</svg>
