<svg width="24" height="24" viewBox="0 0 24 24" fill="none" xmlns="http://www.w3.org/2000/svg">
<path d="M9.68454 9.72428V6.56905C9.68454 6.10881 9.31144 5.73571 8.85121 5.73571H6.5293C6.06906 5.73571 5.69597 6.10881 5.69597 6.56905V8.89095C5.69597 9.35119 6.06906 9.72428 6.5293 9.72428H9.68454ZM6.5293 4.06905H8.85121C10.2319 4.06905 11.3512 5.18833 11.3512 6.56905V10.5576C11.3512 11.0179 10.9781 11.391 10.5179 11.391H6.5293C5.14859 11.391 4.0293 10.2717 4.0293 8.89095V6.56905C4.0293 5.18833 5.14859 4.06905 6.5293 4.06905ZM14.3662 5.55762V9.72428H18.5328C18.9931 9.72428 19.3662 9.35119 19.3662 8.89095V5.55762C19.3662 5.09738 18.9931 4.72428 18.5328 4.72428H15.1995C14.7393 4.72428 14.3662 5.09738 14.3662 5.55762ZM18.5328 3.05762C19.9136 3.05762 21.0328 4.17691 21.0328 5.55762V8.89095C21.0328 10.2717 19.9136 11.391 18.5328 11.391H13.5328C13.0726 11.391 12.6995 11.0179 12.6995 10.5576V5.55762C12.6995 4.17691 13.8188 3.05762 15.1995 3.05762H18.5328ZM14.3662 14.2708V17.4305C14.3662 17.8908 14.7393 18.2639 15.1995 18.2639H17.5259C17.9861 18.2639 18.3592 17.8908 18.3592 17.4305V15.1042C18.3592 14.6439 17.9861 14.2708 17.5259 14.2708H14.3662ZM17.5259 19.9305H15.1995C13.8188 19.9305 12.6995 18.8112 12.6995 17.4305V13.4375C12.6995 12.9773 13.0726 12.6042 13.5328 12.6042H17.5259C18.9066 12.6042 20.0259 13.7235 20.0259 15.1042V17.4305C20.0259 18.8112 18.9066 19.9305 17.5259 19.9305ZM9.69938 14.2708H5.53271C5.07248 14.2708 4.69938 14.6439 4.69938 15.1042V18.4375C4.69938 18.8977 5.07248 19.2708 5.53271 19.2708H8.86605C9.32629 19.2708 9.69938 18.8977 9.69938 18.4375V14.2708ZM5.53271 20.9375C4.152 20.9375 3.03271 19.8182 3.03271 18.4375V15.1042C3.03271 13.7235 4.152 12.6042 5.53271 12.6042H10.5327C10.993 12.6042 11.366 12.9773 11.366 13.4375V18.4375C11.366 19.8182 10.2468 20.9375 8.86605 20.9375H5.53271Z" fill="#BDBDBD"/>
</svg>
