<svg width="24" height="24" viewBox="0 0 24 24" fill="none" xmlns="http://www.w3.org/2000/svg">
<path fill-rule="evenodd" clip-rule="evenodd" d="M11.492 2.02341C11.2175 2.0738 10.8238 2.17579 10.6326 2.24603C10.2748 2.37743 3.0875 6.10001 2.89317 6.25458C2.51153 6.55814 2.20754 7.01614 2.07442 7.48825C1.99219 7.77986 2.0027 8.48931 2.09325 8.75779C2.26313 9.26157 2.50684 9.6156 2.91004 9.94423C3.05887 10.0655 10.0745 13.7079 10.535 13.903C10.9992 14.0996 11.3593 14.1637 11.9998 14.1637C12.6481 14.1637 12.9936 14.101 13.4851 13.8941C13.9611 13.6938 20.9314 10.0746 21.0873 9.94681C21.4942 9.61337 21.7351 9.26384 21.9068 8.75779C22.0092 8.45618 22.0092 7.73126 21.9068 7.42966C21.7351 6.92361 21.4942 6.57407 21.0873 6.24064C20.9451 6.12415 14.0215 2.52142 13.5232 2.30462C13.1091 2.12446 12.6622 2.03384 12.117 2.01943C11.827 2.01173 11.5457 2.01353 11.492 2.02341ZM12.6639 3.66138C12.836 3.71306 15.8652 5.24493 17.5662 6.14056C17.7596 6.24236 18.3748 6.55939 18.9334 6.84501C19.492 7.13068 20.0214 7.41345 20.1098 7.47341C20.5302 7.75849 20.53 8.42911 20.1093 8.71435C20.0212 8.77411 19.492 9.05677 18.9334 9.34243C18.3748 9.62806 17.7596 9.94509 17.5662 10.0469C15.7952 10.9794 12.8318 12.4763 12.6443 12.5332C12.2959 12.6389 11.6329 12.6288 11.3019 12.5129C11.0241 12.4156 4.04301 8.83439 3.84903 8.6897C3.52746 8.44986 3.47977 7.90833 3.752 7.58837C3.82735 7.49978 4.79 6.98529 7.31231 5.68552C11.1631 3.70118 11.1797 3.69298 11.51 3.61739C11.802 3.5506 12.3664 3.57212 12.6639 3.66138ZM2.52715 12.045C2.09004 12.2056 1.88149 12.6969 2.07364 13.1133C2.11328 13.1992 2.18762 13.3071 2.23879 13.3531C2.34043 13.4445 10.2175 17.6758 10.535 17.8097C11.0016 18.0063 11.3599 18.07 11.9998 18.07C12.6504 18.07 12.9933 18.0074 13.4917 17.7976C13.8316 17.6545 21.6535 13.4511 21.7608 13.3538C21.9934 13.1431 22.0626 12.7403 21.9177 12.441C21.817 12.233 21.6473 12.0985 21.4034 12.0332C21.1623 11.9687 20.995 12.0134 20.535 12.265C18.2913 13.492 12.8755 16.3644 12.6901 16.4257C12.3322 16.544 11.6448 16.5402 11.2967 16.4179C11.157 16.3689 9.32891 15.4097 7.23418 14.2864C5.13946 13.1631 3.33157 12.1952 3.21668 12.1354C2.98547 12.0152 2.70739 11.9788 2.52715 12.045ZM2.52715 15.9513C2.09004 16.1118 1.88149 16.6032 2.07364 17.0195C2.11328 17.1054 2.18762 17.2133 2.23879 17.2592C2.34071 17.3506 10.2189 21.5828 10.535 21.716C11.0018 21.9126 11.36 21.9762 11.9998 21.9762C12.6494 21.9762 12.9934 21.9136 13.4889 21.705C13.8275 21.5625 21.6542 17.3569 21.7608 17.2602C21.9934 17.0492 22.0626 16.6465 21.9177 16.3472C21.817 16.1393 21.6473 16.0047 21.4034 15.9395C21.1623 15.875 20.995 15.9196 20.535 16.1712C18.2913 17.3983 12.8755 20.2707 12.6901 20.332C12.3322 20.4502 11.6448 20.4464 11.2967 20.3242C11.157 20.2751 9.32891 19.316 7.23418 18.1927C5.13946 17.0693 3.33157 16.1014 3.21668 16.0417C2.98547 15.9215 2.70739 15.885 2.52715 15.9513Z" fill="#BDBDBD"/>
</svg>
