<svg width="24" height="24" viewBox="0 0 24 24" fill="none" xmlns="http://www.w3.org/2000/svg">
<g clip-path="url(#clip0)">
<path d="M11.6874 7.26697L3.57787 14.4183C3.51775 14.4725 3.44094 14.4977 3.37488 14.5426V21.4056C3.37488 21.5631 3.43744 21.7141 3.54879 21.8255C3.66014 21.9368 3.81116 21.9994 3.96863 21.9994H8.71863C8.87611 21.9994 9.02713 21.9368 9.13848 21.8255C9.24983 21.7141 9.31238 21.5631 9.31238 21.4056V16.6556C9.31238 16.4982 9.37494 16.3471 9.48629 16.2358C9.59764 16.1244 9.74866 16.0619 9.90613 16.0619H13.4686C13.6261 16.0619 13.7771 16.1244 13.8885 16.2358C13.9998 16.3471 14.0624 16.4982 14.0624 16.6556V21.4056C14.0624 21.5631 14.1249 21.7141 14.2363 21.8255C14.3476 21.9368 14.4987 21.9994 14.6561 21.9994H19.4061C19.5636 21.9994 19.7146 21.9368 19.826 21.8255C19.9373 21.7141 19.9999 21.5631 19.9999 21.4056V14.5441C19.9368 14.5011 19.8618 14.4766 19.8047 14.4254L11.6874 7.26697ZM22.1778 11.7676L12.6801 3.38088C12.4082 3.1351 12.0548 2.99902 11.6883 2.99902C11.3218 2.99902 10.9684 3.1351 10.6966 3.38088L1.19656 11.7676C1.13853 11.8197 1.09133 11.8827 1.05767 11.9531C1.024 12.0234 1.00453 12.0997 1.00036 12.1776C0.996191 12.2555 1.00741 12.3334 1.03337 12.407C1.05933 12.4805 1.09952 12.5483 1.15166 12.6063L1.94617 13.4902C1.99828 13.5482 2.06131 13.5954 2.13167 13.6291C2.20202 13.6628 2.27832 13.6822 2.3562 13.6864C2.43409 13.6906 2.51203 13.6794 2.58557 13.6534C2.65912 13.6274 2.72683 13.5872 2.78484 13.5351L11.2948 6.02863C11.4032 5.93293 11.5429 5.88013 11.6876 5.88013C11.8322 5.88013 11.9719 5.93293 12.0804 6.02863L20.5903 13.5347C20.6483 13.5869 20.716 13.6271 20.7896 13.653C20.8631 13.679 20.9411 13.6902 21.0189 13.686C21.0968 13.6819 21.1731 13.6624 21.2435 13.6287C21.3138 13.5951 21.3769 13.5479 21.429 13.4898L22.2231 12.6059C22.3282 12.4887 22.3825 12.3346 22.374 12.1774C22.3656 12.0202 22.295 11.8728 22.1778 11.7676Z" fill="url(#paint0_linear)"/>
</g>
<defs>
<linearGradient id="paint0_linear" x1="2.855" y1="-5.15192" x2="27.2895" y2="0.410358" gradientUnits="userSpaceOnUse">
<stop stop-color="#DEFB9D"/>
<stop offset="0.37" stop-color="#71F79E"/>
<stop offset="0.7" stop-color="#38F9D7"/>
<stop offset="1" stop-color="#89C4FE"/>
</linearGradient>
<clipPath id="clip0">
<rect width="21.375" height="19" fill="white" transform="translate(1 3)"/>
</clipPath>
</defs>
</svg>
