<svg width="24" height="24" viewBox="0 0 24 24" fill="none" xmlns="http://www.w3.org/2000/svg">
<path fill-rule="evenodd" clip-rule="evenodd" d="M11.492 2.06078C11.3523 2.09082 11.1238 2.17293 10.9842 2.2432C10.5761 2.44859 2.20935 8.47156 2.11095 8.63074C1.99681 8.81547 1.97435 9.07144 2.05435 9.27578C2.13392 9.47887 2.21774 9.58184 2.40974 9.71211C2.58595 9.83168 2.90856 9.84949 3.10052 9.75023C3.16665 9.71601 5.11083 8.33316 7.42091 6.67719C9.76825 4.99453 11.6915 3.64211 11.7807 3.61137C11.9743 3.54465 12.2049 3.5725 12.3898 3.68496C12.5086 3.75723 13.5904 4.53074 19.2724 8.60656C20.1035 9.20269 20.8365 9.71785 20.9013 9.75141C21.0373 9.82172 21.3197 9.83125 21.4797 9.77098C21.7475 9.66996 21.9973 9.30594 21.9989 9.01422C22.0005 8.72644 21.8747 8.55101 21.4396 8.23473C18.7304 6.265 13.1755 2.31516 12.9924 2.2284C12.5363 2.01219 11.9975 1.95199 11.492 2.06078ZM11.492 5.96441C11.3523 5.9959 11.1234 6.07918 10.9832 6.14945C10.6181 6.33254 4.45017 10.7952 4.19454 11.0612C3.94368 11.3223 3.7006 11.7946 3.62083 12.1757C3.53599 12.5813 3.53567 19.739 3.62048 20.1394C3.78946 20.9369 4.38653 21.5968 5.2029 21.8883L5.45681 21.9789L8.01173 21.9911L10.5667 22.0031L10.7774 21.9C10.9184 21.831 11.023 21.7443 11.0936 21.6377L11.199 21.4784L11.2185 19.6786C11.2373 17.9493 11.2413 17.8727 11.3197 17.7226C11.3645 17.6366 11.4759 17.5136 11.5672 17.4491C11.7124 17.3466 11.7663 17.332 11.9998 17.332C12.2332 17.332 12.2872 17.3466 12.4324 17.4491C12.5236 17.5136 12.635 17.6366 12.6799 17.7226C12.7583 17.8727 12.7623 17.9493 12.781 19.6786L12.8006 21.4784L12.906 21.6377C12.9765 21.7443 13.0811 21.831 13.2222 21.9L13.4329 22.0031L15.9878 21.9911L18.5427 21.9789L18.7967 21.8883C19.613 21.5968 20.2101 20.9369 20.3791 20.1394C20.4639 19.739 20.4636 12.5813 20.3787 12.1757C20.2943 11.7724 20.0505 11.3078 19.7807 11.0361C19.569 10.8229 13.6587 6.52394 13.1717 6.22883C12.7185 5.95426 12.0226 5.84473 11.492 5.96441ZM12.3875 7.59047C12.7217 7.78754 18.6484 12.097 18.713 12.1899C18.7524 12.2465 18.805 12.3527 18.8297 12.4257C18.8924 12.6102 18.8935 19.6456 18.831 19.8709C18.7744 20.0747 18.512 20.3371 18.3083 20.3936C18.2038 20.4227 17.5222 20.4371 16.2478 20.4372L14.3435 20.4374V19.1351C14.3435 17.966 14.3356 17.8019 14.2664 17.531C14.1542 17.0925 13.9799 16.7903 13.6417 16.4486C13.1804 15.9823 12.6422 15.7518 12.0115 15.7505C11.6217 15.7497 11.3709 15.809 10.9842 15.9934C10.7209 16.1188 10.5911 16.2132 10.3578 16.4488C10.0197 16.7903 9.8454 17.0922 9.73317 17.531C9.66392 17.8019 9.65603 17.966 9.65603 19.1351V20.4374L7.75173 20.4372C6.47735 20.4371 5.79579 20.4227 5.6913 20.3936C5.48751 20.3371 5.22513 20.0747 5.16856 19.8709C5.10563 19.6443 5.10731 12.6337 5.17032 12.4234C5.19536 12.3398 5.27009 12.212 5.33634 12.1395C5.40259 12.0669 6.81911 11.0277 8.48415 9.83004C10.1492 8.63238 11.5333 7.63551 11.56 7.61473C11.7627 7.45648 12.1415 7.44539 12.3875 7.59047Z" fill="#BDBDBD"/>
</svg>
