<svg width="24" height="24" viewBox="0 0 24 24" fill="none" xmlns="http://www.w3.org/2000/svg">
<path fill-rule="evenodd" clip-rule="evenodd" d="M11.1793 2.01183C9.75422 2.14148 8.29162 2.58702 7.12869 3.2457C4.37194 4.80716 2.55282 7.44569 2.07579 10.5746C1.97474 11.2373 1.97474 12.7677 2.07579 13.4304C2.40696 15.6027 3.37291 17.5304 4.89793 19.0624C6.44569 20.6173 8.35404 21.5767 10.5922 21.9254C11.2797 22.0325 12.8136 22.0226 13.5274 21.9066C16.2008 21.4719 18.4849 20.0832 20.0814 17.9218C21.0596 16.5975 21.6624 15.1176 21.93 13.3837C22.0243 12.7722 22.0231 11.2077 21.9277 10.5942C21.7311 9.32872 21.3274 8.13054 20.7614 7.13198C19.2041 4.38469 16.5487 2.55166 13.4492 2.08428C13.053 2.02454 11.5625 1.97697 11.1793 2.01183ZM13.2731 3.33595C16.9385 3.89514 19.8586 6.66699 20.5897 10.2812C21.4586 14.5765 18.9493 18.9114 14.793 20.295C12.9343 20.9136 11.0472 20.9125 9.20416 20.2917C7.90774 19.8549 6.79482 19.163 5.81591 18.185C4.46086 16.8313 3.6244 15.1725 3.32607 13.2474C3.23144 12.6366 3.23144 11.3684 3.32607 10.7576C3.68792 8.42261 4.90596 6.37699 6.75623 4.99701C8.09023 4.00205 9.62726 3.42029 11.3358 3.26357C11.6798 3.23204 12.8877 3.27715 13.2731 3.33595ZM13.0187 8.28831C10.8522 9.15773 9.75496 9.61701 9.68365 9.68437C9.60327 9.76026 9.26094 10.5758 8.2798 13.0288C7.08869 16.0067 6.98389 16.2874 7.00224 16.4503C7.03586 16.7486 7.25314 16.9658 7.55164 16.9994C7.71456 17.0178 7.9952 16.9131 10.9719 15.7234C13.349 14.7734 14.2431 14.399 14.3209 14.3213C14.3986 14.2435 14.7731 13.3498 15.7235 10.9737C16.9137 7.99815 17.0184 7.71762 17 7.55476C16.9656 7.24887 16.7427 7.03281 16.4362 7.00793C16.2631 6.99392 15.9782 7.10069 13.0187 8.28831ZM15.1747 8.94131C14.5699 10.469 13.6714 12.6937 13.6504 12.7156C13.6354 12.7313 13.0876 12.2086 12.4332 11.5542C11.288 10.409 11.2469 10.3627 11.3385 10.3219C11.4292 10.2815 15.2199 8.76101 15.2391 8.75729C15.2442 8.75631 15.2152 8.83909 15.1747 8.94131ZM12.743 13.6566C12.7114 13.6816 8.77711 15.2477 8.76846 15.2387C8.76094 15.2308 10.2193 11.5659 10.3199 11.34C10.3607 11.2483 10.407 11.2894 11.5616 12.4436C12.2213 13.1029 12.7529 13.6488 12.743 13.6566Z" fill="#BDBDBD"/>
</svg>
