<svg width="24" height="24" viewBox="0 0 24 24" fill="none" xmlns="http://www.w3.org/2000/svg">
<g clip-path="url(#clip0_12044_22469)">
<path fill-rule="evenodd" clip-rule="evenodd" d="M9.31823 2C8.21487 2.00082 7.3219 2.89623 7.32272 3.99959C7.3219 5.10296 8.21568 5.99837 9.31904 5.99918H11.3154V4.00041C11.3162 2.89704 10.4224 2.00163 9.31823 2C9.31904 2 9.31904 2 9.31823 2V2ZM9.31823 7.33333H3.99633C2.89297 7.33415 1.99919 8.22956 2 9.33293C1.99837 10.4363 2.89215 11.3317 3.99551 11.3333H9.31823C10.4216 11.3325 11.3154 10.4371 11.3146 9.33374C11.3154 8.22956 10.4216 7.33415 9.31823 7.33333Z" fill="#BDBDBD"/>
<path fill-rule="evenodd" clip-rule="evenodd" d="M21.9602 9.33293C21.961 8.22956 21.0672 7.33415 19.9638 7.33333C18.8605 7.33415 17.9667 8.22956 17.9675 9.33293V11.3333H19.9638C21.0672 11.3325 21.961 10.4371 21.9602 9.33293ZM16.6374 9.33293V3.99959C16.6382 2.89704 15.7452 2.00163 14.6419 2C13.5385 2.00082 12.6447 2.89623 12.6455 3.99959V9.33293C12.6439 10.4363 13.5377 11.3317 14.641 11.3333C15.7444 11.3325 16.6382 10.4371 16.6374 9.33293Z" fill="#BDBDBD"/>
<path fill-rule="evenodd" clip-rule="evenodd" d="M14.6409 21.9982C15.7442 21.9974 16.638 21.102 16.6372 19.9986C16.638 18.8953 15.7442 17.9998 14.6409 17.999H12.6445V19.9986C12.6437 21.1012 13.5375 21.9966 14.6409 21.9982ZM14.6409 16.6641H19.9636C21.067 16.6632 21.9607 15.7678 21.9599 14.6645C21.9616 13.5611 21.0678 12.6657 19.9644 12.6641H14.6417C13.5383 12.6649 12.6445 13.5603 12.6453 14.6637C12.6445 15.7678 13.5375 16.6632 14.6409 16.6641Z" fill="#BDBDBD"/>
<path fill-rule="evenodd" clip-rule="evenodd" d="M2 14.6637C1.99919 15.7671 2.89297 16.6625 3.99634 16.6633C5.09971 16.6625 5.9935 15.7671 5.99268 14.6637V12.6641H3.99634C2.89297 12.6649 1.99919 13.5603 2 14.6637ZM7.32276 14.6637V19.9971C7.32113 21.1004 8.21491 21.9959 9.31828 21.9975C10.4217 21.9967 11.3154 21.1013 11.3146 19.9979V14.6653C11.3163 13.5619 10.4225 12.6665 9.3191 12.6649C8.21491 12.6649 7.32194 13.5603 7.32276 14.6637C7.32276 14.6637 7.32276 14.6645 7.32276 14.6637Z" fill="#BDBDBD"/>
</g>
<defs>
<clipPath id="clip0_12044_22469">
<rect width="19.96" height="20" fill="white" transform="translate(2 2)"/>
</clipPath>
</defs>
</svg>
