<?xml version="1.0" encoding="utf-8"?>
<!-- Generator: Adobe Illustrator 25.3.0, SVG Export Plug-In . SVG Version: 6.00 Build 0)  -->
<svg version="1.1" id="Layer_1" xmlns="http://www.w3.org/2000/svg" xmlns:xlink="http://www.w3.org/1999/xlink" x="0px" y="0px"
	 viewBox="0 0 286 300" style="enable-background:new 0 0 286 300;" xml:space="preserve">
<style type="text/css">
	.st0{fill:url(#SVGID_1_);}
	.st1{opacity:0.7;}
	.st2{opacity:0.64;clip-path:url(#SVGID_3_);}
	.st3{opacity:0.4;}
	
		.st4{fill:none;stroke:#FDF2E2;stroke-width:2.5484;stroke-linecap:round;stroke-linejoin:round;stroke-miterlimit:10;stroke-dasharray:1,1;}
	
		.st5{fill:none;stroke:#FDF2E2;stroke-width:2.4839;stroke-linecap:round;stroke-linejoin:round;stroke-miterlimit:10;stroke-dasharray:1,1;}
	
		.st6{fill:none;stroke:#FDF2E2;stroke-width:2.4194;stroke-linecap:round;stroke-linejoin:round;stroke-miterlimit:10;stroke-dasharray:1,1;}
	
		.st7{fill:none;stroke:#FDF2E2;stroke-width:2.3548;stroke-linecap:round;stroke-linejoin:round;stroke-miterlimit:10;stroke-dasharray:1,1;}
	
		.st8{fill:none;stroke:#FDF2E2;stroke-width:2.2903;stroke-linecap:round;stroke-linejoin:round;stroke-miterlimit:10;stroke-dasharray:1,1;}
	
		.st9{fill:none;stroke:#FDF2E2;stroke-width:2.2258;stroke-linecap:round;stroke-linejoin:round;stroke-miterlimit:10;stroke-dasharray:1,1;}
	
		.st10{fill:none;stroke:#FDF2E2;stroke-width:2.1613;stroke-linecap:round;stroke-linejoin:round;stroke-miterlimit:10;stroke-dasharray:1,1;}
	
		.st11{fill:none;stroke:#FDF2E2;stroke-width:2.0968;stroke-linecap:round;stroke-linejoin:round;stroke-miterlimit:10;stroke-dasharray:1,1;}
	
		.st12{fill:none;stroke:#FDF2E2;stroke-width:2.0323;stroke-linecap:round;stroke-linejoin:round;stroke-miterlimit:10;stroke-dasharray:1,1;}
	
		.st13{fill:none;stroke:#FDF2E2;stroke-width:1.9677;stroke-linecap:round;stroke-linejoin:round;stroke-miterlimit:10;stroke-dasharray:1,1;}
	
		.st14{fill:none;stroke:#FDF2E2;stroke-width:1.9032;stroke-linecap:round;stroke-linejoin:round;stroke-miterlimit:10;stroke-dasharray:1,1;}
	
		.st15{fill:none;stroke:#FDF2E2;stroke-width:1.8387;stroke-linecap:round;stroke-linejoin:round;stroke-miterlimit:10;stroke-dasharray:1,1;}
	
		.st16{fill:none;stroke:#FDF2E2;stroke-width:1.7742;stroke-linecap:round;stroke-linejoin:round;stroke-miterlimit:10;stroke-dasharray:1,1;}
	
		.st17{fill:none;stroke:#FDF2E2;stroke-width:1.7097;stroke-linecap:round;stroke-linejoin:round;stroke-miterlimit:10;stroke-dasharray:1,1;}
	
		.st18{fill:none;stroke:#FDF2E2;stroke-width:1.6452;stroke-linecap:round;stroke-linejoin:round;stroke-miterlimit:10;stroke-dasharray:1,1;}
	
		.st19{fill:none;stroke:#FDF2E2;stroke-width:1.5806;stroke-linecap:round;stroke-linejoin:round;stroke-miterlimit:10;stroke-dasharray:1,1;}
	
		.st20{fill:none;stroke:#FDF2E2;stroke-width:1.5161;stroke-linecap:round;stroke-linejoin:round;stroke-miterlimit:10;stroke-dasharray:1,1;}
	
		.st21{fill:none;stroke:#FDF2E2;stroke-width:1.4516;stroke-linecap:round;stroke-linejoin:round;stroke-miterlimit:10;stroke-dasharray:1,1;}
	
		.st22{fill:none;stroke:#FDF2E2;stroke-width:1.3871;stroke-linecap:round;stroke-linejoin:round;stroke-miterlimit:10;stroke-dasharray:1,1;}
	
		.st23{fill:none;stroke:#FDF2E2;stroke-width:1.3226;stroke-linecap:round;stroke-linejoin:round;stroke-miterlimit:10;stroke-dasharray:1,1;}
	
		.st24{fill:none;stroke:#FDF2E2;stroke-width:1.2581;stroke-linecap:round;stroke-linejoin:round;stroke-miterlimit:10;stroke-dasharray:1,1;}
	
		.st25{fill:none;stroke:#FDF2E2;stroke-width:1.1935;stroke-linecap:round;stroke-linejoin:round;stroke-miterlimit:10;stroke-dasharray:1,1;}
	
		.st26{fill:none;stroke:#FDF2E2;stroke-width:1.129;stroke-linecap:round;stroke-linejoin:round;stroke-miterlimit:10;stroke-dasharray:1,1;}
	
		.st27{fill:none;stroke:#FDF2E2;stroke-width:1.0645;stroke-linecap:round;stroke-linejoin:round;stroke-miterlimit:10;stroke-dasharray:1,1;}
	.st28{fill:none;stroke:#FDF2E2;stroke-linecap:round;stroke-linejoin:round;stroke-miterlimit:10;stroke-dasharray:1,1;}
</style>
<linearGradient id="SVGID_1_" gradientUnits="userSpaceOnUse" x1="230.4883" y1="319.1441" x2="45.2749" y2="-38.9353">
	<stop  offset="0" style="stop-color:#222222"/>
	<stop  offset="1" style="stop-color:#222222;stop-opacity:0.83"/>
</linearGradient>
<path class="st0" d="M20,0h246c11,0,20,9,20,20v260c0,11-9,20-20,20H20c-11,0-20-9-20-20V20C0,9,9,0,20,0z"/>
<g class="st1">
	<defs>
		<path id="SVGID_2_" class="st1" d="M20,0h246c11,0,20,9,20,20v260c0,11-9,20-20,20H20c-11,0-20-9-20-20V20C0,9,9,0,20,0z"/>
	</defs>
	<clipPath id="SVGID_3_">
		<use xlink:href="#SVGID_2_"  style="overflow:visible;"/>
	</clipPath>
	<g class="st2">
		<g class="st3">
			<path class="st4" d="M498.7,284c-223.8,105.7-250.4-89.2-485.9,6.5"/>
			<path class="st5" d="M499.3,278.9C270,390.3,241.2,189.4,12.2,281.2"/>
			<path class="st6" d="M500,273.9c-235,116.9-265.8-89.8-488.3-2"/>
			<path class="st7" d="M500.6,268.7c-240.5,122.5-273.5-90.1-489.5-6.3"/>
			<path class="st8" d="M501.3,263.6C255.2,391.7,220,173.3,10.7,253.1"/>
			<path class="st9" d="M502,258.6C250.3,392.3,213,168,10.1,243.8"/>
			<path class="st10" d="M502.6,253.5c-257.3,139.2-296.7-90.9-493-19"/>
			<path class="st11" d="M503.3,248.3C240.4,393.2,198.8,157.2,9,225.1"/>
			<path class="st12" d="M503.9,243.3C235.4,393.6,191.8,151.8,8.5,215.7"/>
			<path class="st13" d="M504.5,238.2C230.4,394.1,184.7,146.5,8,206.4"/>
			<path class="st14" d="M505.2,233.1C225.5,394.6,177.7,141,7.5,197"/>
			<path class="st15" d="M505.8,228C220.6,395,170.6,135.7,6.9,187.6"/>
			<path class="st16" d="M506.5,222.9C215.7,395.6,163.6,130.3,6.4,178.3"/>
			<path class="st17" d="M507.2,217.8C210.7,396.1,156.5,125,5.8,168.9"/>
			<path class="st18" d="M507.8,212.7C205.7,396.5,149.4,119.5,5.3,159.6"/>
			<path class="st19" d="M508.5,207.6C200.8,397,142.4,114.2,4.8,150.2"/>
			<path class="st20" d="M509.1,202.5c-313.3,195-373.8-93.7-504.9-61.6"/>
			<path class="st21" d="M509.8,197.4C190.9,398,128.2,103.5,3.7,131.5"/>
			<path class="st22" d="M510.4,192.3C186,398.5,121.2,98,3.2,122.1"/>
			<path class="st23" d="M511,187.3C181,399,114,92.7,2.6,112.8"/>
			<path class="st24" d="M511.7,182.1C176.1,399.4,107,87.3,2.1,103.4"/>
			<path class="st25" d="M512.4,177C171.2,399.9,100,81.9,1.6,94"/>
			<path class="st26" d="M513,172C166.3,400.4,92.9,76.6,1.1,84.7"/>
			<path class="st27" d="M513.7,166.9C161.3,400.9,85.9,71.2,0.5,75.3"/>
			<path class="st28" d="M514.4,161.8C156.4,401.4,78.8,65.8,0,66"/>
		</g>
	</g>
	<use xlink:href="#SVGID_2_"  style="overflow:visible;fill:none;stroke:#FDF2E2;stroke-miterlimit:10;"/>
</g>
</svg>
