<svg width="56" height="56" viewBox="0 0 56 56" fill="none" xmlns="http://www.w3.org/2000/svg">
<circle cx="28" cy="28" r="28" fill="#222222"/>
<path d="M25.2214 25.2695V21.4832C25.2214 20.931 24.7737 20.4832 24.2214 20.4832H21.4352C20.8829 20.4832 20.4352 20.931 20.4352 21.4832V24.2695C20.4352 24.8218 20.8829 25.2695 21.4352 25.2695H25.2214ZM21.4352 18.4832H24.2214C25.8783 18.4832 27.2214 19.8264 27.2214 21.4832V26.2695C27.2214 26.8218 26.7737 27.2695 26.2214 27.2695H21.4352C19.7783 27.2695 18.4352 25.9264 18.4352 24.2695V21.4832C18.4352 19.8264 19.7783 18.4832 21.4352 18.4832ZM30.8394 20.2695V25.2695H35.8394C36.3917 25.2695 36.8394 24.8218 36.8394 24.2695V20.2695C36.8394 19.7172 36.3917 19.2695 35.8394 19.2695H31.8394C31.2871 19.2695 30.8394 19.7172 30.8394 20.2695ZM35.8394 17.2695C37.4963 17.2695 38.8394 18.6127 38.8394 20.2695V24.2695C38.8394 25.9264 37.4963 27.2695 35.8394 27.2695H29.8394C29.2871 27.2695 28.8394 26.8218 28.8394 26.2695V20.2695C28.8394 18.6127 30.1826 17.2695 31.8394 17.2695H35.8394ZM30.8394 30.7254V34.517C30.8394 35.0693 31.2871 35.517 31.8394 35.517H34.6311C35.1833 35.517 35.6311 35.0693 35.6311 34.517V31.7254C35.6311 31.1731 35.1833 30.7254 34.6311 30.7254H30.8394ZM34.6311 37.517H31.8394C30.1826 37.517 28.8394 36.1739 28.8394 34.517V29.7254C28.8394 29.1731 29.2871 28.7254 29.8394 28.7254H34.6311C36.2879 28.7254 37.6311 30.0685 37.6311 31.7254V34.517C37.6311 36.1739 36.2879 37.517 34.6311 37.517ZM25.2393 30.7254H20.2393C19.687 30.7254 19.2393 31.1731 19.2393 31.7254V35.7254C19.2393 36.2777 19.687 36.7254 20.2393 36.7254H24.2393C24.7915 36.7254 25.2393 36.2777 25.2393 35.7254V30.7254ZM20.2393 38.7254C18.5824 38.7254 17.2393 37.3822 17.2393 35.7254V31.7254C17.2393 30.0685 18.5824 28.7254 20.2393 28.7254H26.2393C26.7915 28.7254 27.2393 29.1731 27.2393 29.7254V35.7254C27.2393 37.3822 25.8961 38.7254 24.2393 38.7254H20.2393Z" fill="white"/>
</svg>
